<svg width="515" height="328" viewBox="0 0 515 328" fill="none" xmlns="http://www.w3.org/2000/svg">
<path fill-rule="evenodd" clip-rule="evenodd" d="M514.948 296.257C514.948 290.779 399.673 286.339 257.474 286.339C115.275 286.339 0 290.779 0 296.257C0 301.736 115.275 306.176 257.474 306.176C399.673 306.176 514.948 301.736 514.948 296.257Z" fill="#BCE4F0"/>
<path fill-rule="evenodd" clip-rule="evenodd" d="M79.2018 202.866L79.4348 258.168L81.6498 258.119L82.7858 213.521C82.9238 208.106 83.0688 202.634 84.4458 197.395C85.4508 193.572 87.0988 189.924 87.8408 186.041C88.7178 181.446 88.3258 176.533 90.2698 172.278C92.9668 166.381 99.7128 162.771 101.376 156.504C103.257 149.414 97.8168 141.884 99.7558 134.809C100.773 131.095 103.647 128.236 105.794 125.038C111.131 117.089 111.879 106.275 107.687 97.6667C94.1898 114.238 80.1658 131.986 77.3488 153.172C75.1618 169.636 80.0728 186.28 79.2018 202.866Z" fill="#386795"/>
<path fill-rule="evenodd" clip-rule="evenodd" d="M47.9108 143.115C48.1178 146.254 46.6698 149.609 48.0548 152.432C49.2528 154.876 52.1598 155.975 53.8148 158.136C57.3208 162.707 53.9598 169.675 56.3088 174.934C58.1488 179.052 62.8518 180.895 67.0458 182.552L67.1718 182.601C72.8998 184.886 76.6558 190.44 76.7928 196.606L78.1518 258.196L79.4348 258.168L82.0398 201.575C82.5188 191.18 80.9728 180.791 77.4878 170.984L51.1948 94.8777C51.1948 94.8777 44.0998 106.202 42.1008 112.532C40.1008 118.863 39.8098 126 42.7448 131.954C44.5738 135.666 47.6388 138.986 47.9108 143.115Z" fill="#4C7BB1"/>
<path fill-rule="evenodd" clip-rule="evenodd" d="M87.2771 260.777L86.8381 203.313C87.2941 195.514 91.0631 192.005 94.6001 190.028C98.1361 188.051 102.233 186.579 104.522 183.236C107.163 179.379 106.797 173.796 110.152 170.542C111.976 168.772 114.73 167.905 115.912 165.656C117.527 162.582 115.317 158.8 115.965 155.389C116.714 151.449 120.834 149.304 123.8 146.605C131.199 139.871 133.816 128.03 132.026 118.658C132.045 119.527 116.821 134.418 109.142 142.282C93.8521 157.941 83.4661 178.14 83.9781 201.308L84.5191 261.825L87.2771 260.777Z" fill="#4C7BB1"/>
<path fill-rule="evenodd" clip-rule="evenodd" d="M49.0641 200.464C57.3761 203.453 63.4301 210.721 64.1101 219.527C64.1571 220.142 64.1971 220.777 64.2291 221.435L66.9311 258.443L69.3791 258.39C68.8641 244.312 67.9821 230.247 66.7351 216.215C66.0761 208.797 65.2931 201.292 62.6901 194.315C59.8761 186.77 55.0601 180.174 50.7101 173.396C44.8761 164.302 31.5711 140.231 31.5711 140.231C31.5711 140.231 26.8181 150.855 27.0731 158.212C27.2261 162.652 27.7001 167.325 30.5121 170.766C32.0191 172.61 34.0581 174.107 34.9391 176.319C35.7171 178.275 35.4591 180.464 35.5251 182.568C35.7781 190.541 41.6401 197.793 49.0641 200.464Z" fill="#4C7BB1"/>
<path fill-rule="evenodd" clip-rule="evenodd" d="M90.8375 257.916L92.6695 257.875C92.6695 257.875 91.5215 237.04 95.7795 230.483C98.2395 226.695 101.509 223.524 104.584 220.217C108.315 216.204 111.691 211.877 115.061 207.557C119.233 202.21 123.438 196.809 126.356 190.687C129.804 183.453 131.347 175.321 130.788 167.327C113.945 176.637 99.1425 191.097 93.3995 209.464C88.5415 224.997 90.5195 241.522 90.8375 257.916Z" fill="#4C7BB1"/>
<path fill-rule="evenodd" clip-rule="evenodd" d="M51.1208 244.417H111.027L99.5839 293.197H62.5628L51.1208 244.417Z" fill="#5B9274"/>
<path fill-rule="evenodd" clip-rule="evenodd" d="M107.541 254.29C108.093 254.29 108.541 254.737 108.541 255.29C108.541 255.802 108.155 256.225 107.657 256.283L107.541 256.29H54.4177C53.8654 256.29 53.4177 255.842 53.4177 255.29C53.4177 254.777 53.8038 254.354 54.3011 254.296L54.4177 254.29H107.541Z" fill="#437858"/>
<path fill-rule="evenodd" clip-rule="evenodd" d="M132.259 267.656L141.61 296.258H150.96V267.656" fill="#BC7488"/>
<path fill-rule="evenodd" clip-rule="evenodd" d="M343.657 267.656L339.806 296.258H330.885L325.789 267.656H343.657Z" fill="#BC7488"/>
<path fill-rule="evenodd" clip-rule="evenodd" d="M447.012 267.656L435.435 296.258H426.084V267.656H447.012Z" fill="#BC7488"/>
<path fill-rule="evenodd" clip-rule="evenodd" d="M473.19 240.656C470.833 248.165 468.445 255.743 464.507 262.557C460.57 269.371 456.736 278.448 448.866 278.448H130.471C120.881 257.822 111.108 234.18 111.336 211.434C111.565 188.689 124.948 164.361 147.122 159.287C159.049 156.556 171.699 159.633 183.678 157.136C196.083 154.551 206.575 146.205 214.891 136.645C223.208 127.085 229.801 116.161 237.682 106.239C263.762 73.4077 303.991 52.7027 345.72 48.6117C374.389 45.8017 401.849 42.6727 429.607 50.3747C457.365 58.0767 483.634 77.2457 491.997 104.812C495.489 116.325 495.704 128.568 495.172 140.588C493.607 176.017 483.814 206.82 473.19 240.656Z" fill="#F6C561"/>
<path fill-rule="evenodd" clip-rule="evenodd" d="M268.141 174.128C268.969 174.134 269.636 174.81 269.63 175.639C269.624 176.467 268.948 177.134 268.12 177.128C242.98 176.949 217.825 178.899 193.014 182.951L191.521 183.2C175.79 185.87 166.288 189.17 158.617 195.838C148.585 204.557 143.505 219.096 144.089 234.763L144.126 235.635C144.667 247.351 147.294 257.071 154.309 277.239C154.581 278.022 154.168 278.877 153.385 279.149C152.603 279.421 151.748 279.007 151.476 278.225L150.466 275.306C144.025 256.568 141.595 247.031 141.109 235.321L141.091 234.875C140.476 218.366 145.863 202.948 156.649 193.574C165.099 186.23 175.389 182.791 192.53 179.991C216.794 176.028 241.385 174.061 265.972 174.118L268.141 174.128Z" fill="#F0A95C"/>
<path fill-rule="evenodd" clip-rule="evenodd" d="M182.875 207.41C183.185 206.642 184.059 206.27 184.827 206.58C194.807 210.602 205.769 213.693 217.556 215.929C244.433 221.028 273.082 221.414 299.577 219.01L301.086 218.869C303.807 218.609 306.276 218.336 308.466 218.063L309.565 217.922L311.636 217.635C312.455 217.51 313.221 218.072 313.346 218.891C313.472 219.709 312.91 220.475 312.091 220.601L311.246 220.723C310.757 220.791 310.206 220.865 309.597 220.943L308.837 221.04C306.217 221.366 303.206 221.693 299.848 221.998C273.099 224.425 244.189 224.035 216.996 218.877C205.027 216.606 193.878 213.462 183.706 209.362C182.937 209.053 182.566 208.179 182.875 207.41Z" fill="#F0A95C"/>
<path fill-rule="evenodd" clip-rule="evenodd" d="M177.069 222.098C177.331 221.312 178.181 220.888 178.967 221.15C184.49 222.991 192.356 224.526 201.938 225.769C208.449 226.614 215.395 227.281 222.375 227.789L224.121 227.912C225.886 228.034 227.568 228.14 229.146 228.23L231.813 228.375L234.199 228.485C235.027 228.517 235.672 229.214 235.64 230.041C235.608 230.869 234.911 231.514 234.083 231.483L232.719 231.422L231.28 231.351C229.057 231.237 226.581 231.089 223.914 230.905C216.293 230.38 208.672 229.669 201.552 228.745L199.896 228.525C190.884 227.298 183.435 225.802 178.018 223.996C177.232 223.734 176.807 222.884 177.069 222.098Z" fill="#F0A95C"/>
<path fill-rule="evenodd" clip-rule="evenodd" d="M157.132 165.058L170.723 136.039L157.751 126.718L148.975 158.978L157.132 165.058Z" fill="#F7C7B5"/>
<path fill-rule="evenodd" clip-rule="evenodd" d="M157.132 165.058L148.975 158.978C145.497 157.885 125.686 149.693 123.45 152.724C121.215 155.755 135.869 166.958 151.409 169.467C154.427 169.954 156.002 167.576 157.132 165.058Z" fill="#353D59"/>
<path fill-rule="evenodd" clip-rule="evenodd" d="M204.292 156.599L215.773 130.831L204.838 122.566L197.414 151.207L204.292 156.599Z" fill="#F7C7B5"/>
<path fill-rule="evenodd" clip-rule="evenodd" d="M204.292 156.599L197.414 151.207C194.481 150.24 177.774 142.98 175.887 145.672C173.999 148.364 186.355 158.299 199.462 160.517C202.007 160.948 203.336 158.834 204.292 156.599Z" fill="#353D59"/>
<path fill-rule="evenodd" clip-rule="evenodd" d="M233.151 19.3667C231.036 15.3187 228.62 11.2447 224.908 8.5857C218.365 3.89871 209.039 4.7587 202.068 8.7817C195.097 12.8047 190.054 19.4377 185.652 26.1767C162.102 62.2197 144.97 147.953 144.97 147.953C149.783 155.318 157.169 159.366 167.614 159.473L196.548 73.2977C199.929 103.264 203.455 133.245 209.05 162.878C210.34 169.709 211.792 176.656 215.269 182.676C218.748 188.695 225.411 192.929 232.329 193.617C241.08 177.134 250.626 159.879 259.378 143.394C256.909 105.663 250.664 52.8797 233.151 19.3667Z" fill="#3B4772"/>
<path fill-rule="evenodd" clip-rule="evenodd" d="M212.816 174.404C221.385 169.714 232.744 169.452 241.571 173.74C242.067 173.982 242.274 174.58 242.033 175.077C241.792 175.574 241.193 175.781 240.697 175.539C232.452 171.534 221.776 171.78 213.777 176.158C213.292 176.423 212.685 176.245 212.419 175.761C212.154 175.276 212.332 174.669 212.816 174.404Z" fill="#323863"/>
<path fill-rule="evenodd" clip-rule="evenodd" d="M298.64 24.8013C297.013 19.5923 284.801 -7.76673 262.649 2.14527C257.19 4.58727 253.329 9.65228 249.83 14.5023C243.932 22.6803 209.721 88.3653 192.163 137.985C195.315 146.157 202.671 152.039 211.345 153.266L259.888 60.6363C263.269 77.7033 265.594 94.8023 268.975 111.869L313.663 100.47C311.365 74.8093 306.319 49.3953 298.64 24.8013Z" fill="#3B4772"/>
<path fill-rule="evenodd" clip-rule="evenodd" d="M232.329 193.617C232.329 193.617 294.931 221.841 350.347 213.499L429.598 175.281C429.598 175.281 381.879 152.573 307.122 127.62C307.122 127.62 245.402 121.895 232.329 193.617Z" fill="#ED8E93"/>
<path fill-rule="evenodd" clip-rule="evenodd" d="M254.61 145.57C256.38 147.622 278.18 156.9 296.908 165.071C300.199 166.507 303.891 166.734 307.335 165.717L369.116 145.57L328.383 127.298L254.61 145.57Z" fill="#81BFD5"/>
<path fill-rule="evenodd" clip-rule="evenodd" d="M195.272 46.8517C195.785 46.8339 196.221 47.205 196.296 47.7001L196.306 47.8164L197.161 72.4434C197.18 72.9953 196.749 73.4583 196.197 73.4775C195.684 73.4953 195.248 73.1241 195.173 72.6291L195.162 72.5128L194.307 47.8858C194.288 47.3338 194.72 46.8709 195.272 46.8517Z" fill="#323863"/>
<path fill-rule="evenodd" clip-rule="evenodd" d="M257.318 41.6816C257.863 41.5954 258.376 41.9677 258.462 42.5132L261.348 60.7702C261.434 61.3157 261.062 61.8278 260.516 61.9141C259.971 62.0003 259.459 61.628 259.372 61.0825L256.486 42.8255C256.4 42.28 256.772 41.7678 257.318 41.6816Z" fill="#323863"/>
<path fill-rule="evenodd" clip-rule="evenodd" d="M328.384 127.297C328.28 113.257 327.656 87.2443 327.408 77.2713C327.354 75.0893 325.461 73.4223 323.29 73.6473C309.885 75.0323 266.657 79.5783 251.32 82.1523C249.366 82.4803 248.016 84.2743 248.228 86.2433L254.611 145.569C254.611 145.569 305.458 134.049 328.384 127.297Z" fill="#BCE4F0"/>
<path fill-rule="evenodd" clip-rule="evenodd" d="M359.135 132.83C341.21 128.488 325.468 139.888 325.468 141.14C325.468 142.392 336.542 138.193 336.542 138.193C336.542 138.193 325.349 145.519 326.866 146.836C328.384 148.152 338.822 140.895 338.822 140.895C338.822 140.895 331.73 148.62 333.227 149.28C334.723 149.939 343.221 142.226 343.221 142.226C343.221 142.226 343.991 149.344 345.978 149.344C347.963 149.344 347.765 143.271 347.765 143.271C355.061 142.412 366.086 152.652 366.436 159.871L386.123 154.603C381.114 143.724 370.776 135.65 359.135 132.83Z" fill="#F7C7B5"/>
<path fill-rule="evenodd" clip-rule="evenodd" d="M253.357 88.2026L321.786 78.8206L323.334 123.722L258.917 139.214L253.357 88.2026Z" fill="#353D59"/>
<path fill-rule="evenodd" clip-rule="evenodd" d="M239.163 32.745C239.686 32.5674 240.253 32.8474 240.431 33.3704C244.803 46.2454 249.026 61.3053 251.981 74.5634C252.101 75.1024 251.762 75.6368 251.223 75.757C250.684 75.8771 250.149 75.5375 250.029 74.9985C247.09 61.8108 242.886 46.8203 238.537 34.0135C238.36 33.4905 238.64 32.9226 239.163 32.745Z" fill="#323863"/>
<path fill-rule="evenodd" clip-rule="evenodd" d="M202.047 114.586C202.593 114.505 203.101 114.883 203.182 115.429L208.594 152.167C208.674 152.713 208.296 153.222 207.75 153.302C207.204 153.383 206.695 153.005 206.615 152.459L201.203 115.721C201.122 115.174 201.5 114.666 202.047 114.586Z" fill="#323863"/>
<path fill-rule="evenodd" clip-rule="evenodd" d="M308.778 177.678C306.694 178.69 304.62 179.719 302.551 180.753C293.243 185.409 284.088 190.568 274.136 193.616C275.157 186.419 275.384 184.688 277.611 177.768C279.839 170.848 285.429 162.926 290.759 157.984C290.759 157.984 303.362 158.282 303.979 156.808C304.595 155.334 294.208 154.083 294.236 153.266C294.261 152.5 306.153 150.634 305.632 149.533C305.113 148.433 294.434 148.648 294.434 148.648C294.434 148.648 305.123 146.738 304.762 145.966C304.402 145.196 291.712 145.152 291.712 145.152C291.712 145.152 301.424 143.334 301.262 142.391C301.101 141.448 290.069 140.853 284.869 143.282C274.821 147.978 266.345 155.736 260.099 164.901C253.853 174.066 249.775 184.604 247.414 195.44C245.843 202.65 245.362 211.148 250.523 216.422C255.799 221.812 264.447 221.366 271.943 220.538C278.101 219.858 295.321 218.037 313.002 216.17C308.705 203.861 305.283 189.962 308.778 177.678Z" fill="#F7C7B5"/>
<path fill-rule="evenodd" clip-rule="evenodd" d="M401.804 143.869C397.201 150.657 381.717 144.806 382.158 136.897C382.427 132.087 391.675 109.725 393.448 107.399C395.221 105.073 394.928 103.633 397.848 103.808L416.496 109.869C418.06 116.541 420.141 123.374 420.283 132.961L419.411 157.842L391.131 159.417L398.321 145.521" fill="#F7C7B5"/>
<path fill-rule="evenodd" clip-rule="evenodd" d="M422.353 108.757C422.277 96.2384 405.045 96.5774 405.045 96.5774C399.716 82.7384 380.453 94.1424 391.564 106.688C394.788 110.327 400.941 108.801 405.641 107.557C405.692 107.543 402.783 112.207 403.878 122.028C404.497 127.568 395.764 135.187 395.764 135.187C395.764 135.187 389.511 124.874 385.669 125.292C377.463 126.183 375.167 140.355 378.643 145.958C382.308 151.868 390.977 153.96 396.934 150.372C405.303 145.33 406.348 131.278 407.541 121.3L407.999 136.947L420.655 135.232C420.655 135.232 422.408 117.669 422.353 108.757Z" fill="#4C7BB1"/>
<path fill-rule="evenodd" clip-rule="evenodd" d="M412.513 122.996C411.349 121.642 409.379 121.162 407.675 121.577C406.901 124.973 406.348 131.278 406.348 131.278C408.641 132.237 410.108 132.289 411.929 130.58C413.967 128.668 414.329 125.111 412.513 122.996Z" fill="#F7C7B5"/>
<path fill-rule="evenodd" clip-rule="evenodd" d="M391.873 117.45C391.964 116.709 392.639 116.182 393.38 116.273C394.121 116.365 394.648 117.04 394.557 117.781C394.465 118.522 393.79 119.049 393.05 118.958C392.309 118.866 391.781 118.191 391.873 117.45Z" fill="#353D59"/>
<path fill-rule="evenodd" clip-rule="evenodd" d="M397.731 115.187C397.845 115.202 397.965 115.177 398.07 115.11C398.304 114.957 398.371 114.643 398.218 114.408C396.839 112.288 393.72 111.56 391.541 112.845C391.3 112.988 391.22 113.299 391.362 113.541C391.504 113.779 391.814 113.858 392.057 113.718C393.79 112.694 396.271 113.276 397.368 114.961C397.453 115.091 397.587 115.169 397.731 115.187Z" fill="#4C7BB1"/>
<path fill-rule="evenodd" clip-rule="evenodd" d="M390.151 114.981L383.951 121.895L386.758 124.796" fill="#F7C7B5"/>
<path fill-rule="evenodd" clip-rule="evenodd" d="M408.228 127.611C407.964 127.595 407.701 127.568 407.441 127.529L406.564 127.398L407.099 126.692C407.964 125.554 409.005 124.573 410.196 123.78C410.434 123.62 410.763 123.683 410.923 123.925C411.084 124.166 411.019 124.493 410.778 124.653C409.957 125.2 409.213 125.844 408.557 126.575C409.347 126.596 410.144 126.502 410.903 126.295C411.182 126.221 411.471 126.383 411.546 126.663C411.624 126.943 411.458 127.23 411.178 127.307C410.226 127.567 409.219 127.671 408.228 127.611Z" fill="#E0A797"/>
<path fill-rule="evenodd" clip-rule="evenodd" d="M392.526 108.098C392.625 107.84 392.914 107.711 393.172 107.81C393.43 107.909 393.559 108.198 393.46 108.456C391.607 113.29 388.69 117.756 384.948 121.495L384.822 121.618L387.147 124.482C387.321 124.697 387.288 125.011 387.074 125.185C386.859 125.359 386.544 125.326 386.37 125.112L383.471 121.54L383.8 121.222C387.655 117.495 390.652 112.988 392.526 108.098Z" fill="#E0A797"/>
<path fill-rule="evenodd" clip-rule="evenodd" d="M362.11 167.835C352.1 164.983 341.316 165.879 331.292 168.677C323.494 170.853 316.072 174.137 308.778 177.678C305.283 189.962 308.705 203.86 313.002 216.17C313.002 216.17 339.621 214.425 362.11 213.432V167.835Z" fill="#ED8E93"/>
<path fill-rule="evenodd" clip-rule="evenodd" d="M448.446 149.544C448.055 145.753 448.693 139.213 447.274 138.171C445.854 137.13 443.031 142.515 440.121 144.719C417.027 144.523 393.743 147.661 371.105 152.231C368.143 149.04 365.181 145.85 362.22 142.66C361.549 141.936 360.74 141.153 359.754 141.204C358.35 141.275 357.648 142.898 357.264 144.249C356.434 147.174 357.692 149.616 356.326 152.332C347.794 169.301 338.533 207.62 338.533 207.62C338.533 207.62 333.661 214.143 331.225 217.404C330.873 217.876 330.503 218.471 330.735 219.012C330.991 219.607 331.781 219.703 332.428 219.71C338.534 219.777 344.637 219.845 350.742 219.912L444.471 181.317C446.56 170.437 449.582 160.564 448.446 149.544Z" fill="white"/>
<path fill-rule="evenodd" clip-rule="evenodd" d="M481.04 94.9419H468.328C469.48 116.447 466.654 140.042 451.495 155.337C430.235 176.787 394.18 173.409 368.515 189.327C354.31 198.136 344.148 212.517 338.136 228.112C332.124 243.707 329.976 260.533 329.202 277.228L440.749 269.113C508.11 162.254 481.04 94.9419 481.04 94.9419Z" fill="#F6C561"/>
<path fill-rule="evenodd" clip-rule="evenodd" d="M468.248 93.4443C469.075 93.4 469.781 94.0347 469.826 94.8619C471.249 121.436 466.316 142.513 452.56 156.392C447.01 161.992 440.267 166.206 431.916 169.615L431.152 169.922C425.156 172.307 419.907 173.864 409.541 176.491L402.649 178.221C386.302 182.366 377.805 185.33 369.305 190.602C356.161 198.753 345.848 212.278 339.536 228.652C334.192 242.512 331.596 257.962 330.7 277.298C330.662 278.125 329.96 278.765 329.133 278.727C328.305 278.688 327.665 277.986 327.704 277.159C328.612 257.528 331.259 241.78 336.736 227.573C343.27 210.624 353.984 196.573 367.724 188.052L368.54 187.553C377.103 182.385 385.78 179.403 401.894 175.318L409.366 173.44C419.039 170.981 424.11 169.474 429.707 167.268L430.044 167.134C438.39 163.815 445.028 159.73 450.43 154.28C463.462 141.131 468.213 120.834 466.83 95.0224C466.786 94.1952 467.42 93.4886 468.248 93.4443Z" fill="#F0A95C"/>
<path fill-rule="evenodd" clip-rule="evenodd" d="M275.358 193.156C275.563 193.669 275.314 194.251 274.802 194.456L266.035 197.967C265.523 198.172 264.941 197.923 264.735 197.411C264.53 196.898 264.779 196.316 265.292 196.111L274.058 192.6C274.57 192.394 275.152 192.643 275.358 193.156Z" fill="#E0A797"/>
<path fill-rule="evenodd" clip-rule="evenodd" d="M341.208 165.907C341.754 165.828 342.262 166.207 342.341 166.754C342.42 167.301 342.041 167.808 341.494 167.887C331.579 169.321 320.933 173.425 309.219 179.778L308.829 179.991L308.799 180.181C306.98 192.018 308.853 204.403 314.091 215.176L314.391 215.784C314.638 216.278 314.439 216.879 313.945 217.126C313.451 217.374 312.85 217.174 312.603 216.68C306.951 205.395 304.906 192.347 306.822 179.877L306.932 179.185L307.012 178.705L307.438 178.471C319.667 171.758 330.784 167.415 341.208 165.907Z" fill="#D76D75"/>
<path fill-rule="evenodd" clip-rule="evenodd" d="M343.806 131.585C354.717 129.827 366.473 132.822 374.654 139.452C374.976 139.713 375.025 140.185 374.764 140.507C374.504 140.829 374.031 140.878 373.709 140.617C365.865 134.26 354.54 131.375 344.045 133.066C343.636 133.132 343.251 132.854 343.185 132.445C343.119 132.036 343.397 131.651 343.806 131.585Z" fill="#E0A797"/>
<path fill-rule="evenodd" clip-rule="evenodd" d="M419.468 135.815C419.847 135.815 420.161 136.097 420.211 136.463L420.218 136.565V144.51C420.218 144.924 419.882 145.26 419.468 145.26C419.088 145.26 418.774 144.978 418.724 144.612L418.718 144.51V136.565C418.718 136.151 419.053 135.815 419.468 135.815Z" fill="#E0A797"/>
<path fill-rule="evenodd" clip-rule="evenodd" d="M285.176 89.4968C285.722 89.4113 286.234 89.7842 286.319 90.3298C286.399 90.8364 286.083 91.3138 285.6 91.448L285.486 91.4727L265.226 94.6507C264.681 94.7363 264.169 94.3633 264.083 93.8177C264.004 93.3111 264.32 92.8337 264.802 92.6996L264.916 92.6748L285.176 89.4968Z" fill="white"/>
<path fill-rule="evenodd" clip-rule="evenodd" d="M303.452 86.7156C303.998 86.6317 304.508 87.0061 304.592 87.552C304.67 88.0588 304.353 88.5353 303.87 88.668L303.756 88.6924L290.845 90.6784C290.299 90.7623 289.789 90.3879 289.705 89.842C289.627 89.3352 289.944 88.8587 290.427 88.726L290.541 88.7016L303.452 86.7156Z" fill="#ED8E93"/>
<path fill-rule="evenodd" clip-rule="evenodd" d="M299.672 93.3372C300.217 93.2498 300.73 93.621 300.818 94.1663C300.899 94.6727 300.584 95.1511 300.103 95.2869L299.988 95.312L273.968 99.483C273.423 99.5704 272.91 99.1992 272.823 98.6539C272.742 98.1475 273.056 97.6691 273.538 97.5333L273.652 97.5082L299.672 93.3372Z" fill="white"/>
<path fill-rule="evenodd" clip-rule="evenodd" d="M288.123 101.486C288.665 101.382 289.189 101.738 289.292 102.281C289.388 102.785 289.088 103.272 288.61 103.422L288.497 103.45L267.642 107.423C267.099 107.527 266.576 107.171 266.472 106.628C266.376 106.124 266.677 105.637 267.154 105.487L267.268 105.459L288.123 101.486Z" fill="white"/>
<path fill-rule="evenodd" clip-rule="evenodd" d="M314.363 97.7081C314.908 97.6173 315.423 97.9853 315.514 98.5301C315.598 99.0359 315.287 99.5163 314.806 99.6551L314.692 99.6809L295.625 102.859C295.08 102.95 294.565 102.582 294.474 102.037C294.39 101.531 294.701 101.051 295.182 100.912L295.296 100.886L314.363 97.7081Z" fill="#ED8E93"/>
<path fill-rule="evenodd" clip-rule="evenodd" d="M306.416 105.786C306.961 105.694 307.477 106.06 307.57 106.605C307.656 107.11 307.346 107.592 306.865 107.732L306.752 107.758L276.362 112.922C275.817 113.015 275.301 112.648 275.208 112.104C275.122 111.598 275.432 111.117 275.913 110.976L276.026 110.95L306.416 105.786Z" fill="white"/>
<path fill-rule="evenodd" clip-rule="evenodd" d="M291.284 116.121C291.825 116.009 292.354 116.356 292.467 116.897C292.571 117.399 292.279 117.891 291.804 118.049L291.692 118.079L266.864 123.243C266.323 123.356 265.793 123.009 265.681 122.468C265.576 121.966 265.868 121.473 266.343 121.316L266.456 121.285L291.284 116.121Z" fill="white"/>
<path fill-rule="evenodd" clip-rule="evenodd" d="M309.595 112.937C310.139 112.845 310.655 113.211 310.748 113.756C310.833 114.261 310.523 114.743 310.043 114.883L309.929 114.909L298.21 116.895C297.665 116.987 297.149 116.62 297.057 116.076C296.971 115.57 297.281 115.089 297.762 114.949L297.876 114.923L309.595 112.937Z" fill="#4C7BB1"/>
<path fill-rule="evenodd" clip-rule="evenodd" d="M283.342 125.257C283.883 125.146 284.411 125.495 284.522 126.036C284.625 126.538 284.332 127.03 283.856 127.186L283.743 127.216L268.251 130.394C267.71 130.505 267.182 130.156 267.071 129.615C266.968 129.113 267.261 128.621 267.737 128.465L267.85 128.435L283.342 125.257Z" fill="#ED8E93"/>
<path fill-rule="evenodd" clip-rule="evenodd" d="M306.765 120.294C307.305 120.175 307.838 120.517 307.957 121.056C308.067 121.557 307.78 122.053 307.307 122.216L307.195 122.247L289.121 126.22C288.581 126.339 288.048 125.998 287.929 125.458C287.819 124.958 288.105 124.462 288.579 124.299L288.691 124.267L306.765 120.294Z" fill="white"/>
<path fill-rule="evenodd" clip-rule="evenodd" d="M318.716 118.103C319.259 118.003 319.781 118.361 319.881 118.905C319.975 119.409 319.672 119.895 319.193 120.042L319.08 120.07L313.717 121.063C313.174 121.163 312.652 120.805 312.552 120.262C312.458 119.757 312.761 119.272 313.239 119.124L313.353 119.096L318.716 118.103Z" fill="white"/>
<path fill-rule="evenodd" clip-rule="evenodd" d="M277.57 299.094H252.914V324.632C252.914 326.49 254.42 327.996 256.278 327.996H274.207C276.064 327.996 277.57 326.49 277.57 324.632V299.094Z" fill="#4C7BB1"/>
<path fill-rule="evenodd" clip-rule="evenodd" d="M273.582 307.207C271.25 307.207 269.352 309.105 269.352 311.437V317.116C269.352 319.448 271.25 321.347 273.582 321.347H279.261C281.593 321.347 283.491 319.448 283.491 317.116V311.437C283.491 309.105 281.593 307.207 279.261 307.207H273.582ZM279.261 325.051H273.582C269.207 325.051 265.647 321.491 265.647 317.116V311.437C265.647 307.062 269.207 303.503 273.582 303.503H279.261C283.636 303.503 287.195 307.062 287.195 311.437V317.116C287.195 321.491 283.636 325.051 279.261 325.051Z" fill="#4C7BB1"/>
<path fill-rule="evenodd" clip-rule="evenodd" d="M252.914 299.094H277.57C277.57 299.094 266.506 306.477 252.914 299.094Z" fill="#386795"/>
</svg>
