<svg width="511" height="375" viewBox="0 0 511 375" fill="none" xmlns="http://www.w3.org/2000/svg">
<path fill-rule="evenodd" clip-rule="evenodd" d="M511 364.404C511 358.637 396.821 353.964 255.975 353.964C115.128 353.964 0.948975 358.637 0.948975 364.404C0.948975 370.17 115.128 374.844 255.975 374.844C396.821 374.844 511 370.17 511 364.404Z" fill="#BCE4F0"/>
<path fill-rule="evenodd" clip-rule="evenodd" d="M86.0254 172.732L89.1384 122.924L84.1484 122.612L81.0354 172.42L86.0254 172.732Z" fill="#386795"/>
<path fill-rule="evenodd" clip-rule="evenodd" d="M88.2499 116.864L89.1389 122.925L84.1479 122.612L85.6269 116.445L88.2499 116.864Z" fill="#F6C561"/>
<path fill-rule="evenodd" clip-rule="evenodd" d="M87.2167 109.819L88.2497 116.864L85.6267 116.445L87.2167 109.819Z" fill="#4C7BB1"/>
<path fill-rule="evenodd" clip-rule="evenodd" d="M74.3281 116.974L74.1821 166.878L79.1831 166.893L79.3291 116.989L74.3281 116.974Z" fill="#ED8E93"/>
<path fill-rule="evenodd" clip-rule="evenodd" d="M68.7802 171.389L62.5952 121.869L67.5562 121.248L73.7422 170.769L68.7802 171.389Z" fill="#F0A95C"/>
<path fill-rule="evenodd" clip-rule="evenodd" d="M63.1075 115.765L62.5955 121.869L67.5565 121.248L65.6995 115.185L63.1075 115.765Z" fill="#F6C561"/>
<path fill-rule="evenodd" clip-rule="evenodd" d="M63.7032 108.67L63.1072 115.765L65.6992 115.185L63.7032 108.67Z" fill="#323B60"/>
<path fill-rule="evenodd" clip-rule="evenodd" d="M76.7558 105.885L75.8918 109.833C76.4988 109.823 77.0808 109.798 77.6518 109.753L76.7558 105.885Z" fill="#D76D75"/>
<path fill-rule="evenodd" clip-rule="evenodd" d="M75.8916 109.833L74.3286 116.974L79.3296 116.988L77.6526 109.753C77.0806 109.798 76.4986 109.823 75.8916 109.833Z" fill="#F6C561"/>
<path fill-rule="evenodd" clip-rule="evenodd" d="M70.7686 192.054H92.2346V140.893H70.7686V192.054Z" fill="#437858"/>
<path fill-rule="evenodd" clip-rule="evenodd" d="M62.6287 192.054H81.5007V140.893H62.6287V192.054Z" fill="#5B9274"/>
<path fill-rule="evenodd" clip-rule="evenodd" d="M298.264 169.93C294.485 171.097 276.494 174.412 276.494 174.412L269.804 184.678L310.257 184.552L298.264 169.93Z" fill="#8F4F48"/>
<path fill-rule="evenodd" clip-rule="evenodd" d="M125.441 201.922L148.419 364.181H141.464L109.929 201.922H125.441Z" fill="#4C7BB1"/>
<path fill-rule="evenodd" clip-rule="evenodd" d="M52.6572 201.922L29.6792 364.181H36.6342L68.1702 201.922H52.6572Z" fill="#4C7BB1"/>
<path fill-rule="evenodd" clip-rule="evenodd" d="M390.625 244.627L415.69 356.838C415.773 357.412 415.192 357.93 414.392 357.995C413.619 358.058 412.925 357.673 412.801 357.131L378.92 245.815C378.399 243.508 380.588 241.317 383.808 240.924C387.027 240.53 390.061 242.082 390.581 244.391C390.598 244.465 390.613 244.553 390.625 244.627Z" fill="#BC7488"/>
<path fill-rule="evenodd" clip-rule="evenodd" d="M365.616 251.148L360.314 357.02C360.271 357.59 359.535 358.029 358.671 358.001C357.844 357.974 357.198 357.525 357.182 356.986L351.873 250.998C351.809 248.495 354.837 246.431 358.634 246.389C362.43 246.347 365.56 248.343 365.624 250.847C365.626 250.944 365.623 251.052 365.616 251.148Z" fill="#BC7488"/>
<path fill-rule="evenodd" clip-rule="evenodd" d="M332.119 249.712L297.282 356.604C297.1 357.174 296.335 357.527 295.571 357.392C294.835 357.261 294.37 356.721 294.501 356.17L321.422 248.046C321.956 245.824 324.797 244.348 327.767 244.747C330.739 245.147 332.714 247.271 332.18 249.492C332.163 249.562 332.14 249.644 332.119 249.712Z" fill="#BC7488"/>
<path fill-rule="evenodd" clip-rule="evenodd" d="M284.331 74.1052C281.348 67.7442 280.019 60.3162 282.196 53.6362C284.02 48.0432 288.107 43.4682 292.569 39.6342C305.767 28.2972 323.278 22.1132 340.668 22.6472C345.428 22.7932 350.319 23.4732 354.428 25.8812C358.535 28.2892 361.713 32.7432 361.464 37.4992C361.159 43.3292 356.076 47.7512 350.913 50.4782C345.75 53.2052 339.954 55.0962 335.867 59.2662C331.609 63.6122 329.873 69.7472 327.911 75.5052C325.95 81.2642 323.294 87.2902 318.073 90.4132C303.303 99.2472 290.106 86.4242 284.331 74.1052Z" fill="#D76D75"/>
<path fill-rule="evenodd" clip-rule="evenodd" d="M289.968 61.2486L357.56 45.7666L392.533 196.19L304.581 196.261L289.968 61.2486Z" fill="white"/>
<path fill-rule="evenodd" clip-rule="evenodd" d="M320.394 63.2434C321.166 60.6214 321.745 57.9204 322.392 55.2664C323.665 50.0464 325.383 44.6804 329.166 40.8644C330.857 39.1594 333.066 37.5334 333.244 35.1394C333.423 32.7354 317.435 28.5904 299.204 45.7064C294.352 50.2624 290.804 56.6244 290.579 63.2434H320.394Z" fill="#A55C72"/>
<path fill-rule="evenodd" clip-rule="evenodd" d="M281.185 347.333L275.842 318.77L262.085 321.286L272.396 348.783L281.185 347.333Z" fill="#8F4F48"/>
<path fill-rule="evenodd" clip-rule="evenodd" d="M281.186 347.333L272.397 348.783C269.595 350.312 251.842 354.576 252.396 357.827C252.949 361.077 269.468 361.894 280.49 353.62C282.629 352.013 282.086 349.575 281.186 347.333Z" fill="#353D59"/>
<path fill-rule="evenodd" clip-rule="evenodd" d="M323.1 196.261L241.022 198.428C230.169 198.714 222.184 208.695 224.285 219.346L230.655 251.638L254.339 333.849L288.239 326.577L276.621 241.916L349.221 233.606L323.1 196.261Z" fill="#3B4772"/>
<path fill-rule="evenodd" clip-rule="evenodd" d="M121.926 354.826L142.558 334.362L132.75 324.393L115.79 348.368L121.926 354.826Z" fill="#8F4F48"/>
<path fill-rule="evenodd" clip-rule="evenodd" d="M121.926 354.826L115.79 348.368C112.952 346.909 99.4527 334.615 97.0737 336.898C94.6957 339.181 103.298 353.307 116.333 357.78C118.864 358.648 120.576 356.83 121.926 354.826Z" fill="#353D59"/>
<path fill-rule="evenodd" clip-rule="evenodd" d="M282.421 244.166C282.421 244.166 323.28 280.87 383.876 258.017C444.473 235.164 451.118 137.171 413.515 112.239L282.421 244.166Z" fill="#F6C561"/>
<path fill-rule="evenodd" clip-rule="evenodd" d="M402.639 198.976H318.03C290.677 203.995 263.325 209.013 235.972 214.033C223.702 216.284 211.121 218.651 200.471 225.145C190.927 230.965 183.586 239.708 176.443 248.306C156.139 272.744 119.16 324.394 119.16 324.394L148.071 346.315C148.071 346.315 202.752 291.943 227.538 262.172C272.586 254.584 319.733 246.075 364.781 238.487C383.634 235.311 396.175 216.968 402.639 198.976Z" fill="#3B4772"/>
<path fill-rule="evenodd" clip-rule="evenodd" d="M425.819 141.561C422.881 126.401 416.015 112.32 408.952 98.5866L353.408 45.7666C339.986 45.7666 327.611 56.5636 324.413 67.4086C321.7 76.6056 323.715 86.4536 325.741 95.8256L340.471 163.961C336.552 174.843 324.118 192.505 330.832 201.922C337.546 211.34 362.624 212.001 374.188 211.843C381.957 211.738 389.508 209.111 396.403 205.532C405.274 200.925 413.417 194.561 418.903 186.207C427.381 173.298 428.757 156.722 425.819 141.561Z" fill="#ED8E93"/>
<path fill-rule="evenodd" clip-rule="evenodd" d="M414.973 103.919C410.562 90.2649 402.673 78.0359 393.949 66.7249C388.465 59.6159 382.398 52.6189 374.448 48.5789C366.497 44.5389 356.158 42.6199 349.108 48.1209L360.951 102.135C366.207 114.076 374.159 124.452 382.321 134.567C365.487 134.198 352.593 150.225 336.177 154.028C331.744 155.056 327.135 155.163 322.723 156.282C318.311 157.401 313.15 159.695 311.16 163.851L319.57 183.96C338.052 184.782 356.842 185.575 374.785 181.002C392.729 176.43 411.385 166.426 418.498 149.073C423.936 135.807 419.383 117.573 414.973 103.919Z" fill="#ED8E93"/>
<path fill-rule="evenodd" clip-rule="evenodd" d="M289.968 61.249C286.87 65.116 284.243 69.48 282.001 74.036C277.53 83.116 270.088 90.306 263.349 97.855C256.609 105.406 250.242 113.97 248.767 123.982C230.667 116.78 212.365 105.338 197.612 92.618L182.869 115.183C194.553 124.144 205.6 133.91 217.283 142.871C229.303 152.089 243.02 161.81 258.066 160.056C271.814 158.453 282.456 147.703 291.9 137.585C294.97 156.837 297.375 177.009 300.446 196.261L309.083 194.65C300.585 150.985 294.986 105.45 289.968 61.249Z" fill="#ED8E93"/>
<path fill-rule="evenodd" clip-rule="evenodd" d="M311.16 164.179C311.16 164.179 293.735 168.175 293.979 169.93C294.223 171.685 298.267 184.592 298.267 184.592L319.569 183.97L311.16 164.179Z" fill="#D76D75"/>
<path fill-rule="evenodd" clip-rule="evenodd" d="M328.82 183.743H216.111V192.054H337.131C337.131 187.464 333.41 183.743 328.82 183.743Z" fill="#A6D7E3"/>
<path fill-rule="evenodd" clip-rule="evenodd" d="M258.824 179.145L217.355 87.6556C216.429 85.4766 214.175 84.1726 211.825 84.4566L105.468 93.3236C103.089 93.6116 101.603 96.0456 102.435 98.2926L130.41 173.875L151.186 183.744H255.782C258.151 183.744 259.751 181.326 258.824 179.145Z" fill="#BCE4F0"/>
<path fill-rule="evenodd" clip-rule="evenodd" d="M109.93 189.883L141.512 152.578L221.455 149.982L234.2 189.883H109.93Z" fill="#A6D7E3"/>
<path fill-rule="evenodd" clip-rule="evenodd" d="M278.262 252.358C278.806 252.26 279.326 252.622 279.423 253.166C279.513 253.67 279.208 254.155 278.729 254.299L278.615 254.326L233.687 262.377C233.143 262.475 232.624 262.113 232.526 261.569C232.436 261.065 232.741 260.58 233.221 260.436L233.334 260.409L278.262 252.358Z" fill="#323863"/>
<path fill-rule="evenodd" clip-rule="evenodd" d="M301.622 200.939C302.165 200.835 302.689 201.19 302.793 201.732C302.89 202.236 302.591 202.724 302.114 202.874L302 202.903L225.129 217.706C224.587 217.81 224.063 217.455 223.958 216.913C223.861 216.41 224.161 215.922 224.638 215.771L224.751 215.742L301.622 200.939Z" fill="#323863"/>
<path fill-rule="evenodd" clip-rule="evenodd" d="M342.913 189.884H35.9859C32.5039 189.884 29.6799 192.707 29.6799 196.191C29.6799 199.674 32.5039 202.498 35.9859 202.498H342.913C346.396 202.498 349.221 199.674 349.221 196.191C349.221 192.707 346.396 189.884 342.913 189.884Z" fill="#4C7BB1"/>
<path fill-rule="evenodd" clip-rule="evenodd" d="M221.455 149.982L191.684 189.883H234.2L221.455 149.982Z" fill="#81BFD5"/>
<path fill-rule="evenodd" clip-rule="evenodd" d="M284.401 90.1162C284.953 90.1134 285.403 90.5588 285.406 91.1111C285.485 106.525 288.066 121.922 293.018 136.519C293.196 137.042 292.916 137.61 292.393 137.787C291.87 137.965 291.302 137.685 291.124 137.161C286.103 122.361 283.486 106.75 283.406 91.1213C283.403 90.569 283.849 90.119 284.401 90.1162Z" fill="#D76D75"/>
<path fill-rule="evenodd" clip-rule="evenodd" d="M247.808 123.548C248.003 123.031 248.579 122.769 249.096 122.963C253.374 124.569 257.319 127.044 260.622 130.195C261.022 130.576 261.036 131.209 260.655 131.609C260.274 132.009 259.641 132.023 259.241 131.642C256.133 128.677 252.419 126.347 248.393 124.836C247.876 124.642 247.614 124.065 247.808 123.548Z" fill="#D76D75"/>
<path fill-rule="evenodd" clip-rule="evenodd" d="M419.916 124.134C420.461 124.046 420.974 124.417 421.062 124.963C422.644 134.812 422.257 143.213 419.422 150.021C412.883 165.717 396.29 176.696 375.029 182.029C365.096 184.52 349.792 185.659 334.56 185.591C334.008 185.589 333.562 185.139 333.564 184.587C333.567 184.035 334.017 183.589 334.569 183.591L336.244 183.594C350.763 183.573 365.17 182.439 374.542 180.089C395.251 174.895 411.323 164.26 417.575 149.252C420.244 142.842 420.616 134.795 419.087 125.28C419 124.735 419.371 124.222 419.916 124.134Z" fill="#D76D75"/>
<path fill-rule="evenodd" clip-rule="evenodd" d="M360.542 102.529C361.046 102.303 361.637 102.529 361.863 103.033C366.164 112.648 371.794 120.854 382.002 133.39L383.093 134.726L384.471 136.406L382.299 136.359C375.127 136.205 369.192 138.558 358.919 144.662L354.85 147.1C347.448 151.507 343.54 153.459 338.591 154.915C338.061 155.071 337.506 154.768 337.35 154.238C337.194 153.708 337.497 153.152 338.027 152.996L338.654 152.807C343.22 151.395 347.074 149.417 354.336 145.078L357.338 143.276L358.449 142.616C367.578 137.229 373.435 134.759 379.924 134.399L380.232 134.383L379.906 133.982C370.114 121.912 364.551 113.785 360.27 104.365L360.037 103.85C359.812 103.346 360.038 102.754 360.542 102.529Z" fill="#D76D75"/>
<path fill-rule="evenodd" clip-rule="evenodd" d="M341.25 251.784C341.25 251.784 361.716 176.991 420.981 187.898C420.981 187.898 417.938 261.479 341.25 251.784Z" fill="#F6C561"/>
<path fill-rule="evenodd" clip-rule="evenodd" d="M277.468 14.0039C278.903 11.8669 281.084 10.6299 283.657 10.6299L300.356 14.9719C302.08 20.7489 304.116 26.6739 301.358 30.3339L322.731 49.5359L300.356 63.3959L289.241 45.6079C285.557 51.8119 271.649 47.4869 271.619 40.5189C271.602 36.2789 276.033 16.1409 277.468 14.0039Z" fill="#8F4F48"/>
<path fill-rule="evenodd" clip-rule="evenodd" d="M275.29 25.547C275.331 24.892 275.896 24.394 276.552 24.435C277.208 24.476 277.706 25.041 277.664 25.696C277.623 26.353 277.059 26.851 276.402 26.81C275.747 26.768 275.249 26.203 275.29 25.547Z" fill="#353D59"/>
<path fill-rule="evenodd" clip-rule="evenodd" d="M283.219 26.756C283.26 26.101 283.825 25.603 284.481 25.644C285.137 25.685 285.635 26.25 285.593 26.905C285.552 27.562 284.988 28.06 284.331 28.019C283.676 27.977 283.178 27.412 283.219 26.756Z" fill="#353D59"/>
<path fill-rule="evenodd" clip-rule="evenodd" d="M288.324 24.4609C288.426 24.4669 288.529 24.4399 288.617 24.3739C288.815 24.2279 288.857 23.9479 288.711 23.7499C287.387 21.9609 284.61 21.4859 282.763 22.7299C282.56 22.8669 282.506 23.1459 282.643 23.3499C282.781 23.5519 283.057 23.6049 283.263 23.4699C284.731 22.4789 286.941 22.8579 287.993 24.2809C288.075 24.3909 288.197 24.4529 288.324 24.4609Z" fill="#A97B73"/>
<path fill-rule="evenodd" clip-rule="evenodd" d="M279.368 23.0045C279.455 23.0095 279.545 22.9835 279.622 22.9245C279.797 22.7895 279.837 22.5295 279.711 22.3445C278.578 20.6715 276.255 20.1085 274.534 21.0905C274.343 21.1995 274.27 21.4505 274.371 21.6535C274.472 21.8575 274.709 21.9285 274.898 21.8225C276.264 21.0445 278.177 21.5065 279.077 22.8345C279.147 22.9385 279.256 22.9965 279.368 23.0045Z" fill="#A97B73"/>
<path fill-rule="evenodd" clip-rule="evenodd" d="M279.361 26.6479C279.462 26.391 279.752 26.2648 280.009 26.366C280.266 26.4672 280.392 26.7576 280.291 27.0145C279.65 28.6407 278.932 30.235 278.14 31.7895L277.933 32.1854L278.179 32.3583C278.672 32.6897 279.21 32.9782 279.802 33.2316L280.164 33.3795C280.421 33.48 280.548 33.7699 280.448 34.0272C280.347 34.2844 280.057 34.4114 279.8 34.3109C278.862 33.9445 278.033 33.5019 277.294 32.9583L276.983 32.7191L276.661 32.4603L276.854 32.095C277.79 30.3303 278.627 28.5104 279.361 26.6479Z" fill="#753730"/>
<path fill-rule="evenodd" clip-rule="evenodd" d="M276.761 37.9456C276.931 37.7286 277.246 37.6912 277.463 37.8621C278.76 38.8834 280.515 39.3094 282.137 38.996C282.409 38.9436 282.671 39.1209 282.723 39.3921C282.776 39.6632 282.598 39.9254 282.327 39.9778C280.42 40.3463 278.369 39.8488 276.844 38.6477C276.627 38.4769 276.59 38.1625 276.761 37.9456Z" fill="#753730"/>
<path fill-rule="evenodd" clip-rule="evenodd" d="M292.251 41.5561C292.41 41.3307 292.722 41.2771 292.948 41.4365C293.173 41.5959 293.227 41.9079 293.067 42.1334C291.966 43.6919 290.716 45.1467 289.343 46.4689C289.144 46.6605 288.827 46.6545 288.636 46.4556C288.444 46.2567 288.45 45.9402 288.649 45.7486C289.977 44.4701 291.185 43.0632 292.251 41.5561Z" fill="#753730"/>
<path fill-rule="evenodd" clip-rule="evenodd" d="M298.772 31.2536C306.45 25.6216 296.556 18.6206 292.622 27.1066C290.56 23.4376 290.526 18.7676 292.659 15.1386C287.184 16.2226 273.521 15.4306 273.521 5.81559C273.521 3.78959 274.577 1.74159 276.334 0.733592C277.7 -0.0504078 279.381 -0.157408 280.918 0.183592C282.457 0.524592 283.872 1.28059 285.191 2.14259C287.268 3.49859 289.084 5.22459 290.726 7.08359C293.313 5.92359 296.393 5.91659 298.985 7.06659C301.577 8.21559 303.639 10.5026 304.516 13.1986C305.732 16.9416 304.701 21.0956 305.68 24.9076C306.052 26.3566 306.705 27.7136 307.221 29.1166C307.737 30.5216 308.121 32.0216 307.92 33.5026C307.719 34.9836 306.83 36.4456 305.431 36.9756C303.805 37.5906 301.971 37.1066 300.756 35.8606C299.542 34.6156 298.716 32.9916 298.772 31.2536Z" fill="#A97B73"/>
<path fill-rule="evenodd" clip-rule="evenodd" d="M297.758 25.5515C297.978 25.3849 298.291 25.4283 298.458 25.6485C298.625 25.8687 298.581 26.1823 298.361 26.3489C297.752 26.8102 297.194 27.3396 296.702 27.9233L296.573 28.0813L296.615 28.0805C297.155 28.0533 297.692 27.9641 298.211 27.8147L298.52 27.7178C298.781 27.629 299.065 27.769 299.154 28.0305C299.243 28.292 299.103 28.5759 298.841 28.6647C297.906 28.9821 296.912 29.1238 295.924 29.0824L295.554 29.0583L294.714 28.9838L295.183 28.2826C295.88 27.2379 296.754 26.3108 297.758 25.5515Z" fill="#753730"/>
<path fill-rule="evenodd" clip-rule="evenodd" d="M317.362 70.5118C320.119 65.8988 321.118 60.4878 322.391 55.2668C323.422 51.0408 324.764 46.7358 327.236 43.2178C306.751 45.7448 294.402 56.7278 290.962 60.1948C290.657 61.6918 290.511 63.2208 290.581 64.7738C291.259 79.9098 310.15 82.5778 317.362 70.5118Z" fill="#8F4F48"/>
<path fill-rule="evenodd" clip-rule="evenodd" d="M292.871 86.2694C291.873 77.8964 290.563 68.5234 290.962 60.1944C283.719 58.9154 281.118 65.5804 283.267 71.6004C283.592 72.4504 283.947 73.2874 284.331 74.1054C286.351 78.4154 289.283 82.7854 292.871 86.2694Z" fill="#D76D75"/>
<path fill-rule="evenodd" clip-rule="evenodd" d="M324.437 89.4662C324.437 89.4662 306.955 67.0812 327.236 43.2172L348.297 37.2402L355.387 45.1962C355.387 45.1962 318.755 46.6102 324.437 89.4662Z" fill="#D76D75"/>
<path fill-rule="evenodd" clip-rule="evenodd" d="M254.269 201.922L231.291 364.181H238.246L269.781 201.922H254.269Z" fill="#4C7BB1"/>
<path fill-rule="evenodd" clip-rule="evenodd" d="M330.832 201.922L353.81 364.181H346.855L315.319 201.922H330.832Z" fill="#4C7BB1"/>
<path fill-rule="evenodd" clip-rule="evenodd" d="M211.645 82.9675C214.572 82.6138 217.383 84.1807 218.617 86.8015L260.205 178.557C261.552 181.727 259.226 185.243 255.782 185.243C254.954 185.243 254.282 184.571 254.282 183.743C254.282 182.963 254.877 182.322 255.638 182.25L255.782 182.243C257.028 182.243 257.885 181.018 257.507 179.892L257.458 179.763L215.975 88.2414C215.31 86.6773 213.692 85.742 212.005 85.9459C211.183 86.0453 210.435 85.4591 210.336 84.6367C210.237 83.8142 210.823 83.0669 211.645 82.9675Z" fill="#A6D7E3"/>
<path fill-rule="evenodd" clip-rule="evenodd" d="M491.107 303.006C482.444 306.4 476.605 307.098 467.558 305.607C464.466 309.76 464.613 315.443 463.892 318.69C463.041 322.525 458.005 323.737 454.999 326.266C450.836 329.767 441.262 338.768 447.929 356.773C466.081 364.31 474.901 364.31 474.901 364.31C474.901 364.31 480.592 360.638 468.579 356.108C474.628 353.34 475.544 346.848 475.544 346.848C476.109 350.049 478.693 355.039 480.592 360.638C481.02 361.897 481.863 363.046 482.98 363.767C484.096 364.488 485.74 364.552 486.645 363.579C487.64 362.508 487.341 360.82 487.045 359.389C485.631 352.568 484.003 344.925 487.434 338.861C489.654 334.939 492.161 335.287 493.828 331.411C494.571 329.685 495.259 324.103 495.489 322.108C496.117 316.653 492.885 308.256 491.107 303.006Z" fill="#E1DCD4"/>
<path fill-rule="evenodd" clip-rule="evenodd" d="M492.076 305.583C492.651 303.586 492.076 299.318 490.688 297.625H466.126C465.344 299.35 465.136 304.362 465.114 306.284C474.161 307.775 482.436 307.77 492.076 305.583Z" fill="#5B9274"/>
<path fill-rule="evenodd" clip-rule="evenodd" d="M456.046 281.614C453.908 281.963 451.782 282.314 449.717 282.691C449.337 285.295 449.146 287.924 449.103 290.554C453.076 289.631 455.786 285.855 456.046 281.614Z" fill="#353D59"/>
<path fill-rule="evenodd" clip-rule="evenodd" d="M490.824 281.012C490.001 271.512 484.298 264.681 482.256 264.681C480.213 264.681 480.666 273.444 480.666 273.444C480.666 273.444 474.929 264.092 473.078 264.681C472.18 264.967 472.138 274.689 472.138 274.689C472.138 274.689 469.735 274.812 468.985 275.701C468.235 276.592 468.013 278.483 468.487 279.546C464.455 280.281 460.22 280.936 456.046 281.615C455.786 285.856 453.076 289.631 449.102 290.555C449.007 296.356 449.314 299.387 450.834 304.987C451.053 305.794 454.064 306.051 453.876 300.587C454.108 306.516 460.543 309.056 461.214 302.905C461.332 308.463 466.795 308.605 466.775 303.006C466.823 308.313 472.685 305.866 472.557 299.6C478.331 299.823 485.449 299.618 491.029 298.122C495.569 294.177 495.366 287.137 490.824 281.012Z" fill="#E1DCD4"/>
<path fill-rule="evenodd" clip-rule="evenodd" d="M480.039 282.16C480.081 281.229 479.359 280.441 478.429 280.399C477.497 280.358 476.709 281.079 476.667 282.011C476.626 282.941 477.347 283.73 478.278 283.771C479.209 283.813 479.998 283.092 480.039 282.16Z" fill="#353D59"/>
<path fill-rule="evenodd" clip-rule="evenodd" d="M482.587 267.398C482.248 269.917 482.526 273.423 482.992 275.924L487.479 278.708C487.173 274.891 485.193 270.366 482.587 267.398Z" fill="#ED8E93"/>
<path fill-rule="evenodd" clip-rule="evenodd" d="M473.676 274.486L478.026 274.354C476.976 272.175 475.704 269.099 473.985 267.398C473.656 269.329 473.444 272.541 473.676 274.486Z" fill="#ED8E93"/>
<path d="M471.641 332.143C471.863 331.978 472.176 332.024 472.341 332.245C474.899 335.681 476.362 339.695 476.369 343.641C476.376 347.906 474.607 352.042 471.535 354.649C468.28 357.413 463.591 358.277 459.808 356.698C459.553 356.592 459.433 356.299 459.539 356.044C459.646 355.79 459.939 355.669 460.193 355.776C463.619 357.205 467.911 356.414 470.887 353.887C473.727 351.477 475.376 347.623 475.369 343.643C475.362 339.923 473.974 336.114 471.539 332.843C471.374 332.621 471.42 332.308 471.641 332.143Z" fill="#C5BCB0"/>
<path fill-rule="evenodd" clip-rule="evenodd" d="M437.238 341.246C433.587 337.037 430.707 332.227 427.527 327.65C426.182 325.714 424.346 323.604 421.998 323.808C419.423 324.03 417.926 327.141 418.427 329.678C418.808 331.601 419.965 333.23 421.274 334.726C420.506 334.393 419.556 334.39 418.83 334.829C417.523 335.617 417.011 337.344 417.285 338.845C417.559 340.347 418.473 341.651 419.487 342.792C421.608 345.18 424.323 347.094 427.384 347.99C425.967 347.682 424.546 349.389 424.796 350.901C425.063 352.52 426.512 353.677 427.983 354.405C430.372 355.588 433.103 356.043 435.753 355.752C435.624 355.932 435.531 356.136 435.512 356.358C435.429 357.356 436.315 358.226 437.284 358.482C438.252 358.737 439.275 358.532 440.256 358.326C443.454 357.654 446.652 356.982 449.85 356.309L450.834 350.543C445.451 349.101 440.889 345.456 437.238 341.246Z" fill="#E1DCD4"/>
<path fill-rule="evenodd" clip-rule="evenodd" d="M485.412 337.354C486.293 344.466 488.16 351.456 490.941 358.059C491.454 359.276 492.04 360.534 493.097 361.326C494.154 362.118 495.823 362.25 496.701 361.263C497.597 360.257 497.285 358.706 496.938 357.406C494.007 346.422 492.076 333.658 493.104 323.758" fill="#E1DCD4"/>
<path d="M491.801 305.165C492.032 305.014 492.342 305.078 492.494 305.308C496.379 311.214 497.294 326.742 493.827 332.478L493.662 332.74L493.145 333.517L492.304 331.513L492.288 331.786C492.119 334.063 491.468 336.305 490.376 338.311L490.166 338.684L489.842 339.242L489.382 338.789C488.797 338.213 488.381 337.477 488.168 336.686L488.152 336.623L487.996 336.924C486.222 340.346 485.787 342.112 485.969 345.156L485.989 345.465C486.008 345.74 485.801 345.979 485.526 345.999C485.25 346.018 485.011 345.811 484.991 345.535C484.716 341.65 485.314 339.708 487.896 334.989L489.535 332.02L489.053 334.902C488.911 335.755 489.099 336.659 489.549 337.399L489.646 337.549L489.685 337.477C490.96 334.974 491.521 332.107 491.276 329.309L491.235 328.909L490.831 325.406L493.312 331.331L493.43 331.084C496.087 325.204 495.19 311.647 491.834 306.136L491.658 305.858C491.507 305.627 491.571 305.317 491.801 305.165Z" fill="#C5BCB0"/>
<path fill-rule="evenodd" clip-rule="evenodd" d="M485.004 310.378C485.004 308.2 483.239 306.436 481.063 306.436C478.885 306.436 477.12 308.2 477.12 310.378C477.12 312.555 478.885 314.319 481.063 314.319C483.239 314.319 485.004 312.555 485.004 310.378Z" fill="#F0A95C"/>
</svg>
