<svg width="511" height="376" viewBox="0 0 511 376" fill="none" xmlns="http://www.w3.org/2000/svg">
<path fill-rule="evenodd" clip-rule="evenodd" d="M510.786 364.749C510.786 358.982 396.607 354.309 255.761 354.309C114.914 354.309 0.735352 358.982 0.735352 364.749C0.735352 370.515 114.914 375.189 255.761 375.189C396.607 375.189 510.786 370.515 510.786 364.749Z" fill="#BCE4F0"/>
<path fill-rule="evenodd" clip-rule="evenodd" d="M85.8118 173.077L88.9248 123.269L83.9348 122.957L80.8218 172.765L85.8118 173.077Z" fill="#386795"/>
<path fill-rule="evenodd" clip-rule="evenodd" d="M88.0363 117.209L88.9253 123.27L83.9343 122.957L85.4133 116.79L88.0363 117.209Z" fill="#F6C561"/>
<path fill-rule="evenodd" clip-rule="evenodd" d="M87.0031 110.164L88.0361 117.209L85.4131 116.79L87.0031 110.164Z" fill="#4C7BB1"/>
<path fill-rule="evenodd" clip-rule="evenodd" d="M74.1145 117.319L73.9685 167.223L78.9695 167.238L79.1155 117.334L74.1145 117.319Z" fill="#ED8E93"/>
<path fill-rule="evenodd" clip-rule="evenodd" d="M68.5666 171.734L62.3816 122.214L67.3426 121.593L73.5286 171.114L68.5666 171.734Z" fill="#F0A95C"/>
<path fill-rule="evenodd" clip-rule="evenodd" d="M62.8938 116.11L62.3818 122.214L67.3428 121.593L65.4858 115.53L62.8938 116.11Z" fill="#F6C561"/>
<path fill-rule="evenodd" clip-rule="evenodd" d="M63.4896 109.015L62.8936 116.11L65.4856 115.53L63.4896 109.015Z" fill="#323B60"/>
<path fill-rule="evenodd" clip-rule="evenodd" d="M76.5422 106.23L75.6782 110.178C76.2852 110.168 76.8672 110.143 77.4382 110.098L76.5422 106.23Z" fill="#D76D75"/>
<path fill-rule="evenodd" clip-rule="evenodd" d="M75.678 110.178L74.115 117.319L79.116 117.333L77.439 110.098C76.867 110.143 76.285 110.168 75.678 110.178Z" fill="#F6C561"/>
<path fill-rule="evenodd" clip-rule="evenodd" d="M70.5549 192.399H92.0209V141.238H70.5549V192.399Z" fill="#437858"/>
<path fill-rule="evenodd" clip-rule="evenodd" d="M62.415 192.399H81.287V141.238H62.415V192.399Z" fill="#5B9274"/>
<path fill-rule="evenodd" clip-rule="evenodd" d="M298.05 170.275C294.271 171.442 276.28 174.757 276.28 174.757L269.59 185.023L310.043 184.897L298.05 170.275Z" fill="#8F4F48"/>
<path fill-rule="evenodd" clip-rule="evenodd" d="M125.228 202.267L148.206 364.526H141.251L109.716 202.267H125.228Z" fill="#4C7BB1"/>
<path fill-rule="evenodd" clip-rule="evenodd" d="M52.4436 202.267L29.4656 364.526H36.4206L67.9566 202.267H52.4436Z" fill="#4C7BB1"/>
<path fill-rule="evenodd" clip-rule="evenodd" d="M390.411 244.973L415.476 357.184C415.559 357.758 414.978 358.276 414.178 358.341C413.405 358.404 412.711 358.019 412.587 357.477L378.706 246.161C378.185 243.854 380.374 241.663 383.594 241.27C386.813 240.876 389.847 242.428 390.367 244.737C390.384 244.811 390.399 244.899 390.411 244.973Z" fill="#BC7488"/>
<path fill-rule="evenodd" clip-rule="evenodd" d="M365.403 251.493L360.101 357.365C360.058 357.935 359.322 358.374 358.458 358.346C357.631 358.319 356.985 357.87 356.969 357.331L351.66 251.343C351.596 248.84 354.624 246.776 358.421 246.734C362.217 246.692 365.347 248.688 365.411 251.192C365.413 251.289 365.41 251.397 365.403 251.493Z" fill="#BC7488"/>
<path fill-rule="evenodd" clip-rule="evenodd" d="M331.905 250.057L297.068 356.949C296.886 357.519 296.121 357.872 295.357 357.737C294.621 357.606 294.156 357.066 294.287 356.515L321.208 248.391C321.742 246.169 324.583 244.693 327.553 245.092C330.525 245.492 332.5 247.616 331.966 249.837C331.949 249.907 331.926 249.989 331.905 250.057Z" fill="#BC7488"/>
<path fill-rule="evenodd" clip-rule="evenodd" d="M284.117 74.4504C281.134 68.0894 279.805 60.6614 281.982 53.9814C283.806 48.3884 287.893 43.8134 292.355 39.9794C305.553 28.6424 323.064 22.4584 340.454 22.9924C345.214 23.1384 350.105 23.8184 354.214 26.2264C358.321 28.6344 361.499 33.0884 361.25 37.8444C360.945 43.6744 355.862 48.0964 350.699 50.8234C345.536 53.5504 339.74 55.4414 335.653 59.6114C331.395 63.9574 329.659 70.0924 327.697 75.8504C325.736 81.6094 323.08 87.6354 317.859 90.7584C303.089 99.5924 289.892 86.7694 284.117 74.4504Z" fill="#D76D75"/>
<path fill-rule="evenodd" clip-rule="evenodd" d="M289.754 61.5938L357.346 46.1118L392.319 196.535L304.367 196.606L289.754 61.5938Z" fill="white"/>
<path fill-rule="evenodd" clip-rule="evenodd" d="M320.18 63.5881C320.952 60.9661 321.531 58.2651 322.178 55.6111C323.451 50.3911 325.169 45.0251 328.952 41.2091C330.643 39.5041 332.852 37.8781 333.03 35.4841C333.209 33.0801 317.221 28.9351 298.99 46.0511C294.138 50.6071 290.59 56.9691 290.365 63.5881H320.18Z" fill="#A55C72"/>
<path fill-rule="evenodd" clip-rule="evenodd" d="M280.972 347.678L275.629 319.115L261.872 321.631L272.183 349.128L280.972 347.678Z" fill="#8F4F48"/>
<path fill-rule="evenodd" clip-rule="evenodd" d="M280.972 347.678L272.183 349.128C269.381 350.657 251.628 354.921 252.182 358.172C252.735 361.422 269.254 362.239 280.276 353.965C282.415 352.358 281.872 349.92 280.972 347.678Z" fill="#353D59"/>
<path fill-rule="evenodd" clip-rule="evenodd" d="M322.886 196.606L240.808 198.773C229.955 199.059 221.97 209.04 224.071 219.691L230.441 251.983L254.125 334.194L288.025 326.922L276.407 242.261L349.007 233.951L322.886 196.606Z" fill="#3B4772"/>
<path fill-rule="evenodd" clip-rule="evenodd" d="M121.712 355.171L142.344 334.707L132.536 324.738L115.576 348.713L121.712 355.171Z" fill="#8F4F48"/>
<path fill-rule="evenodd" clip-rule="evenodd" d="M121.712 355.171L115.576 348.713C112.738 347.254 99.2391 334.96 96.8601 337.243C94.4821 339.526 103.084 353.652 116.119 358.125C118.65 358.993 120.362 357.175 121.712 355.171Z" fill="#353D59"/>
<path fill-rule="evenodd" clip-rule="evenodd" d="M282.207 244.511C282.207 244.511 323.066 281.215 383.662 258.362C444.259 235.509 450.904 137.516 413.301 112.584L282.207 244.511Z" fill="#F6C561"/>
<path fill-rule="evenodd" clip-rule="evenodd" d="M402.425 199.321H317.816C290.463 204.34 263.111 209.358 235.758 214.378C223.488 216.629 210.907 218.996 200.257 225.49C190.713 231.31 183.372 240.053 176.229 248.651C155.925 273.089 118.946 324.739 118.946 324.739L147.857 346.66C147.857 346.66 202.538 292.288 227.324 262.517C272.372 254.929 319.519 246.42 364.567 238.832C383.42 235.656 395.961 217.313 402.425 199.321Z" fill="#3B4772"/>
<path fill-rule="evenodd" clip-rule="evenodd" d="M425.606 141.906C422.668 126.746 415.802 112.665 408.739 98.9316L353.195 46.1116C339.773 46.1116 327.398 56.9086 324.2 67.7536C321.487 76.9506 323.502 86.7986 325.528 96.1706L340.258 164.306C336.339 175.188 323.905 192.85 330.619 202.267C337.333 211.685 362.411 212.346 373.975 212.188C381.744 212.083 389.295 209.456 396.19 205.877C405.061 201.27 413.204 194.906 418.69 186.552C427.168 173.643 428.544 157.067 425.606 141.906Z" fill="#ED8E93"/>
<path fill-rule="evenodd" clip-rule="evenodd" d="M414.759 104.264C410.348 90.6099 402.459 78.3809 393.735 67.0699C388.251 59.9609 382.184 52.9639 374.234 48.9239C366.283 44.8839 355.944 42.9649 348.894 48.4659L360.737 102.48C365.993 114.421 373.945 124.797 382.107 134.912C365.273 134.543 352.379 150.57 335.963 154.373C331.53 155.401 326.921 155.508 322.509 156.627C318.097 157.746 312.936 160.04 310.946 164.196L319.356 184.305C337.838 185.127 356.628 185.92 374.571 181.347C392.515 176.775 411.171 166.771 418.284 149.418C423.722 136.152 419.169 117.918 414.759 104.264Z" fill="#ED8E93"/>
<path fill-rule="evenodd" clip-rule="evenodd" d="M289.754 61.594C286.656 65.461 284.029 69.825 281.787 74.381C277.316 83.461 269.874 90.651 263.135 98.2C256.395 105.751 250.028 114.315 248.553 124.327C230.453 117.125 212.151 105.683 197.398 92.963L182.655 115.528C194.339 124.489 205.386 134.255 217.069 143.216C229.089 152.434 242.806 162.155 257.852 160.401C271.6 158.798 282.242 148.048 291.686 137.93C294.756 157.182 297.161 177.354 300.232 196.606L308.869 194.995C300.371 151.33 294.772 105.795 289.754 61.594Z" fill="#ED8E93"/>
<path fill-rule="evenodd" clip-rule="evenodd" d="M310.946 164.524C310.946 164.524 293.521 168.52 293.765 170.275C294.009 172.03 298.053 184.937 298.053 184.937L319.355 184.315L310.946 164.524Z" fill="#D76D75"/>
<path fill-rule="evenodd" clip-rule="evenodd" d="M328.607 184.088H215.898V192.399H336.918C336.918 187.809 333.197 184.088 328.607 184.088Z" fill="#A6D7E3"/>
<path fill-rule="evenodd" clip-rule="evenodd" d="M258.611 179.49L217.142 88.0006C216.215 85.8216 213.962 84.5176 211.612 84.8016L105.255 93.6686C102.876 93.9566 101.39 96.3906 102.222 98.6376L130.197 174.22L150.973 184.089H255.568C257.938 184.089 259.538 181.671 258.611 179.49Z" fill="#BCE4F0"/>
<path fill-rule="evenodd" clip-rule="evenodd" d="M109.716 190.229L141.298 152.924L221.241 150.328L233.986 190.229H109.716Z" fill="#A6D7E3"/>
<path fill-rule="evenodd" clip-rule="evenodd" d="M278.049 252.703C278.592 252.606 279.112 252.967 279.209 253.511C279.3 254.016 278.994 254.5 278.515 254.645L278.401 254.672L233.473 262.723C232.93 262.82 232.41 262.458 232.313 261.915C232.222 261.41 232.528 260.926 233.007 260.781L233.121 260.754L278.049 252.703Z" fill="#323863"/>
<path fill-rule="evenodd" clip-rule="evenodd" d="M301.409 201.285C301.951 201.18 302.475 201.535 302.58 202.077C302.677 202.581 302.378 203.069 301.9 203.22L301.787 203.249L224.916 218.052C224.374 218.156 223.849 217.801 223.745 217.259C223.648 216.755 223.947 216.267 224.424 216.116L224.538 216.088L301.409 201.285Z" fill="#323863"/>
<path fill-rule="evenodd" clip-rule="evenodd" d="M342.699 190.229H35.7723C32.2903 190.229 29.4663 193.052 29.4663 196.536C29.4663 200.019 32.2903 202.843 35.7723 202.843H342.699C346.182 202.843 349.007 200.019 349.007 196.536C349.007 193.052 346.182 190.229 342.699 190.229Z" fill="#4C7BB1"/>
<path fill-rule="evenodd" clip-rule="evenodd" d="M221.241 150.327L191.47 190.228H233.986L221.241 150.327Z" fill="#81BFD5"/>
<path fill-rule="evenodd" clip-rule="evenodd" d="M284.188 90.4612C284.74 90.4584 285.19 90.9038 285.193 91.4561C285.271 106.87 287.852 122.267 292.805 136.864C292.982 137.387 292.702 137.955 292.179 138.132C291.656 138.31 291.088 138.029 290.911 137.506C285.889 122.706 283.272 107.095 283.193 91.4663C283.19 90.914 283.635 90.464 284.188 90.4612Z" fill="#D76D75"/>
<path fill-rule="evenodd" clip-rule="evenodd" d="M247.595 123.893C247.789 123.376 248.365 123.115 248.883 123.309C253.16 124.915 257.105 127.389 260.408 130.54C260.808 130.921 260.823 131.554 260.442 131.954C260.06 132.354 259.427 132.369 259.028 131.988C255.919 129.023 252.205 126.692 248.18 125.181C247.663 124.987 247.401 124.41 247.595 123.893Z" fill="#D76D75"/>
<path fill-rule="evenodd" clip-rule="evenodd" d="M419.702 124.479C420.247 124.392 420.761 124.763 420.848 125.308C422.431 135.158 422.043 143.558 419.208 150.366C412.669 166.062 396.076 177.041 374.815 182.375C364.882 184.865 349.579 186.004 334.346 185.937C333.794 185.934 333.348 185.485 333.351 184.932C333.353 184.38 333.803 183.934 334.355 183.937L336.031 183.939C350.549 183.918 364.957 182.785 374.329 180.435C395.037 175.24 411.11 164.605 417.362 149.597C420.031 143.188 420.402 135.141 418.873 125.625C418.786 125.08 419.157 124.567 419.702 124.479Z" fill="#D76D75"/>
<path fill-rule="evenodd" clip-rule="evenodd" d="M360.328 102.875C360.832 102.649 361.424 102.875 361.649 103.379C365.95 112.993 371.58 121.199 381.788 133.735L382.88 135.071L384.258 136.752L382.085 136.705C374.913 136.551 368.979 138.903 358.705 145.008L354.636 147.446C347.234 151.853 343.327 153.805 338.378 155.261C337.848 155.417 337.292 155.113 337.136 154.584C336.98 154.054 337.283 153.498 337.813 153.342L338.441 153.153C343.006 151.741 346.861 149.763 354.122 145.424L357.124 143.622L358.235 142.961C367.365 137.575 373.221 135.104 379.711 134.744L380.019 134.728L379.693 134.328C369.901 122.258 364.337 114.13 360.056 104.711L359.824 104.196C359.598 103.692 359.824 103.1 360.328 102.875Z" fill="#D76D75"/>
<path fill-rule="evenodd" clip-rule="evenodd" d="M341.036 252.129C341.036 252.129 361.502 177.336 420.767 188.243C420.767 188.243 417.724 261.824 341.036 252.129Z" fill="#F6C561"/>
<path fill-rule="evenodd" clip-rule="evenodd" d="M277.254 14.3489C278.689 12.2119 280.87 10.9749 283.443 10.9749L300.142 15.3169C301.866 21.0939 303.902 27.0189 301.144 30.6789L322.517 49.8809L300.142 63.7409L289.027 45.9529C285.343 52.1569 271.435 47.8319 271.405 40.8639C271.388 36.6239 275.819 16.4859 277.254 14.3489Z" fill="#8F4F48"/>
<path fill-rule="evenodd" clip-rule="evenodd" d="M275.076 25.8917C275.117 25.2367 275.682 24.7387 276.338 24.7797C276.994 24.8207 277.492 25.3857 277.45 26.0407C277.409 26.6977 276.845 27.1957 276.188 27.1547C275.533 27.1127 275.035 26.5477 275.076 25.8917Z" fill="#353D59"/>
<path fill-rule="evenodd" clip-rule="evenodd" d="M283.005 27.1007C283.046 26.4457 283.611 25.9477 284.267 25.9887C284.923 26.0297 285.421 26.5947 285.379 27.2497C285.338 27.9067 284.774 28.4047 284.117 28.3637C283.462 28.3217 282.964 27.7567 283.005 27.1007Z" fill="#353D59"/>
<path fill-rule="evenodd" clip-rule="evenodd" d="M288.111 24.8059C288.213 24.8119 288.316 24.7849 288.404 24.7189C288.602 24.5729 288.644 24.2929 288.498 24.0949C287.174 22.3059 284.397 21.8309 282.55 23.0749C282.347 23.2119 282.293 23.4909 282.43 23.6949C282.568 23.8969 282.844 23.9499 283.05 23.8149C284.518 22.8239 286.728 23.2029 287.78 24.6259C287.862 24.7359 287.984 24.7979 288.111 24.8059Z" fill="#A97B73"/>
<path fill-rule="evenodd" clip-rule="evenodd" d="M279.155 23.3497C279.242 23.3547 279.332 23.3287 279.409 23.2697C279.584 23.1347 279.624 22.8747 279.498 22.6897C278.365 21.0167 276.042 20.4537 274.321 21.4357C274.13 21.5447 274.057 21.7957 274.158 21.9987C274.259 22.2027 274.496 22.2737 274.685 22.1677C276.051 21.3897 277.964 21.8517 278.864 23.1797C278.934 23.2837 279.043 23.3417 279.155 23.3497Z" fill="#A97B73"/>
<path fill-rule="evenodd" clip-rule="evenodd" d="M279.147 26.9926C279.248 26.7357 279.539 26.6095 279.796 26.7107C280.053 26.812 280.179 27.1023 280.078 27.3592C279.437 28.9854 278.719 30.5797 277.926 32.1342L277.719 32.5301L277.965 32.703C278.458 33.0345 278.997 33.3229 279.589 33.5763L279.95 33.7242C280.208 33.8247 280.335 34.1147 280.234 34.3719C280.134 34.6291 279.844 34.7561 279.586 34.6556C278.649 34.2892 277.819 33.8466 277.081 33.303L276.769 33.0638L276.447 32.805L276.641 32.4398C277.576 30.675 278.413 28.8551 279.147 26.9926Z" fill="#753730"/>
<path fill-rule="evenodd" clip-rule="evenodd" d="M276.547 38.2908C276.718 38.0738 277.032 38.0364 277.249 38.2073C278.546 39.2286 280.302 39.6546 281.924 39.3412C282.195 39.2888 282.457 39.4661 282.51 39.7373C282.562 40.0084 282.385 40.2707 282.114 40.323C280.206 40.6915 278.156 40.194 276.63 38.993C276.413 38.8221 276.376 38.5078 276.547 38.2908Z" fill="#753730"/>
<path fill-rule="evenodd" clip-rule="evenodd" d="M292.037 41.9009C292.197 41.6754 292.509 41.6218 292.734 41.7812C292.96 41.9406 293.013 42.2526 292.854 42.4781C291.752 44.0366 290.502 45.4914 289.129 46.8136C288.93 47.0052 288.614 46.9992 288.422 46.8003C288.231 46.6014 288.237 46.2849 288.436 46.0933C289.763 44.8148 290.972 43.4079 292.037 41.9009Z" fill="#753730"/>
<path fill-rule="evenodd" clip-rule="evenodd" d="M298.559 31.5988C306.237 25.9668 296.343 18.9658 292.409 27.4518C290.347 23.7828 290.313 19.1128 292.446 15.4838C286.971 16.5678 273.308 15.7758 273.308 6.16081C273.308 4.13481 274.364 2.08681 276.121 1.07881C277.487 0.294807 279.168 0.187807 280.705 0.528807C282.244 0.869807 283.659 1.62581 284.978 2.48781C287.055 3.84381 288.871 5.56981 290.513 7.42881C293.1 6.26881 296.18 6.26181 298.772 7.41181C301.364 8.56081 303.426 10.8478 304.303 13.5438C305.519 17.2868 304.488 21.4408 305.467 25.2528C305.839 26.7018 306.492 28.0588 307.008 29.4618C307.524 30.8668 307.908 32.3668 307.707 33.8478C307.506 35.3288 306.617 36.7908 305.218 37.3208C303.592 37.9358 301.758 37.4518 300.543 36.2058C299.329 34.9608 298.503 33.3368 298.559 31.5988Z" fill="#A97B73"/>
<path fill-rule="evenodd" clip-rule="evenodd" d="M297.544 25.8965C297.764 25.7299 298.078 25.7733 298.245 25.9935C298.411 26.2137 298.368 26.5273 298.148 26.6939C297.538 27.1552 296.981 27.6846 296.489 28.2683L296.36 28.4263L296.402 28.4255C296.942 28.3983 297.478 28.3091 297.997 28.1596L298.306 28.0627C298.568 27.974 298.852 28.114 298.94 28.3755C299.029 28.637 298.889 28.9209 298.628 29.0097C297.693 29.327 296.698 29.4688 295.711 29.4274L295.341 29.4032L294.501 29.3288L294.969 28.6276C295.667 27.5829 296.541 26.6557 297.544 25.8965Z" fill="#753730"/>
<path fill-rule="evenodd" clip-rule="evenodd" d="M317.149 70.8565C319.906 66.2435 320.905 60.8325 322.178 55.6115C323.209 51.3855 324.551 47.0805 327.023 43.5625C306.538 46.0895 294.189 57.0725 290.749 60.5395C290.444 62.0365 290.298 63.5655 290.368 65.1185C291.046 80.2545 309.937 82.9225 317.149 70.8565Z" fill="#8F4F48"/>
<path fill-rule="evenodd" clip-rule="evenodd" d="M292.657 86.6146C291.659 78.2416 290.349 68.8686 290.748 60.5396C283.505 59.2606 280.904 65.9256 283.053 71.9456C283.378 72.7956 283.733 73.6326 284.117 74.4506C286.137 78.7606 289.069 83.1306 292.657 86.6146Z" fill="#D76D75"/>
<path fill-rule="evenodd" clip-rule="evenodd" d="M324.224 89.8117C324.224 89.8117 306.742 67.4267 327.023 43.5627L348.084 37.5857L355.174 45.5417C355.174 45.5417 318.542 46.9557 324.224 89.8117Z" fill="#D76D75"/>
<path fill-rule="evenodd" clip-rule="evenodd" d="M254.055 202.267L231.077 364.526H238.032L269.567 202.267H254.055Z" fill="#4C7BB1"/>
<path fill-rule="evenodd" clip-rule="evenodd" d="M330.618 202.267L353.596 364.526H346.641L315.105 202.267H330.618Z" fill="#4C7BB1"/>
<path fill-rule="evenodd" clip-rule="evenodd" d="M211.432 83.313C214.359 82.9592 217.17 84.5261 218.403 87.1469L259.991 178.902C261.338 182.073 259.013 185.588 255.568 185.588C254.74 185.588 254.068 184.917 254.068 184.088C254.068 183.308 254.663 182.668 255.424 182.595L255.568 182.588C256.815 182.588 257.671 181.363 257.293 180.238L257.244 180.108L215.761 88.5868C215.096 87.0228 213.479 86.0874 211.791 86.2913C210.969 86.3907 210.222 85.8046 210.122 84.9821C210.023 84.1597 210.609 83.4124 211.432 83.313Z" fill="#A6D7E3"/>
<path fill-rule="evenodd" clip-rule="evenodd" d="M490.894 303.352C482.231 306.746 476.392 307.444 467.345 305.953C464.253 310.106 464.4 315.789 463.679 319.036C462.828 322.871 457.792 324.083 454.786 326.612C450.623 330.113 441.049 339.114 447.716 357.119C465.868 364.656 474.688 364.656 474.688 364.656C474.688 364.656 480.379 360.984 468.366 356.454C474.415 353.686 475.331 347.194 475.331 347.194C475.896 350.395 478.48 355.385 480.379 360.984C480.807 362.243 481.65 363.392 482.767 364.113C483.883 364.834 485.527 364.898 486.432 363.925C487.427 362.854 487.128 361.166 486.832 359.735C485.418 352.914 483.79 345.271 487.221 339.207C489.441 335.285 491.948 335.633 493.615 331.757C494.358 330.031 495.046 324.449 495.276 322.454C495.904 316.999 492.672 308.602 490.894 303.352Z" fill="#E1DCD4"/>
<path fill-rule="evenodd" clip-rule="evenodd" d="M491.862 305.929C492.437 303.932 491.862 299.664 490.474 297.971H465.912C465.13 299.696 464.922 304.708 464.9 306.63C473.947 308.121 482.222 308.116 491.862 305.929Z" fill="#5B9274"/>
<path fill-rule="evenodd" clip-rule="evenodd" d="M455.832 281.96C453.694 282.309 451.568 282.66 449.503 283.037C449.123 285.641 448.932 288.27 448.889 290.9C452.862 289.977 455.572 286.201 455.832 281.96Z" fill="#353D59"/>
<path fill-rule="evenodd" clip-rule="evenodd" d="M490.61 281.358C489.787 271.858 484.084 265.027 482.042 265.027C479.999 265.027 480.452 273.79 480.452 273.79C480.452 273.79 474.715 264.438 472.864 265.027C471.966 265.313 471.924 275.035 471.924 275.035C471.924 275.035 469.521 275.158 468.771 276.047C468.021 276.938 467.799 278.829 468.273 279.892C464.241 280.627 460.006 281.282 455.832 281.961C455.572 286.202 452.862 289.977 448.888 290.901C448.793 296.702 449.1 299.733 450.62 305.333C450.839 306.14 453.85 306.397 453.662 300.933C453.894 306.862 460.329 309.402 461 303.251C461.118 308.809 466.581 308.951 466.561 303.352C466.609 308.659 472.471 306.212 472.343 299.946C478.117 300.169 485.235 299.964 490.815 298.468C495.355 294.523 495.152 287.483 490.61 281.358Z" fill="#E1DCD4"/>
<path fill-rule="evenodd" clip-rule="evenodd" d="M479.825 282.506C479.867 281.575 479.145 280.787 478.215 280.745C477.283 280.704 476.495 281.425 476.453 282.357C476.412 283.287 477.133 284.076 478.064 284.117C478.995 284.159 479.784 283.438 479.825 282.506Z" fill="#353D59"/>
<path fill-rule="evenodd" clip-rule="evenodd" d="M482.373 267.744C482.034 270.263 482.312 273.769 482.778 276.27L487.265 279.054C486.959 275.237 484.979 270.712 482.373 267.744Z" fill="#ED8E93"/>
<path fill-rule="evenodd" clip-rule="evenodd" d="M473.462 274.832L477.812 274.7C476.762 272.521 475.49 269.445 473.771 267.744C473.442 269.675 473.23 272.887 473.462 274.832Z" fill="#ED8E93"/>
<path d="M471.428 332.488C471.649 332.323 471.962 332.369 472.127 332.591C474.686 336.027 476.148 340.041 476.155 343.986C476.163 348.251 474.393 352.387 471.321 354.994C468.066 357.758 463.377 358.622 459.595 357.044C459.34 356.937 459.219 356.645 459.326 356.39C459.432 356.135 459.725 356.014 459.98 356.121C463.405 357.55 467.698 356.759 470.674 354.232C473.513 351.822 475.162 347.968 475.155 343.988C475.149 340.268 473.761 336.459 471.325 333.188C471.16 332.966 471.206 332.653 471.428 332.488Z" fill="#C5BCB0"/>
<path fill-rule="evenodd" clip-rule="evenodd" d="M437.025 341.591C433.374 337.382 430.494 332.572 427.314 327.995C425.969 326.059 424.133 323.949 421.785 324.153C419.21 324.375 417.713 327.486 418.214 330.023C418.595 331.946 419.752 333.575 421.061 335.071C420.293 334.738 419.343 334.735 418.617 335.174C417.31 335.962 416.798 337.689 417.072 339.19C417.346 340.692 418.26 341.996 419.274 343.137C421.395 345.525 424.11 347.439 427.171 348.335C425.754 348.027 424.333 349.734 424.583 351.246C424.85 352.865 426.299 354.022 427.77 354.75C430.159 355.933 432.89 356.388 435.54 356.097C435.411 356.277 435.318 356.481 435.299 356.703C435.216 357.701 436.102 358.571 437.071 358.827C438.039 359.082 439.062 358.877 440.043 358.671C443.241 357.999 446.439 357.327 449.637 356.654L450.621 350.888C445.238 349.446 440.676 345.801 437.025 341.591Z" fill="#E1DCD4"/>
<path fill-rule="evenodd" clip-rule="evenodd" d="M485.198 337.7C486.079 344.812 487.946 351.802 490.727 358.405C491.24 359.622 491.826 360.88 492.883 361.672C493.94 362.464 495.609 362.596 496.487 361.609C497.383 360.603 497.071 359.052 496.724 357.752C493.793 346.768 491.862 334.004 492.89 324.104" fill="#E1DCD4"/>
<path d="M491.588 305.511C491.818 305.36 492.128 305.424 492.28 305.654C496.165 311.56 497.081 327.088 493.614 332.824L493.448 333.086L492.932 333.863L492.091 331.859L492.074 332.132C491.906 334.409 491.254 336.651 490.162 338.657L489.952 339.03L489.628 339.587L489.169 339.135C488.583 338.559 488.167 337.823 487.955 337.031L487.939 336.969L487.782 337.27C486.008 340.692 485.573 342.458 485.755 345.502L485.775 345.811C485.795 346.086 485.587 346.325 485.312 346.345C485.036 346.364 484.797 346.157 484.778 345.881C484.502 341.996 485.1 340.054 487.683 335.335L489.321 332.366L488.84 335.247C488.697 336.1 488.886 337.005 489.336 337.745L489.433 337.895L489.471 337.823C490.747 335.319 491.307 332.453 491.062 329.655L491.022 329.255L490.618 325.752L493.099 331.677L493.216 331.43C495.874 325.55 494.976 311.993 491.621 306.482L491.445 306.204C491.293 305.973 491.357 305.663 491.588 305.511Z" fill="#C5BCB0"/>
<path fill-rule="evenodd" clip-rule="evenodd" d="M484.79 310.723C484.79 308.545 483.025 306.781 480.849 306.781C478.671 306.781 476.906 308.545 476.906 310.723C476.906 312.9 478.671 314.664 480.849 314.664C483.025 314.664 484.79 312.9 484.79 310.723Z" fill="#F0A95C"/>
</svg>
