<svg width="148" height="60" viewBox="0 0 148 60" fill="none" xmlns="http://www.w3.org/2000/svg">
<path d="M6.324 45.992C6.196 44.968 6.04667 43.5067 5.876 41.608C5.70533 39.688 5.51333 37.5013 5.3 35.048C5.08667 32.5733 4.86267 29.992 4.628 27.304C4.41467 24.5947 4.20133 21.928 3.988 19.304C3.77467 16.68 3.58267 14.2587 3.412 12.04C3.26267 9.82133 3.124 7.95466 2.996 6.44C2.88933 4.904 2.81467 3.90133 2.772 3.432C3.56133 3.32533 4.60667 3.208 5.908 3.08C7.23067 2.952 8.628 2.84533 10.1 2.76C11.5933 2.65333 12.9693 2.6 14.228 2.6C18.132 2.6 21.4173 3.05866 24.084 3.976C26.7507 4.89333 28.8947 6.26933 30.516 8.104C32.1373 9.91733 33.3 12.2 34.004 14.952C34.7293 17.704 35.092 20.9147 35.092 24.584C35.092 28.8293 34.5373 32.328 33.428 35.08C32.3187 37.832 30.5907 39.9973 28.244 41.576C25.9187 43.1547 22.9427 44.2747 19.316 44.936C15.6893 45.5973 11.3587 45.9493 6.324 45.992ZM14.676 36.744C17.5347 36.616 19.796 36.104 21.46 35.208C23.124 34.2907 24.2973 32.9893 24.98 31.304C25.684 29.6187 26.036 27.5387 26.036 25.064C26.036 22.3973 25.7053 19.9547 25.044 17.736C24.3827 15.496 23.2733 13.704 21.716 12.36C20.18 11.016 18.0787 10.344 15.412 10.344C14.9853 10.344 14.5267 10.3547 14.036 10.376C13.5667 10.376 13.1293 10.3973 12.724 10.44C12.916 13.064 13.1187 15.912 13.332 18.984C13.5453 22.0347 13.7693 25.096 14.004 28.168C14.2387 31.2187 14.4627 34.0773 14.676 36.744ZM59.9965 46.632C55.6658 46.632 52.1138 45.672 49.3405 43.752C46.5885 41.832 44.5512 39.2293 43.2285 35.944C41.9272 32.6587 41.2765 28.968 41.2765 24.872C41.2765 20.5627 41.9912 16.7547 43.4205 13.448C44.8712 10.12 46.9832 7.50666 49.7565 5.608C52.5512 3.70933 55.9645 2.76 59.9965 2.76C63.3458 2.76 66.2045 3.336 68.5725 4.488C70.9618 5.64 72.9032 7.24 74.3965 9.288C75.9112 11.3147 77.0205 13.6613 77.7245 16.328C78.4285 18.9947 78.7805 21.8427 78.7805 24.872C78.7805 27.752 78.4178 30.504 77.6925 33.128C76.9672 35.7307 75.8472 38.0453 74.3325 40.072C72.8178 42.0987 70.8765 43.6987 68.5085 44.872C66.1405 46.0453 63.3032 46.632 59.9965 46.632ZM60.0285 37.672C62.4392 37.672 64.4232 37.0427 65.9805 35.784C67.5378 34.5253 68.6898 32.8613 69.4365 30.792C70.2045 28.7227 70.5885 26.504 70.5885 24.136C70.5885 22.344 70.4178 20.616 70.0765 18.952C69.7565 17.288 69.2125 15.8053 68.4445 14.504C67.6765 13.1813 66.6418 12.136 65.3405 11.368C64.0605 10.6 62.4712 10.216 60.5725 10.216C58.3325 10.216 56.4445 10.8667 54.9085 12.168C53.3938 13.448 52.2418 15.1867 51.4525 17.384C50.6632 19.5813 50.2685 22.0453 50.2685 24.776C50.2685 27.1867 50.5885 29.3627 51.2285 31.304C51.8898 33.2453 52.9458 34.792 54.3965 35.944C55.8472 37.096 57.7245 37.672 60.0285 37.672ZM81.8515 10.728C81.7662 10.3013 81.6808 9.71466 81.5955 8.968C81.5315 8.2 81.4675 7.4 81.4035 6.568C81.3608 5.736 81.3288 4.98933 81.3075 4.328C81.2862 3.64533 81.2755 3.176 81.2755 2.92C83.6862 2.74933 86.4275 2.6 89.4995 2.472C92.5928 2.344 95.7182 2.28 98.8755 2.28C101.244 2.28 103.537 2.33333 105.756 2.44C107.996 2.52533 110.044 2.696 111.9 2.952C111.921 4.46667 111.878 5.90667 111.772 7.272C111.665 8.616 111.537 9.64 111.388 10.344C110.961 10.344 110.342 10.344 109.532 10.344C108.721 10.3227 107.814 10.3013 106.812 10.28C105.809 10.2587 104.817 10.248 103.836 10.248C102.854 10.2267 102.001 10.216 101.276 10.216C101.297 11.0053 101.329 12.1893 101.372 13.768C101.436 15.3253 101.51 17.128 101.596 19.176C101.681 21.224 101.766 23.368 101.852 25.608C101.958 27.848 102.054 30.056 102.14 32.232C102.225 34.408 102.3 36.4027 102.364 38.216C102.449 40.0293 102.513 41.5227 102.556 42.696C102.62 43.8693 102.652 44.584 102.652 44.84C101.905 44.9467 100.924 45.0427 99.7075 45.128C98.5128 45.2347 97.3182 45.3093 96.1235 45.352C94.9288 45.416 93.9582 45.448 93.2115 45.448C93.1475 44.1893 93.0835 42.632 93.0195 40.776C92.9555 38.92 92.9022 36.904 92.8595 34.728C92.8168 32.5307 92.7742 30.2907 92.7315 28.008C92.6888 25.704 92.6568 23.464 92.6355 21.288C92.6142 19.112 92.6035 17.1173 92.6035 15.304C92.6035 14.3227 92.6035 13.416 92.6035 12.584C92.6035 11.752 92.6142 11.0053 92.6355 10.344C91.8675 10.3867 91.0142 10.4293 90.0755 10.472C89.1582 10.4933 88.2088 10.5253 87.2275 10.568C86.2462 10.6107 85.2968 10.6427 84.3795 10.664C83.4622 10.6853 82.6195 10.7067 81.8515 10.728ZM127.454 27.464C126.92 26.7387 126.312 25.8213 125.63 24.712C124.968 23.5813 124.254 22.344 123.486 21C122.718 19.656 121.95 18.248 121.182 16.776C120.414 15.304 119.656 13.8427 118.91 12.392C118.163 10.92 117.47 9.512 116.83 8.168C116.211 6.80267 115.667 5.576 115.198 4.488C116.926 3.848 118.579 3.4 120.158 3.144C121.758 2.86666 123.091 2.71733 124.158 2.696C124.328 3.10133 124.606 3.784 124.99 4.744C125.374 5.704 125.822 6.80266 126.334 8.04C126.867 9.27733 127.422 10.5573 127.998 11.88C128.574 13.1813 129.128 14.4187 129.662 15.592C130.195 16.744 130.654 17.704 131.038 18.472C131.272 17.96 131.635 17.2133 132.126 16.232C132.616 15.2293 133.16 14.1093 133.758 12.872C134.376 11.6347 135.006 10.3867 135.646 9.128C136.307 7.86933 136.904 6.71733 137.438 5.672C137.992 4.60533 138.44 3.77333 138.782 3.176C139.827 3.28267 140.872 3.50667 141.918 3.848C142.984 4.18933 143.976 4.57333 144.894 5C145.832 5.42667 146.632 5.85333 147.294 6.28C146.355 7.53867 145.256 9.20267 143.998 11.272C142.739 13.32 141.374 15.6667 139.902 18.312C138.451 20.9573 136.958 23.8053 135.422 26.856C135.464 27.9013 135.496 29.0853 135.518 30.408C135.56 31.7093 135.592 32.9787 135.614 34.216C135.635 35.432 135.646 36.4347 135.646 37.224C135.646 38.1627 135.635 39.176 135.614 40.264C135.614 41.3307 135.614 42.28 135.614 43.112C135.614 43.9227 135.614 44.456 135.614 44.712C135.358 44.7973 134.867 44.872 134.142 44.936C133.438 45 132.659 45.032 131.806 45.032C130.888 45.032 129.971 45 129.054 44.936C128.158 44.8507 127.39 44.7547 126.75 44.648C126.75 43.6453 126.771 42.408 126.814 40.936C126.856 39.464 126.91 37.9067 126.974 36.264C127.038 34.6213 127.112 33.032 127.198 31.496C127.283 29.96 127.368 28.616 127.454 27.464Z" fill="#3B56AA"/>
</svg>
