<svg width="622" height="392" viewBox="0 0 622 392" fill="none" xmlns="http://www.w3.org/2000/svg">
<path d="M458.538 149.95L461.103 286.312L466.558 286.955L464.503 149.408L458.538 149.95Z" fill="#F5C5CC"/>
<path d="M445.349 147.384L447.914 283.746L453.369 284.389L451.314 146.843L445.349 147.384Z" fill="#F5C5CC"/>
<path d="M448.573 140.256L448.839 288.984L454.416 288.452L452.291 137.335L448.573 140.256Z" fill="#CC929B"/>
<path d="M294.73 115.424L297.083 239.033L302.538 239.606L300.7 114.925L294.73 115.424Z" fill="#F5C5CC"/>
<path d="M297.88 113.113L300.579 241.763L302.539 239.606L300.701 114.924L297.88 113.113Z" fill="#CC929B"/>
<path d="M306.336 118.552L308.689 242.156L314.144 242.729L312.307 118.053L306.336 118.552Z" fill="#F5C5CC"/>
<path d="M309.486 116.237L312.189 244.886L314.144 242.729L312.306 118.053L309.486 116.237Z" fill="#CC929B"/>
<path d="M317.682 121.941L320.035 245.55L325.49 246.124L323.652 121.447L317.682 121.941Z" fill="#F5C5CC"/>
<path d="M320.832 119.636L323.535 248.28L325.49 246.124L323.652 121.447L320.832 119.636Z" fill="#CC929B"/>
<path d="M328.719 122.632L331.142 250.58L336.597 251.175L334.685 122.122L328.719 122.632Z" fill="#F5C5CC"/>
<path d="M331.864 120.242L334.642 253.406L336.597 251.175L334.685 122.122L331.864 120.242Z" fill="#CC929B"/>
<path d="M340.687 123.631L343.115 251.573L348.57 252.168L346.658 123.115L340.687 123.631Z" fill="#F5C5CC"/>
<path d="M343.836 121.24L346.614 254.399L348.569 252.168L346.657 123.115L343.836 121.24Z" fill="#CC929B"/>
<path d="M352.447 127.811L354.869 255.759L360.324 256.354L358.417 127.301L352.447 127.811Z" fill="#F5C5CC"/>
<path d="M355.592 125.42L358.37 258.585L360.325 256.354L358.418 127.301L355.592 125.42Z" fill="#CC929B"/>
<path d="M365.907 130.573L368.393 262.09L373.848 262.701L371.877 130.047L365.907 130.573Z" fill="#F5C5CC"/>
<path d="M369.052 128.119L371.894 264.996L373.848 262.701L371.878 130.047L369.052 128.119Z" fill="#CC929B"/>
<path d="M377.619 131.97L380.099 263.487L385.56 264.098L383.584 131.444L377.619 131.97Z" fill="#F5C5CC"/>
<path d="M380.764 129.511L383.606 266.393L385.561 264.098L383.585 131.444L380.764 129.511Z" fill="#CC929B"/>
<path d="M390.027 135.476L392.513 266.993L397.968 267.609L395.998 134.955L390.027 135.476Z" fill="#F5C5CC"/>
<path d="M393.177 133.022L396.014 269.904L397.968 267.609L395.998 134.955L393.177 133.022Z" fill="#CC929B"/>
<path d="M284.102 115.206L283.836 107.377L286.598 105.868L484.693 146.497L485.059 156.435L284.102 115.206Z" fill="#F5C5CC"/>
<path d="M286.598 105.868L485.42 146.465L485.218 150.189L284.245 107.148" fill="#CC929B"/>
<path d="M294.799 310.061L289.222 312.09H283.91L283.645 102.522L286.566 98.4637L289.386 97.6351L292.94 97.0986L294.799 310.061Z" fill="#F5C5CC"/>
<path d="M294.799 310.061L289.222 312.09L288.876 102.936L289.386 97.6351L292.94 97.0986L294.799 310.061Z" fill="#CC929B"/>
<path d="M403.509 139.369L405.995 270.881L411.45 271.497L409.479 138.843L403.509 139.369Z" fill="#F5C5CC"/>
<path d="M406.653 136.91L409.495 273.792L411.45 271.498L409.479 138.843L406.653 136.91Z" fill="#CC929B"/>
<path d="M417.09 141.446L419.624 275.774L425.079 276.4L423.055 140.915L417.09 141.446Z" fill="#F5C5CC"/>
<path d="M431.076 143.905L433.642 280.267L439.097 280.91L437.047 143.363L431.076 143.905Z" fill="#F5C5CC"/>
<path d="M434.221 141.361L437.147 283.29L439.097 280.91L437.047 143.363L434.221 141.361Z" fill="#CC929B"/>
<path d="M217.514 269.862L211.936 270.393L211.676 123.689L211.671 121.665L215.389 118.744L215.448 122.813L217.514 269.862Z" fill="#F5C5CC"/>
<path d="M237.167 261.628L231.59 262.16L231.33 117.851L231.324 113.432L235.042 110.511L235.127 116.438L237.167 261.628Z" fill="#F5C5CC"/>
<path d="M269.569 248.349L263.991 248.88L263.736 106.394L263.726 100.153L267.444 97.2314L267.561 105.507L269.569 248.349Z" fill="#F5C5CC"/>
<path d="M283.644 243.037L278.067 243.569L277.817 104.561L277.802 94.841L281.52 91.9196L281.711 105.422L283.644 243.037Z" fill="#F5C5CC"/>
<path d="M227.341 268.268L221.763 268.799L221.498 121.134V120.072L225.216 117.15L225.253 119.949L227.341 268.268Z" fill="#F5C5CC"/>
<path d="M256.024 254.989L250.446 255.52L250.186 110.638L250.181 106.792L253.899 103.871L253.973 109.321L256.024 254.989Z" fill="#F5C5CC"/>
<path d="M246.728 257.645L241.151 258.176L240.896 114.17L240.885 109.448L244.604 106.527L244.689 112.678L246.728 257.645Z" fill="#F5C5CC"/>
<path d="M211.565 245.353L210.237 248.142C210.237 248.142 206.785 253.321 207.183 261.288C207.581 269.256 201.622 290.37 201.622 290.37C201.622 290.37 207.066 292.893 211.183 292.627C215.299 292.362 224.196 296.744 224.196 296.744L242.639 302.465L279.953 311.229C279.953 311.229 301.864 323.446 307.84 323.446C313.815 323.446 337.585 331.546 337.585 331.546C337.585 331.546 369.721 338.584 372.244 341.24C374.767 343.896 385.406 347.471 386.469 347.614C387.531 347.758 403.732 349.34 403.732 349.34C403.732 349.34 422.588 353.723 425.244 349.075C426.792 346.461 427.829 343.577 428.298 340.576C428.298 340.576 436.664 342.435 438.922 339.647C441.179 336.858 441.312 330.882 443.968 331.148C446.624 331.413 457.513 334.733 458.708 333.538C459.903 332.343 466.277 318.267 470.792 320.392C475.307 322.516 483.142 325.836 483.142 325.836L478.627 279.89L476.635 267.275C476.635 267.275 404.263 296.755 401.74 296.755C399.217 296.755 211.565 245.353 211.565 245.353Z" fill="#ED8E93"/>
<path d="M476.236 205.117L475.838 269.92L400.661 298.747L210.237 248.153C210.237 248.153 197.356 229.96 209.307 212.963C209.307 212.963 193.903 191.716 213.026 177.905L213.498 177.794L285.796 160.377L317.948 166.252L460.009 192.236C460.009 192.236 473.963 197.415 476.236 205.117Z" fill="#ED8E93"/>
<path opacity="0.1" d="M315.409 172.45C311.824 174.309 285.796 181.082 280.617 185.198C275.439 189.315 239.585 192.513 239.585 192.513L235.601 193.309C235.601 193.309 235.866 190.654 220.064 182.952C217.54 181.71 215.303 179.953 213.499 177.794L285.796 160.377L317.948 166.252C317.991 168.796 317.555 171.335 315.409 172.45Z" fill="black"/>
<path d="M206.121 146.832C206.121 146.832 204.793 172.594 220.595 180.296C236.397 187.998 236.148 190.643 236.148 190.643L240.132 189.846C240.132 189.846 226.321 174.442 227.251 171.786C228.18 169.13 214.901 155.718 213.026 155.187C211.151 154.656 206.121 146.832 206.121 146.832Z" fill="#ED8E93"/>
<path opacity="0.1" d="M206.402 147.22C206.402 147.22 205.074 172.981 220.876 180.683C236.678 188.385 236.413 191.041 236.413 191.041L240.397 190.244C240.397 190.244 226.586 174.841 227.516 172.185C228.445 169.529 215.15 156.117 213.307 155.586C211.464 155.054 206.402 147.22 206.402 147.22Z" fill="black"/>
<path opacity="0.1" d="M210.12 158.109C210.12 158.109 222.868 177.364 225.126 178.028C227.383 178.691 213.158 158.374 210.12 158.109Z" fill="black"/>
<path d="M204.277 143.236C204.277 143.236 212.51 136.596 213.573 135.268C214.635 133.94 226.321 133.409 226.719 133.409C227.118 133.409 236.015 127.965 245.974 126.238C255.934 124.512 259.917 123.715 259.917 123.715C259.917 123.715 274.525 117.607 275.321 116.279C276.118 114.951 282.89 113.49 291.256 119.997C299.622 126.504 318.08 155.718 318.213 158.905C318.346 162.092 319.541 167.935 315.956 169.794C312.37 171.654 286.343 178.426 281.164 182.543C275.985 186.659 240.115 189.857 240.115 189.857L226.586 175.106L219.416 163.553L207.464 150.938L204.277 143.236Z" fill="#ED8E93"/>
<path opacity="0.1" d="M226.48 257.926C226.48 257.926 221.524 258.988 224.356 261.819C227.187 264.651 226.48 257.926 226.48 257.926Z" fill="black"/>
<path opacity="0.1" d="M243.833 263.594C243.833 263.594 238.521 269.968 239.584 271.737C240.646 273.505 243.833 263.594 243.833 263.594Z" fill="black"/>
<path opacity="0.1" d="M274.997 271.736C274.997 271.736 269.685 278.11 270.748 279.879C271.81 281.648 274.997 271.736 274.997 271.736Z" fill="black"/>
<path opacity="0.1" d="M312.886 282.36C312.886 282.36 307.574 288.734 308.637 290.503C309.699 292.271 312.886 282.36 312.886 282.36Z" fill="black"/>
<path opacity="0.1" d="M363.878 295.108C363.878 295.108 358.566 301.482 359.629 303.251C360.691 305.02 363.878 295.108 363.878 295.108Z" fill="black"/>
<path opacity="0.1" d="M259.062 265.362C259.062 265.362 253.75 271.737 254.812 273.505C255.875 275.274 259.062 265.362 259.062 265.362Z" fill="black"/>
<path opacity="0.1" d="M333.07 287.672C333.07 287.672 327.758 294.046 328.82 295.814C329.883 297.583 333.07 287.672 333.07 287.672Z" fill="black"/>
<path opacity="0.1" d="M348.649 292.627C348.649 292.627 343.338 299.001 344.4 300.776C345.462 302.55 348.649 292.627 348.649 292.627Z" fill="black"/>
<path opacity="0.1" d="M288.808 275.986C288.808 275.986 283.496 282.36 284.559 284.129C285.621 285.898 288.808 275.986 288.808 275.986Z" fill="black"/>
<path opacity="0.1" d="M422.663 314.586L428.283 340.566C428.283 340.566 428.325 322.373 422.663 314.586Z" fill="black"/>
<path opacity="0.1" d="M440.01 318.479L443.952 331.148C443.952 331.148 443.553 326.272 440.01 318.479Z" fill="black"/>
<path opacity="0.1" d="M458.708 333.528C458.708 333.528 450.299 302.9 448.525 300.776C446.751 298.651 453.645 331.584 458.708 333.528Z" fill="black"/>
<path opacity="0.1" d="M468.694 319.186C468.694 319.186 458.782 301.838 462.675 298.651C466.569 295.464 468.694 319.186 468.694 319.186Z" fill="black"/>
<path opacity="0.1" d="M209.308 212.952L401.766 256.157L475.78 234.555L401.06 254.033C401.06 254.033 215.15 211.183 209.308 212.952Z" fill="black"/>
<path d="M215.124 166.018L215.39 289.648L220.834 290.312L221.1 165.619L215.124 166.018Z" fill="#F5C5CC"/>
<path d="M218.311 163.76L218.842 292.436L220.834 290.312L221.099 165.619L218.311 163.76Z" fill="#CC929B"/>
<path d="M226.677 169.338L226.942 292.967L232.387 293.631L232.652 168.939L226.677 169.338Z" fill="#F5C5CC"/>
<path d="M229.863 167.08L230.394 295.756L232.386 293.631L232.652 168.939L229.863 167.08Z" fill="#CC929B"/>
<path d="M237.964 172.923L238.23 296.553L243.674 297.217L243.94 172.525L237.964 172.923Z" fill="#F5C5CC"/>
<path d="M241.151 170.666L241.682 299.341L243.674 297.217L243.94 172.525L241.151 170.666Z" fill="#CC929B"/>
<path d="M248.986 173.799L249.251 301.769L254.696 302.454L254.962 173.385L248.986 173.799Z" fill="#F5C5CC"/>
<path d="M252.173 171.462L252.704 304.653L254.696 302.454L254.961 173.385L252.173 171.462Z" fill="#CC929B"/>
<path d="M260.938 174.995L261.203 302.964L266.648 303.649L266.913 174.58L260.938 174.995Z" fill="#F5C5CC"/>
<path d="M264.124 172.657L264.655 305.848L266.647 303.649L266.913 174.58L264.124 172.657Z" fill="#CC929B"/>
<path d="M272.623 179.377L272.888 307.346L278.333 308.031L278.598 178.962L272.623 179.377Z" fill="#F5C5CC"/>
<path d="M285.769 181.543L286.035 309.513L291.479 310.198L291.745 181.129L285.769 181.543Z" fill="#F5C5CC"/>
<path d="M275.81 177.04L276.341 310.23L278.333 308.031L278.598 178.962L275.81 177.04Z" fill="#CC929B"/>
<path d="M289.222 179.961L289.753 316.87L291.745 314.607L292.011 181.937L289.222 179.961Z" fill="#CC929B"/>
<path d="M297.72 183.955L297.986 315.494L303.43 316.201L303.696 183.53L297.72 183.955Z" fill="#F5C5CC"/>
<path d="M300.907 181.555L301.438 318.464L303.43 316.201L303.696 183.531L300.907 181.555Z" fill="#CC929B"/>
<path d="M310.07 187.674L310.336 319.213L315.78 319.919L316.046 187.249L310.07 187.674Z" fill="#F5C5CC"/>
<path d="M313.257 185.273L313.788 322.182L315.78 319.919L316.046 187.249L313.257 185.273Z" fill="#CC929B"/>
<path d="M323.482 191.79L323.748 323.329L329.192 324.036L329.458 191.365L323.482 191.79Z" fill="#F5C5CC"/>
<path d="M326.67 189.389L327.201 326.298L329.193 324.036L329.459 191.365L326.67 189.389Z" fill="#CC929B"/>
<path d="M337.027 194.101L337.293 328.444L342.737 329.167L343.003 193.665L337.027 194.101Z" fill="#F5C5CC"/>
<path d="M347.916 197.5L348.182 331.843L353.626 332.566L353.892 197.064L347.916 197.5Z" fill="#F5C5CC"/>
<path d="M376.068 203.874L376.334 338.217L381.778 338.94L382.044 203.438L376.068 203.874Z" fill="#F5C5CC"/>
<path d="M340.214 191.647L340.746 331.477L342.737 329.167L343.003 193.665L340.214 191.647Z" fill="#CC929B"/>
<path d="M350.97 196.794L351.236 333.182L356.681 333.915L356.946 196.353L350.97 196.794Z" fill="#CC929B"/>
<path d="M365.179 200.512L365.445 336.9L370.89 337.633L371.155 200.071L365.179 200.512Z" fill="#F5C5CC"/>
<path d="M368.366 198.021L368.897 339.976L370.889 337.634L371.155 200.071L368.366 198.021Z" fill="#CC929B"/>
<path d="M378.325 203.301L378.591 339.689L384.036 340.422L384.301 202.86L378.325 203.301Z" fill="#CC929B"/>
<path d="M207.953 313.683L202.376 315.808H197.064L196.798 120.868L199.72 116.619L202.54 115.753L206.625 114.494L207.953 313.683Z" fill="#F5C5CC"/>
<path d="M207.953 313.683L202.376 315.808L202.031 121.299L202.54 115.753L206.625 114.494L207.953 313.683Z" fill="#CC929B"/>
<path d="M202.907 321.916C206.427 321.916 209.281 319.062 209.281 315.542C209.281 312.022 206.427 309.168 202.907 309.168C199.386 309.168 196.533 312.022 196.533 315.542C196.533 319.062 199.386 321.916 202.907 321.916Z" fill="#40414D"/>
<path d="M493.191 343.524L487.614 345.553H482.302L482.037 131.205L484.958 131.927L487.779 131.099L491.863 129.898L493.191 343.524Z" fill="#F5C5CC"/>
<path d="M493.191 343.524L487.614 345.553L487.269 136.4L487.778 131.099L491.863 129.898L493.191 343.524Z" fill="#CC929B"/>
<path d="M415.906 303.325L410.329 303.856L410.074 160.658L410.063 155.129L413.781 152.207L413.887 159.84L415.906 303.325Z" fill="#F5C5CC"/>
<path d="M435.559 295.092L429.982 295.623L429.732 155.07L429.716 146.896L433.434 143.974L433.572 153.673L435.559 295.092Z" fill="#F5C5CC"/>
<path d="M467.961 281.813L462.383 282.344L462.134 142.121L462.118 133.616L465.836 130.695L465.974 140.527L467.961 281.813Z" fill="#F5C5CC"/>
<path d="M476.194 128.305L476.46 277.032L482.037 276.501L479.912 125.383L476.194 128.305Z" fill="#F5C5CC"/>
<path d="M425.733 301.732L420.155 302.263L419.9 158.252L419.89 153.535L423.608 150.614L423.698 157.099L425.733 301.732Z" fill="#F5C5CC"/>
<path d="M445.12 291.108L439.543 291.64L439.293 151.458L439.277 142.912L442.996 139.991L443.134 149.913L445.12 291.108Z" fill="#F5C5CC"/>
<path d="M455.919 287.566L450.342 288.097L450.092 147.916V147.082L450.076 139.369L453.794 136.448L453.922 145.509L453.932 146.37L455.919 287.566Z" fill="#F5C5CC"/>
<path d="M404.751 302.353L481.771 269.596L487.083 270.834L487.258 283.05L406.17 314.39L404.751 302.353Z" fill="#F5C5CC"/>
<path d="M481.771 269.596L404.751 302.353L486.796 270.765" fill="#CC929B"/>
<path d="M205.207 285L399.44 343.96L399.084 353.521L204.5 293.499L205.207 285Z" fill="#F5C5CC"/>
<path d="M407.939 377.423L402.361 379.548H397.05L396.784 161.237V160.175L397.198 159.569L399.705 155.926L402.526 155.06L406.611 153.801L406.653 161.237L407.939 377.423Z" fill="#F5C5CC"/>
<path d="M407.939 377.423L402.361 379.548L402.016 160.605L402.526 155.06L406.611 153.801L407.939 377.423Z" fill="#CC929B"/>
<path opacity="0.1" d="M406.611 153.801L406.653 161.237C405.116 161.462 403.568 161.607 402.016 161.673C398.192 161.822 396.784 161.243 396.784 161.243C396.784 161.168 396.933 160.573 397.198 159.58L399.705 155.936L402.526 155.07L406.611 153.801Z" fill="black"/>
<path opacity="0.1" d="M413.781 152.207L413.887 159.84C412.517 160.159 411.245 160.432 410.073 160.658V155.129L413.781 152.207Z" fill="black"/>
<path opacity="0.1" d="M423.608 150.614L423.698 157.099C422.376 157.519 421.106 157.902 419.9 158.252V153.535L423.608 150.614Z" fill="black"/>
<path opacity="0.1" d="M433.434 143.974L433.573 153.673C432.245 154.166 430.964 154.631 429.732 155.07V146.896L433.434 143.974Z" fill="black"/>
<path opacity="0.1" d="M442.996 139.991L443.134 149.913L440.074 151.145L439.293 151.458V142.912L442.996 139.991Z" fill="black"/>
<path opacity="0.1" d="M465.975 140.527L462.134 142.12V133.622L465.852 130.7L465.975 140.527Z" fill="black"/>
<path opacity="0.1" d="M453.927 145.509L450.097 147.103V139.39L453.815 136.469L453.927 145.509Z" fill="black"/>
<path d="M495.05 134.679C495.05 134.679 485.224 134.679 482.568 133.882C479.912 133.085 474.335 136.272 440.074 150.083C419.359 158.438 407.859 160.377 402.016 160.605C398.192 160.754 396.784 160.175 396.784 160.175C396.784 160.175 403.779 128.082 426.057 122.085C428.541 121.408 430.983 120.587 433.371 119.625L433.801 119.461C435.672 118.736 437.59 118.141 439.543 117.681C446.693 116.04 451.797 112.901 464.721 112.805C472.739 112.671 480.565 115.267 486.913 120.167C491.343 123.652 495.162 128.469 495.05 134.679Z" fill="#CC929B"/>
<path d="M434.763 119.275C407.195 131.162 402.988 153.381 402.016 160.605C398.192 160.754 396.784 160.175 396.784 160.175C396.784 160.175 403.779 128.082 426.057 122.085C428.541 121.408 430.983 120.587 433.371 119.625L433.801 119.461C434.12 119.413 434.439 119.349 434.763 119.275Z" fill="#F5C5CC"/>
<path opacity="0.1" d="M215.39 118.744L215.448 122.813C214.104 123.147 212.851 123.439 211.677 123.689V121.665L215.39 118.744Z" fill="black"/>
<path opacity="0.1" d="M225.216 117.15L225.253 119.949C223.946 120.381 222.695 120.776 221.498 121.134V120.072L225.216 117.15Z" fill="black"/>
<path opacity="0.1" d="M235.042 110.511L235.127 116.438C233.821 116.938 232.555 117.409 231.33 117.851V113.432L235.042 110.511Z" fill="black"/>
<path opacity="0.1" d="M244.603 106.527L244.688 112.678C243.467 113.149 242.202 113.646 240.896 114.17V109.448L244.603 106.527Z" fill="black"/>
<path opacity="0.1" d="M253.899 103.871L253.974 109.321C252.77 109.724 251.507 110.164 250.187 110.638V106.792L253.899 103.871Z" fill="black"/>
<path opacity="0.1" d="M267.444 97.2314L267.561 105.507C266.387 105.751 265.117 106.038 263.736 106.394V100.153L267.444 97.2314Z" fill="black"/>
<path opacity="0.1" d="M281.712 105.401C280.461 104.93 279.15 104.64 277.818 104.54V94.8198L281.536 91.8983L281.712 105.401Z" fill="black"/>
<path d="M295.065 105.464C295.065 105.464 285.238 105.464 282.582 104.668C279.926 103.871 274.349 99.6215 240.089 113.432C219.373 121.787 207.873 123.726 202.03 123.954C198.206 124.103 196.798 123.524 196.798 123.524C196.798 123.524 202.073 95.6378 225.333 90.9316C226.631 90.6786 227.913 90.3505 229.173 89.9489C230.602 89.4815 232.854 88.8122 235.882 88.1164C243.69 86.321 256.635 84.3504 273.839 85.1843C279.802 85.4077 285.458 87.8872 289.663 92.1214C291.422 93.8621 292.808 95.943 293.737 98.237C294.666 100.531 295.118 102.99 295.065 105.464Z" fill="#CC929B"/>
<path d="M235.882 88.1164C208.314 100.004 203.002 116.731 202.03 123.954C198.206 124.103 196.798 123.524 196.798 123.524C196.798 123.524 202.073 95.6378 225.333 90.9316C226.631 90.6786 227.913 90.3505 229.173 89.9489C230.602 89.4656 232.854 88.8122 235.882 88.1164Z" fill="#F5C5CC"/>
<path d="M204.501 165.62L204.368 157.785L207.157 156.324L397.847 199.083L397.315 209.043L204.501 165.62Z" fill="#F5C5CC"/>
<path d="M207.156 156.324L397.846 199.083L397.581 202.801L204.782 157.567" fill="#CC929B"/>
<path d="M487.614 351.927C491.135 351.927 493.988 349.074 493.988 345.553C493.988 342.033 491.135 339.179 487.614 339.179C484.094 339.179 481.24 342.033 481.24 345.553C481.24 349.074 484.094 351.927 487.614 351.927Z" fill="#40414D"/>
<path d="M403.158 388.047C406.678 388.047 409.532 385.193 409.532 381.673C409.532 378.153 406.678 375.299 403.158 375.299C399.638 375.299 396.784 378.153 396.784 381.673C396.784 385.193 399.638 388.047 403.158 388.047Z" fill="#40414D"/>
<path d="M211.761 250.649C211.761 250.649 206.094 257.023 204.325 262.691C202.556 268.358 206.45 289.605 206.45 289.605C208.446 286.07 209.879 282.246 210.699 278.27C212.112 271.545 211.761 250.649 211.761 250.649Z" fill="#ED8E93"/>
<path d="M480.709 303.591C480.709 303.591 484.161 321.119 484.427 323.775C484.692 326.431 475.663 322.447 475.663 322.447L480.709 303.591Z" fill="#ED8E93"/>
<path opacity="0.1" d="M324.013 246.888C324.013 246.888 313.921 255.786 315.382 256.715C316.843 257.645 324.013 246.888 324.013 246.888Z" fill="black"/>
<path opacity="0.1" d="M315.781 268.932C315.781 268.932 322.819 268.932 321.491 270.526C320.163 272.119 315.781 268.932 315.781 268.932Z" fill="black"/>
<path opacity="0.1" d="M320.03 275.173C320.03 275.173 317.241 277.563 317.905 278.095C318.569 278.626 320.03 275.173 320.03 275.173Z" fill="black"/>
<path opacity="0.1" d="M272.092 152.871C272.092 152.871 278.997 152.871 281.653 153.535C284.309 154.199 289.886 154.332 289.886 154.332C289.886 154.332 274.482 153.801 272.092 152.871Z" fill="black"/>
<path opacity="0.1" d="M272.357 157.121C272.357 157.121 281.255 157.785 281.387 159.113C281.52 160.441 272.357 157.121 272.357 157.121Z" fill="black"/>
<path fill-rule="evenodd" clip-rule="evenodd" d="M181.558 19.0801L171.158 37.2356L173.36 45.7996L188.287 43.8424L181.558 19.0801Z" fill="#F7C7B5"/>
<path fill-rule="evenodd" clip-rule="evenodd" d="M171.339 7.23182L167.045 8.04293C163.201 8.77008 160.649 12.5094 161.376 16.3542L164.713 34.0183C165.439 37.8631 169.179 40.4143 173.024 39.6881L177.317 38.877C181.162 38.1498 183.713 34.4105 182.987 30.5657L179.65 12.9025C178.923 9.05683 175.184 6.50646 171.339 7.23182Z" fill="#F7C7B5"/>
<path fill-rule="evenodd" clip-rule="evenodd" d="M138.706 353.553L135.497 334.106L123.84 337.519L132.106 356.175L138.706 353.553Z" fill="#F7C7B5"/>
<path fill-rule="evenodd" clip-rule="evenodd" d="M138.706 353.553L132.106 356.175C130.188 357.841 117.09 364.176 118.087 366.613C119.083 369.051 132.102 366.88 139.256 358.566C140.646 356.952 139.798 355.146 138.706 353.553Z" fill="#353D59"/>
<path fill-rule="evenodd" clip-rule="evenodd" d="M147.246 357.445L141.937 362.596C140.961 364.824 131.136 375.963 133.716 377.473C136.296 378.982 148.656 371.243 150.974 361.24C151.424 359.297 149.396 358.229 147.246 357.445Z" fill="#353D59"/>
<path fill-rule="evenodd" clip-rule="evenodd" d="M140.264 343.868C133.526 315.193 127.821 279.97 121.032 251.35C127.767 232.059 138.353 212.087 150.367 195.558C149.362 242.362 145.773 297.069 140.264 343.868ZM125.398 157.384C125.398 157.384 95.8015 207.686 87.4 235.172C84.9256 243.27 85.299 251.967 88.3406 259.869C99.7651 289.544 111.517 320.91 126.623 349.476L140.018 345.924C139.36 351.452 138.682 356.968 137.971 362.457C142.702 362.504 147.833 363.214 152.563 363.261C176.709 296.162 193.688 225.668 198.075 154.49L125.398 157.384Z" fill="#3B4772"/>
<path fill-rule="evenodd" clip-rule="evenodd" d="M143.429 166.672C143.577 166.202 144.079 165.94 144.549 166.088C145.02 166.236 145.281 166.738 145.133 167.209C142.842 174.492 141.527 182.085 141.235 189.72C141.216 190.213 140.801 190.597 140.308 190.578C139.815 190.56 139.431 190.145 139.45 189.652C139.748 181.858 141.09 174.107 143.429 166.672Z" fill="#323863"/>
<path fill-rule="evenodd" clip-rule="evenodd" d="M151.388 168.326C151.547 167.859 152.054 167.609 152.521 167.767C152.988 167.926 153.238 168.434 153.079 168.901C150.504 176.48 149.003 184.424 148.637 192.421C148.615 192.914 148.197 193.295 147.704 193.273C147.211 193.25 146.83 192.832 146.853 192.34C147.226 184.174 148.758 176.064 151.388 168.326Z" fill="#323863"/>
<path fill-rule="evenodd" clip-rule="evenodd" d="M131.832 187.438C138.946 187.935 145.91 190.379 151.775 194.435C152.181 194.716 152.283 195.272 152.002 195.678C151.721 196.084 151.165 196.185 150.759 195.905C145.158 192.03 138.501 189.695 131.708 189.22C131.216 189.186 130.845 188.759 130.879 188.267C130.911 187.81 131.281 187.457 131.728 187.437L131.832 187.438Z" fill="#323863"/>
<path fill-rule="evenodd" clip-rule="evenodd" d="M175.391 170.281C175.863 170.138 176.362 170.404 176.505 170.876C177.641 174.619 180.066 177.964 183.271 180.209C186.477 182.453 190.449 183.588 194.355 183.375C194.848 183.348 195.269 183.726 195.295 184.219C195.322 184.711 194.945 185.132 194.452 185.159C190.147 185.393 185.78 184.146 182.246 181.672C178.714 179.198 176.048 175.521 174.796 171.395C174.652 170.923 174.919 170.424 175.391 170.281Z" fill="#323863"/>
<path fill-rule="evenodd" clip-rule="evenodd" d="M264.126 95.91C247.016 67.4834 201.507 50.4009 194.37 49.6005C154.63 45.1474 139.993 58.7255 126.83 73.3631C124.091 70.8726 121.677 70.5403 117.983 70.7887C111.91 71.1969 106.182 73.8411 101.67 77.8779C89.2852 88.9575 68.474 110.768 88.5152 125.97C96.6076 132.108 108.715 133.451 117.782 128.874C114.034 138.166 114.394 149.437 120.25 157.566C124.346 163.253 130.72 166.977 137.396 169.118C144.07 171.261 171.918 173.372 178.317 173.972C184.716 174.571 191.642 174.456 196.924 170.794C202.44 166.97 204.946 160.106 206.258 153.523C207.222 148.684 208.44 143.664 209.132 138.799C209.778 134.263 209.919 130.831 212.358 126.632C214.257 123.362 215.609 116.458 215.609 116.459C223.805 122.925 231.279 128.725 242.282 128.913C257.188 129.168 272.283 119.507 267.109 102.93C266.352 100.51 265.448 98.1076 264.126 95.91Z" fill="#F6C561"/>
<path fill-rule="evenodd" clip-rule="evenodd" d="M194.585 44.0176C194.561 42.1542 193.805 40.0165 192.024 39.4672C191.25 39.2296 190.417 39.3394 189.616 39.452C184.136 40.2211 178.656 40.9894 173.176 41.7594C172.019 41.9211 170.787 42.1176 169.922 42.9037C168.188 44.4777 168.855 47.4104 167.706 49.4507L194.671 49.5829C194.171 47.7883 194.609 45.8811 194.585 44.0176Z" fill="#F0A95C"/>
<path fill-rule="evenodd" clip-rule="evenodd" d="M150.372 36.1915H137.005C135.742 36.1915 134.877 37.2241 135.085 38.4872L138.926 62.0302C139.133 63.2924 140.335 64.326 141.598 64.326H154.964C156.226 64.326 157.09 63.2924 156.885 62.0302L153.042 38.4872C152.836 37.2241 151.634 36.1915 150.372 36.1915Z" fill="#353D59"/>
<path fill-rule="evenodd" clip-rule="evenodd" d="M123.353 91.1925C123.612 90.9094 123.894 90.6116 124.27 90.2239L124.931 89.5451C127.695 86.7188 128.728 85.3158 129.176 83.2749C129.9 79.9712 128.73 76.2994 126.228 74.0237C125.863 73.6917 125.836 73.1268 126.168 72.7618C126.5 72.3969 127.065 72.3701 127.43 72.7021C130.405 75.4078 131.782 79.7293 130.921 83.6575C130.412 85.978 129.353 87.5223 126.766 90.2192L125.269 91.7614C124.997 92.0456 124.778 92.2793 124.572 92.5079L124.307 92.8102C124.169 93.0195 119.39 98.8762 116.735 101.863L116.205 102.452C113.923 104.948 111.757 107.056 109.697 108.722C107.52 110.483 105.508 111.713 103.663 112.339C103.195 112.498 102.688 112.248 102.53 111.781C102.371 111.313 102.621 110.806 103.088 110.648C104.704 110.099 106.547 108.973 108.573 107.333C110.423 105.838 112.38 103.953 114.443 101.729L115.133 100.975C117.765 98.0507 123.144 91.4504 122.956 91.6378L123.353 91.1925Z" fill="#F0A95C"/>
<path fill-rule="evenodd" clip-rule="evenodd" d="M139.525 83.3692C139.724 82.9178 140.252 82.7132 140.703 82.9122C141.155 83.1112 141.359 83.6385 141.16 84.09C139.817 87.1369 138.391 90.1376 136.854 93.1779L136.182 94.4966C134.94 96.9123 133.64 99.333 132.157 102.009L130.185 105.526C128.811 107.958 126.807 111.496 126.218 112.55L125.64 113.591C122.154 119.895 120.165 124.107 118.843 128.274C118.694 128.745 118.192 129.005 117.721 128.856C117.251 128.707 116.991 128.204 117.14 127.734C118.505 123.43 120.535 119.131 124.071 112.735L125.3 110.538C126.59 108.249 129.039 103.931 129.77 102.624L130.593 101.145C132.336 97.9999 133.823 95.2127 135.259 92.3718C136.783 89.3587 138.195 86.3863 139.525 83.3692Z" fill="#F0A95C"/>
<path fill-rule="evenodd" clip-rule="evenodd" d="M139.591 59.3485C139.591 59.3485 145.739 54.2424 145.348 53.5778C144.958 52.9141 138.763 57.3984 138.763 57.3984C138.763 57.3984 145.404 51.7956 145.112 51.1096C144.82 50.4253 137.635 55.3385 137.635 55.3385C137.635 55.3385 143.262 49.9599 142.903 49.4195C142.543 48.879 133.964 55.5278 133.964 55.5278C133.964 55.5278 129.56 63.3808 127.831 66.9407L132.355 73.7404C136.533 65.4372 145.993 56.7115 145.739 55.8521C145.484 54.9919 139.591 59.3485 139.591 59.3485Z" fill="#F7C7B5"/>
<path fill-rule="evenodd" clip-rule="evenodd" d="M123.265 66.8002C124.503 65.4362 126.424 64.2356 128.097 65.0056C128.751 65.3066 129.243 65.8641 129.716 66.4072C130.94 67.8106 132.162 69.2148 133.385 70.6191C134.245 71.6053 135.148 72.6951 135.222 74.0002C135.31 75.5367 134.229 76.8722 133.15 77.9727C132.073 79.0715 130.873 80.2212 130.615 81.7398C130.756 78.7311 120.709 70.9005 119.541 70.3922C120.663 69.1987 122.099 68.0866 123.265 66.8002Z" fill="#F0A95C"/>
<path fill-rule="evenodd" clip-rule="evenodd" d="M162.316 64.817C160.438 62.0469 157.884 59.7324 154.903 58.0146C152.661 56.7228 150.338 55.4776 150.25 55.809C150.081 56.4557 155.024 60.765 155.024 60.765C155.024 60.765 148.584 56.3968 148.097 56.8881C147.61 57.3794 153.14 62.1425 153.14 62.1425C153.14 62.1425 146.728 57.8931 146.318 58.5514C145.909 59.2116 152.757 64.0693 152.757 64.0693C152.757 64.0693 146.068 60.6927 145.474 61.318C145.153 61.6565 152.599 66.6671 152.599 66.6671C152.599 66.6671 157.358 73.2507 158.9 75.4652L165.295 70.6512C164.938 68.9914 163.637 66.7626 162.316 64.817Z" fill="#F7C7B5"/>
<path fill-rule="evenodd" clip-rule="evenodd" d="M176.937 70.6814C180.942 70.3383 184.075 71.4986 189.642 74.7772L192.202 76.3052C194.046 77.3981 195.137 77.9948 196.372 78.5681L196.559 78.654C200.443 80.4293 203.805 81.2791 210.92 82.51L214.364 83.0971C219.045 83.908 221.66 84.4822 224.515 85.3991C228.455 86.2456 232.353 88.2196 236.097 90.9756C237.87 92.2809 239.494 93.6779 240.935 95.0757L241.513 95.6465C241.605 95.7387 241.694 95.8293 241.78 95.9182L242.271 96.4314C242.504 96.68 242.666 96.8599 242.753 96.9598C243.076 97.3325 243.036 97.8967 242.663 98.2199C242.291 98.5432 241.726 98.503 241.403 98.1303L241.208 97.912C241.141 97.8389 241.061 97.7524 240.968 97.6532C240.602 97.2634 240.175 96.8279 239.691 96.3581C238.305 95.0137 236.742 93.6686 235.038 92.4145C231.481 89.7963 227.801 87.9324 224.055 87.1234L223.491 86.9464C220.681 86.083 217.989 85.5247 213.095 84.692L211.084 84.3511C203.66 83.0785 200.124 82.2148 196.086 80.4012L195.816 80.2789C194.434 79.6471 193.289 79.0262 191.308 77.8525L189.516 76.7809C183.758 73.3297 180.782 72.1452 177.09 72.4615C169.12 73.1438 163.181 82.7785 167.162 89.379C168.82 92.1283 171.04 94.0163 175.743 97.1559C183.841 102.563 191.072 105.535 200.935 107.606C205.68 108.603 210.087 111.131 215.706 115.565C216.093 115.87 216.159 116.432 215.853 116.819C215.548 117.207 214.986 117.273 214.599 116.967C209.179 112.69 204.98 110.281 200.568 109.354C190.486 107.237 183.043 104.178 174.751 98.6417L173.955 98.1063C169.575 95.134 167.367 93.1783 165.632 90.3016C160.925 82.4968 167.721 71.4704 176.937 70.6814Z" fill="#F0A95C"/>
<path fill-rule="evenodd" clip-rule="evenodd" d="M174.352 72.5525C171.708 71.744 169.404 69.7127 167.104 68.2468C166.269 67.7144 165.263 67.3204 164.301 67.55C162.753 67.9207 157.57 74.4016 156.137 76.2284C155.7 76.7867 155.236 77.462 155.423 78.1472C155.552 78.6215 155.965 78.9556 156.355 79.2567C159.211 81.4622 162.067 83.6678 164.924 85.8743C165.472 80.1759 169.067 74.7518 174.352 72.5525Z" fill="#F0A95C"/>
<path fill-rule="evenodd" clip-rule="evenodd" d="M174.53 113.732C174.968 113.505 175.507 113.677 175.733 114.116C175.96 114.554 175.788 115.093 175.349 115.319C163.133 121.625 150.101 126.344 136.682 129.323C136.2 129.43 135.723 129.126 135.616 128.645C135.509 128.163 135.813 127.686 136.295 127.579C149.564 124.633 162.45 119.966 174.53 113.732Z" fill="#F0A95C"/>
<path fill-rule="evenodd" clip-rule="evenodd" d="M164.9 131.346C165.339 131.121 165.877 131.295 166.102 131.735C166.327 132.174 166.152 132.712 165.713 132.937C156.927 137.429 147.105 139.873 137.237 140.024C136.744 140.031 136.338 139.637 136.331 139.144C136.323 138.651 136.717 138.245 137.21 138.237C146.804 138.091 156.358 135.713 164.9 131.346Z" fill="#F0A95C"/>
<path fill-rule="evenodd" clip-rule="evenodd" d="M163.824 25.4046C163.612 24.8731 163.87 24.271 164.401 24.0584C164.931 23.8467 165.534 24.1049 165.746 24.6364C165.958 25.1661 165.7 25.7682 165.17 25.9817C164.638 26.1934 164.036 25.9353 163.824 25.4046Z" fill="#353D59"/>
<path fill-rule="evenodd" clip-rule="evenodd" d="M170.507 23.3965C170.295 22.865 170.553 22.2629 171.084 22.0503C171.614 21.8386 172.216 22.0967 172.429 22.6274C172.642 23.158 172.383 23.7601 171.853 23.9736C171.321 24.1853 170.719 23.9271 170.507 23.3965Z" fill="#353D59"/>
<path fill-rule="evenodd" clip-rule="evenodd" d="M173.663 19.6864C173.746 19.6542 173.817 19.5935 173.862 19.5095C173.963 19.321 173.891 19.0852 173.703 18.9843C171.996 18.0713 169.635 18.735 168.647 20.401C168.539 20.585 168.6 20.8236 168.784 20.9334C168.968 21.0406 169.205 20.979 169.317 20.7959C170.1 19.4693 171.979 18.9432 173.336 19.6685C173.442 19.7248 173.561 19.7284 173.663 19.6864Z" fill="#4C7BB1"/>
<path fill-rule="evenodd" clip-rule="evenodd" d="M166.081 21.8838C166.152 21.8561 166.212 21.8025 166.251 21.7266C166.338 21.556 166.273 21.3371 166.104 21.2371C164.589 20.3447 162.553 20.769 161.567 22.184C161.458 22.3412 161.495 22.5663 161.649 22.6869C161.805 22.8093 162.017 22.7771 162.127 22.6235C162.91 21.5024 164.586 21.1522 165.789 21.8597C165.883 21.9142 165.99 21.9205 166.081 21.8838Z" fill="#4C7BB1"/>
<path fill-rule="evenodd" clip-rule="evenodd" d="M167.839 24.2751C168.085 24.2584 168.298 24.4444 168.314 24.6905C168.414 26.1622 168.445 27.6411 168.408 29.1194L168.39 29.6262L168.639 29.6687C169.151 29.7452 169.681 29.7708 170.238 29.7487L170.575 29.7297C170.822 29.712 171.035 29.897 171.053 30.1431C171.071 30.3891 170.886 30.603 170.64 30.6207C169.769 30.6836 168.951 30.6452 168.164 30.4934L167.828 30.4214L167.469 30.3362L167.485 29.9672C167.561 28.227 167.541 26.4838 167.423 24.751C167.406 24.5049 167.592 24.2918 167.839 24.2751Z" fill="#E0A797"/>
<path fill-rule="evenodd" clip-rule="evenodd" d="M167.165 12.9614C164.072 13.3705 160.675 12.4656 158.677 10.0706C156.68 7.6748 156.564 3.70497 158.861 1.59411C160.452 0.134455 162.812 -0.209466 164.948 0.109442C167.083 0.429244 169.082 1.32522 171.107 2.07649C173.64 3.01803 178.87 5.54428 176.378 9.16214C174.975 11.1998 169.387 12.6666 167.165 12.9614Z" fill="#4C7BB1"/>
<path fill-rule="evenodd" clip-rule="evenodd" d="M175.564 9.54171C176.254 7.53893 178.034 5.61833 180.14 5.85149C182.064 6.06409 183.342 7.92662 184.131 9.69536C185.131 11.9384 185.786 14.4781 185.132 16.8453C182.52 26.2768 173.303 16.1084 175.564 9.54171Z" fill="#4C7BB1"/>
<path fill-rule="evenodd" clip-rule="evenodd" d="M179.489 22.0715C179.935 20.9263 180.566 19.807 181.558 19.0799C182.55 18.3545 183.963 18.1062 185.023 18.7279C186.578 19.6382 186.685 21.9974 185.712 23.5133C184.74 25.031 183.045 25.8984 181.42 26.6774" fill="#F7C7B5"/>
<path fill-rule="evenodd" clip-rule="evenodd" d="M172.652 32.2793C172.799 32.0813 173.079 32.0401 173.277 32.1873C173.475 32.3344 173.516 32.6142 173.369 32.8122C172.415 34.0954 170.743 34.7891 169.161 34.5581C168.917 34.5225 168.748 34.2957 168.784 34.0516C168.819 33.8075 169.046 33.6386 169.29 33.6742C170.547 33.8577 171.894 33.2988 172.652 32.2793Z" fill="#E0A797"/>
<path fill-rule="evenodd" clip-rule="evenodd" d="M183.53 20.5232C183.752 20.4165 184.019 20.5104 184.126 20.7328C184.232 20.9552 184.138 21.222 183.916 21.3287C183.441 21.5562 182.998 21.848 182.6 22.1921L182.408 22.3646L183.577 22.0841L183.694 22.054C183.933 21.9924 184.177 22.136 184.238 22.3748C184.3 22.6137 184.156 22.8573 183.918 22.919L183.151 23.1081L181.643 23.465L180.158 23.846L180.814 22.8706C181.491 21.8654 182.437 21.047 183.53 20.5232Z" fill="#E0A797"/>
<path fill-rule="evenodd" clip-rule="evenodd" d="M176.58 38.206C176.788 38.0722 177.064 38.1318 177.198 38.339C177.332 38.5463 177.272 38.8227 177.065 38.9565C175.381 40.0435 173.423 40.529 171.759 40.2742C171.515 40.2369 171.348 40.009 171.385 39.7652C171.422 39.5213 171.65 39.3539 171.894 39.3912C173.331 39.6112 175.072 39.1797 176.58 38.206Z" fill="#E0A797"/>
<path fill-rule="evenodd" clip-rule="evenodd" d="M544.522 329.319L544.646 358.694L545.823 358.668L546.426 334.979C546.5 332.102 546.577 329.196 547.308 326.413C547.842 324.382 548.717 322.445 549.111 320.382C549.577 317.941 549.369 315.332 550.401 313.072C551.834 309.939 555.417 308.022 556.301 304.693C557.3 300.927 554.41 296.927 555.44 293.169C555.98 291.196 557.507 289.678 558.647 287.979C561.482 283.757 561.88 278.013 559.653 273.44C552.484 282.243 545.035 291.67 543.538 302.923C542.377 311.668 544.985 320.509 544.522 329.319Z" fill="#386795"/>
<path fill-rule="evenodd" clip-rule="evenodd" d="M527.902 297.581C528.012 299.248 527.243 301.031 527.978 302.53C528.615 303.828 530.159 304.412 531.038 305.56C532.9 307.988 531.115 311.689 532.363 314.482C533.34 316.67 535.838 317.649 538.066 318.529L538.133 318.555C541.175 319.769 543.17 322.719 543.243 325.994L543.965 358.709L544.647 358.694L546.03 328.633C546.285 323.112 545.464 317.593 543.612 312.384L529.646 271.959C529.646 271.959 525.878 277.974 524.816 281.336C523.754 284.699 523.599 288.49 525.158 291.653C526.129 293.624 527.758 295.388 527.902 297.581Z" fill="#4C7BB1"/>
<path fill-rule="evenodd" clip-rule="evenodd" d="M548.812 360.08L548.579 329.557C548.821 325.414 550.823 323.55 552.702 322.5C554.58 321.45 556.756 320.668 557.972 318.892C559.375 316.844 559.18 313.878 560.962 312.15C561.931 311.209 563.394 310.749 564.022 309.554C564.88 307.922 563.706 305.913 564.05 304.101C564.448 302.008 566.636 300.869 568.212 299.435C572.142 295.858 573.532 289.569 572.581 284.59C572.591 285.052 564.505 292.962 560.426 297.139C552.304 305.456 546.787 316.185 547.059 328.492L547.347 360.636L548.812 360.08Z" fill="#4C7BB1"/>
<path fill-rule="evenodd" clip-rule="evenodd" d="M528.514 328.044C532.929 329.631 536.145 333.492 536.506 338.169C536.531 338.496 536.553 338.833 536.57 339.183L538.005 358.84L539.305 358.812C539.032 351.334 538.563 343.863 537.901 336.41C537.551 332.47 537.135 328.483 535.752 324.777C534.257 320.77 531.699 317.266 529.389 313.666C526.29 308.835 519.223 296.05 519.223 296.05C519.223 296.05 516.698 301.693 516.833 305.601C516.915 307.959 517.166 310.441 518.66 312.269C519.461 313.248 520.544 314.043 521.012 315.218C521.425 316.257 521.288 317.42 521.323 318.538C521.457 322.773 524.571 326.625 528.514 328.044Z" fill="#4C7BB1"/>
<path fill-rule="evenodd" clip-rule="evenodd" d="M550.703 358.56L551.676 358.539C551.676 358.539 551.067 347.472 553.328 343.989C554.635 341.977 556.371 340.292 558.005 338.536C559.987 336.404 561.78 334.106 563.57 331.811C565.786 328.971 568.019 326.102 569.569 322.85C571.401 319.008 572.22 314.688 571.924 310.442C562.977 315.387 555.115 323.068 552.064 332.824C549.484 341.075 550.534 349.852 550.703 358.56Z" fill="#4C7BB1"/>
<path fill-rule="evenodd" clip-rule="evenodd" d="M529.607 351.39H561.427L555.349 377.3H535.684L529.607 351.39Z" fill="#5B9274"/>
<path fill-rule="evenodd" clip-rule="evenodd" d="M559.575 356.634C559.869 356.634 560.107 356.872 560.107 357.165C560.107 357.437 559.902 357.662 559.637 357.693L559.575 357.696H531.358C531.065 357.696 530.827 357.458 530.827 357.165C530.827 356.893 531.032 356.668 531.296 356.637L531.358 356.634H559.575Z" fill="#437858"/>
<path fill-rule="evenodd" clip-rule="evenodd" d="M89.1768 321.342C80.9015 324.584 75.3239 325.251 66.6818 323.827C63.7282 327.794 63.8686 333.223 63.1799 336.324C62.367 339.988 57.5564 341.145 54.6849 343.561C50.7083 346.905 41.5628 355.504 47.9314 372.703C65.2709 379.902 73.6961 379.902 73.6961 379.902C73.6961 379.902 79.1324 376.395 67.6571 372.067C73.4354 369.423 74.3104 363.222 74.3104 363.222C74.8501 366.28 77.3184 371.046 79.1324 376.395C79.5413 377.597 80.3465 378.695 81.4135 379.384C82.4796 380.072 84.05 380.134 84.9145 379.204C85.865 378.181 85.5793 376.569 85.2966 375.202C83.9459 368.686 82.3907 361.385 85.6682 355.592C87.7888 351.846 90.1836 352.178 91.776 348.476C92.4857 346.827 93.1429 341.495 93.3626 339.589C93.9625 334.378 90.8752 326.357 89.1768 321.342Z" fill="#E1DCD4"/>
<path fill-rule="evenodd" clip-rule="evenodd" d="M90.1026 323.804C90.6519 321.897 90.1026 317.82 88.7767 316.202H65.3141C64.5671 317.85 64.3684 322.638 64.3474 324.474C72.9895 325.898 80.8941 325.893 90.1026 323.804Z" fill="#5B9274"/>
<path fill-rule="evenodd" clip-rule="evenodd" d="M55.6849 300.908C53.6425 301.241 51.6117 301.577 49.6391 301.937C49.2761 304.424 49.0937 306.936 49.0526 309.448C52.8478 308.566 55.4365 304.959 55.6849 300.908Z" fill="#353D59"/>
<path fill-rule="evenodd" clip-rule="evenodd" d="M88.9063 300.333C88.1201 291.258 82.6724 284.733 80.7218 284.733C78.7702 284.733 79.203 293.103 79.203 293.103C79.203 293.103 73.7227 284.17 71.9546 284.733C71.0968 285.006 71.0567 294.293 71.0567 294.293C71.0567 294.293 68.7612 294.41 68.0448 295.259C67.3284 296.11 67.1163 297.917 67.5691 298.932C63.7176 299.634 59.6721 300.26 55.6849 300.909C55.4366 304.96 52.8479 308.566 49.0517 309.448C48.961 314.99 49.2542 317.885 50.7062 323.234C50.9154 324.005 53.7916 324.251 53.6121 319.031C53.8337 324.695 59.9806 327.121 60.6216 321.246C60.7343 326.555 65.9528 326.691 65.9337 321.342C65.9796 326.412 71.5792 324.074 71.4569 318.089C76.9725 318.302 83.7719 318.106 89.1021 316.677C93.4389 312.908 93.245 306.183 88.9063 300.333Z" fill="#E1DCD4"/>
<path fill-rule="evenodd" clip-rule="evenodd" d="M78.604 301.43C78.6441 300.54 77.9544 299.788 77.0661 299.747C76.1758 299.708 75.4231 300.397 75.3829 301.287C75.3438 302.176 76.0325 302.929 76.9218 302.969C77.8112 303.009 78.5648 302.32 78.604 301.43Z" fill="#353D59"/>
<path fill-rule="evenodd" clip-rule="evenodd" d="M81.0377 287.329C80.7139 289.735 80.9795 293.084 81.4246 295.473L85.7108 298.132C85.4185 294.486 83.5271 290.164 81.0377 287.329Z" fill="#ED8E93"/>
<path fill-rule="evenodd" clip-rule="evenodd" d="M72.5253 294.099L76.6806 293.973C75.6776 291.892 74.4625 288.953 72.8205 287.329C72.5062 289.173 72.3037 292.241 72.5253 294.099Z" fill="#ED8E93"/>
<path d="M70.582 349.175C70.7936 349.017 71.0928 349.061 71.2503 349.272C73.6941 352.555 75.0914 356.389 75.098 360.158C75.1051 364.232 73.4148 368.183 70.48 370.673C67.371 373.313 62.8921 374.138 59.2787 372.631C59.0353 372.529 58.9202 372.25 59.0218 372.006C59.1234 371.763 59.4031 371.648 59.6465 371.749C62.9186 373.114 67.019 372.359 69.8618 369.945C72.5744 367.643 74.1494 363.962 74.1428 360.16C74.1365 356.606 72.8107 352.968 70.4841 349.843C70.3266 349.631 70.3704 349.332 70.582 349.175Z" fill="#C5BCB0"/>
<path fill-rule="evenodd" clip-rule="evenodd" d="M37.7189 357.87C34.2313 353.849 31.4802 349.255 28.4425 344.883C27.1577 343.033 25.4039 341.018 23.161 341.212C20.7013 341.425 19.2713 344.396 19.7498 346.82C20.1138 348.657 21.219 350.213 22.4694 351.642C21.7358 351.324 20.8283 351.321 20.1348 351.74C18.8863 352.493 18.3972 354.143 18.659 355.576C18.9207 357.011 19.7938 358.257 20.7624 359.347C22.7885 361.628 25.3819 363.456 28.3059 364.312C26.9524 364.018 25.595 365.649 25.8338 367.093C26.0888 368.639 27.473 369.745 28.8781 370.44C31.1602 371.57 33.769 372.005 36.3004 371.727C36.1771 371.899 36.0883 372.094 36.0701 372.306C35.9909 373.259 36.8372 374.09 37.7628 374.335C38.6875 374.578 39.6647 374.382 40.6018 374.186C43.6567 373.544 46.7115 372.902 49.7664 372.259L50.7063 366.751C45.5643 365.373 41.2065 361.892 37.7189 357.87Z" fill="#E1DCD4"/>
<path fill-rule="evenodd" clip-rule="evenodd" d="M83.7366 354.153C84.5781 360.946 86.3616 367.623 89.0181 373.931C89.5081 375.093 90.0679 376.295 91.0776 377.052C92.0873 377.808 93.6816 377.934 94.5203 376.991C95.3762 376.031 95.0781 374.549 94.7467 373.307C91.9469 362.815 90.1023 350.622 91.0843 341.165" fill="#E1DCD4"/>
<path d="M89.8402 323.405C90.0606 323.26 90.3568 323.321 90.5018 323.542C94.2129 329.183 95.0874 344.016 91.7755 349.495L91.6172 349.745L91.124 350.488L90.3207 348.573L90.3051 348.835C90.1439 351.009 89.5216 353.151 88.4782 355.067L88.2776 355.424L87.9685 355.956L87.5296 355.524C86.9702 354.974 86.5726 354.27 86.3696 353.515L86.3546 353.455L86.2051 353.742C84.5105 357.011 84.0947 358.698 84.2686 361.606L84.2879 361.901C84.3066 362.164 84.1085 362.392 83.8453 362.411C83.5822 362.43 83.3538 362.231 83.3351 361.968C83.0716 358.257 83.6432 356.402 86.1099 351.894L87.6754 349.058L87.2152 351.81C87.079 352.625 87.2593 353.489 87.6891 354.196L87.7817 354.339L87.8182 354.271C89.0369 351.879 89.5722 349.141 89.3383 346.468L89.2996 346.086L88.9138 342.739L91.2836 348.4L91.3956 348.164C93.9344 342.547 93.0771 329.597 89.8716 324.332L89.7037 324.067C89.5587 323.846 89.6199 323.55 89.8402 323.405Z" fill="#C5BCB0"/>
<path fill-rule="evenodd" clip-rule="evenodd" d="M83.3468 328.384C83.3468 326.303 81.6608 324.618 79.5822 324.618C77.5017 324.618 75.8157 326.303 75.8157 328.384C75.8157 330.463 77.5017 332.148 79.5822 332.148C81.6608 332.148 83.3468 330.463 83.3468 328.384Z" fill="#F0A95C"/>
</svg>
