<svg width="308" height="261" viewBox="0 0 308 261" fill="none" xmlns="http://www.w3.org/2000/svg">
<path fill-rule="evenodd" clip-rule="evenodd" d="M307.713 251.511C307.713 246.546 238.829 242.521 153.856 242.521C68.8835 242.521 0 246.546 0 251.511C0 256.476 68.8835 260.5 153.856 260.5C238.829 260.5 307.713 256.476 307.713 251.511Z" fill="#75758B"/>
<path fill-rule="evenodd" clip-rule="evenodd" d="M128.075 81.2642C127.846 73.6283 130.42 65.94 135.198 59.9796L134.293 44.0487C134.293 44.0487 141.969 39.3688 142.97 40.3004C143.972 41.2321 147.211 50.6644 147.211 50.6644C147.211 50.6644 144.61 60.3654 142.338 63.1697C142.338 63.1697 141.314 76.8407 141.26 83.8483" fill="#F7C7B5"/>
<path fill-rule="evenodd" clip-rule="evenodd" d="M140.716 43.7382L141.129 43.4346L142.774 47.9189C142.848 48.1185 142.745 48.3397 142.546 48.4129C142.346 48.4862 142.125 48.3837 142.051 48.1841L140.745 44.6236L140.71 44.6436C140.119 44.9457 139.44 45.0757 138.779 45.0086L138.599 44.9854C138.389 44.9525 138.245 44.7555 138.278 44.5454C138.311 44.3354 138.508 44.1918 138.718 44.2247C139.359 44.3252 140.037 44.1798 140.582 43.8299L140.716 43.7382Z" fill="#E0A797"/>
<path fill-rule="evenodd" clip-rule="evenodd" d="M130.372 27.7206L120.855 30.7544C118.899 31.378 117.81 33.4878 118.433 35.4428L125.835 58.6646C126.458 60.6196 128.568 61.7099 130.523 61.0862L140.041 58.0525C141.996 57.4288 143.087 55.3191 142.463 53.3641L135.06 30.143C134.437 28.1872 132.328 27.0969 130.372 27.7206Z" fill="#353D59"/>
<path fill-rule="evenodd" clip-rule="evenodd" d="M141.396 57.1609C140.309 54.0471 136.265 45.28 135.496 45.9276C134.727 46.5759 137.811 57.3811 137.811 57.3811C137.811 57.3811 133.473 45.8167 132.046 45.9276C130.62 46.0392 135.493 58.081 135.493 58.081C135.493 58.081 130.753 48.2152 129.843 48.2152C128.933 48.2152 131.987 59.0412 131.987 59.0412C131.987 59.0412 128.309 50.6638 127.541 50.6699C126.774 50.6761 129.055 58.486 130.753 61.3534C132.45 64.2224 133.224 65.4836 135.348 68.0507C137.472 70.6186 139.898 76.8131 139.898 76.8131L150.013 73.2119L141.396 57.1609Z" fill="#F7C7B5"/>
<path fill-rule="evenodd" clip-rule="evenodd" d="M132.438 64.5679C132.603 64.4337 132.845 64.4585 132.98 64.6233C135.982 68.3095 137.988 71.685 139.709 75.9416C139.789 76.1387 139.694 76.3631 139.497 76.4428C139.3 76.5225 139.075 76.4273 138.995 76.2301C137.304 72.0456 135.336 68.7366 132.383 65.1096C132.248 64.9447 132.273 64.7022 132.438 64.5679Z" fill="#E0A797"/>
<path fill-rule="evenodd" clip-rule="evenodd" d="M168.618 248.395L156.13 228.124L144.521 227.876L161.228 248.109L168.618 248.395Z" fill="#F7C7B5"/>
<path fill-rule="evenodd" clip-rule="evenodd" d="M168.618 248.395L161.228 248.108C158.694 248.885 143.545 249.393 143.453 252.128C143.36 254.863 156.659 258.283 167.003 253.391C169.011 252.442 168.976 250.368 168.618 248.395Z" fill="#353D59"/>
<path fill-rule="evenodd" clip-rule="evenodd" d="M284.95 223.195L261.324 226.147L256.283 236.606L281.624 229.8L284.95 223.195Z" fill="#F7C7B5"/>
<path fill-rule="evenodd" clip-rule="evenodd" d="M284.95 223.195L281.624 229.8C281.278 232.427 275.455 246.422 277.907 247.641C280.357 248.86 288.985 238.178 288.827 226.738C288.796 224.517 286.895 223.689 284.95 223.195Z" fill="#353D59"/>
<path fill-rule="evenodd" clip-rule="evenodd" d="M278.384 217.589C278.384 217.589 234.539 224.535 212.358 225.864C232.397 204.264 252.813 182.101 264.522 155.063L195.938 125.6C164.985 128.431 122.094 123.353 101.118 146.29C94.3658 153.673 91.8611 164.694 94.7577 174.27C96.4448 179.849 99.7618 184.775 103.133 189.53C116.562 208.47 132.613 226.377 149.097 242.727C152.62 242.276 166.363 240.589 169.417 239.156L128.032 168.489C153.117 169.82 173.9 167.3 198.667 163.107C191.85 174.651 184.98 186.313 180.843 199.064C176.706 211.816 175.473 225.931 180.011 238.545C182.429 245.266 186.728 251.658 193.141 254.802C198.912 257.631 205.678 257.718 212.051 256.888C234.621 253.95 255.349 244.161 279.161 232.472C281.187 225.904 278.384 217.589 278.384 217.589Z" fill="#3B4772"/>
<path fill-rule="evenodd" clip-rule="evenodd" d="M265.866 45.4611C264.242 41.0291 261.475 37.1107 258.518 33.4317C253.269 26.9022 246.197 20.7817 237.822 20.9741C226.05 21.246 206.244 39.563 199.555 46.1418C183.432 62.0018 169.415 79.8916 157.032 98.817C151.871 92.7688 146.695 86.4464 141.532 80.399L126.009 75.2247C124.892 86.7067 125.428 98.345 127.312 109.727C128.396 116.276 130.05 122.922 133.879 128.345C137.709 133.768 144.12 137.776 150.728 137.139C158.073 136.432 163.68 130.514 168.564 124.982L255.444 67.401C260.16 67.2015 264.347 63.6758 266.116 59.3C267.884 54.9242 267.49 49.8923 265.866 45.4611Z" fill="#318478"/>
<path fill-rule="evenodd" clip-rule="evenodd" d="M245.269 148.426C245.689 148.495 245.974 148.89 245.905 149.31C244.503 157.902 248.266 167.155 255.266 172.33C255.608 172.583 255.68 173.065 255.428 173.407C255.175 173.749 254.693 173.821 254.351 173.568C246.886 168.05 242.89 158.224 244.385 149.062C244.449 148.672 244.795 148.399 245.18 148.417L245.269 148.426Z" fill="#323863"/>
<path fill-rule="evenodd" clip-rule="evenodd" d="M183.648 109.146C183.648 109.146 223.319 49.2075 237.549 46.1892C251.779 43.1708 283.689 66.0246 268.596 128.55C267.181 134.411 270.962 141.774 269.998 147.726C269.034 153.677 264.573 159.523 258.562 159.993C254.606 160.304 250.874 158.318 247.403 156.394L204.703 132.722C193.26 140.738 175.3 138.321 164.381 129.607C153.461 120.894 147.318 107.489 143.555 94.0343C141.867 88.0007 138.157 81.3327 138.293 75.0696L149.582 69.4749C154.665 69.4749 156.769 76.7389 159.178 81.2148C165.059 92.1455 174.212 101.081 183.648 109.146Z" fill="#318478"/>
<path fill-rule="evenodd" clip-rule="evenodd" d="M239.077 89.3479C239.302 88.9875 239.777 88.8781 240.138 89.1037C240.498 89.3293 240.608 89.8044 240.382 90.1649C230.454 106.029 218.647 120.716 205.288 133.823C204.984 134.121 204.496 134.116 204.199 133.813C203.901 133.509 203.906 133.022 204.209 132.724C217.483 119.701 229.213 105.109 239.077 89.3479Z" fill="#1A675C"/>
<path fill-rule="evenodd" clip-rule="evenodd" d="M232.894 118.393C233.506 118.213 234.148 118.564 234.327 119.176C236.261 125.778 238.785 132.208 241.858 138.363C242.143 138.934 241.911 139.628 241.341 139.912C240.77 140.197 240.076 139.966 239.791 139.395C236.657 133.117 234.083 126.559 232.11 119.826C231.931 119.214 232.282 118.572 232.894 118.393Z" fill="#1A675C"/>
<path fill-rule="evenodd" clip-rule="evenodd" d="M188.732 152.611C189.004 152.284 189.489 152.239 189.816 152.511C193.429 155.516 196.654 158.988 199.384 162.813C199.631 163.159 199.551 163.64 199.205 163.887C198.859 164.134 198.378 164.054 198.131 163.708C195.477 159.99 192.343 156.615 188.831 153.695C188.504 153.423 188.46 152.938 188.732 152.611Z" fill="#323863"/>
<path fill-rule="evenodd" clip-rule="evenodd" d="M214.168 224.394C214.491 224.671 214.529 225.157 214.252 225.48L209.08 231.52C208.803 231.843 208.317 231.88 207.994 231.604C207.671 231.327 207.634 230.841 207.91 230.518L213.082 224.478C213.359 224.155 213.845 224.118 214.168 224.394Z" fill="#323863"/>
<path fill-rule="evenodd" clip-rule="evenodd" d="M227.632 51.7533C227.946 51.4665 228.433 51.4884 228.719 51.8024C229.006 52.1163 228.984 52.6033 228.67 52.8902C224.428 56.7662 219.38 62.3411 213.698 69.3119C211.466 72.0507 209.156 74.9811 206.783 78.077C201.88 84.4734 196.917 91.2957 192.114 98.1486L191.009 99.7305C189.358 102.099 187.838 104.313 186.473 106.324L184.662 109.012L183.809 110.297L183.147 109.731C174.363 102.223 168.084 95.8537 163.1 88.913C162.852 88.5676 162.931 88.0865 163.277 87.8384C163.622 87.5904 164.103 87.6694 164.351 88.0148C169.027 94.5269 174.888 100.553 182.977 107.553L183.489 107.995L184.83 106.004L186.352 103.765C187.408 102.221 188.542 100.577 189.745 98.8501C194.902 91.4497 200.265 84.0491 205.561 77.1401C207.943 74.0326 210.262 71.0902 212.505 68.339L213.427 67.2123C218.778 60.7116 223.557 55.4764 227.632 51.7533Z" fill="#1A675C"/>
<path fill-rule="evenodd" clip-rule="evenodd" d="M138.521 78.3215C138.938 78.2415 139.342 78.5151 139.422 78.9328C139.623 79.982 139.906 81.0844 140.274 82.2848L140.455 82.8636C140.804 83.9542 141.198 85.0606 141.82 86.7275L142.943 89.7362C143.567 91.437 143.886 92.3895 144.211 93.5259L144.296 93.8272C148.147 107.592 155.748 121.467 164.872 129.014C165.199 129.285 165.245 129.77 164.974 130.098C164.703 130.425 164.218 130.471 163.89 130.2C154.611 122.525 146.945 108.654 142.97 94.7962L142.648 93.6674C142.263 92.3567 141.843 91.1767 140.834 88.4827L140.062 86.4173C139.507 84.9105 139.149 83.8685 138.802 82.7364C138.418 81.4859 138.122 80.3307 137.909 79.2227C137.829 78.8051 138.103 78.4016 138.521 78.3215Z" fill="#1A675C"/>
<path fill-rule="evenodd" clip-rule="evenodd" d="M203.834 51.3458C203.834 51.3458 234.53 34.0944 233.495 29.456C232.637 25.61 220.613 31.0283 203.834 51.3458Z" fill="#1A675C"/>
<path fill-rule="evenodd" clip-rule="evenodd" d="M193.936 69.0715C194.356 69.1392 194.641 69.5344 194.574 69.9543L192.654 81.8604C191.411 89.7118 191.028 93.5421 191.217 98.2088C191.235 98.6337 190.904 98.9922 190.479 99.0094C190.054 99.0267 189.696 98.6962 189.679 98.2713L189.658 97.7109C189.51 92.9772 189.957 88.9472 191.283 80.6782L193.053 69.709C193.116 69.3191 193.462 69.0452 193.847 69.0623L193.936 69.0715Z" fill="#1A675C"/>
<path fill-rule="evenodd" clip-rule="evenodd" d="M240.123 43.6328C247.3 43.6328 253.464 47.1876 258.603 53.0799C260.389 55.1278 261.923 57.319 263.205 59.5106C263.59 60.1687 263.929 60.7871 264.221 61.3546L264.445 61.7988L264.72 62.3712C264.737 62.4084 264.75 62.4375 264.759 62.4582C264.931 62.8473 264.755 63.3018 264.365 63.4736C263.976 63.6453 263.522 63.4691 263.35 63.0801L263.216 62.7903C263.17 62.6955 263.116 62.5843 263.053 62.4577L262.987 62.326C262.679 61.7123 262.308 61.0271 261.876 60.2882C260.64 58.1752 259.161 56.0618 257.443 54.0921C252.57 48.5053 246.792 45.1728 240.123 45.1728C238.461 45.1728 237.147 45.6679 234.398 47.1377L233.306 47.723C232.664 48.0633 232.182 48.3049 231.696 48.5251L230.12 49.2196C221.684 52.8973 216.928 54.3602 211.4 54.4333C210.975 54.4389 210.626 54.0988 210.62 53.6735C210.615 53.2483 210.955 52.8991 211.38 52.8934C216.833 52.8213 221.596 51.297 230.433 47.4009L230.91 47.1899C231.466 46.9435 232.003 46.6737 232.805 46.2451L233.387 45.9325C236.555 44.2243 238.061 43.6328 240.123 43.6328Z" fill="#1A675C"/>
<path fill-rule="evenodd" clip-rule="evenodd" d="M201.778 9.00776C198.493 9.27956 195.243 8.99236 191.96 8.70901C188.835 8.43874 185.949 10.8742 184.822 13.8017C183.697 16.7284 183.993 20.0085 184.648 23.0761C185.304 26.1437 186.301 29.1559 186.539 32.2835L193.189 36.396L205.581 50.6645L222.463 39.7747L205.352 26.0883C205.352 26.0883 202.885 14.0765 201.778 9.00776Z" fill="#F7C7B5"/>
<path fill-rule="evenodd" clip-rule="evenodd" d="M206.348 10.6365C205.349 8.71463 202.975 7.53194 200.813 7.6459C200.01 4.85857 197.916 2.47162 195.258 1.31203C192.599 0.151669 189.425 0.239447 186.836 1.54611C185.295 2.32379 183.882 3.66048 183.662 5.37291C183.503 6.60258 183.999 7.85765 184.806 8.79779C185.614 9.73794 186.709 10.3932 187.853 10.8744C191.322 12.3366 195.408 12.2666 198.826 10.685C197.354 12.1634 196.66 14.6181 196.909 16.6893C197.159 18.7614 197.926 20.731 198.391 22.766C198.856 24.8003 198.997 27.0279 198.054 28.8889C195.301 27.4429 191.739 27.1526 188.847 28.293C185.954 29.4325 183.632 32.012 182.956 35.0472C182.281 38.0833 183.344 41.4797 185.731 43.4724C189.017 46.215 194.186 45.8516 197.653 43.343C201.119 40.8336 203.037 36.6195 203.68 32.3885C204.324 28.1574 203.841 23.8455 203.355 19.5937L206.11 19.0447C206.509 17.6626 206.909 16.2697 207.038 14.8368C207.168 13.4046 207.012 11.9124 206.348 10.6365Z" fill="#4C7BB1"/>
<path fill-rule="evenodd" clip-rule="evenodd" d="M209.304 21.1744C209.15 19.907 208.264 18.7181 207.042 18.3431C205.822 17.9689 203.902 18.4378 203.355 19.5928L205.352 26.0876C206.386 25.966 207.349 25.4277 208.064 24.6716C208.941 23.743 209.459 22.4425 209.304 21.1744Z" fill="#F7C7B5"/>
<path fill-rule="evenodd" clip-rule="evenodd" d="M195.853 21.902C195.853 21.3284 195.388 20.8633 194.814 20.8633C194.241 20.8633 193.776 21.3284 193.776 21.902C193.776 22.4756 194.241 22.9407 194.814 22.9407C195.388 22.9407 195.853 22.4756 195.853 21.902Z" fill="#353D59"/>
<path fill-rule="evenodd" clip-rule="evenodd" d="M188.134 22.9401C188.134 22.3672 187.668 21.9014 187.095 21.9014C186.521 21.9014 186.057 22.3672 186.057 22.9401C186.057 23.5137 186.521 23.9788 187.095 23.9788C187.668 23.9788 188.134 23.5137 188.134 22.9401Z" fill="#353D59"/>
<path fill-rule="evenodd" clip-rule="evenodd" d="M189.549 28.6004C189.425 28.6004 189.307 28.595 189.198 28.5834L188.803 28.538L189.613 22.556C189.64 22.3427 189.831 22.1818 190.05 22.2234C190.263 22.2511 190.413 22.4474 190.383 22.6607L189.687 27.8188C190.344 27.7973 191.229 27.6217 191.573 27.5409C191.785 27.487 191.993 27.6217 192.04 27.8304C192.09 28.039 191.96 28.25 191.751 28.2978C191.692 28.3132 190.454 28.6004 189.549 28.6004Z" fill="#E0A797"/>
<path fill-rule="evenodd" clip-rule="evenodd" d="M184.672 20.0367C184.583 20.0367 184.494 20.0067 184.42 19.9451C184.256 19.8065 184.235 19.5609 184.373 19.3961C185.623 17.9093 188.069 17.6482 189.611 18.8325C189.78 18.9634 189.813 19.209 189.682 19.3792C189.55 19.5478 189.307 19.5794 189.134 19.45C187.91 18.506 185.964 18.7162 184.969 19.8981C184.892 19.989 184.783 20.0367 184.672 20.0367Z" fill="#386795"/>
<path fill-rule="evenodd" clip-rule="evenodd" d="M191.798 19.6047C191.711 19.6047 191.623 19.5762 191.551 19.5161C191.384 19.3791 191.361 19.1342 191.497 18.9671C192.732 17.4703 195.08 17.0799 196.733 18.0994C196.916 18.2126 196.973 18.4528 196.86 18.6353C196.746 18.8193 196.506 18.8732 196.324 18.7623C195.013 17.9546 193.078 18.2742 192.099 19.463C192.022 19.5562 191.91 19.6047 191.798 19.6047Z" fill="#386795"/>
<path fill-rule="evenodd" clip-rule="evenodd" d="M207.373 23.5601C207.346 23.5601 207.319 23.5578 207.292 23.5516L204.07 22.8795L206.94 20.3416C207.101 20.1999 207.348 20.2138 207.49 20.3762C207.633 20.5372 207.617 20.7843 207.456 20.926L205.75 22.4344L207.452 22.7894C207.661 22.834 207.797 23.0396 207.752 23.2506C207.714 23.4338 207.552 23.5601 207.373 23.5601Z" fill="#E0A797"/>
<path fill-rule="evenodd" clip-rule="evenodd" d="M186.576 7.81783C186.462 7.81783 186.349 7.76855 186.272 7.67308C185.444 6.6413 185.11 5.25225 185.38 3.95869C185.423 3.74848 185.631 3.60911 185.84 3.65685C186.05 3.69997 186.186 3.9071 186.142 4.11653C185.919 5.18604 186.195 6.33254 186.88 7.18491C187.014 7.35276 186.987 7.59762 186.82 7.73237C186.748 7.79011 186.662 7.81783 186.576 7.81783Z" fill="#386795"/>
<path fill-rule="evenodd" clip-rule="evenodd" d="M189.834 8.94693C189.8 8.94693 189.765 8.94231 189.73 8.9323C188.673 8.64125 187.919 7.59254 187.976 6.49454C187.987 6.28049 188.181 6.09723 188.385 6.12726C188.599 6.13804 188.764 6.3213 188.753 6.53612C188.715 7.26452 189.236 7.98831 189.938 8.18311C190.146 8.23932 190.267 8.45415 190.209 8.66204C190.162 8.83375 190.006 8.94693 189.834 8.94693Z" fill="#386795"/>
<path fill-rule="evenodd" clip-rule="evenodd" d="M188.08 4.27769C187.893 4.27769 187.727 4.14141 187.697 3.94968C187.583 3.22975 187.769 2.48364 188.207 1.90076C188.337 1.72829 188.581 1.69595 188.754 1.82453C188.925 1.95466 188.959 2.19874 188.83 2.37045C188.521 2.77854 188.385 3.32292 188.466 3.82649C188.5 4.039 188.355 4.23843 188.142 4.27307C188.122 4.27615 188.101 4.27769 188.08 4.27769Z" fill="#386795"/>
<path fill-rule="evenodd" clip-rule="evenodd" d="M184.868 36.6958C184.681 36.6958 184.515 36.5595 184.484 36.3685C184.327 35.4022 184.564 34.3912 185.136 33.5966C185.261 33.421 185.504 33.381 185.679 33.5073C185.853 33.6328 185.894 33.8769 185.769 34.0509C185.317 34.68 185.129 35.4792 185.253 36.2438C185.288 36.4563 185.143 36.6565 184.931 36.6904C184.91 36.6942 184.889 36.6958 184.868 36.6958Z" fill="#386795"/>
<path fill-rule="evenodd" clip-rule="evenodd" d="M186.179 40.6424C186.09 40.6424 186.001 40.6116 185.927 40.55C185.365 40.0741 185.089 39.2972 185.226 38.5719C185.265 38.3594 185.473 38.2223 185.681 38.2616C185.892 38.3009 186.031 38.5049 185.991 38.7166C185.907 39.1632 186.084 39.6622 186.431 39.9548C186.595 40.0941 186.615 40.3398 186.476 40.5045C186.399 40.5946 186.289 40.6424 186.179 40.6424Z" fill="#386795"/>
<path fill-rule="evenodd" clip-rule="evenodd" d="M189.103 43.2663C189.02 43.2663 188.934 43.2401 188.863 43.1847L187.549 42.1622C187.38 42.0313 187.349 41.7856 187.481 41.6155C187.613 41.4453 187.858 41.4145 188.028 41.5477L189.342 42.5703C189.512 42.7019 189.542 42.9468 189.41 43.1162C189.333 43.2155 189.218 43.2663 189.103 43.2663Z" fill="#386795"/>
<path fill-rule="evenodd" clip-rule="evenodd" d="M188.814 39.4672C188.724 39.4672 188.635 39.4372 188.561 39.374C188.017 38.909 187.647 38.2368 187.545 37.5307C187.515 37.3182 187.662 37.1211 187.875 37.0895C188.082 37.061 188.285 37.2058 188.317 37.4198C188.391 37.9419 188.665 38.4377 189.067 38.7819C189.231 38.9221 189.249 39.1669 189.11 39.3309C189.033 39.4202 188.923 39.4672 188.814 39.4672Z" fill="#386795"/>
<path fill-rule="evenodd" clip-rule="evenodd" d="M194.241 31.4459C193.901 31.1872 193.412 31.2511 193.15 31.5899C192.632 32.2637 191.783 32.6964 190.935 32.7203C190.117 32.7641 189.213 32.3607 188.658 31.7193C188.522 31.5622 188.333 31.4667 188.126 31.4521C187.931 31.4359 187.717 31.5029 187.559 31.64C187.401 31.7763 187.306 31.9657 187.292 32.172C187.276 32.3799 187.343 32.5809 187.48 32.738C188.315 33.7035 189.576 34.2802 190.855 34.2802L190.98 34.2787C192.304 34.2394 193.576 33.5896 194.385 32.5385C194.647 32.1982 194.583 31.7085 194.241 31.4459Z" fill="#386795"/>
<path fill-rule="evenodd" clip-rule="evenodd" d="M229.543 33.6579C229.784 34.0082 229.696 34.4876 229.345 34.7287L204.27 51.98C203.92 52.2211 203.441 52.1325 203.2 51.7822C202.958 51.4318 203.047 50.9524 203.397 50.7114L228.473 33.4599C228.823 33.2189 229.302 33.3075 229.543 33.6579Z" fill="#1A675C"/>
<path fill-rule="evenodd" clip-rule="evenodd" d="M141.225 56.6218C141.417 56.5312 141.646 56.6136 141.737 56.806L143.462 60.4714C143.552 60.6638 143.47 60.8931 143.277 60.9836C143.085 61.074 142.855 60.9914 142.765 60.7989L141.04 57.1341C140.95 56.9417 141.032 56.7123 141.225 56.6218Z" fill="#E0A797"/>
<path fill-rule="evenodd" clip-rule="evenodd" d="M22.0301 140.939C23.2594 140.985 24.2283 141.983 24.2531 143.198L24.2519 143.333L20.2265 250.753C20.1787 252.028 19.1065 253.022 17.8316 252.975C16.6023 252.929 15.6334 251.93 15.6086 250.716L15.6098 250.58L19.6353 143.16C19.6813 141.931 20.68 140.962 21.8943 140.938L22.0301 140.939Z" fill="#BC7488"/>
<path fill-rule="evenodd" clip-rule="evenodd" d="M75.8746 140.942C77.1021 140.86 78.1693 141.753 78.3199 142.958L78.3328 143.093L85.4798 250.513C85.5645 251.785 84.6012 252.886 83.3283 252.971C82.1008 253.052 81.0336 252.16 80.883 250.954L80.8701 250.819L73.7231 143.4C73.6384 142.127 74.6017 141.026 75.8746 140.942Z" fill="#BC7488"/>
<path fill-rule="evenodd" clip-rule="evenodd" d="M57.1853 134.591C58.4154 134.575 59.4334 135.523 59.5195 136.735L59.5251 136.871L61.0058 250.636C61.0224 251.912 60.0018 252.959 58.7261 252.976C57.496 252.992 56.478 252.044 56.392 250.832L56.3863 250.696L54.9056 136.931C54.889 135.655 55.9097 134.608 57.1853 134.591Z" fill="#BC7488"/>
<path fill-rule="evenodd" clip-rule="evenodd" d="M79.7456 130.598H18.2264C13.3247 130.598 9.31384 134.608 9.31384 139.509C9.31384 144.41 13.3247 148.421 18.2264 148.421H79.7456C84.6465 148.421 88.6566 144.41 88.6566 139.509C88.6566 134.608 84.6465 130.598 79.7456 130.598Z" fill="#F6C561"/>
<path fill-rule="evenodd" clip-rule="evenodd" d="M77.9441 194.991C79.2199 194.991 80.2541 196.025 80.2541 197.301C80.2541 198.531 79.2924 199.537 78.0798 199.607L77.9441 199.611H20.0269C18.7511 199.611 17.7169 198.577 17.7169 197.301C17.7169 196.071 18.6786 195.065 19.8911 194.995L20.0269 194.991H77.9441Z" fill="#BC7488"/>
<path fill-rule="evenodd" clip-rule="evenodd" d="M78.8937 76.8516C70.2307 80.2456 64.3917 80.9436 55.3447 79.4526C52.2527 83.6056 52.3997 89.2886 51.6787 92.5356C50.8277 96.3706 45.7917 97.5826 42.7857 100.112C38.6227 103.613 29.0487 112.614 35.7157 130.619C53.8677 138.156 62.6877 138.156 62.6877 138.156C62.6877 138.156 68.3787 134.484 56.3657 129.954C62.4147 127.186 63.3307 120.694 63.3307 120.694C63.8957 123.895 66.4797 128.885 68.3787 134.484C68.8067 135.743 69.6497 136.892 70.7667 137.613C71.8827 138.334 73.5267 138.398 74.4317 137.425C75.4267 136.354 75.1277 134.666 74.8317 133.235C73.4177 126.414 71.7897 118.771 75.2207 112.707C77.4407 108.785 79.9477 109.133 81.6147 105.257C82.3577 103.531 83.0457 97.9486 83.2757 95.9536C83.9037 90.4986 80.6717 82.1016 78.8937 76.8516Z" fill="#E1DCD4"/>
<path fill-rule="evenodd" clip-rule="evenodd" d="M79.8625 79.4287C80.4375 77.4317 79.8625 73.1637 78.4745 71.4707H53.9125C53.1305 73.1957 52.9225 78.2077 52.9005 80.1297C61.9475 81.6207 70.2225 81.6157 79.8625 79.4287Z" fill="#5B9274"/>
<path fill-rule="evenodd" clip-rule="evenodd" d="M43.8322 55.46C41.6942 55.809 39.5682 56.16 37.5032 56.537C37.1232 59.141 36.9322 61.77 36.8892 64.4C40.8622 63.477 43.5722 59.701 43.8322 55.46Z" fill="#353D59"/>
<path fill-rule="evenodd" clip-rule="evenodd" d="M78.6105 54.8577C77.7875 45.3577 72.0845 38.5267 70.0425 38.5267C67.9995 38.5267 68.4525 47.2897 68.4525 47.2897C68.4525 47.2897 62.7155 37.9377 60.8645 38.5267C59.9665 38.8127 59.9245 48.5347 59.9245 48.5347C59.9245 48.5347 57.5215 48.6577 56.7715 49.5467C56.0215 50.4377 55.7995 52.3287 56.2735 53.3917C52.2415 54.1267 48.0065 54.7817 43.8325 55.4607C43.5725 59.7017 40.8625 63.4767 36.8885 64.4007C36.7935 70.2017 37.1005 73.2327 38.6205 78.8327C38.8395 79.6397 41.8505 79.8967 41.6625 74.4327C41.8945 80.3617 48.3295 82.9017 49.0005 76.7507C49.1185 82.3087 54.5815 82.4507 54.5615 76.8517C54.6095 82.1587 60.4715 79.7117 60.3435 73.4457C66.1175 73.6687 73.2355 73.4637 78.8155 71.9677C83.3555 68.0227 83.1525 60.9827 78.6105 54.8577Z" fill="#E1DCD4"/>
<path fill-rule="evenodd" clip-rule="evenodd" d="M67.8254 56.0058C67.8674 55.0748 67.1454 54.2868 66.2154 54.2448C65.2834 54.2038 64.4954 54.9248 64.4534 55.8568C64.4124 56.7868 65.1334 57.5758 66.0644 57.6168C66.9954 57.6588 67.7844 56.9378 67.8254 56.0058Z" fill="#353D59"/>
<path fill-rule="evenodd" clip-rule="evenodd" d="M70.3732 41.2441C70.0342 43.7631 70.3122 47.2691 70.7782 49.7701L75.2652 52.5541C74.9592 48.7371 72.9792 44.2121 70.3732 41.2441Z" fill="#ED8E93"/>
<path fill-rule="evenodd" clip-rule="evenodd" d="M61.4621 48.3321L65.8121 48.2001C64.7621 46.0211 63.4901 42.9451 61.7711 41.2441C61.4421 43.1751 61.2301 46.3871 61.4621 48.3321Z" fill="#ED8E93"/>
<path d="M59.4276 105.988C59.6491 105.823 59.9624 105.869 60.1273 106.09C62.6856 109.526 64.1483 113.54 64.1553 117.486C64.1627 121.751 62.3932 125.887 59.3209 128.494C56.0662 131.258 51.3775 132.121 47.5947 130.543C47.3399 130.437 47.2195 130.144 47.3258 129.889C47.4321 129.634 47.7249 129.514 47.9798 129.62C51.4052 131.049 55.6977 130.259 58.6737 127.731C61.5134 125.322 63.1622 121.468 63.1553 117.488C63.1487 113.767 61.7608 109.959 59.3252 106.687C59.1603 106.466 59.2062 106.153 59.4276 105.988Z" fill="#C5BCB0"/>
<path fill-rule="evenodd" clip-rule="evenodd" d="M25.0246 115.09C21.3736 110.881 18.4936 106.071 15.3136 101.494C13.9686 99.5584 12.1326 97.4484 9.78459 97.6524C7.20959 97.8744 5.71259 100.985 6.21359 103.522C6.59459 105.445 7.75159 107.074 9.06059 108.57C8.29259 108.237 7.34259 108.234 6.61659 108.673C5.30959 109.461 4.79759 111.188 5.07159 112.689C5.34559 114.191 6.25959 115.495 7.27359 116.636C9.39459 119.024 12.1096 120.938 15.1706 121.834C13.7536 121.526 12.3326 123.233 12.5826 124.745C12.8496 126.364 14.2986 127.521 15.7696 128.249C18.1586 129.432 20.8896 129.887 23.5396 129.596C23.4106 129.776 23.3176 129.98 23.2986 130.202C23.2156 131.2 24.1016 132.07 25.0706 132.326C26.0386 132.581 27.0616 132.376 28.0426 132.17C31.2406 131.498 34.4386 130.826 37.6366 130.153L38.6206 124.387C33.2376 122.945 28.6756 119.3 25.0246 115.09Z" fill="#E1DCD4"/>
<path fill-rule="evenodd" clip-rule="evenodd" d="M73.1984 111.2C74.0794 118.312 75.9464 125.302 78.7274 131.905C79.2404 133.122 79.8264 134.38 80.8834 135.172C81.9404 135.964 83.6094 136.096 84.4874 135.109C85.3834 134.103 85.0714 132.552 84.7244 131.252C81.7934 120.268 79.8624 107.504 80.8904 97.6035" fill="#E1DCD4"/>
<path d="M79.5879 79.011C79.8186 78.8593 80.1286 78.9233 80.2804 79.154C84.1654 85.06 85.0808 100.588 81.6139 106.324L81.4481 106.585L80.9318 107.363L80.0908 105.359L80.0745 105.632C79.9058 107.909 79.2543 110.15 78.162 112.156L77.952 112.53L77.6284 113.087L77.169 112.635C76.5833 112.059 76.1671 111.322 75.9547 110.531L75.9388 110.469L75.7824 110.769C74.0084 114.192 73.5731 115.957 73.7552 119.002L73.7754 119.31C73.7949 119.586 73.5875 119.825 73.3121 119.845C73.0366 119.864 72.7975 119.657 72.7779 119.381C72.502 115.496 73.1005 113.554 75.6827 108.834L77.3216 105.866L76.8398 108.747C76.6972 109.6 76.8859 110.505 77.3359 111.245L77.4328 111.395L77.4711 111.323C78.7468 108.819 79.3072 105.952 79.0624 103.154L79.0219 102.755L78.618 99.2513L81.0988 105.177L81.2161 104.93C83.8739 99.0499 82.9764 85.4931 79.6207 79.9814L79.4449 79.7036C79.2932 79.4728 79.3572 79.1628 79.5879 79.011Z" fill="#C5BCB0"/>
<path fill-rule="evenodd" clip-rule="evenodd" d="M72.7902 84.2232C72.7902 82.0452 71.0253 80.2812 68.8493 80.2812C66.6713 80.2812 64.9062 82.0452 64.9062 84.2232C64.9062 86.4002 66.6713 88.1642 68.8493 88.1642C71.0253 88.1642 72.7902 86.4002 72.7902 84.2232Z" fill="#F0A95C"/>
</svg>
