<svg width="333" height="309" viewBox="0 0 333 309" fill="none" xmlns="http://www.w3.org/2000/svg">
<path fill-rule="evenodd" clip-rule="evenodd" d="M332.625 301.526C332.625 297.399 269.182 294.052 190.921 294.052C112.66 294.052 49.2167 297.399 49.2167 301.526C49.2167 305.653 112.66 309 190.921 309C269.182 309 332.625 305.653 332.625 301.526Z" fill="#BCE4F0"/>
<path fill-rule="evenodd" clip-rule="evenodd" d="M214.729 190.37C199.227 190.37 186.66 177.803 186.66 162.3C186.66 146.797 199.227 134.23 214.729 134.23C230.231 134.23 242.798 146.797 242.798 162.3C242.798 177.803 230.231 190.37 214.729 190.37ZM214.74 92.5332C170.804 92.5332 135.188 128.15 135.188 172.086C135.188 216.021 214.74 300.898 214.74 300.898C214.74 300.898 294.292 216.021 294.292 172.086C294.292 128.15 258.676 92.5332 214.74 92.5332Z" fill="#ED8E93"/>
<path fill-rule="evenodd" clip-rule="evenodd" d="M151.166 15.4879L142.724 30.2252L144.512 37.177L156.629 35.5882L151.166 15.4879Z" fill="#B86961"/>
<path fill-rule="evenodd" clip-rule="evenodd" d="M142.871 5.87023L139.386 6.52863C136.265 7.11888 134.194 10.1542 134.784 13.2751L137.492 27.6137C138.082 30.7346 141.118 32.8055 144.239 32.216L147.724 31.5576C150.845 30.9673 152.916 27.932 152.326 24.8111L149.618 10.4733C149.028 7.35164 145.992 5.28143 142.871 5.87023Z" fill="#B86961"/>
<path fill-rule="evenodd" clip-rule="evenodd" d="M116.382 286.99L113.777 271.205L104.314 273.975L111.025 289.118L116.382 286.99Z" fill="#B86961"/>
<path fill-rule="evenodd" clip-rule="evenodd" d="M116.382 286.99L111.025 289.118C109.468 290.47 98.8354 295.613 99.6446 297.591C100.453 299.57 111.022 297.808 116.828 291.059C117.957 289.749 117.269 288.283 116.382 286.99Z" fill="#353D59"/>
<path fill-rule="evenodd" clip-rule="evenodd" d="M123.314 290.149L119.004 294.331C118.212 296.139 110.237 305.181 112.331 306.407C114.426 307.631 124.459 301.35 126.34 293.23C126.706 291.653 125.059 290.785 123.314 290.149Z" fill="#353D59"/>
<path fill-rule="evenodd" clip-rule="evenodd" d="M117.647 279.129C112.178 255.853 107.546 227.26 102.035 204.029C107.503 188.369 116.095 172.158 125.848 158.741C125.032 196.733 122.119 241.141 117.647 279.129ZM105.58 127.754C105.58 127.754 81.5551 168.585 74.7354 190.896C72.7268 197.47 73.0299 204.529 75.4989 210.944C84.7725 235.032 94.3121 260.493 106.574 283.681L117.447 280.797C116.913 285.285 116.362 289.762 115.786 294.218C119.626 294.256 123.79 294.832 127.63 294.871C147.23 240.404 161.013 183.182 164.574 125.404L105.58 127.754Z" fill="#3B4772"/>
<path fill-rule="evenodd" clip-rule="evenodd" d="M120.216 135.293C120.336 134.911 120.743 134.699 121.125 134.819C121.507 134.939 121.719 135.346 121.599 135.728C119.739 141.64 118.672 147.804 118.435 154.001C118.42 154.401 118.083 154.713 117.683 154.698C117.282 154.683 116.97 154.346 116.986 153.946C117.227 147.619 118.317 141.328 120.216 135.293Z" fill="#323863"/>
<path fill-rule="evenodd" clip-rule="evenodd" d="M126.677 136.635C126.805 136.256 127.217 136.053 127.596 136.182C127.976 136.311 128.178 136.723 128.05 137.102C125.959 143.254 124.741 149.703 124.444 156.194C124.425 156.594 124.086 156.904 123.686 156.885C123.286 156.867 122.977 156.528 122.995 156.128C123.298 149.5 124.542 142.917 126.677 136.635Z" fill="#323863"/>
<path fill-rule="evenodd" clip-rule="evenodd" d="M110.803 152.149C116.577 152.553 122.23 154.536 126.991 157.829C127.32 158.057 127.403 158.509 127.175 158.838C126.947 159.167 126.496 159.25 126.166 159.022C121.619 155.877 116.216 153.981 110.702 153.596C110.302 153.568 110.001 153.222 110.029 152.822C110.055 152.451 110.355 152.165 110.718 152.148L110.803 152.149Z" fill="#323863"/>
<path fill-rule="evenodd" clip-rule="evenodd" d="M146.16 138.222C146.543 138.106 146.948 138.322 147.065 138.706C147.987 141.744 149.955 144.459 152.556 146.281C155.159 148.103 158.383 149.024 161.554 148.851C161.954 148.83 162.296 149.136 162.317 149.536C162.339 149.936 162.033 150.278 161.633 150.3C158.138 150.49 154.593 149.477 151.725 147.469C148.857 145.461 146.693 142.476 145.677 139.127C145.561 138.744 145.777 138.339 146.16 138.222Z" fill="#323863"/>
<path fill-rule="evenodd" clip-rule="evenodd" d="M218.189 77.8532C204.301 54.7784 167.359 40.912 161.566 40.2622C129.308 36.6475 117.426 47.6693 106.742 59.5511C104.518 57.5295 102.559 57.2598 99.5607 57.4614C94.6306 57.7927 89.9812 59.9391 86.3186 63.2159C76.2655 72.2095 59.3724 89.9141 75.6405 102.254C82.2093 107.236 92.0369 108.326 99.3968 104.611C96.355 112.153 96.6472 121.302 101.4 127.902C104.726 132.518 109.899 135.54 115.318 137.278C120.736 139.018 143.341 140.731 148.535 141.218C153.729 141.705 159.352 141.611 163.64 138.639C168.116 135.535 170.151 129.963 171.216 124.62C171.999 120.692 172.987 116.617 173.549 112.668C174.073 108.985 174.188 106.2 176.167 102.791C177.709 100.137 178.806 94.5323 178.806 94.5331C185.459 99.7822 191.526 104.49 200.457 104.643C212.557 104.849 224.811 97.0072 220.611 83.5519C219.997 81.5868 219.263 79.6369 218.189 77.8532Z" fill="#F6C561"/>
<path fill-rule="evenodd" clip-rule="evenodd" d="M161.741 35.7304C161.721 34.2178 161.108 32.4826 159.662 32.0366C159.034 31.8437 158.357 31.9329 157.707 32.0243C153.259 32.6486 148.81 33.2722 144.363 33.8973C143.423 34.0285 142.423 34.1881 141.721 34.8262C140.313 36.1038 140.855 38.4844 139.922 40.1406L161.81 40.2479C161.405 38.7911 161.76 37.243 161.741 35.7304Z" fill="#F0A95C"/>
<path fill-rule="evenodd" clip-rule="evenodd" d="M125.852 29.3777H115.002C113.976 29.3777 113.274 30.2159 113.443 31.2412L116.561 50.3518C116.729 51.3764 117.704 52.2153 118.729 52.2153H129.579C130.604 52.2153 131.305 51.3764 131.138 50.3518L128.019 31.2412C127.852 30.2159 126.876 29.3777 125.852 29.3777Z" fill="#353D59"/>
<path fill-rule="evenodd" clip-rule="evenodd" d="M103.92 74.0238C104.13 73.794 104.359 73.5522 104.664 73.2375L105.201 72.6865C107.445 70.3923 108.283 69.2535 108.646 67.5968C109.234 64.9151 108.284 61.9345 106.253 60.0873C105.957 59.8179 105.936 59.3593 106.205 59.063C106.474 58.7668 106.933 58.7451 107.229 59.0145C109.644 61.2108 110.762 64.7187 110.063 67.9074C109.65 69.791 108.79 71.0446 106.69 73.2337L105.475 74.4856C105.254 74.7162 105.077 74.9059 104.909 75.0915L104.695 75.3369C104.582 75.5068 100.703 80.2608 98.5479 82.6857L98.1177 83.1636C96.2654 85.1897 94.5068 86.9008 92.8348 88.2534C91.068 89.6827 89.4346 90.6808 87.9365 91.1893C87.5572 91.318 87.1455 91.1149 87.0168 90.7357C86.888 90.3565 87.0911 89.9447 87.4704 89.816C88.7814 89.371 90.2776 88.4568 91.9227 87.1259C93.4237 85.9116 95.0127 84.382 96.6872 82.5762L97.247 81.9649C99.3841 79.5908 103.75 74.2331 103.597 74.3852L103.92 74.0238Z" fill="#F0A95C"/>
<path fill-rule="evenodd" clip-rule="evenodd" d="M117.047 67.6734C117.209 67.3069 117.637 67.1408 118.003 67.3024C118.37 67.464 118.536 67.892 118.374 68.2584C117.284 70.7317 116.126 73.1675 114.879 75.6354L114.333 76.7058C113.325 78.6668 112.27 80.6317 111.066 82.8042L109.465 85.6587C108.35 87.6331 106.723 90.5047 106.245 91.3604L105.776 92.2053C102.947 97.3224 101.331 100.742 100.259 104.124C100.137 104.506 99.7299 104.717 99.3481 104.596C98.9664 104.475 98.7551 104.068 98.8762 103.686C99.9841 100.192 101.632 96.7024 104.503 91.5105L105.5 89.7267C106.547 87.8694 108.535 84.3637 109.128 83.303L109.796 82.1027C111.211 79.5496 112.418 77.2871 113.584 74.981C114.821 72.5352 115.967 70.1224 117.047 67.6734Z" fill="#F0A95C"/>
<path fill-rule="evenodd" clip-rule="evenodd" d="M117.1 48.1749C117.1 48.1749 122.091 44.0301 121.773 43.4906C121.456 42.9519 116.428 46.592 116.428 46.592C116.428 46.592 121.819 42.044 121.582 41.4871C121.345 40.9317 115.512 44.9198 115.512 44.9198C115.512 44.9198 120.08 40.5539 119.789 40.1152C119.496 39.6765 112.532 45.0736 112.532 45.0736C112.532 45.0736 108.957 51.4481 107.554 54.3377L111.226 59.8573C114.618 53.1173 122.297 46.0344 122.09 45.3368C121.883 44.6385 117.1 48.1749 117.1 48.1749Z" fill="#B86961"/>
<path fill-rule="evenodd" clip-rule="evenodd" d="M103.848 54.2237C104.853 53.1165 106.412 52.1419 107.77 52.767C108.301 53.0113 108.7 53.4638 109.084 53.9047C110.077 55.0438 111.07 56.1837 112.063 57.3236C112.76 58.1242 113.494 59.0088 113.554 60.0682C113.625 61.3154 112.747 62.3995 111.872 63.2928C110.998 64.1847 110.023 65.1179 109.814 66.3506C109.928 63.9084 101.773 57.552 100.825 57.1394C101.736 56.1707 102.901 55.2679 103.848 54.2237Z" fill="#F0A95C"/>
<path fill-rule="evenodd" clip-rule="evenodd" d="M135.547 52.6141C134.022 50.3655 131.949 48.4868 129.529 47.0924C127.709 46.0438 125.824 45.033 125.753 45.302C125.615 45.827 129.628 49.325 129.628 49.325C129.628 49.325 124.401 45.7792 124.005 46.178C123.609 46.5768 128.099 50.4431 128.099 50.4431C128.099 50.4431 122.894 46.9937 122.561 47.5281C122.229 48.064 127.788 52.0072 127.788 52.0072C127.788 52.0072 122.358 49.2663 121.876 49.7738C121.615 50.0487 127.659 54.1159 127.659 54.1159C127.659 54.1159 131.523 59.46 132.774 61.2576L137.965 57.3499C137.675 56.0026 136.619 54.1934 135.547 52.6141Z" fill="#B86961"/>
<path fill-rule="evenodd" clip-rule="evenodd" d="M147.415 57.3741C150.666 57.0956 153.209 58.0374 157.728 60.6988L159.806 61.9391C161.303 62.8263 162.189 63.3106 163.191 63.776L163.343 63.8457C166.496 65.2868 169.225 65.9766 175 66.9757L177.796 67.4523C181.595 68.1105 183.718 68.5767 186.035 69.3209C189.234 70.008 192.398 71.6104 195.437 73.8475C196.877 74.907 198.194 76.0411 199.364 77.1757L199.833 77.639C199.908 77.7138 199.98 77.7874 200.05 77.8596L200.449 78.2762C200.638 78.4779 200.769 78.624 200.84 78.7051C201.102 79.0076 201.07 79.4656 200.767 79.728C200.464 79.9903 200.007 79.9578 199.744 79.6552L199.585 79.478C199.531 79.4187 199.466 79.3484 199.391 79.268C199.094 78.9515 198.748 78.598 198.354 78.2167C197.229 77.1254 195.96 76.0335 194.577 75.0155C191.69 72.8902 188.703 71.3773 185.662 70.7205L185.204 70.5769C182.924 69.876 180.738 69.4228 176.766 68.7469L175.133 68.4702C169.107 67.4372 166.236 66.7361 162.959 65.264L162.74 65.1647C161.618 64.6518 160.689 64.1478 159.08 63.1951L157.626 62.3252C152.952 59.5238 150.536 58.5623 147.539 58.8191C141.069 59.3729 136.249 67.1937 139.48 72.5515C140.826 74.7832 142.628 76.3157 146.446 78.8642C153.019 83.253 158.889 85.6656 166.895 87.3467C170.747 88.156 174.324 90.2083 178.885 93.8072C179.199 94.0553 179.253 94.5113 179.005 94.8256C178.757 95.14 178.301 95.1938 177.986 94.9457C173.586 91.4739 170.178 89.5184 166.597 88.766C158.413 87.0477 152.371 84.5642 145.64 80.0704L144.994 79.6357C141.439 77.223 139.646 75.6356 138.238 73.3004C134.418 66.965 139.934 58.0145 147.415 57.3741Z" fill="#F0A95C"/>
<path fill-rule="evenodd" clip-rule="evenodd" d="M145.316 58.8931C143.171 58.2369 141.301 56.5879 139.434 55.398C138.756 54.9658 137.939 54.6461 137.158 54.8324C135.901 55.1334 131.694 60.3941 130.531 61.877C130.177 62.3302 129.8 62.8783 129.952 63.4345C130.056 63.8196 130.391 64.0907 130.708 64.3351C133.026 66.1254 135.345 67.9158 137.664 69.7068C138.109 65.0813 141.027 60.6783 145.316 58.8931Z" fill="#F0A95C"/>
<path fill-rule="evenodd" clip-rule="evenodd" d="M145.461 92.3193C145.817 92.1356 146.254 92.2752 146.438 92.6311C146.622 92.987 146.482 93.4243 146.126 93.608C136.21 98.7264 125.632 102.557 114.739 104.975C114.348 105.062 113.961 104.816 113.874 104.425C113.787 104.034 114.034 103.646 114.425 103.56C125.195 101.169 135.656 97.3804 145.461 92.3193Z" fill="#F0A95C"/>
<path fill-rule="evenodd" clip-rule="evenodd" d="M137.644 106.617C138.001 106.435 138.438 106.576 138.62 106.933C138.802 107.29 138.661 107.726 138.304 107.909C131.173 111.555 123.2 113.539 115.19 113.661C114.789 113.668 114.46 113.348 114.454 112.947C114.448 112.547 114.767 112.218 115.168 112.211C122.955 112.093 130.71 110.163 137.644 106.617Z" fill="#F0A95C"/>
<path fill-rule="evenodd" clip-rule="evenodd" d="M136.772 20.6218C136.599 20.1903 136.809 19.7016 137.24 19.529C137.67 19.3572 138.159 19.5667 138.331 19.9982C138.504 20.4282 138.294 20.9169 137.864 21.0902C137.432 21.2621 136.943 21.0525 136.772 20.6218Z" fill="#353D59"/>
<path fill-rule="evenodd" clip-rule="evenodd" d="M142.196 18.9918C142.024 18.5603 142.233 18.0716 142.664 17.899C143.095 17.7272 143.584 17.9367 143.756 18.3675C143.929 18.7982 143.719 19.2869 143.288 19.4602C142.857 19.6321 142.368 19.4225 142.196 18.9918Z" fill="#353D59"/>
<path fill-rule="evenodd" clip-rule="evenodd" d="M144.758 15.98C144.825 15.9539 144.883 15.9046 144.919 15.8364C145.001 15.6834 144.943 15.492 144.79 15.4101C143.404 14.669 141.488 15.2078 140.686 16.5601C140.599 16.7095 140.648 16.9031 140.797 16.9923C140.947 17.0793 141.139 17.0293 141.229 16.8806C141.865 15.8038 143.39 15.3767 144.492 15.9655C144.578 16.0112 144.674 16.0141 144.758 15.98Z" fill="#3B56AA"/>
<path fill-rule="evenodd" clip-rule="evenodd" d="M138.603 17.7638C138.66 17.7414 138.709 17.6978 138.74 17.6362C138.812 17.4977 138.759 17.3201 138.622 17.2388C137.392 16.5145 135.739 16.8589 134.939 18.0075C134.85 18.1351 134.88 18.3178 135.005 18.4157C135.132 18.5151 135.304 18.489 135.393 18.3642C136.029 17.4542 137.389 17.17 138.366 17.7443C138.442 17.7885 138.529 17.7936 138.603 17.7638Z" fill="#3B56AA"/>
<path fill-rule="evenodd" clip-rule="evenodd" d="M140.03 19.7049C140.23 19.6914 140.403 19.8424 140.416 20.0421C140.497 21.2367 140.523 22.4372 140.492 23.6372L140.478 24.0486L140.68 24.0831C141.095 24.1452 141.525 24.166 141.978 24.148L142.252 24.1326C142.451 24.1182 142.625 24.2684 142.639 24.4681C142.654 24.6679 142.503 24.8415 142.304 24.8559C141.597 24.9069 140.933 24.8757 140.294 24.7525L140.022 24.6941L139.73 24.6249L139.743 24.3254C139.805 22.9128 139.788 21.4978 139.693 20.0912C139.679 19.8914 139.83 19.7185 140.03 19.7049Z" fill="#753730"/>
<path fill-rule="evenodd" clip-rule="evenodd" d="M139.483 10.5211C136.973 10.8532 134.215 10.1187 132.594 8.17464C130.972 6.22987 130.878 3.00744 132.743 1.29399C134.034 0.109141 135.949 -0.17003 137.684 0.0888376C139.417 0.34843 141.039 1.07572 142.683 1.68555C144.739 2.44983 148.984 4.50046 146.962 7.4372C145.823 9.09119 141.287 10.2818 139.483 10.5211Z" fill="#3B56AA"/>
<path fill-rule="evenodd" clip-rule="evenodd" d="M146.301 7.74524C146.861 6.11952 148.306 4.56052 150.015 4.74977C151.577 4.92235 152.614 6.43423 153.255 7.86996C154.066 9.69074 154.598 11.7523 154.067 13.6738C151.947 21.3296 144.465 13.0756 146.301 7.74524Z" fill="#3B56AA"/>
<path fill-rule="evenodd" clip-rule="evenodd" d="M149.487 17.9162C149.848 16.9866 150.361 16.078 151.166 15.4878C151.972 14.899 153.119 14.6974 153.979 15.2021C155.241 15.941 155.328 17.856 154.538 19.0865C153.75 20.3185 152.373 21.0226 151.054 21.6549" fill="#B86961"/>
<path fill-rule="evenodd" clip-rule="evenodd" d="M143.937 26.2021C144.056 26.0414 144.283 26.0079 144.444 26.1274C144.605 26.2468 144.638 26.4739 144.519 26.6346C143.745 27.6763 142.387 28.2394 141.103 28.0519C140.905 28.023 140.768 27.8389 140.797 27.6407C140.826 27.4426 141.01 27.3054 141.208 27.3344C142.228 27.4833 143.322 27.0297 143.937 26.2021Z" fill="#753730"/>
<path fill-rule="evenodd" clip-rule="evenodd" d="M152.766 16.6594C152.947 16.5728 153.163 16.649 153.25 16.8296C153.337 17.0101 153.26 17.2267 153.08 17.3132C152.695 17.4979 152.335 17.7348 152.012 18.0141L151.856 18.1541L152.805 17.9265L152.9 17.902C153.094 17.852 153.291 17.9686 153.342 18.1624C153.392 18.3563 153.275 18.5541 153.081 18.6041L152.459 18.7577L151.235 19.0474L150.03 19.3566L150.562 18.5648C151.111 17.7489 151.879 17.0846 152.766 16.6594Z" fill="#753730"/>
<path fill-rule="evenodd" clip-rule="evenodd" d="M147.125 31.0129C147.294 30.9044 147.518 30.9527 147.627 31.1209C147.735 31.2892 147.687 31.5136 147.519 31.6222C146.152 32.5045 144.562 32.8986 143.212 32.6918C143.014 32.6615 142.878 32.4765 142.908 32.2786C142.938 32.0807 143.123 31.9448 143.321 31.9751C144.488 32.1537 145.901 31.8033 147.125 31.0129Z" fill="#753730"/>
<path fill-rule="evenodd" clip-rule="evenodd" d="M323.497 48.6621H221.96C220.496 43.8705 225.375 38.82 230.214 37.5214C235.053 36.2227 240.803 35.5403 243.434 31.2766C245.424 28.0527 244.818 23.9333 245.467 20.2012C246.769 12.7158 253.972 6.71539 261.57 6.78863C269.167 6.86186 276.254 13.0007 277.41 20.5108C277.766 22.8188 277.624 25.219 278.341 27.4429C279.056 29.6669 281.014 31.7668 283.343 31.5754C286.517 31.3143 287.959 27.9853 291.358 27.7105C295.469 27.3777 298.901 29.5864 300.385 33.2939C301.536 36.1676 302.445 41.0918 306.562 40.6256C319.026 39.2138 323.497 48.6621 323.497 48.6621Z" fill="#BCE4F0"/>
<path fill-rule="evenodd" clip-rule="evenodd" d="M77.1758 131.72H0.374757C0.372582 128.015 2.78433 123.921 6.69635 122.348C10.6076 120.775 15.5551 121.321 18.8747 123.693C15.9518 119.123 15.9887 112.066 18.4404 107.296C20.892 102.527 26.4573 98.9361 32.5251 98.6352C38.5922 98.3343 44.8028 101.565 46.8868 106.461C48.0441 109.178 47.9622 112.173 48.8889 114.955C49.8163 117.736 52.3462 120.536 55.7188 120.5C59.2182 120.463 61.8388 118.188 65.5826 118.915C71.6649 120.096 75.223 126.35 77.1758 131.72Z" fill="#BCE4F0"/>
<path fill-rule="evenodd" clip-rule="evenodd" d="M305.569 259.068C299.287 261.53 295.053 262.036 288.493 260.955C286.251 263.966 286.358 268.087 285.835 270.441C285.218 273.222 281.566 274.101 279.387 275.935C276.368 278.473 269.426 285 274.26 298.056C287.422 303.521 293.818 303.521 293.818 303.521C293.818 303.521 297.944 300.859 289.234 297.574C293.62 295.567 294.284 290.859 294.284 290.859C294.694 293.18 296.567 296.799 297.944 300.859C298.255 301.771 298.866 302.605 299.676 303.127C300.485 303.65 301.677 303.697 302.334 302.991C303.055 302.215 302.838 300.991 302.624 299.953C301.598 295.007 300.418 289.465 302.906 285.068C304.516 282.224 306.333 282.476 307.542 279.665C308.081 278.414 308.58 274.366 308.747 272.92C309.202 268.964 306.858 262.875 305.569 259.068Z" fill="#E1DCD4"/>
<path fill-rule="evenodd" clip-rule="evenodd" d="M306.272 260.937C306.689 259.489 306.272 256.394 305.265 255.167H287.455C286.888 256.418 286.737 260.052 286.721 261.446C293.281 262.527 299.282 262.523 306.272 260.937Z" fill="#5B9274"/>
<path fill-rule="evenodd" clip-rule="evenodd" d="M280.145 243.557C278.595 243.81 277.053 244.065 275.556 244.338C275.281 246.226 275.142 248.133 275.111 250.04C277.992 249.37 279.957 246.632 280.145 243.557Z" fill="#353D59"/>
<path fill-rule="evenodd" clip-rule="evenodd" d="M305.364 243.12C304.767 236.232 300.632 231.278 299.151 231.278C297.67 231.278 297.998 237.632 297.998 237.632C297.998 237.632 293.838 230.851 292.496 231.278C291.845 231.486 291.814 238.535 291.814 238.535C291.814 238.535 290.072 238.624 289.528 239.269C288.984 239.915 288.823 241.286 289.167 242.057C286.243 242.59 283.172 243.065 280.146 243.557C279.957 246.633 277.992 249.37 275.11 250.04C275.041 254.246 275.264 256.444 276.366 260.505C276.525 261.09 278.708 261.276 278.572 257.314C278.74 261.614 283.406 263.455 283.893 258.995C283.979 263.025 287.94 263.128 287.925 259.068C287.96 262.917 292.211 261.142 292.118 256.599C296.305 256.76 301.466 256.612 305.512 255.527C308.804 252.666 308.657 247.562 305.364 243.12Z" fill="#E1DCD4"/>
<path fill-rule="evenodd" clip-rule="evenodd" d="M297.543 243.953C297.574 243.278 297.05 242.706 296.376 242.676C295.7 242.646 295.129 243.169 295.098 243.845C295.068 244.519 295.591 245.091 296.266 245.121C296.941 245.151 297.514 244.629 297.543 243.953Z" fill="#353D59"/>
<path fill-rule="evenodd" clip-rule="evenodd" d="M299.391 233.249C299.145 235.075 299.347 237.618 299.684 239.431L302.938 241.45C302.716 238.682 301.28 235.401 299.391 233.249Z" fill="#ED8E93"/>
<path fill-rule="evenodd" clip-rule="evenodd" d="M292.929 238.388L296.083 238.293C295.322 236.713 294.4 234.482 293.153 233.249C292.915 234.649 292.761 236.978 292.929 238.388Z" fill="#ED8E93"/>
<path d="M291.454 280.196C291.615 280.076 291.842 280.11 291.961 280.27C293.816 282.762 294.877 285.672 294.882 288.533C294.887 291.626 293.604 294.625 291.377 296.516C289.017 298.52 285.617 299.146 282.874 298.002C282.689 297.924 282.602 297.712 282.679 297.527C282.756 297.343 282.968 297.255 283.153 297.332C285.637 298.369 288.749 297.795 290.907 295.963C292.966 294.216 294.162 291.421 294.157 288.535C294.152 285.837 293.146 283.075 291.38 280.703C291.26 280.543 291.293 280.315 291.454 280.196Z" fill="#C5BCB0"/>
<path fill-rule="evenodd" clip-rule="evenodd" d="M266.508 286.797C263.86 283.745 261.772 280.257 259.466 276.938C258.491 275.534 257.159 274.004 255.457 274.152C253.59 274.313 252.504 276.569 252.867 278.408C253.144 279.803 253.983 280.984 254.932 282.069C254.375 281.827 253.686 281.825 253.16 282.143C252.212 282.715 251.841 283.967 252.039 285.056C252.238 286.145 252.901 287.09 253.636 287.918C255.174 289.649 257.143 291.037 259.362 291.687C258.335 291.463 257.304 292.701 257.486 293.798C257.679 294.972 258.73 295.81 259.797 296.338C261.529 297.196 263.509 297.526 265.431 297.315C265.337 297.446 265.27 297.594 265.256 297.755C265.196 298.478 265.838 299.109 266.541 299.295C267.243 299.48 267.985 299.331 268.696 299.182C271.015 298.694 273.334 298.207 275.653 297.719L276.366 293.538C272.463 292.492 269.155 289.849 266.508 286.797Z" fill="#E1DCD4"/>
<path fill-rule="evenodd" clip-rule="evenodd" d="M301.439 283.975C302.078 289.132 303.432 294.2 305.449 298.988C305.821 299.871 306.245 300.783 307.012 301.357C307.778 301.931 308.989 302.027 309.625 301.311C310.275 300.582 310.049 299.457 309.797 298.515C307.672 290.55 306.272 281.295 307.017 274.116" fill="#E1DCD4"/>
<path d="M306.072 260.634C306.24 260.524 306.465 260.571 306.575 260.738C309.392 265.02 310.056 276.28 307.542 280.439L307.421 280.629L307.047 281.193L306.437 279.739L306.425 279.938C306.303 281.588 305.831 283.214 305.039 284.669L304.886 284.939L304.652 285.344L304.318 285.016C303.894 284.598 303.592 284.064 303.438 283.49L303.426 283.445L303.313 283.663C302.027 286.144 301.711 287.425 301.843 289.632L301.858 289.856C301.872 290.056 301.721 290.229 301.522 290.243C301.322 290.258 301.149 290.107 301.134 289.907C300.934 287.09 301.368 285.682 303.241 282.26L304.429 280.107L304.08 282.197C303.976 282.815 304.113 283.471 304.44 284.008L304.51 284.116L304.538 284.064C305.463 282.249 305.869 280.17 305.691 278.141L305.662 277.852L305.369 275.311L307.168 279.607L307.253 279.429C309.18 275.165 308.53 265.335 306.096 261.338L305.969 261.136C305.859 260.969 305.905 260.744 306.072 260.634Z" fill="#C5BCB0"/>
<path fill-rule="evenodd" clip-rule="evenodd" d="M301.143 264.413C301.143 262.834 299.864 261.555 298.286 261.555C296.706 261.555 295.427 262.834 295.427 264.413C295.427 265.992 296.706 267.271 298.286 267.271C299.864 267.271 301.143 265.992 301.143 264.413Z" fill="#F0A95C"/>
</svg>
