<svg width="474" height="344" viewBox="0 0 474 344" fill="none" xmlns="http://www.w3.org/2000/svg">
<path fill-rule="evenodd" clip-rule="evenodd" d="M466.868 276.92C466.868 271.28 362.404 266.708 233.541 266.708C104.678 266.708 0.214355 271.28 0.214355 276.92C0.214355 282.56 104.678 287.132 233.541 287.132C362.404 287.132 466.868 282.56 466.868 276.92Z" fill="#BCE4F0"/>
<path fill-rule="evenodd" clip-rule="evenodd" d="M447.049 183.886C460.141 163.854 455.67 143.932 441.377 162.863C451.52 136.955 435.446 112.226 424.993 161.464C417.069 139.237 403.703 159.864 412.731 189.695C402.311 174.649 396.569 202.948 409.401 223.319L429.701 224.737C438.276 215.271 446.97 205.631 452.507 194.121C453.8 191.435 454.918 188.29 453.758 185.544C452.677 182.987 448.677 181.878 447.049 183.886Z" fill="#386795"/>
<path fill-rule="evenodd" clip-rule="evenodd" d="M464.715 191.54C481.944 173.222 471.043 160.356 453.866 179.922C453.361 162.644 438.261 176.767 437.5 193.911C436.976 191.675 434.92 189.611 432.795 189.74C429.611 189.932 427.153 193.066 425.443 196.23C421.489 203.545 419.48 214.446 419.864 223.102H451.341C466.446 217.715 461.772 209.161 454.708 211.984C466.308 210.109 482.811 184.941 464.715 191.54Z" fill="#4C7BB1"/>
<path fill-rule="evenodd" clip-rule="evenodd" d="M466.211 176.941C466.628 176.578 467.26 176.622 467.622 177.038C467.985 177.455 467.941 178.087 467.525 178.449C454.389 189.885 439.22 208.571 426.964 227.241C426.661 227.703 426.041 227.831 425.579 227.528C425.118 227.225 424.989 226.605 425.292 226.143C437.64 207.333 452.916 188.515 466.211 176.941Z" fill="#386795"/>
<path fill-rule="evenodd" clip-rule="evenodd" d="M445.441 274.278H406.817L400.61 223.239H451.648L445.441 274.278Z" fill="#ED8E93"/>
<path fill-rule="evenodd" clip-rule="evenodd" d="M450.427 232.279V234.279H402.027V232.279H450.427Z" fill="#D76D75"/>
<path fill-rule="evenodd" clip-rule="evenodd" d="M380.783 233.435H399.882L390.707 276.919H380.783V233.435Z" fill="#A55C72"/>
<path fill-rule="evenodd" clip-rule="evenodd" d="M59.7375 233.435H41.2795L50.1465 276.919H59.7375V233.435Z" fill="#A55C72"/>
<path fill-rule="evenodd" clip-rule="evenodd" d="M397.682 73.2839C377.187 35.5179 37.5719 41.5959 37.3009 87.5999C37.0479 130.559 36.7269 173.556 39.7459 216.361L402.161 219.794C402.161 219.794 405.453 87.6019 397.682 73.2839Z" fill="#F0A95C"/>
<path fill-rule="evenodd" clip-rule="evenodd" d="M57.3664 135.165H31.8074C25.2074 135.165 19.8074 140.565 19.8074 147.165V245.26C19.8074 251.859 25.2074 257.26 31.8074 257.26H69.3664V147.165C69.3664 140.565 63.9664 135.165 57.3664 135.165Z" fill="#F6C561"/>
<path fill-rule="evenodd" clip-rule="evenodd" d="M405.164 135.165H379.605C373.006 135.165 367.605 140.565 367.605 147.165V257.26H405.164C411.765 257.26 417.164 251.859 417.164 245.26V147.165C417.164 140.565 411.765 135.165 405.164 135.165Z" fill="#F6C561"/>
<path fill-rule="evenodd" clip-rule="evenodd" d="M368.311 177.695H71.7378C65.1378 177.695 59.7378 183.095 59.7378 189.695V245.259C59.7378 251.859 65.1378 257.259 71.7378 257.259H368.311C374.912 257.259 380.311 251.859 380.311 245.259V189.695C380.311 183.095 374.912 177.695 368.311 177.695Z" fill="#F6C561"/>
<path fill-rule="evenodd" clip-rule="evenodd" d="M304.212 189.221H99.2532C98.7002 189.221 98.2532 188.774 98.2532 188.221C98.2532 187.668 98.7002 187.221 99.2532 187.221H304.212C304.765 187.221 305.212 187.668 305.212 188.221C305.212 188.774 304.765 189.221 304.212 189.221Z" fill="#F0A95C"/>
<path fill-rule="evenodd" clip-rule="evenodd" d="M71.7375 258.259C64.5695 258.259 58.7375 252.427 58.7375 245.259V189.695C58.7375 182.527 64.5695 176.695 71.7375 176.695C72.2905 176.695 72.7375 177.142 72.7375 177.695C72.7375 178.247 72.2905 178.695 71.7375 178.695C65.6725 178.695 60.7375 183.629 60.7375 189.695V245.259C60.7375 251.324 65.6725 256.259 71.7375 256.259C72.2905 256.259 72.7375 256.706 72.7375 257.259C72.7375 257.812 72.2905 258.259 71.7375 258.259Z" fill="#F0A95C"/>
<path fill-rule="evenodd" clip-rule="evenodd" d="M116.047 106.156C88.0781 110.816 63.3791 119.435 39.6651 134.464C27.9701 136.016 33.4781 144.355 40.5331 145.94C51.8501 165.776 67.1621 185.047 84.9821 199.797C87.3391 211.593 94.3801 212.512 99.4501 202.094C128.675 196.707 156.548 190.091 181.256 174.118C189.936 172.354 191.504 166.208 180.46 162.054C158.269 130.037 132.456 112.928 116.047 106.156Z" fill="white"/>
<path fill-rule="evenodd" clip-rule="evenodd" d="M124.964 171.491C124.944 171.491 124.924 171.49 124.903 171.489C105.84 170.361 87.2302 163.048 72.4992 150.896C72.0732 150.545 72.0132 149.915 72.3642 149.488C72.7162 149.063 73.3452 149.002 73.7732 149.353C88.1782 161.237 106.379 168.389 125.023 169.493C125.573 169.525 125.994 169.999 125.961 170.551C125.93 171.081 125.489 171.491 124.964 171.491Z" fill="#BCE4F0"/>
<path fill-rule="evenodd" clip-rule="evenodd" d="M103.749 157.058C103.634 157.058 103.517 157.038 103.402 156.996C96.5813 154.475 90.1793 150.978 84.3733 146.602C83.9323 146.269 83.8443 145.642 84.1763 145.202C84.5093 144.761 85.1363 144.671 85.5763 145.004C91.2273 149.263 97.4573 152.666 104.096 155.12C104.613 155.312 104.879 155.886 104.687 156.405C104.538 156.808 104.155 157.058 103.749 157.058Z" fill="#BCE4F0"/>
<path fill-rule="evenodd" clip-rule="evenodd" d="M368.311 258.259C367.758 258.259 367.311 257.812 367.311 257.259C367.311 256.706 367.758 256.259 368.311 256.259C374.376 256.259 379.311 251.324 379.311 245.259V189.695C379.311 183.629 374.376 178.695 368.311 178.695C367.758 178.695 367.311 178.247 367.311 177.695C367.311 177.142 367.758 176.695 368.311 176.695C375.479 176.695 381.311 182.527 381.311 189.695V245.259C381.311 252.427 375.479 258.259 368.311 258.259Z" fill="#F0A95C"/>
<path fill-rule="evenodd" clip-rule="evenodd" d="M139.215 1.45388L126.034 12.4449C124.855 13.4289 124.695 15.1829 125.68 16.3619L147.597 42.6469C148.581 43.8269 150.334 43.9849 151.515 43.0019L164.694 32.0119C165.874 31.0279 166.033 29.2739 165.05 28.0939L143.132 1.80888C142.149 0.629885 140.395 0.470885 139.215 1.45388Z" fill="#353D59"/>
<path fill-rule="evenodd" clip-rule="evenodd" d="M222.826 54.8513C213.55 53.8593 204.895 53.3913 197.058 53.3013L200.21 87.3503C200.21 87.3503 260.77 83.9513 264.816 70.7653L222.826 54.8513Z" fill="#F7C7B5"/>
<path fill-rule="evenodd" clip-rule="evenodd" d="M264.817 70.7654C270.266 40.6714 204.883 23.9444 179.853 17.9504C170.442 15.6964 161.326 11.9554 152.224 15.4064C148.472 16.8284 143.011 22.4614 143.764 23.0754C144.516 23.6894 152.928 18.3894 152.928 18.3894C152.928 18.3894 145.071 24.9514 145.733 25.6394C146.394 26.3284 155.212 20.7894 155.212 20.7894C155.212 20.7894 147.359 27.0754 148.086 27.7084C148.812 28.3434 156.995 23.4944 156.995 23.4944C156.995 23.4944 150.378 28.8744 151.158 29.6604C151.939 30.4454 156.999 27.2354 159.779 25.5514C188.983 37.1124 236.193 66.9394 264.817 70.7654Z" fill="#F7C7B5"/>
<path fill-rule="evenodd" clip-rule="evenodd" d="M217.891 53.6451C218.121 53.1429 218.714 52.9221 219.216 53.152L238.051 61.775C238.553 62.005 238.774 62.5984 238.544 63.1006C238.314 63.6027 237.721 63.8234 237.219 63.5935L218.384 54.9705C217.882 54.7407 217.661 54.1472 217.891 53.6451Z" fill="#E0A797"/>
<path fill-rule="evenodd" clip-rule="evenodd" d="M78.1223 92.2742C66.4673 95.2322 54.8543 98.3752 43.2963 101.735C58.6003 88.2342 94.3943 67.6622 94.3943 67.6622L88.2963 55.4982C88.2963 55.4982 36.1713 77.5712 14.7483 95.2942C8.73431 100.267 2.46831 106.734 2.66031 114.842C2.79731 120.574 6.34731 125.751 10.8533 128.883C15.3603 132.016 20.7283 133.402 26.0343 134.362C42.5503 137.351 61.7603 137.129 79.6573 135.819C77.9283 121.551 78.0883 106.926 78.1223 92.2742Z" fill="#F7C7B5"/>
<path fill-rule="evenodd" clip-rule="evenodd" d="M138.683 86.3357C142.605 80.0617 143.612 70.8827 141.873 64.3417C137.21 67.4907 130.368 71.2007 125.159 74.3817L115.347 65.5847C121.778 54.0397 99.1469 40.9087 94.6339 37.7867L80.3599 52.6867L87.6849 66.2107C79.2319 69.3107 87.4039 77.1987 93.8839 71.2557L106.504 84.2427L94.1619 88.9577C105.042 103.999 130.054 99.7597 138.683 86.3357Z" fill="#F7C7B5"/>
<path fill-rule="evenodd" clip-rule="evenodd" d="M89.682 57.5769C88.386 54.9929 85.98 53.1749 83.635 51.4829C82.445 50.6239 81.153 49.7389 79.686 49.6969C77.558 49.6359 75.715 51.4909 75.244 53.5659C74.772 55.6409 75.413 57.8249 76.409 59.7059C77.629 62.0149 79.45 64.0789 81.81 65.1989C83.781 66.1359 87.442 66.7339 89.195 64.9889C90.996 63.1979 90.713 59.6329 89.682 57.5769Z" fill="#ED8E93"/>
<path fill-rule="evenodd" clip-rule="evenodd" d="M77.5822 43.9099C78.2742 41.0449 79.8682 38.4779 80.7772 35.6739C81.3852 33.7969 81.7072 31.7679 82.8502 30.1599C84.4882 27.8539 87.6842 26.8949 90.4102 27.6479C93.1362 28.4009 95.3112 30.6919 96.2142 33.3729C97.1172 36.0529 96.8262 39.0559 95.7132 41.6549C94.6002 44.2559 92.7102 46.4729 90.5162 48.2579C87.7312 50.5229 83.8582 52.3779 80.1572 51.6149C77.0682 50.9789 76.9972 46.3299 77.5822 43.9099Z" fill="#ED8E93"/>
<path fill-rule="evenodd" clip-rule="evenodd" d="M106.125 48.7185C105.765 48.0735 104.951 47.8435 104.307 48.2025C103.663 48.5625 103.433 49.3765 103.792 50.0205C104.151 50.6645 104.965 50.8955 105.609 50.5355C106.254 50.1765 106.484 49.3625 106.125 48.7185Z" fill="#353D59"/>
<path fill-rule="evenodd" clip-rule="evenodd" d="M98.1066 54.7244C97.7466 54.0804 96.9326 53.8504 96.2886 54.2094C95.6446 54.5694 95.4136 55.3824 95.7736 56.0274C96.1326 56.6714 96.9466 56.9024 97.5906 56.5424C98.2356 56.1824 98.4656 55.3694 98.1066 54.7244Z" fill="#353D59"/>
<path fill-rule="evenodd" clip-rule="evenodd" d="M92.3966 53.9363C92.2966 53.9923 92.1776 54.0143 92.0576 53.9913C91.7866 53.9383 91.6086 53.6753 91.6606 53.4043C92.1326 50.9513 94.7156 49.1233 97.1886 49.4873C97.4616 49.5283 97.6516 49.7833 97.6116 50.0563C97.5696 50.3293 97.3156 50.5163 97.0416 50.4793C95.0746 50.1863 93.0196 51.6423 92.6446 53.5933C92.6146 53.7453 92.5216 53.8663 92.3966 53.9363Z" fill="#D76D75"/>
<path fill-rule="evenodd" clip-rule="evenodd" d="M100.762 48.1198C100.676 48.1678 100.573 48.1848 100.466 48.1628C100.223 48.1098 100.057 47.8668 100.094 47.6178C100.431 45.3738 102.511 43.6768 104.731 43.8378C104.977 43.8558 105.172 44.0758 105.168 44.3288C105.164 44.5838 104.959 44.7708 104.716 44.7568C102.956 44.6298 101.242 46.0248 100.974 47.8068C100.953 47.9458 100.871 48.0578 100.762 48.1198Z" fill="#D76D75"/>
<path fill-rule="evenodd" clip-rule="evenodd" d="M101.328 51.4683C101.468 51.2299 101.774 51.1495 102.012 51.2888L103.026 51.8842C103.341 52.0706 103.636 52.2466 103.919 52.4175L104.741 52.9195C106.08 53.7492 106.696 54.1757 106.843 54.4765C107.066 54.9351 107.048 55.5056 106.863 56.1716C106.773 56.5003 106.643 56.8439 106.484 57.1945C106.374 57.4366 106.257 57.6682 106.139 57.8819L105.978 58.1623C105.834 58.3976 105.526 58.4711 105.29 58.3266C105.055 58.182 104.982 57.8741 105.126 57.6388L105.263 57.4004C105.368 57.2079 105.474 56.9988 105.573 56.7815C105.712 56.475 105.824 56.1786 105.9 55.9051C106.025 55.4522 106.036 55.1043 105.943 54.9142C105.877 54.7775 103.814 53.4998 101.508 52.1523C101.269 52.0129 101.189 51.7067 101.328 51.4683Z" fill="#E0A797"/>
<path fill-rule="evenodd" clip-rule="evenodd" d="M110.573 58.8701C110.845 58.8234 111.103 59.0062 111.15 59.2783C111.197 59.5505 111.014 59.809 110.742 59.8557C108.361 60.2641 106.149 61.6131 104.696 63.5436C104.53 63.7642 104.216 63.8084 103.995 63.6423C103.775 63.4762 103.731 63.1627 103.897 62.9421C105.504 60.808 107.94 59.3216 110.573 58.8701Z" fill="#E0A797"/>
<path fill-rule="evenodd" clip-rule="evenodd" d="M114.558 65.209C114.747 65.0078 115.063 64.9981 115.265 65.1873C115.466 65.3765 115.475 65.6929 115.286 65.8941C113.536 67.755 111.457 69.304 109.174 70.4476C108.927 70.5712 108.627 70.4713 108.503 70.2244C108.379 69.9775 108.479 69.6771 108.726 69.5535C110.904 68.4625 112.888 66.9844 114.558 65.209Z" fill="#E0A797"/>
<path fill-rule="evenodd" clip-rule="evenodd" d="M86.2783 69.3484C87.3054 68.6009 88.5824 68.213 89.8509 68.2573L90.1224 68.2735L90.9133 68.34L89.1179 71.4026C88.9782 71.6408 88.6718 71.7207 88.4336 71.581C88.1954 71.4413 88.1155 71.135 88.2552 70.8968L89.204 69.2762L89.0066 69.299C88.3232 69.3939 87.6597 69.6372 87.0801 70.0108L86.8668 70.157C86.6435 70.3195 86.3308 70.2702 86.1683 70.0469C86.0058 69.8237 86.055 69.5109 86.2783 69.3484Z" fill="#E0A797"/>
<path fill-rule="evenodd" clip-rule="evenodd" d="M83.8608 67.6612C84.7056 65.9648 86.7574 64.9932 88.6046 65.4146C88.8738 65.476 89.0423 65.744 88.9809 66.0133C88.9195 66.2825 88.6514 66.4509 88.3822 66.3895C86.985 66.0708 85.395 66.8237 84.7561 68.1067C84.1178 69.3901 84.4759 71.1121 85.5733 72.0355C85.7846 72.2133 85.8118 72.5287 85.634 72.74C85.4562 72.9513 85.1408 72.9784 84.9295 72.8006C83.479 71.5801 83.0169 69.3581 83.8608 67.6612Z" fill="#E0A797"/>
<path fill-rule="evenodd" clip-rule="evenodd" d="M84.4513 32.2312C84.3253 32.2312 84.2003 32.1862 84.1003 32.0932C83.8933 31.9002 83.8823 31.5752 84.0753 31.3682C85.3213 30.0282 87.0693 29.3752 88.7633 29.6192C89.0443 29.6602 89.2383 29.9202 89.1983 30.2022C89.1573 30.4812 88.8893 30.6692 88.6163 30.6352C87.2653 30.4402 85.8453 30.9732 84.8273 32.0682C84.7253 32.1752 84.5883 32.2312 84.4513 32.2312Z" fill="#D76D75"/>
<path fill-rule="evenodd" clip-rule="evenodd" d="M92.0696 32.8502C92.0386 32.8502 92.0076 32.8472 91.9766 32.8422L90.2906 32.5382C90.0116 32.4892 89.8266 32.2222 89.8766 31.9422C89.9256 31.6632 90.1976 31.4852 90.4726 31.5282L92.1596 31.8312C92.4376 31.8822 92.6236 32.1502 92.5736 32.4282C92.5286 32.6762 92.3126 32.8502 92.0696 32.8502Z" fill="#D76D75"/>
<path fill-rule="evenodd" clip-rule="evenodd" d="M84.5716 35.5906C84.5426 35.5906 84.5126 35.5886 84.4836 35.5836C84.2046 35.5356 84.0166 35.2716 84.0636 34.9906C84.1886 34.2646 84.6446 33.6246 85.2866 33.2816C85.8316 32.9896 86.4406 32.9566 86.9646 33.1896C87.2216 33.3046 87.3386 33.6096 87.2216 33.8666C87.1066 34.1256 86.8026 34.2426 86.5446 34.1256C86.2306 33.9876 85.9256 34.1036 85.7706 34.1876C85.4126 34.3786 85.1456 34.7526 85.0766 35.1636C85.0336 35.4146 84.8166 35.5906 84.5716 35.5906Z" fill="#D76D75"/>
<path fill-rule="evenodd" clip-rule="evenodd" d="M205.272 87.3503L201.838 53.3013C187.602 53.1533 175.839 54.0553 167.539 55.3283C158.358 56.7363 149.356 59.6353 140.985 63.7833C145.629 90.0073 115.107 108.445 94.6667 88.2043C94.6667 88.2043 82.4157 90.9973 77.0587 92.2743C77.0227 106.926 76.8517 121.551 78.6947 135.819C84.7167 135.404 98.8247 134.319 98.8247 134.319C98.8247 134.319 156.975 171.553 181.589 178.885L244.584 104.065L205.272 87.3503Z" fill="#5B9274"/>
<path fill-rule="evenodd" clip-rule="evenodd" d="M46.5122 100.618C46.5968 101.164 46.2229 101.675 45.6771 101.759L44.6312 101.93L43.7634 102.079C43.1647 102.183 42.5269 102.298 41.8571 102.422C38.9878 102.956 36.1191 103.561 33.4457 104.223C31.2239 104.774 29.2361 105.342 27.5439 105.921C27.0214 106.1 26.4528 105.822 26.2739 105.299C26.095 104.777 26.3736 104.208 26.8961 104.029C28.6492 103.429 30.6905 102.846 32.9644 102.282C35.2924 101.705 37.7599 101.173 40.2469 100.692L41.4915 100.456C41.9997 100.362 42.4898 100.273 42.9588 100.19L44.7198 99.8881L45.3709 99.7831C45.9167 99.6985 46.4276 100.072 46.5122 100.618Z" fill="#E0A797"/>
<path fill-rule="evenodd" clip-rule="evenodd" d="M77.0587 92.2742C74.8517 92.7992 72.6487 93.3382 70.4447 93.8762C70.3817 108.149 69.9887 122.391 72.5187 136.197C74.5887 136.084 76.6517 135.959 78.6947 135.819C76.8517 121.551 77.0227 106.926 77.0587 92.2742Z" fill="#437858"/>
<path fill-rule="evenodd" clip-rule="evenodd" d="M205.272 87.3503L197.481 84.1203L195.767 53.3013H201.838L205.272 87.3503Z" fill="#437858"/>
<path fill-rule="evenodd" clip-rule="evenodd" d="M199.736 84.9509C199.603 84.9509 199.467 84.9249 199.337 84.8669L181.189 76.9449C180.683 76.7239 180.452 76.1359 180.674 75.6289C180.895 75.1239 181.48 74.8889 181.99 75.1129L200.137 83.0349C200.643 83.2559 200.875 83.8449 200.653 84.3509C200.489 84.7269 200.122 84.9509 199.736 84.9509Z" fill="#437858"/>
<path fill-rule="evenodd" clip-rule="evenodd" d="M114.163 97.0183C106.921 97.0183 99.6632 94.3863 94.3542 89.3783C93.9532 88.9993 93.9342 88.3673 94.3132 87.9643C94.6932 87.5633 95.3252 87.5433 95.7272 87.9233C103.83 95.5683 116.819 97.2593 126.608 91.9433C136.553 86.5443 142.121 75.2223 140.151 64.4093C140.052 63.8653 140.412 63.3443 140.955 63.2463C141.497 63.1463 142.019 63.5073 142.118 64.0493C144.241 75.7033 138.256 87.8953 127.563 93.7013C123.448 95.9343 118.809 97.0183 114.163 97.0183Z" fill="#437858"/>
<path fill-rule="evenodd" clip-rule="evenodd" d="M351.41 300.78L341.233 277.345L353.759 266.524L359.462 297.027L351.41 300.78Z" fill="#F7C7B5"/>
<path fill-rule="evenodd" clip-rule="evenodd" d="M351.41 300.78L359.462 297.027C362.625 296.713 379.637 290.238 380.998 293.237C382.359 296.237 369.205 306.217 355.498 305.586C352.837 305.463 351.922 303.141 351.41 300.78Z" fill="#353D59"/>
<path fill-rule="evenodd" clip-rule="evenodd" d="M386.936 140.987L365.685 118.827L376.308 108.557L393.587 134.328L386.936 140.987Z" fill="#F7C7B5"/>
<path fill-rule="evenodd" clip-rule="evenodd" d="M386.936 140.987L393.587 134.328C396.624 132.862 411.207 120.234 413.66 122.709C416.111 125.183 406.652 139.876 392.765 144.255C390.068 145.105 388.308 143.138 386.936 140.987Z" fill="#353D59"/>
<path fill-rule="evenodd" clip-rule="evenodd" d="M336.931 287.642L359.613 276.606C358.416 270.406 357.244 263.11 356.013 255.301C346.519 255.831 337.516 259.515 329.268 268.038L336.931 287.642Z" fill="#323863"/>
<path fill-rule="evenodd" clip-rule="evenodd" d="M262.563 143.699L317.138 77.852L356.084 118.808C366.29 113.944 373.188 106.294 378.003 96.888L338.33 44.499C314.15 10.694 264.647 66.186 235.789 98.555L181.589 178.886C237.161 197.855 304.705 205.203 304.705 205.203L329.268 268.038L356.013 255.302C351.172 224.609 345.4 185.983 333.543 174.737C318.669 160.629 286.732 149.516 262.563 143.699Z" fill="#3B4772"/>
<path fill-rule="evenodd" clip-rule="evenodd" d="M391.14 114.235L378.003 96.8881L356.084 118.808L368.794 132.173L391.14 114.235Z" fill="#323863"/>
<path fill-rule="evenodd" clip-rule="evenodd" d="M200.378 185.221C200.319 185.221 200.26 185.216 200.199 185.205C199.656 185.107 199.295 184.587 199.393 184.043C200.799 176.253 198.825 167.803 194.115 161.441C193.786 160.997 193.88 160.371 194.324 160.042C194.768 159.712 195.394 159.806 195.723 160.251C200.755 167.048 202.863 176.075 201.361 184.399C201.274 184.882 200.853 185.221 200.378 185.221Z" fill="#323863"/>
<path fill-rule="evenodd" clip-rule="evenodd" d="M261.834 143.583C261.747 143.583 261.659 143.572 261.571 143.548L243.85 138.735C243.316 138.591 243.002 138.041 243.147 137.509C243.291 136.976 243.843 136.658 244.373 136.806L262.095 141.618C262.628 141.763 262.942 142.312 262.798 142.845C262.677 143.29 262.273 143.583 261.834 143.583Z" fill="#323863"/>
<path fill-rule="evenodd" clip-rule="evenodd" d="M120.468 313.408H94.907V340.006C94.907 341.863 96.413 343.37 98.272 343.37H117.104C118.961 343.37 120.468 341.863 120.468 340.006V313.408Z" fill="#4C7BB1"/>
<path fill-rule="evenodd" clip-rule="evenodd" d="M116.333 321.818C113.915 321.818 111.947 323.786 111.947 326.204V332.09C111.947 334.508 113.915 336.476 116.333 336.476H122.22C124.638 336.476 126.605 334.508 126.605 332.09V326.204C126.605 323.786 124.638 321.818 122.22 321.818H116.333ZM122.22 340.316H116.333C111.797 340.316 108.107 336.627 108.107 332.09V326.204C108.107 321.669 111.797 317.978 116.333 317.978H122.22C126.755 317.978 130.445 321.669 130.445 326.204V332.09C130.445 336.627 126.755 340.316 122.22 340.316Z" fill="#4C7BB1"/>
<path fill-rule="evenodd" clip-rule="evenodd" d="M94.9075 313.408H120.468C120.468 313.408 108.997 321.06 94.9075 313.408Z" fill="#386795"/>
</svg>
