<svg width="516" height="329" viewBox="0 0 516 329" fill="none" xmlns="http://www.w3.org/2000/svg">
<path fill-rule="evenodd" clip-rule="evenodd" d="M515.484 297.01C515.484 291.532 400.209 287.092 258.01 287.092C115.811 287.092 0.535645 291.532 0.535645 297.01C0.535645 302.489 115.811 306.929 258.01 306.929C400.209 306.929 515.484 302.489 515.484 297.01Z" fill="#BCE4F0"/>
<path fill-rule="evenodd" clip-rule="evenodd" d="M79.7374 203.618L79.9704 258.92L82.1854 258.871L83.3214 214.273C83.4594 208.858 83.6044 203.386 84.9814 198.147C85.9864 194.324 87.6344 190.676 88.3764 186.793C89.2534 182.198 88.8614 177.285 90.8054 173.03C93.5024 167.133 100.248 163.523 101.911 157.256C103.792 150.166 98.3524 142.636 100.291 135.561C101.308 131.847 104.182 128.988 106.329 125.79C111.666 117.841 112.414 107.027 108.222 98.4192C94.7254 114.99 80.7014 132.738 77.8844 153.924C75.6974 170.388 80.6084 187.032 79.7374 203.618Z" fill="#386795"/>
<path fill-rule="evenodd" clip-rule="evenodd" d="M48.4465 143.867C48.6535 147.006 47.2055 150.361 48.5905 153.184C49.7885 155.628 52.6955 156.727 54.3505 158.888C57.8565 163.459 54.4955 170.427 56.8445 175.686C58.6845 179.804 63.3875 181.647 67.5815 183.304L67.7075 183.353C73.4355 185.638 77.1915 191.192 77.3285 197.358L78.6875 258.948L79.9705 258.92L82.5755 202.327C83.0545 191.932 81.5085 181.543 78.0235 171.736L51.7305 95.6301C51.7305 95.6301 44.6355 106.954 42.6365 113.284C40.6365 119.615 40.3455 126.752 43.2805 132.706C45.1095 136.418 48.1745 139.738 48.4465 143.867Z" fill="#4C7BB1"/>
<path fill-rule="evenodd" clip-rule="evenodd" d="M87.8127 261.529L87.3737 204.065C87.8297 196.266 91.5987 192.757 95.1357 190.78C98.6717 188.803 102.769 187.331 105.058 183.988C107.699 180.131 107.333 174.548 110.688 171.294C112.512 169.524 115.266 168.657 116.448 166.408C118.063 163.334 115.853 159.552 116.501 156.141C117.25 152.201 121.37 150.056 124.336 147.357C131.735 140.623 134.352 128.782 132.562 119.41C132.581 120.279 117.357 135.17 109.678 143.034C94.3877 158.693 84.0017 178.892 84.5137 202.06L85.0547 262.577L87.8127 261.529Z" fill="#4C7BB1"/>
<path fill-rule="evenodd" clip-rule="evenodd" d="M49.5998 201.217C57.9118 204.206 63.9658 211.474 64.6458 220.28C64.6928 220.895 64.7328 221.53 64.7648 222.188L67.4668 259.196L69.9148 259.143C69.3998 245.065 68.5178 231 67.2708 216.968C66.6118 209.55 65.8288 202.045 63.2258 195.068C60.4118 187.523 55.5958 180.927 51.2458 174.149C45.4118 165.055 32.1068 140.984 32.1068 140.984C32.1068 140.984 27.3538 151.608 27.6088 158.965C27.7618 163.405 28.2358 168.078 31.0478 171.519C32.5548 173.363 34.5938 174.86 35.4748 177.072C36.2528 179.028 35.9948 181.217 36.0608 183.321C36.3138 191.294 42.1758 198.546 49.5998 201.217Z" fill="#4C7BB1"/>
<path fill-rule="evenodd" clip-rule="evenodd" d="M91.3732 258.669L93.2052 258.628C93.2052 258.628 92.0572 237.793 96.3152 231.236C98.7752 227.448 102.044 224.277 105.119 220.97C108.85 216.957 112.226 212.63 115.596 208.31C119.768 202.963 123.973 197.562 126.891 191.44C130.339 184.206 131.882 176.074 131.323 168.08C114.48 177.39 99.6782 191.85 93.9352 210.217C89.0772 225.75 91.0552 242.275 91.3732 258.669Z" fill="#4C7BB1"/>
<path fill-rule="evenodd" clip-rule="evenodd" d="M51.6565 245.17H111.562L100.119 293.95H63.0985L51.6565 245.17Z" fill="#5B9274"/>
<path fill-rule="evenodd" clip-rule="evenodd" d="M108.076 255.042C108.629 255.042 109.076 255.49 109.076 256.042C109.076 256.555 108.69 256.977 108.193 257.035L108.076 257.042H54.9534C54.4011 257.042 53.9534 256.594 53.9534 256.042C53.9534 255.529 54.3394 255.106 54.8367 255.049L54.9534 255.042H108.076Z" fill="#437858"/>
<path fill-rule="evenodd" clip-rule="evenodd" d="M132.794 268.408L142.145 297.01H151.495V268.408" fill="#BC7488"/>
<path fill-rule="evenodd" clip-rule="evenodd" d="M344.193 268.408L340.342 297.01H331.421L326.325 268.408H344.193Z" fill="#BC7488"/>
<path fill-rule="evenodd" clip-rule="evenodd" d="M447.548 268.408L435.971 297.01H426.62V268.408H447.548Z" fill="#BC7488"/>
<path fill-rule="evenodd" clip-rule="evenodd" d="M473.726 241.408C471.369 248.917 468.981 256.495 465.043 263.309C461.106 270.123 457.272 279.2 449.402 279.2H131.007C121.417 258.574 111.644 234.932 111.872 212.186C112.101 189.441 125.484 165.113 147.658 160.039C159.585 157.308 172.235 160.385 184.214 157.888C196.619 155.303 207.111 146.957 215.427 137.397C223.744 127.837 230.337 116.913 238.218 106.991C264.298 74.1601 304.527 53.4551 346.256 49.3641C374.925 46.5541 402.385 43.4251 430.143 51.1271C457.901 58.8291 484.17 77.9981 492.533 105.564C496.025 117.077 496.24 129.32 495.708 141.34C494.143 176.769 484.35 207.572 473.726 241.408Z" fill="#F6C561"/>
<path fill-rule="evenodd" clip-rule="evenodd" d="M268.677 174.881C269.505 174.886 270.172 175.563 270.166 176.391C270.16 177.22 269.484 177.886 268.655 177.88C243.516 177.701 218.36 179.652 193.55 183.704L192.057 183.952C176.326 186.623 166.824 189.923 159.153 196.591C149.121 205.31 144.041 219.848 144.625 235.516L144.661 236.387C145.203 248.104 147.829 257.823 154.845 277.992C155.117 278.774 154.703 279.629 153.921 279.901C153.138 280.173 152.283 279.76 152.011 278.977L151.002 276.059C144.561 257.32 142.131 247.783 141.645 236.073L141.627 235.627C141.012 219.119 146.399 203.701 157.185 194.326C165.634 186.982 175.924 183.543 193.066 180.743C217.33 176.78 241.921 174.814 266.507 174.87L268.677 174.881Z" fill="#F0A95C"/>
<path fill-rule="evenodd" clip-rule="evenodd" d="M183.411 208.163C183.721 207.394 184.594 207.023 185.363 207.332C195.343 211.354 206.305 214.446 218.091 216.682C244.968 221.78 273.617 222.167 300.113 219.762L301.622 219.622C304.343 219.361 306.812 219.088 309.001 218.815L310.101 218.675L312.172 218.388C312.991 218.262 313.756 218.824 313.882 219.643C314.007 220.462 313.446 221.228 312.627 221.353L311.782 221.475C311.292 221.544 310.742 221.617 310.132 221.696L309.373 221.792C306.752 222.119 303.742 222.445 300.384 222.75C273.634 225.177 244.725 224.788 217.532 219.629C205.563 217.358 194.413 214.214 184.241 210.115C183.473 209.805 183.101 208.931 183.411 208.163Z" fill="#F0A95C"/>
<path fill-rule="evenodd" clip-rule="evenodd" d="M177.605 222.851C177.867 222.065 178.716 221.64 179.502 221.902C185.025 223.744 192.892 225.278 202.474 226.522C208.984 227.367 215.93 228.033 222.911 228.541L224.656 228.665C226.422 228.786 228.103 228.892 229.682 228.983L232.348 229.127L234.735 229.237C235.562 229.269 236.208 229.966 236.176 230.794C236.144 231.622 235.447 232.267 234.619 232.235L233.254 232.175L231.815 232.104C229.593 231.989 227.116 231.841 224.45 231.658C216.829 231.132 209.208 230.421 202.088 229.497L200.432 229.277C191.42 228.05 183.97 226.554 178.553 224.748C177.767 224.486 177.343 223.637 177.605 222.851Z" fill="#F0A95C"/>
<path fill-rule="evenodd" clip-rule="evenodd" d="M157.667 165.811L171.258 136.792L158.286 127.471L149.51 159.731L157.667 165.811Z" fill="#F7C7B5"/>
<path fill-rule="evenodd" clip-rule="evenodd" d="M157.667 165.811L149.51 159.731C146.032 158.638 126.221 150.446 123.985 153.477C121.75 156.508 136.404 167.711 151.944 170.22C154.962 170.707 156.537 168.329 157.667 165.811Z" fill="#353D59"/>
<path fill-rule="evenodd" clip-rule="evenodd" d="M204.827 157.352L216.308 131.584L205.373 123.319L197.949 151.96L204.827 157.352Z" fill="#F7C7B5"/>
<path fill-rule="evenodd" clip-rule="evenodd" d="M204.828 157.352L197.95 151.96C195.017 150.993 178.31 143.733 176.423 146.425C174.535 149.117 186.891 159.052 199.998 161.27C202.543 161.701 203.872 159.587 204.828 157.352Z" fill="#353D59"/>
<path fill-rule="evenodd" clip-rule="evenodd" d="M233.687 20.1191C231.572 16.0711 229.156 11.9971 225.444 9.33815C218.901 4.65115 209.575 5.51115 202.604 9.53415C195.633 13.5571 190.59 20.1901 186.188 26.9291C162.638 62.9721 145.506 148.705 145.506 148.705C150.319 156.07 157.705 160.118 168.15 160.225L197.084 74.0501C200.465 104.016 203.991 133.997 209.586 163.63C210.876 170.461 212.328 177.408 215.805 183.428C219.284 189.447 225.947 193.681 232.865 194.369C241.616 177.886 251.162 160.631 259.914 144.146C257.445 106.415 251.2 53.6321 233.687 20.1191Z" fill="#3B4772"/>
<path fill-rule="evenodd" clip-rule="evenodd" d="M213.352 175.156C221.921 170.466 233.28 170.205 242.106 174.493C242.603 174.734 242.81 175.332 242.569 175.829C242.327 176.326 241.729 176.533 241.232 176.292C232.987 172.286 222.312 172.532 214.312 176.91C213.828 177.176 213.22 176.998 212.955 176.513C212.69 176.029 212.868 175.421 213.352 175.156Z" fill="#323863"/>
<path fill-rule="evenodd" clip-rule="evenodd" d="M299.176 25.5537C297.549 20.3447 285.337 -7.01428 263.185 2.89772C257.726 5.33972 253.865 10.4047 250.366 15.2547C244.468 23.4327 210.257 89.1177 192.699 138.738C195.851 146.91 203.207 152.792 211.881 154.019L260.424 61.3887C263.805 78.4557 266.13 95.5547 269.511 112.622H317C314.702 86.9607 306.855 50.1477 299.176 25.5537Z" fill="#3B4772"/>
<path fill-rule="evenodd" clip-rule="evenodd" d="M232.865 194.369C232.865 194.369 295.466 222.593 350.882 214.251L430.133 176.033C430.133 176.033 382.415 153.325 307.658 128.372C307.658 128.372 245.938 122.647 232.865 194.369Z" fill="#ED8E93"/>
<path fill-rule="evenodd" clip-rule="evenodd" d="M195.808 47.6041C196.32 47.5863 196.756 47.9575 196.831 48.4525L196.842 48.5688L197.697 73.1958C197.716 73.7478 197.284 74.2108 196.732 74.2299C196.22 74.2477 195.784 73.8766 195.709 73.3815L195.698 73.2652L194.843 48.6382C194.824 48.0863 195.256 47.6233 195.808 47.6041Z" fill="#323863"/>
<path fill-rule="evenodd" clip-rule="evenodd" d="M257.854 42.434C258.399 42.3478 258.911 42.7201 258.997 43.2656L261.883 61.5226C261.97 62.0681 261.597 62.5803 261.052 62.6665C260.506 62.7528 259.994 62.3804 259.908 61.8349L257.022 43.5779C256.936 43.0324 257.308 42.5203 257.854 42.434Z" fill="#323863"/>
<path fill-rule="evenodd" clip-rule="evenodd" d="M359.67 133.582C341.745 129.24 326.003 140.64 326.003 141.892C326.003 143.144 337.077 138.945 337.077 138.945C337.077 138.945 325.884 146.271 327.401 147.588C328.919 148.904 339.357 141.647 339.357 141.647C339.357 141.647 332.265 149.372 333.762 150.032C335.258 150.691 343.756 142.978 343.756 142.978C343.756 142.978 344.526 150.096 346.513 150.096C348.498 150.096 348.3 144.023 348.3 144.023C355.596 143.164 366.621 153.404 366.971 160.623L386.658 155.355C381.649 144.476 371.311 136.402 359.67 133.582Z" fill="#F7C7B5"/>
<path fill-rule="evenodd" clip-rule="evenodd" d="M239.698 33.4975C240.221 33.3199 240.789 33.5999 240.967 34.1228C245.339 46.9978 249.562 62.0578 252.517 75.3158C252.637 75.8549 252.297 76.3893 251.758 76.5094C251.219 76.6296 250.685 76.29 250.565 75.7509C247.625 62.5632 243.422 47.5727 239.073 34.7659C238.895 34.2429 239.175 33.675 239.698 33.4975Z" fill="#323863"/>
<path fill-rule="evenodd" clip-rule="evenodd" d="M202.582 115.338C203.129 115.257 203.637 115.635 203.717 116.182L209.129 152.919C209.21 153.466 208.832 153.974 208.286 154.055C207.739 154.135 207.231 153.757 207.151 153.211L201.739 116.473C201.658 115.927 202.036 115.418 202.582 115.338Z" fill="#323863"/>
<path fill-rule="evenodd" clip-rule="evenodd" d="M309.314 178.431C307.23 179.443 305.156 180.472 303.087 181.506C293.779 186.162 284.624 191.321 274.672 194.369C275.693 187.172 275.92 185.441 278.147 178.521C280.375 171.601 285.965 163.679 291.295 158.737C291.295 158.737 303.898 159.035 304.515 157.561C305.131 156.087 294.744 154.836 294.772 154.019C294.797 153.253 306.689 151.387 306.168 150.286C305.649 149.186 294.97 149.401 294.97 149.401C294.97 149.401 305.659 147.491 305.298 146.719C304.938 145.949 292.248 145.905 292.248 145.905C292.248 145.905 301.96 144.087 301.798 143.144C301.637 142.201 290.605 141.606 285.405 144.035C275.357 148.731 266.881 156.489 260.635 165.654C254.389 174.819 250.311 185.357 247.95 196.193C246.379 203.403 245.898 211.901 251.059 217.175C256.335 222.565 264.983 222.119 272.479 221.291C278.637 220.611 295.857 218.79 313.538 216.923C309.241 204.614 305.819 190.715 309.314 178.431Z" fill="#F7C7B5"/>
<path fill-rule="evenodd" clip-rule="evenodd" d="M402.34 144.621C397.737 151.409 382.253 145.558 382.694 137.649C382.963 132.839 392.211 110.477 393.984 108.151C395.757 105.825 395.464 104.385 398.384 104.56L417.032 110.621C418.596 117.293 420.677 124.126 420.819 133.713L419.947 158.594L391.667 160.169L398.857 146.273" fill="#F7C7B5"/>
<path fill-rule="evenodd" clip-rule="evenodd" d="M422.889 109.51C422.813 96.9908 405.581 97.3298 405.581 97.3298C400.252 83.4908 380.989 94.8948 392.1 107.441C395.324 111.08 401.477 109.554 406.177 108.31C406.228 108.296 403.319 112.96 404.414 122.781C405.033 128.321 396.3 135.94 396.3 135.94C396.3 135.94 390.047 125.627 386.205 126.045C377.999 126.936 375.703 141.108 379.179 146.711C382.844 152.621 391.513 154.713 397.47 151.125C405.839 146.083 406.884 132.031 408.077 122.053L408.535 137.7L421.191 135.985C421.191 135.985 422.944 118.422 422.889 109.51Z" fill="#4C7BB1"/>
<path fill-rule="evenodd" clip-rule="evenodd" d="M413.049 123.748C411.885 122.394 409.915 121.914 408.211 122.329C407.437 125.725 406.884 132.03 406.884 132.03C409.177 132.989 410.644 133.041 412.465 131.332C414.503 129.42 414.865 125.863 413.049 123.748Z" fill="#F7C7B5"/>
<path fill-rule="evenodd" clip-rule="evenodd" d="M392.408 118.202C392.499 117.461 393.174 116.934 393.915 117.025C394.656 117.117 395.183 117.792 395.092 118.533C395 119.274 394.325 119.801 393.585 119.71C392.844 119.618 392.316 118.943 392.408 118.202Z" fill="#353D59"/>
<path fill-rule="evenodd" clip-rule="evenodd" d="M398.267 115.94C398.381 115.955 398.501 115.93 398.606 115.863C398.84 115.71 398.907 115.396 398.754 115.161C397.375 113.041 394.256 112.313 392.077 113.598C391.836 113.741 391.756 114.052 391.898 114.294C392.04 114.532 392.35 114.611 392.593 114.471C394.326 113.447 396.807 114.029 397.904 115.714C397.989 115.844 398.123 115.922 398.267 115.94Z" fill="#4C7BB1"/>
<path fill-rule="evenodd" clip-rule="evenodd" d="M390.687 115.733L384.487 122.647L387.294 125.548" fill="#F7C7B5"/>
<path fill-rule="evenodd" clip-rule="evenodd" d="M408.764 128.363C408.5 128.347 408.237 128.32 407.977 128.281L407.1 128.15L407.635 127.444C408.5 126.306 409.541 125.325 410.732 124.532C410.97 124.372 411.299 124.435 411.459 124.677C411.62 124.918 411.555 125.245 411.314 125.405C410.493 125.952 409.749 126.596 409.093 127.327C409.883 127.348 410.68 127.254 411.439 127.047C411.718 126.973 412.007 127.135 412.082 127.415C412.16 127.695 411.994 127.982 411.714 128.059C410.762 128.319 409.755 128.423 408.764 128.363Z" fill="#E0A797"/>
<path fill-rule="evenodd" clip-rule="evenodd" d="M393.062 108.85C393.16 108.593 393.45 108.464 393.707 108.563C393.965 108.661 394.094 108.951 393.995 109.208C392.143 114.042 389.225 118.509 385.484 122.248L385.358 122.37L387.683 125.235C387.857 125.449 387.824 125.764 387.609 125.938C387.395 126.112 387.08 126.079 386.906 125.864L384.006 122.293L384.336 121.974C388.191 118.247 391.187 113.741 393.062 108.85Z" fill="#E0A797"/>
<path fill-rule="evenodd" clip-rule="evenodd" d="M362.646 168.588C352.636 165.736 341.852 166.632 331.828 169.43C324.03 171.606 316.608 174.89 309.314 178.431C305.819 190.715 309.241 204.613 313.538 216.923C313.538 216.923 340.157 215.178 362.646 214.185V168.588Z" fill="#ED8E93"/>
<path fill-rule="evenodd" clip-rule="evenodd" d="M448.982 150.297C448.591 146.506 449.229 139.966 447.81 138.924C446.39 137.883 443.567 143.268 440.657 145.472C417.563 145.276 394.279 148.414 371.641 152.984C368.679 149.793 365.717 146.603 362.756 143.413C362.085 142.689 361.276 141.906 360.29 141.957C358.886 142.028 358.184 143.651 357.8 145.002C356.97 147.927 358.228 150.369 356.862 153.085C348.33 170.054 339.069 208.373 339.069 208.373C339.069 208.373 334.197 214.896 331.761 218.157C331.409 218.629 331.039 219.224 331.271 219.765C331.527 220.36 332.317 220.456 332.964 220.463C339.07 220.53 345.173 220.598 351.278 220.665L445.007 182.07C447.096 171.19 450.118 161.317 448.982 150.297Z" fill="white"/>
<path fill-rule="evenodd" clip-rule="evenodd" d="M481.575 95.6943H468.863C470.015 117.199 467.189 140.794 452.03 156.089C430.77 177.539 394.715 174.161 369.05 190.079C354.845 198.888 344.683 213.269 338.671 228.864C332.659 244.459 330.511 261.285 329.737 277.98L441.284 269.865C508.645 163.006 481.575 95.6943 481.575 95.6943Z" fill="#F6C561"/>
<path fill-rule="evenodd" clip-rule="evenodd" d="M468.783 94.1968C469.611 94.1525 470.317 94.7871 470.361 95.6144C471.785 122.188 466.851 143.266 453.096 157.145C447.546 162.744 440.802 166.959 432.452 170.367L431.688 170.675C425.692 173.059 420.442 174.617 410.076 177.243L403.185 178.974C386.838 183.118 378.341 186.083 369.841 191.354C356.696 199.506 346.383 213.031 340.071 229.404C334.728 243.265 332.131 258.714 331.236 278.05C331.198 278.878 330.496 279.517 329.668 279.479C328.841 279.441 328.201 278.739 328.239 277.911C329.148 258.281 331.795 242.532 337.272 228.325C343.806 211.376 354.52 197.326 368.26 188.805L369.075 188.306C377.638 183.137 386.316 180.156 402.429 176.07L409.902 174.192C419.575 171.733 424.646 170.227 430.243 168.02L430.579 167.887C438.925 164.568 445.564 160.482 450.965 155.033C463.997 141.884 468.748 121.586 467.366 95.7749C467.321 94.9476 467.956 94.2411 468.783 94.1968Z" fill="#F0A95C"/>
<path fill-rule="evenodd" clip-rule="evenodd" d="M275.893 193.908C276.099 194.421 275.85 195.003 275.337 195.209L266.571 198.72C266.058 198.925 265.476 198.676 265.271 198.163C265.066 197.65 265.315 197.068 265.828 196.863L274.593 193.352C275.106 193.147 275.688 193.396 275.893 193.908Z" fill="#E0A797"/>
<path fill-rule="evenodd" clip-rule="evenodd" d="M341.743 166.66C342.29 166.581 342.797 166.96 342.876 167.506C342.955 168.053 342.576 168.56 342.03 168.639C332.114 170.074 321.469 174.177 309.755 180.53L309.364 180.743L309.334 180.933C307.515 192.771 309.389 205.156 314.627 215.929L314.927 216.537C315.174 217.031 314.974 217.631 314.48 217.879C313.987 218.126 313.386 217.926 313.138 217.432C307.487 206.148 305.441 193.1 307.357 180.629L307.468 179.937L307.547 179.458L307.973 179.224C320.203 172.511 331.32 168.168 341.743 166.66Z" fill="#D76D75"/>
<path fill-rule="evenodd" clip-rule="evenodd" d="M344.342 132.338C355.252 130.579 367.009 133.575 375.19 140.204C375.511 140.465 375.561 140.938 375.3 141.259C375.039 141.581 374.567 141.631 374.245 141.37C366.401 135.013 355.076 132.127 344.581 133.819C344.172 133.884 343.787 133.606 343.721 133.197C343.655 132.789 343.933 132.404 344.342 132.338Z" fill="#E0A797"/>
<path fill-rule="evenodd" clip-rule="evenodd" d="M420.003 136.567C420.383 136.567 420.697 136.85 420.746 137.216L420.753 137.317V145.262C420.753 145.677 420.417 146.012 420.003 146.012C419.623 146.012 419.31 145.73 419.26 145.364L419.253 145.262V137.317C419.253 136.903 419.589 136.567 420.003 136.567Z" fill="#E0A797"/>
<path fill-rule="evenodd" clip-rule="evenodd" d="M278.106 299.847H253.45V325.385C253.45 327.243 254.956 328.749 256.814 328.749H274.743C276.6 328.749 278.106 327.243 278.106 325.385V299.847Z" fill="#4C7BB1"/>
<path fill-rule="evenodd" clip-rule="evenodd" d="M274.117 307.96C271.785 307.96 269.887 309.858 269.887 312.19V317.869C269.887 320.201 271.785 322.1 274.117 322.1H279.796C282.128 322.1 284.026 320.201 284.026 317.869V312.19C284.026 309.858 282.128 307.96 279.796 307.96H274.117ZM279.796 325.804H274.117C269.742 325.804 266.182 322.244 266.182 317.869V312.19C266.182 307.815 269.742 304.256 274.117 304.256H279.796C284.171 304.256 287.73 307.815 287.73 312.19V317.869C287.73 322.244 284.171 325.804 279.796 325.804Z" fill="#4C7BB1"/>
<path fill-rule="evenodd" clip-rule="evenodd" d="M253.449 299.847H278.105C278.105 299.847 267.041 307.23 253.449 299.847Z" fill="#386795"/>
<path fill-rule="evenodd" clip-rule="evenodd" d="M273.238 191.34C272.599 190.175 271.675 189.026 270.374 188.752C268.357 188.329 266.551 190.224 265.872 192.169C265.192 194.115 265.156 196.272 264.242 198.119C263.327 199.966 260.941 201.392 259.216 200.266C257.771 199.323 257.686 197.277 257.758 195.553C258.354 181.216 258.951 166.879 259.548 152.541L249.829 143.768C251.142 158.343 250.676 173.078 248.446 187.542C247.658 192.651 246.677 198.04 248.557 202.855C251.262 209.782 260.298 213.402 267.037 210.257C273.777 207.112 276.808 197.863 273.238 191.34Z" fill="#E1DCD4"/>
<path fill-rule="evenodd" clip-rule="evenodd" d="M295.627 125.341C294.112 132.686 296.806 140.18 299.555 147.156C302.305 154.133 305.211 161.487 304.126 168.906C304.166 168.475 304.766 169.481 304.806 169.049C302.908 168.17 300.467 169.797 300.231 171.874C299.994 173.951 301.643 175.955 303.662 176.493C305.682 177.032 307.894 176.3 309.499 174.961C311.406 173.371 312.878 170.933 312.925 168.45L312.645 132.049" fill="#E1DCD4"/>
<path fill-rule="evenodd" clip-rule="evenodd" d="M337.277 136.509C338.402 135.912 339.027 133.848 339.134 132.579C342.318 134.486 348.487 133.028 351.265 129.458L344.784 123.925C344.784 123.925 344.287 114.267 338.917 109.09C340.445 106.09 339.124 98.1095 339.124 98.1095C339.124 98.1095 331.635 99.2855 329.579 104.812C329.408 104.72 329.228 104.653 329.053 104.573C326.557 102.794 320.86 100.142 320.86 100.142L321.591 104.484L316.651 102.227C316.651 102.227 315.371 105.687 315.011 109.907C313.276 107.337 310.089 105.848 306.947 105.668C303.382 105.464 299.968 106.439 296.774 108.037C294.971 102.837 290.087 99.0765 284.757 97.7035C279.427 96.3305 273.731 97.0995 268.52 98.8695C257.955 102.458 248.64 110.635 245.367 121.303C242.618 130.258 244.276 140.103 248.026 148.687C251.775 157.272 257.486 164.828 263.142 172.295C264.913 174.632 267.611 177.252 270.32 176.131C272.457 175.247 273.087 172.38 272.411 170.168C271.735 167.957 270.143 166.168 268.888 164.226C266.049 159.83 264.893 154.378 265.703 149.208C266.379 144.893 268.335 140.891 269.498 136.682L269.523 136.808" fill="#E1DCD4"/>
<path d="M265.821 121.913C265.931 121.66 266.226 121.544 266.479 121.655C267.825 122.243 268.925 123.418 269.615 124.891C270.183 126.106 270.482 127.47 270.624 129.173C270.842 131.76 270.66 134.382 270.085 136.915C270.024 137.185 269.756 137.354 269.487 137.293C269.218 137.231 269.049 136.964 269.11 136.694C269.662 134.261 269.837 131.742 269.627 129.257C269.494 127.661 269.219 126.406 268.709 125.315C268.116 124.049 267.185 123.055 266.078 122.571C265.825 122.46 265.71 122.165 265.821 121.913Z" fill="#C5BCB0"/>
<path fill-rule="evenodd" clip-rule="evenodd" d="M327.858 111.742C328.007 111.509 328.316 111.441 328.549 111.589C328.781 111.738 328.85 112.047 328.701 112.28C327.648 113.929 328.438 116.491 330.236 117.263C330.49 117.372 330.607 117.666 330.498 117.92C330.389 118.174 330.095 118.291 329.841 118.182C327.476 117.166 326.474 113.911 327.858 111.742Z" fill="#353D59"/>
<path fill-rule="evenodd" clip-rule="evenodd" d="M331.009 122.469C331.108 122.211 331.397 122.082 331.655 122.181C331.913 122.28 332.042 122.57 331.943 122.827C331.402 124.236 332.113 126.034 333.471 126.692C333.719 126.812 333.823 127.111 333.703 127.36C333.583 127.609 333.284 127.712 333.035 127.592C331.209 126.708 330.282 124.363 331.009 122.469Z" fill="#353D59"/>
<path fill-rule="evenodd" clip-rule="evenodd" d="M319.781 116.462C319.932 116.231 320.242 116.167 320.473 116.318C320.704 116.47 320.768 116.78 320.617 117.01C320.061 117.857 320.08 119.061 320.661 119.89C321.243 120.719 322.369 121.146 323.355 120.913C323.623 120.849 323.893 121.015 323.956 121.284C324.02 121.552 323.854 121.822 323.585 121.886C322.201 122.214 320.66 121.629 319.843 120.464C319.026 119.299 319.001 117.651 319.781 116.462Z" fill="#353D59"/>
<path fill-rule="evenodd" clip-rule="evenodd" d="M320.427 120.785C320.564 120.546 320.87 120.464 321.109 120.602C321.349 120.739 321.431 121.045 321.293 121.284C320.708 122.3 320.609 123.591 321.034 124.685C321.134 124.942 321.006 125.232 320.749 125.332C320.491 125.432 320.202 125.304 320.102 125.047C319.568 123.671 319.69 122.063 320.427 120.785Z" fill="#353D59"/>
<path fill-rule="evenodd" clip-rule="evenodd" d="M325.74 118.41C325.121 118.41 323.84 120.331 323.221 121.524C323.221 121.524 326.507 123.841 327.019 123.557C327.533 123.274 326.36 118.41 325.74 118.41Z" fill="#353D59"/>
<path fill-rule="evenodd" clip-rule="evenodd" d="M337.005 101.016C334.381 102.296 332.876 103.626 331.718 105.608L336.751 107.548C337.017 105.383 337.102 103.196 337.005 101.016Z" fill="#ED8E93"/>
<path d="M295.728 124.851C295.999 124.907 296.173 125.171 296.117 125.441C295.428 128.78 295.586 132.32 296.479 136.276C296.54 136.546 296.371 136.813 296.101 136.874C295.832 136.935 295.564 136.766 295.503 136.497C294.581 132.411 294.417 128.731 295.138 125.239C295.187 124.999 295.402 124.835 295.639 124.84L295.728 124.851Z" fill="#C5BCB0"/>
<path fill-rule="evenodd" clip-rule="evenodd" d="M340.017 131.138C341.269 130.022 342.804 128.316 343.517 126.797C343.517 126.797 347.262 129.178 348.896 129.971C346.731 132.083 342.817 132.282 340.017 131.138Z" fill="#ED8E93"/>
<path fill-rule="evenodd" clip-rule="evenodd" d="M341.527 138.469C343.074 133.915 334.393 128.128 328.915 126.683C325.156 125.691 321.301 124.782 317.429 125.133C313.558 125.484 309.689 127.054 307.138 129.989C305.694 131.65 304.843 134.467 306.545 135.865C308.186 137.214 310.617 136.033 312.378 134.843C315.166 132.795 317.572 133.058 319.086 133.384C325.9 134.849 338.593 145.863 341.527 138.469Z" fill="#E1DCD4"/>
<path fill-rule="evenodd" clip-rule="evenodd" d="M306.76 129.66C309.269 126.774 313.135 125.02 317.384 124.635L317.719 124.607C320.734 124.38 323.579 124.802 328.027 125.935L329.042 126.199C335.995 128.033 343.497 134.224 341.991 138.653C341.04 141.049 339.089 141.862 336.315 141.354C334.458 141.015 332.44 140.197 329.358 138.637L328.202 138.043L325.885 136.832C322.119 134.876 320.645 134.23 318.98 133.872L318.715 133.818C316.607 133.416 314.765 133.709 312.658 135.257C310.076 137.001 307.859 137.592 306.227 136.251C304.422 134.768 304.919 131.778 306.76 129.66ZM341.053 138.308C342.285 134.681 335.244 128.869 328.787 127.166C323.677 125.817 320.691 125.339 317.474 125.63C313.468 125.994 309.842 127.639 307.515 130.317C305.995 132.065 305.6 134.441 306.862 135.478C308.023 136.432 309.855 135.944 312.082 134.44C314.519 132.649 316.713 132.361 319.191 132.895C320.928 133.268 322.398 133.901 326.036 135.784L329.05 137.356C332.484 139.128 334.616 140.027 336.495 140.371C338.839 140.799 340.306 140.188 341.053 138.308Z" fill="#C5BCB0"/>
<path d="M314.888 109.707C315.164 109.705 315.389 109.928 315.39 110.204C315.398 112.055 315.615 113.903 316.036 115.702C316.099 115.97 315.932 116.239 315.663 116.302C315.394 116.365 315.125 116.198 315.062 115.93C314.624 114.057 314.398 112.135 314.39 110.209C314.389 109.933 314.612 109.708 314.888 109.707Z" fill="#C5BCB0"/>
<path d="M263.461 104.632C263.716 104.526 264.009 104.648 264.114 104.903C264.219 105.158 264.098 105.451 263.843 105.556C261.659 106.458 259.6 107.666 257.741 109.134C257.524 109.305 257.21 109.268 257.039 109.052C256.867 108.835 256.904 108.521 257.121 108.349C259.052 106.824 261.192 105.569 263.461 104.632Z" fill="#C5BCB0"/>
<path d="M273.494 104.073C273.769 104.046 274.013 104.247 274.04 104.522C274.067 104.797 273.866 105.041 273.592 105.068C271.47 105.277 269.398 105.973 267.582 107.088C267.347 107.232 267.039 107.159 266.895 106.923C266.75 106.688 266.824 106.38 267.059 106.236C269.004 105.042 271.222 104.297 273.494 104.073Z" fill="#C5BCB0"/>
<path d="M277.022 100.737C277.046 101.012 276.842 101.254 276.567 101.278L272.273 101.651C271.998 101.675 271.755 101.471 271.732 101.196C271.708 100.921 271.912 100.679 272.187 100.655L276.481 100.282C276.756 100.258 276.998 100.462 277.022 100.737Z" fill="#C5BCB0"/>
<path d="M282.282 100.569C284.16 100.477 286.06 101.008 287.621 102.058C287.85 102.212 287.911 102.523 287.757 102.752C287.603 102.981 287.292 103.042 287.063 102.888C285.681 101.958 283.993 101.487 282.33 101.567C282.054 101.581 281.82 101.368 281.807 101.092C281.793 100.817 282.006 100.582 282.282 100.569Z" fill="#C5BCB0"/>
<path d="M300.2 171.828C300.449 171.71 300.747 171.817 300.865 172.066C300.945 172.235 301.153 172.523 301.512 172.819C301.86 173.105 302.284 173.33 302.793 173.471C303.059 173.545 303.215 173.82 303.141 174.086C303.068 174.352 302.792 174.508 302.526 174.435C301.879 174.256 301.331 173.964 300.877 173.591C300.393 173.193 300.1 172.787 299.961 172.494C299.843 172.244 299.95 171.946 300.2 171.828Z" fill="#C5BCB0"/>
<path d="M300.677 169.817C300.895 169.647 301.209 169.685 301.379 169.902C301.488 170.042 301.692 170.264 301.951 170.484C302.3 170.781 302.638 170.968 302.921 171.011L303.039 171.02C303.315 171.02 303.539 171.244 303.539 171.52C303.539 171.796 303.315 172.02 303.039 172.02C302.444 172.02 301.866 171.725 301.303 171.246C300.985 170.976 300.739 170.707 300.592 170.519C300.422 170.302 300.46 169.988 300.677 169.817Z" fill="#C5BCB0"/>
<path d="M267.601 172.901C267.72 172.652 268.019 172.547 268.268 172.666C268.586 172.817 269.033 173.123 269.477 173.61C270.064 174.254 270.47 175.05 270.61 176.004C270.65 176.277 270.461 176.531 270.188 176.572C269.915 176.612 269.661 176.423 269.621 176.149C269.511 175.403 269.197 174.787 268.738 174.284C268.535 174.061 268.317 173.876 268.1 173.728L267.966 173.64C267.907 173.605 267.863 173.581 267.837 173.568C267.588 173.449 267.482 173.151 267.601 172.901Z" fill="#C5BCB0"/>
<path d="M269.82 170.651C269.982 170.427 270.295 170.377 270.519 170.539C270.787 170.733 271.168 171.084 271.548 171.585C272.187 172.428 272.574 173.399 272.574 174.483C272.574 174.759 272.35 174.983 272.074 174.983C271.797 174.983 271.574 174.759 271.574 174.483C271.574 173.639 271.267 172.871 270.751 172.19C270.568 171.948 270.371 171.735 270.176 171.555L270.003 171.405C269.974 171.38 269.95 171.362 269.933 171.349C269.709 171.188 269.659 170.875 269.82 170.651Z" fill="#C5BCB0"/>
</svg>
