<svg width="506" height="472" viewBox="0 0 506 472" fill="none" xmlns="http://www.w3.org/2000/svg">
<path fill-rule="evenodd" clip-rule="evenodd" d="M440.774 462.395C440.774 457.224 353.14 453.032 245.04 453.032C136.939 453.032 49.3057 457.224 49.3057 462.395C49.3057 467.566 136.939 471.758 245.04 471.758C353.14 471.758 440.774 467.566 440.774 462.395Z" fill="#BCE4F0"/>
<path fill-rule="evenodd" clip-rule="evenodd" d="M504.484 416.696C505.036 416.696 505.484 417.143 505.484 417.696C505.484 418.208 505.098 418.631 504.6 418.689L504.484 418.696H297.392C296.839 418.696 296.392 418.248 296.392 417.696C296.392 417.183 296.778 416.76 297.275 416.702L297.392 416.696H504.484Z" fill="#BCE4F0"/>
<path fill-rule="evenodd" clip-rule="evenodd" d="M487.609 417.008H296.374C304.323 393.846 327.242 377.674 351.596 380.232C356.07 380.701 360.672 381.713 364.988 380.445C372.965 378.101 376.691 369.289 380.834 362.081C386.921 351.488 396.58 342.294 408.529 339.747C420.477 337.2 434.511 342.949 438.819 354.382C441.393 361.216 440.33 368.795 440.625 376.092C440.92 383.389 443.348 391.572 449.942 394.71C454.87 397.055 460.667 395.889 466.094 396.45C477.125 397.592 486.093 406.023 487.609 417.008Z" fill="#5B9274"/>
<path fill-rule="evenodd" clip-rule="evenodd" d="M410.012 367.108C410.191 366.3 410.993 365.79 411.801 365.969C412.562 366.138 413.059 366.858 412.965 367.617L412.94 367.759L402.317 415.563C402.137 416.372 401.336 416.882 400.527 416.702C399.766 416.533 399.27 415.813 399.364 415.055L399.389 414.912L410.012 367.108Z" fill="#437858"/>
<path fill-rule="evenodd" clip-rule="evenodd" d="M390.243 377.721C390.877 377.268 391.744 377.38 392.245 377.956L392.335 378.07L405.614 396.661C406.095 397.335 405.939 398.272 405.265 398.753C404.631 399.207 403.764 399.095 403.262 398.518L403.173 398.405L389.894 379.814C389.412 379.139 389.568 378.203 390.243 377.721Z" fill="#437858"/>
<path fill-rule="evenodd" clip-rule="evenodd" d="M155.471 349.595C156.023 349.595 156.471 350.043 156.471 350.595C156.471 351.108 156.085 351.531 155.588 351.588L155.471 351.595H26.3792C25.8269 351.595 25.3792 351.147 25.3792 350.595C25.3792 350.082 25.7652 349.66 26.2625 349.602L26.3792 349.595H155.471Z" fill="#BCE4F0"/>
<path fill-rule="evenodd" clip-rule="evenodd" d="M0.138952 247.708C0.0209518 243.869 0.396952 239.976 1.33095 236.101C3.67695 226.374 8.92595 217.579 11.715 207.971C15.097 196.324 14.743 183.977 15.839 171.898C16.936 159.821 19.867 147.187 28.314 138.485C36.761 129.783 52.114 126.927 60.972 135.209C68.088 141.863 68.747 152.661 71.429 162.027C76.855 180.976 91.8719 196.222 96.3999 215.404C98.895 225.975 98.01 237.082 95.85 247.726C91.9939 266.719 82.3289 286.642 64.211 293.521C33.162 305.311 1.07595 278.192 0.138952 247.708Z" fill="#F6C561"/>
<path fill-rule="evenodd" clip-rule="evenodd" d="M49.5055 176.095C50.2852 176.09 50.9296 176.681 51.0071 177.441L51.0149 177.586L52.0619 344.287C52.0671 345.115 51.3997 345.791 50.5713 345.796C49.7916 345.801 49.1472 345.21 49.0697 344.45L49.0619 344.305L48.0149 177.604C48.0097 176.776 48.6771 176.1 49.5055 176.095Z" fill="#F0A95C"/>
<path fill-rule="evenodd" clip-rule="evenodd" d="M67.435 234.962C67.9225 234.292 68.8606 234.144 69.5305 234.631C70.1609 235.09 70.329 235.948 69.9402 236.606L69.8607 236.727L51.6087 261.808C51.1212 262.478 50.1831 262.625 49.5132 262.138C48.8828 261.679 48.7148 260.821 49.1036 260.163L49.183 260.043L67.435 234.962Z" fill="#F0A95C"/>
<path fill-rule="evenodd" clip-rule="evenodd" d="M37.5953 193.518C38.2828 193.15 39.1284 193.373 39.5512 194.009L39.6253 194.134L51.3943 216.145C51.7849 216.875 51.5094 217.784 50.7788 218.175C50.0912 218.542 49.2457 218.32 48.8229 217.683L48.7488 217.559L36.9798 195.548C36.5891 194.818 36.8647 193.909 37.5953 193.518Z" fill="#F0A95C"/>
<path fill-rule="evenodd" clip-rule="evenodd" d="M142.509 350.407H26.2299C24.6699 344.754 28.7849 335.762 33.5149 333.198C38.2439 330.634 43.7109 330.707 48.9579 330.732C54.2049 330.757 59.7129 330.605 64.2759 327.681C69.8629 324.102 72.9559 317.08 77.8409 312.371C83.5849 306.833 91.8799 304.874 99.1109 307.347C106.341 309.821 112.277 316.648 114.328 324.854C115.04 327.699 115.419 330.899 117.348 332.9C120.028 335.678 124.199 334.777 127.837 334.907C135.671 335.187 140.493 341.859 142.509 350.407Z" fill="#5B9274"/>
<path fill-rule="evenodd" clip-rule="evenodd" d="M91.5539 322.36C92.0631 322.421 92.4367 322.855 92.4348 323.355L92.4276 323.472L89.3726 348.927C89.3068 349.475 88.8089 349.867 88.2606 349.801C87.7514 349.74 87.3777 349.306 87.3797 348.805L87.3869 348.689L90.4419 323.234C90.503 322.724 90.9366 322.351 91.4373 322.353L91.5539 322.36Z" fill="#437858"/>
<path fill-rule="evenodd" clip-rule="evenodd" d="M98.9602 330.133C99.3882 329.784 100.018 329.848 100.367 330.276C100.689 330.671 100.66 331.238 100.317 331.598L100.224 331.683L90.9625 339.239C90.5345 339.588 89.9046 339.524 89.5555 339.096C89.2332 338.701 89.2629 338.134 89.6059 337.775L89.6982 337.689L98.9602 330.133Z" fill="#437858"/>
<path fill-rule="evenodd" clip-rule="evenodd" d="M151.172 45.2259L160.63 33.3349C165.869 32.6219 166.977 26.7469 167.693 23.6419C167.693 23.6419 180.031 9.58493 178.435 8.01793C176.701 6.31593 165.104 18.0489 165.104 18.0489C165.104 18.0489 167.782 -0.00307426 165.736 0.146926C163.691 0.295926 160.455 13.4179 160.126 15.4089C159.117 9.46593 153.124 11.0319 155.782 17.1729C153.54 12.3219 150.398 20.3769 152.69 25.5389L140.921 37.4909" fill="#F7C7B5"/>
<path fill-rule="evenodd" clip-rule="evenodd" d="M252.897 452.29L257.829 422.445L272.904 422.124L262.494 451.918L252.897 452.29Z" fill="#B86961"/>
<path fill-rule="evenodd" clip-rule="evenodd" d="M252.897 452.29L262.494 451.918C265.784 452.926 285.579 457.139 285.699 460.691C285.819 464.244 268.427 465.131 254.994 458.779C252.385 457.546 252.431 454.853 252.897 452.29Z" fill="#353D59"/>
<path fill-rule="evenodd" clip-rule="evenodd" d="M317.865 452.29L320.331 422.124L335.406 421.803L327.462 451.918L317.865 452.29Z" fill="#B86961"/>
<path fill-rule="evenodd" clip-rule="evenodd" d="M317.865 452.29L327.462 451.918C330.752 452.926 350.547 457.139 350.667 460.691C350.787 464.244 333.395 465.131 319.962 458.779C317.353 457.546 317.399 454.853 317.865 452.29Z" fill="#353D59"/>
<path fill-rule="evenodd" clip-rule="evenodd" d="M300.809 126.932C306.683 122.731 310.746 114.306 311.612 107.757L293.128 111.222L287.478 99.5219C297.579 91.4989 282.046 71.2259 279.137 66.7289L260.71 74.8589L262.286 89.7879C253.505 89.4389 257.941 99.5989 266 96.6479L273.942 115.464L253.668 119.793C257.886 137.414 288.025 135.832 300.809 126.932Z" fill="#B86961"/>
<path fill-rule="evenodd" clip-rule="evenodd" d="M267.301 82.7425C267.094 79.9285 265.6 77.3915 264.114 74.9925C263.36 73.7745 262.523 72.4955 261.215 71.9105C259.319 71.0635 256.965 72.0515 255.767 73.7485C254.569 75.4455 254.335 77.6535 254.532 79.7215C254.774 82.2605 255.648 84.7995 257.361 86.6885C258.791 88.2665 261.871 90.1705 264.103 89.2485C266.395 88.3035 267.467 84.9805 267.301 82.7425Z" fill="#3B56AA"/>
<path fill-rule="evenodd" clip-rule="evenodd" d="M261.472 65.9055C263.163 63.5785 265.557 61.8555 267.42 59.6635C268.668 58.1965 269.713 56.4865 271.344 55.4605C273.68 53.9895 276.92 54.3135 279.1 56.0085C281.28 57.7035 282.389 60.5795 282.206 63.3345C282.024 66.0895 280.643 68.6895 278.67 70.6215C276.698 72.5525 274.167 73.8495 271.523 74.6435C268.167 75.6505 263.983 75.8835 260.927 73.8175C258.377 72.0925 260.042 67.8715 261.472 65.9055Z" fill="#3B56AA"/>
<path fill-rule="evenodd" clip-rule="evenodd" d="M285.436 80.8704C285.351 80.1544 284.703 79.6434 283.988 79.7284C283.273 79.8124 282.761 80.4614 282.846 81.1774C282.931 81.8914 283.58 82.4024 284.294 82.3184C285.009 82.2334 285.521 81.5854 285.436 80.8704Z" fill="#353D59"/>
<path fill-rule="evenodd" clip-rule="evenodd" d="M275.964 83.305C275.879 82.589 275.232 82.078 274.516 82.163C273.801 82.247 273.29 82.896 273.374 83.612C273.459 84.326 274.108 84.837 274.822 84.753C275.538 84.668 276.049 84.02 275.964 83.305Z" fill="#353D59"/>
<path fill-rule="evenodd" clip-rule="evenodd" d="M271.107 80.4671C270.996 80.4811 270.88 80.4561 270.78 80.3911C270.555 80.2421 270.492 79.9391 270.64 79.7131C271.98 77.6751 274.991 76.9881 277.087 78.2371C277.318 78.3761 277.394 78.6761 277.256 78.9081C277.117 79.1381 276.818 79.2131 276.585 79.0771C274.919 78.0811 272.523 78.6301 271.458 80.2501C271.375 80.3761 271.245 80.4501 271.107 80.4671Z" fill="#3B56AA"/>
<path fill-rule="evenodd" clip-rule="evenodd" d="M280.82 78.3334C280.724 78.3454 280.625 78.3224 280.537 78.2624C280.338 78.1244 280.278 77.8434 280.404 77.6324C281.544 75.7324 284.051 74.9764 285.995 75.9474C286.21 76.0554 286.304 76.3264 286.207 76.5544C286.109 76.7824 285.854 76.8754 285.639 76.7714C284.099 76.0014 282.033 76.6224 281.128 78.1304C281.056 78.2484 280.941 78.3184 280.82 78.3334Z" fill="#3B56AA"/>
<path fill-rule="evenodd" clip-rule="evenodd" d="M280.077 81.5555C280.297 81.3883 280.611 81.4309 280.778 81.6506L281.681 82.8458C281.887 83.121 282.081 83.382 282.267 83.6364L282.93 84.5545C283.624 85.531 283.933 86.0412 283.951 86.331C283.97 86.6362 283.89 86.9476 283.731 87.2655C283.536 87.6544 283.227 88.0485 282.832 88.4463C282.605 88.675 282.364 88.8912 282.123 89.0891L281.897 89.2684C281.856 89.3001 281.821 89.3261 281.794 89.346C281.57 89.5082 281.258 89.4586 281.096 89.2351C280.933 89.0117 280.983 88.699 281.206 88.5368L281.397 88.3897C281.426 88.367 281.456 88.3424 281.488 88.3159C281.705 88.1383 281.921 87.9444 282.122 87.7422C282.448 87.413 282.698 87.0961 282.837 86.8179C282.923 86.6458 282.96 86.502 282.953 86.3929C282.944 86.2499 281.553 84.3204 279.982 82.2562C279.815 82.0364 279.858 81.7227 280.077 81.5555Z" fill="#753730"/>
<path fill-rule="evenodd" clip-rule="evenodd" d="M286.901 98.8778C287.152 98.7639 287.448 98.8756 287.562 99.1272C287.676 99.3788 287.564 99.675 287.313 99.7889C285.041 100.817 282.588 101.441 280.1 101.624C279.824 101.644 279.584 101.437 279.564 101.162C279.544 100.887 279.751 100.647 280.026 100.627C282.398 100.452 284.736 99.8571 286.901 98.8778Z" fill="#753730"/>
<path fill-rule="evenodd" clip-rule="evenodd" d="M259.846 92.0847C261.054 91.792 262.354 91.9176 263.483 92.4312L263.722 92.5472L264.427 92.9109L261.652 95.0171C261.432 95.1839 261.119 95.1407 260.952 94.9207C260.785 94.7006 260.828 94.387 261.048 94.2202L262.489 93.1259L262.326 93.0789C261.676 92.9107 260.988 92.8833 260.327 93.0042L260.081 93.0566C259.813 93.1216 259.542 92.9567 259.477 92.6883C259.412 92.4199 259.577 92.1496 259.846 92.0847Z" fill="#753730"/>
<path fill-rule="evenodd" clip-rule="evenodd" d="M287.454 90.7102C287.353 91.8652 286.84 93.1032 286.229 93.9252C285.29 95.1892 283.62 95.8662 282.065 95.6142C280.976 95.4372 279.848 94.7052 279.096 93.7712L287.454 90.7102Z" fill="#353D59"/>
<path fill-rule="evenodd" clip-rule="evenodd" d="M278.367 92.4906L287.205 88.9926C287.447 89.4876 287.508 90.0886 287.454 90.7106C285.138 92.0536 282.26 93.0106 279.096 93.7706C278.773 93.3726 278.513 92.9386 278.367 92.4906Z" fill="white"/>
<path fill-rule="evenodd" clip-rule="evenodd" d="M208.797 460.739C206.547 462.759 197.76 463.033 191.188 456.154C186.391 451.135 185.949 443.052 190.959 444.18C192.812 444.598 196.324 449.668 197.682 451.069C200.027 453.489 211.047 458.719 208.797 460.739Z" fill="#353D59"/>
<path fill-rule="evenodd" clip-rule="evenodd" d="M203.547 297.572C204.031 316.884 209.196 341.111 215.281 359.447C201.526 382.532 188.85 417.203 188.5 444.074C188.493 444.596 190.188 448.04 195.349 450.051C196.983 436.798 205.417 425.581 213.52 414.966C221.621 404.35 230.628 394.19 236.151 382.032C242.293 368.506 243.735 353.221 242.594 338.409C241.452 323.597 237.841 309.1 234.243 294.686" fill="#F7C7B5"/>
<path fill-rule="evenodd" clip-rule="evenodd" d="M189.905 290.646L152.36 292.548C155.941 311.753 158.303 331.145 159.431 350.595C161.378 384.183 159.716 418.39 169.436 450.851L170.046 451.106C174.128 451.94 177.045 451.341 178.151 448.742C174.855 429.429 179.12 408.882 182.822 389.616C186.931 368.228 192.609 346.951 193.237 325.25C193.573 313.65 192.452 302.017 189.905 290.646Z" fill="#F7C7B5"/>
<path fill-rule="evenodd" clip-rule="evenodd" d="M231.418 122.973C236.636 113.299 232.986 99.8329 223.598 94.1169C229.663 86.2389 227.268 73.2939 218.783 68.1099C210.299 62.9239 197.688 66.6969 193.443 75.6879C185.858 78.4549 181.252 86.4989 184.021 94.0829C177.009 93.8659 170.621 99.6459 169.108 106.495C167.597 113.345 170.423 120.705 175.379 125.669C180.335 130.634 187.157 133.409 194.075 134.574C207.601 136.854 224.906 135.046 231.418 122.973Z" fill="#3B4772"/>
<path fill-rule="evenodd" clip-rule="evenodd" d="M231.73 119.634L255.11 126.009L260.909 202.892C260.909 202.892 233.205 207.384 215.282 197.634L231.73 119.634Z" fill="#4C7BB1"/>
<path fill-rule="evenodd" clip-rule="evenodd" d="M234.913 151.936C235.453 151.82 235.985 152.163 236.102 152.703L237.452 159.014C238.699 164.931 239.137 167.422 239.548 170.676C239.94 173.78 240.156 176.893 240.257 180.867C240.271 181.42 239.835 181.878 239.283 181.893C238.731 181.907 238.272 181.47 238.258 180.918C238.164 177.252 237.973 174.344 237.634 171.495L237.46 170.125C236.958 166.369 236.314 163.169 234.147 153.125C234.03 152.585 234.373 152.053 234.913 151.936Z" fill="#386795"/>
<path fill-rule="evenodd" clip-rule="evenodd" d="M236.816 153.113L231.886 118.679C214.585 116.406 197.935 114.759 180.485 114.759L162.311 146.703C165.063 168.711 166.777 187.476 167.762 209.633C186.11 215.452 209.77 214.53 222.86 209.634C222.86 209.634 231.788 182.754 236.074 166.307C237.196 162.001 237.446 157.519 236.816 153.113Z" fill="#F6C561"/>
<path fill-rule="evenodd" clip-rule="evenodd" d="M232.985 115.509L190.798 114.384C187.514 121.942 191.638 132.635 198.417 137.078C205.194 141.521 214.517 140.846 221.157 136.185C227.797 131.525 232.417 123.77 232.985 115.509Z" fill="#F7C7B5"/>
<path fill-rule="evenodd" clip-rule="evenodd" d="M344.698 221.006C315.086 221.78 286.476 227.14 254.47 230.913C254.47 230.913 260.335 302.788 265.423 337.554C265.423 337.554 250.859 410.901 250.682 444.917L273.398 443.725C280.181 408.777 298.027 357.04 298.027 337.371C298.027 317.702 300.844 263.119 300.844 263.119L306.727 261.067C310.309 281.843 315.507 342.009 315.507 342.009C315.507 342.009 316.409 404.564 315.9 443.23H335.574C354.297 323.502 353.596 303.002 344.698 221.006Z" fill="#3B4772"/>
<path fill-rule="evenodd" clip-rule="evenodd" d="M283.877 135.411C297.756 132.489 305.756 120.495 306.727 107.226C294.753 110.416 276.886 114.995 260.908 118.374C263.926 128.621 273.229 137.05 283.877 135.411Z" fill="#B86961"/>
<path fill-rule="evenodd" clip-rule="evenodd" d="M329.547 138.374C335.037 134.907 340.424 131.225 345.719 127.386C343.183 116.407 340.673 105.421 337.316 94.7183C331.713 97.9403 315.054 105.009 306.727 107.227C305.756 120.495 297.756 132.489 283.877 135.411C273.229 137.05 263.911 127.466 260.894 117.219C253.364 118.812 240.397 122.081 240.397 122.081C241.726 162.208 254.47 230.913 254.47 230.913C274.669 243.571 334.144 235.616 344.697 221.006C344.697 221.006 339.514 171.557 329.547 138.374Z" fill="#ED8E93"/>
<path fill-rule="evenodd" clip-rule="evenodd" d="M432.803 36.6946C432.803 36.6946 429.531 32.3056 418.59 32.3056C405.375 44.4056 379.609 71.6016 379.609 71.6016C379.609 71.6016 349.999 87.4216 337.316 94.7176C340.673 105.422 343.183 116.408 345.719 127.386C400.702 95.9266 432.803 36.6946 432.803 36.6946Z" fill="#B86961"/>
<path fill-rule="evenodd" clip-rule="evenodd" d="M317.026 256.898C317.567 256.782 318.098 257.127 318.213 257.667C318.328 258.207 317.984 258.738 317.444 258.854C310.427 260.35 303.665 263.035 297.532 266.758C297.06 267.045 296.445 266.895 296.158 266.423C295.872 265.951 296.022 265.335 296.494 265.049C302.819 261.209 309.791 258.441 317.026 256.898Z" fill="#323863"/>
<path fill-rule="evenodd" clip-rule="evenodd" d="M325.869 125.056C326.358 124.901 326.877 125.14 327.083 125.597L327.125 125.706L331.063 138.081C331.231 138.607 330.94 139.17 330.413 139.337C329.925 139.493 329.405 139.253 329.199 138.796L329.157 138.687L325.219 126.312C325.052 125.786 325.343 125.224 325.869 125.056Z" fill="#D76D75"/>
<path fill-rule="evenodd" clip-rule="evenodd" d="M412.221 2.64583L400.464 7.05383C398.909 7.63683 398.115 9.38583 398.698 10.9408L409.991 41.0608C410.574 42.6158 412.323 43.4108 413.877 42.8278L425.635 38.4188C427.19 37.8358 427.985 36.0868 427.402 34.5328L416.108 4.41283C415.525 2.85783 413.776 2.06283 412.221 2.64583Z" fill="#3B4772"/>
<path fill-rule="evenodd" clip-rule="evenodd" d="M433.007 25.1282C431.503 22.3292 428.622 20.3752 425.505 19.7592C422.388 19.1422 414.336 21.3322 414.342 22.5882C414.348 23.8452 422.397 23.2992 422.397 23.2992C422.397 23.2992 414.004 25.9402 413.997 27.0572C413.991 28.1732 425.449 26.6302 425.449 26.6302C425.449 26.6302 415.079 29.2342 415.309 30.2312C415.538 31.2282 424.616 30.5822 424.616 30.5822C424.616 30.5822 416.051 32.5462 416.182 33.6092C416.312 34.6732 423.96 34.4302 427.718 33.4502L432.803 36.6942C434.449 33.0542 434.898 28.6492 433.007 25.1282Z" fill="#B86961"/>
<path fill-rule="evenodd" clip-rule="evenodd" d="M230.522 122.793C230.739 122.285 231.327 122.05 231.835 122.267C232.342 122.484 232.578 123.072 232.361 123.58C229.962 129.186 226.19 133.923 221.469 137.018C216.372 140.357 210.171 141.681 204.527 140.481C198.543 139.209 193.355 135.006 191.237 129.524C191.038 129.009 191.295 128.43 191.81 128.231C192.325 128.032 192.904 128.288 193.103 128.803C194.97 133.636 199.602 137.389 204.943 138.524C210.047 139.609 215.708 138.401 220.373 135.345C224.749 132.477 228.272 128.052 230.522 122.793Z" fill="#F0A95C"/>
<path fill-rule="evenodd" clip-rule="evenodd" d="M306.82 106.232C307.37 106.283 307.774 106.771 307.723 107.321L307.684 107.667C307.659 107.869 307.629 108.095 307.592 108.342L307.554 108.597C307.4 109.591 307.188 110.695 306.907 111.883C306.106 115.278 304.917 118.674 303.263 121.852C299.473 129.133 293.828 134.18 286.002 135.912C276.769 137.955 269.553 134.281 264.239 126.987C262.751 124.944 261.527 122.76 260.548 120.577C260.273 119.965 260.034 119.387 259.828 118.852L259.681 118.46C259.537 118.071 259.442 117.788 259.393 117.63C259.231 117.102 259.526 116.542 260.054 116.38C260.582 116.217 261.142 116.513 261.304 117.041L261.415 117.372C261.454 117.484 261.501 117.616 261.557 117.768C261.778 118.367 262.049 119.036 262.373 119.758C263.299 121.823 264.456 123.887 265.856 125.809C270.742 132.516 277.209 135.809 285.57 133.959C292.757 132.368 297.951 127.725 301.489 120.929C303.06 117.911 304.195 114.668 304.961 111.424C305.229 110.288 305.431 109.235 305.577 108.291L305.646 107.828L305.731 107.134C305.779 106.623 306.203 106.238 306.704 106.227L306.82 106.232Z" fill="#D76D75"/>
<path fill-rule="evenodd" clip-rule="evenodd" d="M240.431 123.028C235.985 97.9096 186.86 96.0556 185.584 121.355C185.385 125.303 180.164 197.431 180.164 197.431C180.164 197.431 187.833 162.764 192.036 132.883C193.268 124.131 201.021 117.802 209.843 118.329L218.012 118.816C226.01 119.293 232.584 125.3 233.778 133.223L237.58 158.46L240.431 123.028Z" fill="#4C7BB1"/>
<path fill-rule="evenodd" clip-rule="evenodd" d="M201.485 123.028L200.699 99.1496C198.704 98.5066 196.034 96.5316 195.362 94.5456C194.691 92.5596 195.378 90.0916 197.181 89.0246C198.985 87.9566 201.73 88.7716 202.378 90.7646C206.372 85.3466 209.959 78.0536 211.868 71.5996C215.864 74.2306 223.903 79.6326 223.903 79.6326C223.903 79.6326 225.153 86.5816 225.497 90.0116C226.329 98.3056 223.797 103.919 217.871 105.906L219.485 122.259" fill="#F7C7B5"/>
<path fill-rule="evenodd" clip-rule="evenodd" d="M132.789 99.0989C136.682 84.3429 141.726 69.1669 147.016 54.8529L135.766 42.4779C128.531 51.1299 114.722 68.4219 106.455 88.7279C104.093 94.5309 101.019 100.561 102.498 106.65C104.158 113.487 110.197 118.225 115.854 122.409C126.703 130.432 138.72 138.8 149.568 146.824C151.064 155.206 148.547 163.763 145.524 171.724C142.501 179.685 139.586 187.677 138.803 196.157C145.844 196.13 152.491 199.099 159.185 201.288C165.877 203.478 173.429 204.861 179.777 201.814C184.764 176.967 187.781 146.728 190.24 114.954C175.427 109.506 152.359 107.747 132.789 99.0989Z" fill="#4C7BB1"/>
<path fill-rule="evenodd" clip-rule="evenodd" d="M165.486 109.421C165.648 112.061 163.799 118.133 162.767 118.133C161.736 118.133 161.868 109.498 161.868 109.498C161.868 109.498 159.289 119.005 158.262 119.005C157.236 119.005 157.36 108.731 157.36 108.731C157.36 108.731 155.1 118.262 154.012 118.379C152.923 118.495 153.35 108.169 153.35 108.169C153.35 108.169 150.98 117.332 149.796 117.193C148.611 117.054 148.673 108.912 149.668 104.942C152.941 102.663 157.2 100.929 161.212 101.82C163.088 102.238 164.932 103.067 166.065 104.483C167.198 105.899 166.646 108.023 165.486 109.421Z" fill="#B86961"/>
<path fill-rule="evenodd" clip-rule="evenodd" d="M314.334 106.702C314.764 109.311 317.919 114.82 318.925 114.59C319.93 114.36 317.878 105.972 317.878 105.972C317.878 105.972 322.51 114.665 323.511 114.436C324.511 114.208 322.103 104.22 322.103 104.22C322.103 104.22 326.428 113.008 327.515 112.879C328.602 112.751 325.886 102.779 325.886 102.779C325.886 102.779 330.237 111.183 331.361 110.784C332.485 110.385 330.612 102.462 328.757 98.8134C325.058 97.3204 320.52 96.5784 316.808 98.3414C315.072 99.1664 313.458 100.385 312.669 102.017C311.88 103.649 312.892 105.598 314.334 106.702Z" fill="#F7C7B5"/>
<path fill-rule="evenodd" clip-rule="evenodd" d="M221.233 85.5735C221.173 84.9365 220.608 84.4685 219.97 84.5285C219.334 84.5885 218.866 85.1535 218.925 85.7915C218.986 86.4275 219.551 86.8955 220.188 86.8365C220.825 86.7755 221.294 86.2105 221.233 85.5735Z" fill="#353D59"/>
<path fill-rule="evenodd" clip-rule="evenodd" d="M213.551 86.9915C213.49 86.3535 212.925 85.8865 212.288 85.9465C211.652 86.0065 211.184 86.5715 211.243 87.2085C211.304 87.8455 211.868 88.3135 212.506 88.2535C213.143 88.1935 213.611 87.6285 213.551 86.9915Z" fill="#353D59"/>
<path fill-rule="evenodd" clip-rule="evenodd" d="M208.511 84.9114C208.412 84.9204 208.31 84.8964 208.223 84.8364C208.026 84.6994 207.977 84.4294 208.113 84.2304C209.346 82.4494 212.035 81.9024 213.871 83.0574C214.073 83.1844 214.135 83.4534 214.007 83.6564C213.879 83.8574 213.612 83.9184 213.407 83.7924C211.949 82.8724 209.808 83.3084 208.827 84.7254C208.751 84.8364 208.634 84.8994 208.511 84.9114Z" fill="#353D59"/>
<path fill-rule="evenodd" clip-rule="evenodd" d="M217.186 83.2219C217.101 83.2299 217.013 83.2079 216.936 83.1529C216.761 83.0259 216.714 82.7749 216.832 82.5899C217.884 80.9269 220.128 80.3079 221.833 81.2119C222.023 81.3129 222.101 81.5549 222.009 81.7549C221.917 81.9559 221.689 82.0339 221.5 81.9359C220.149 81.2199 218.299 81.7279 217.463 83.0479C217.398 83.1509 217.294 83.2109 217.186 83.2219Z" fill="#353D59"/>
<path fill-rule="evenodd" clip-rule="evenodd" d="M216.906 86.4667C217.136 86.3805 217.389 86.4744 217.51 86.6779L217.55 86.7592L219.564 92.1293L216.943 93.1129C216.685 93.21 216.396 93.079 216.299 92.8205C216.213 92.5907 216.307 92.3374 216.51 92.2158L216.592 92.1767L218.276 91.5439L216.613 87.1105C216.527 86.8806 216.621 86.6274 216.825 86.5058L216.906 86.4667Z" fill="#E0A797"/>
<path fill-rule="evenodd" clip-rule="evenodd" d="M212.372 96.8158C212.885 98.4398 214.131 99.8668 215.76 100.178C217.888 100.586 220.217 99.3308 221.047 97.3298C221.215 96.9248 221.283 96.4308 221.321 95.9268L212.372 96.8158Z" fill="#353D59"/>
<path fill-rule="evenodd" clip-rule="evenodd" d="M212.408 96.9417L221.307 96.0567C221.359 95.4767 221.367 94.8767 221.422 94.3727L212.113 95.2967C212.122 95.8477 212.226 96.4067 212.408 96.9417Z" fill="white"/>
<path fill-rule="evenodd" clip-rule="evenodd" d="M197.736 90.8956C197.952 90.7241 198.266 90.7604 198.438 90.9768L201.7 95.0934L200.718 95.132C199.572 95.1771 198.418 95.0411 197.311 94.7309C197.045 94.6563 196.89 94.3804 196.965 94.1145C197.039 93.8486 197.315 93.6935 197.581 93.768C198.21 93.9443 198.856 94.0587 199.506 94.1097L199.653 94.1179L197.654 91.5981C197.483 91.3817 197.519 91.0672 197.736 90.8956Z" fill="#E0A797"/>
<path fill-rule="evenodd" clip-rule="evenodd" d="M149.19 178.212C148.701 179.715 149.017 181.24 148.528 182.743C156.513 181.05 164.499 179.357 172.484 177.662C173.234 174.912 174.482 171.262 175.232 168.512L149.19 178.212Z" fill="#386795"/>
<path fill-rule="evenodd" clip-rule="evenodd" d="M155.779 46.4192C156.34 47.2102 154.263 52.4222 153.974 53.6022C153.201 56.7632 151.137 62.3582 146.855 62.9332C140.258 57.7692 134.284 51.8072 129.108 45.2192C131.985 39.1632 135.811 33.5382 141.445 29.9052C145.881 33.7122 152.472 41.6002 155.779 46.4192Z" fill="#BCE4F0"/>
<path fill-rule="evenodd" clip-rule="evenodd" d="M217.675 105.361C217.94 105.284 218.217 105.436 218.295 105.701C218.372 105.966 218.22 106.244 217.955 106.321C216.079 106.868 214.065 106.927 212.163 106.488C211.893 106.427 211.726 106.158 211.788 105.889C211.849 105.62 212.118 105.452 212.387 105.514C214.123 105.914 215.963 105.86 217.675 105.361Z" fill="#E0A797"/>
<path fill-rule="evenodd" clip-rule="evenodd" d="M202.144 99.7464C202.144 98.7314 201.322 97.9094 200.307 97.9094C199.293 97.9094 198.471 98.7314 198.471 99.7464C198.471 100.76 199.293 101.582 200.307 101.582C201.322 101.582 202.144 100.76 202.144 99.7464Z" fill="white"/>
<path fill-rule="evenodd" clip-rule="evenodd" d="M193.889 106.366C194.364 106.085 194.977 106.243 195.258 106.718C195.54 107.194 195.382 107.807 194.907 108.088C188.843 111.673 184.76 118.64 183.347 126.862C182.62 131.102 182.511 135.523 182.855 141.263L182.972 143.045C183.018 143.696 183.07 144.368 183.136 145.188L183.542 150.067L183.648 151.409C184.397 161.307 184.157 167.496 182.276 173.789C182.118 174.318 181.56 174.619 181.031 174.46C180.502 174.302 180.201 173.745 180.36 173.216C182.194 167.081 182.395 160.954 181.602 150.892L181.043 144.084C180.995 143.462 180.956 142.901 180.917 142.311L180.902 142.088C180.498 135.864 180.588 131.115 181.376 126.524C182.88 117.766 187.267 110.281 193.889 106.366Z" fill="#386795"/>
<path fill-rule="evenodd" clip-rule="evenodd" d="M200.611 167.43C209.803 163.416 220.171 162.152 230.056 163.838C230.601 163.931 230.967 164.448 230.874 164.992C230.781 165.537 230.264 165.903 229.72 165.81C220.219 164.189 210.246 165.405 201.411 169.262C200.905 169.483 200.316 169.252 200.095 168.746C199.874 168.24 200.105 167.651 200.611 167.43Z" fill="#F0A95C"/>
<path fill-rule="evenodd" clip-rule="evenodd" d="M151.779 306.303C148.233 289.274 144.668 271.966 146.025 254.625C147.383 237.283 154.36 219.592 168.287 209.169L222.86 209.634C222.86 209.634 229.175 225.438 226.619 235.372L240.86 314.634C211.054 319.707 180.125 316.821 151.779 306.303Z" fill="#ED8E93"/>
<path fill-rule="evenodd" clip-rule="evenodd" d="M178.087 448.677C175.822 450.288 172.753 450.478 169.057 449.564C163.149 458.808 195.625 466.519 195.953 463.227C196.281 459.936 178.087 448.677 178.087 448.677Z" fill="#353D59"/>
<path fill-rule="evenodd" clip-rule="evenodd" d="M131.9 97.9791C132.054 97.4489 132.609 97.1445 133.14 97.2991C133.632 97.4427 133.93 97.9317 133.846 98.4253L133.82 98.5391L131.195 107.539C131.04 108.069 130.485 108.374 129.955 108.219C129.462 108.076 129.165 107.587 129.248 107.093L129.275 106.979L131.9 97.9791Z" fill="#386795"/>
<path fill-rule="evenodd" clip-rule="evenodd" d="M159.621 14.1938C159.894 14.153 160.149 14.3413 160.189 14.6144C160.584 17.2585 160.524 20.1011 159.809 21.8733C159.604 22.3843 159.13 22.7703 158.583 22.7812C157.314 22.8046 156.394 21.508 155.571 19.2873C155.414 18.8661 155.269 18.4294 155.123 17.9529L154.845 17.0009C154.767 16.7265 154.69 16.4589 154.671 16.3948C154.591 16.1304 154.741 15.8514 155.005 15.7716C155.27 15.6918 155.549 15.8415 155.628 16.1058L155.973 17.305C156.15 17.9074 156.322 18.4375 156.508 18.9397C157.181 20.7529 157.919 21.7933 158.564 21.7814C158.675 21.7792 158.815 21.6646 158.881 21.5003C159.514 19.9313 159.571 17.2449 159.2 14.7622C159.159 14.4891 159.348 14.2346 159.621 14.1938Z" fill="#E0A797"/>
<path fill-rule="evenodd" clip-rule="evenodd" d="M161.601 14.2202C163.789 14.2572 166.898 21.6292 167.074 26.0654C167.085 26.3414 166.87 26.5739 166.594 26.5848C166.318 26.5957 166.086 26.3809 166.075 26.105C165.919 22.1626 163.001 15.244 161.584 15.22C161.229 15.214 161.048 16.3095 161.318 18.2464C161.552 19.923 162.093 22.0138 162.629 23.4453L162.752 23.7634L162.896 24.1204L162.588 24.3507C160.875 25.6305 159.627 27.5189 159.12 29.5947C159.055 29.863 158.784 30.0274 158.516 29.962C158.248 29.8965 158.083 29.626 158.149 29.3577C158.657 27.2755 159.835 25.3681 161.461 23.9729L161.688 23.7839L161.582 23.4936C161.099 22.1274 160.634 20.323 160.385 18.7679L160.328 18.3847C159.967 15.7993 160.232 14.1972 161.601 14.2202Z" fill="#E0A797"/>
<path fill-rule="evenodd" clip-rule="evenodd" d="M152.966 20.5192C153.241 20.4882 153.488 20.6856 153.519 20.96C153.681 22.3972 153.994 23.8172 154.45 25.1899C154.635 25.7492 155.051 26.1725 155.453 26.265C155.825 26.3506 156.154 26.1391 156.389 25.4995C156.536 25.0993 156.601 24.5054 156.588 23.7787C156.579 23.229 156.526 22.6358 156.445 22.0382L156.376 21.5761C156.347 21.3955 156.321 21.2504 156.3 21.1499C156.246 20.8792 156.421 20.6155 156.692 20.5609C156.962 20.5063 157.226 20.6815 157.281 20.9522L157.33 21.2194L157.401 21.6624C157.413 21.7406 157.424 21.8209 157.436 21.903C157.522 22.5367 157.578 23.1677 157.588 23.7613C157.603 24.6007 157.526 25.3051 157.328 25.8445C156.929 26.9295 156.126 27.4459 155.229 27.2396C154.463 27.0635 153.79 26.3771 153.501 25.5047C153.023 24.0665 152.696 22.5784 152.526 21.0721C152.495 20.7977 152.692 20.5501 152.966 20.5192Z" fill="#E0A797"/>
<path fill-rule="evenodd" clip-rule="evenodd" d="M314.629 166.323C314.893 165.838 315.501 165.66 315.986 165.924C316.47 166.189 316.649 166.797 316.384 167.281C307.811 182.973 295.665 196.698 281.131 207.115C280.682 207.437 280.057 207.333 279.735 206.885C279.414 206.436 279.517 205.811 279.966 205.489C294.255 195.247 306.2 181.751 314.629 166.323Z" fill="#D76D75"/>
<path fill-rule="evenodd" clip-rule="evenodd" d="M320.096 180.145C320.508 180.512 320.545 181.145 320.178 181.557L305.091 198.521L305.002 198.61C304.628 198.937 304.06 198.943 303.679 198.604C303.299 198.265 303.238 197.701 303.519 197.291L303.597 197.192L318.684 180.228C319.051 179.815 319.683 179.778 320.096 180.145Z" fill="#D76D75"/>
<path fill-rule="evenodd" clip-rule="evenodd" d="M337.24 94.6396C337.763 94.4616 338.331 94.741 338.509 95.2638C341.993 105.494 344.588 116.026 346.255 126.703C346.34 127.249 345.967 127.76 345.421 127.845C344.875 127.93 344.364 127.557 344.279 127.011C342.63 116.449 340.063 106.029 336.616 95.9086C336.438 95.3858 336.718 94.8176 337.24 94.6396Z" fill="#D76D75"/>
</svg>
