<svg width="431" height="309" viewBox="0 0 431 309" fill="none" xmlns="http://www.w3.org/2000/svg">
<path d="M50.5923 229.943H31.9898C31.7558 229.943 31.5661 229.754 31.5661 229.52V218.124C31.5661 217.89 31.7558 217.7 31.9898 217.7H50.598C50.832 217.7 51.0217 217.89 51.0217 218.124V221.853C51.0217 222.087 50.832 222.276 50.598 222.276C50.3639 222.276 50.1742 222.087 50.1742 221.853V218.547H32.4079V229.096H50.1686V224.661C50.1686 224.427 50.3583 224.237 50.5923 224.237C50.8263 224.237 51.0161 224.427 51.0161 224.661V229.52C51.0161 229.754 50.8263 229.943 50.5923 229.943Z" fill="#D8D3DA"/>
<path d="M54.5586 218.547H22.6675C22.4334 218.547 22.2437 218.358 22.2437 218.124C22.2437 217.89 22.4334 217.7 22.6675 217.7H54.5586C54.7926 217.7 54.9824 217.89 54.9824 218.124C54.9824 218.358 54.7926 218.547 54.5586 218.547Z" fill="#D8D3DA"/>
<path fill-rule="evenodd" clip-rule="evenodd" d="M41.2868 241.339H59.895C60.0083 241.339 60.117 241.294 60.1966 241.213C60.2762 241.133 60.3202 241.023 60.3187 240.91V229.514C60.3187 229.28 60.129 229.09 59.895 229.09H41.2868C41.0528 229.09 40.8631 229.28 40.8631 229.514V240.916C40.8631 241.15 41.0528 241.339 41.2868 241.339ZM59.4712 240.492H41.7106V229.943H59.4712V240.492Z" fill="#D8D3DA"/>
<path fill-rule="evenodd" clip-rule="evenodd" d="M22.6675 241.339H41.2869C41.5187 241.333 41.7025 241.142 41.6993 240.91V229.514C41.6993 229.28 41.5096 229.09 41.2756 229.09H22.6675C22.4334 229.09 22.2437 229.28 22.2437 229.514V240.916C22.2437 241.15 22.4334 241.339 22.6675 241.339ZM40.8631 240.492H23.1025V229.943H40.8631V240.492Z" fill="#D8D3DA"/>
<path d="M64.511 229.943H1.14396C0.909932 229.943 0.720215 229.754 0.720215 229.52C0.720215 229.286 0.909932 229.096 1.14396 229.096H64.511C64.745 229.096 64.9347 229.286 64.9347 229.52C64.9347 229.754 64.745 229.943 64.511 229.943Z" fill="#D8D3DA"/>
<path d="M72.5424 241.339H13.7829C13.5488 241.339 13.3591 241.15 13.3591 240.916C13.3591 240.682 13.5488 240.492 13.7829 240.492H72.5424C72.7764 240.492 72.9661 240.682 72.9661 240.916C72.9661 241.15 72.7764 241.339 72.5424 241.339Z" fill="#D8D3DA"/>
<path fill-rule="evenodd" clip-rule="evenodd" d="M31.9898 252.735H50.5923C50.7057 252.737 50.8149 252.693 50.8956 252.613C50.9763 252.534 51.0217 252.425 51.0217 252.312V240.916C51.0217 240.682 50.832 240.492 50.598 240.492H31.9898C31.7558 240.492 31.5661 240.682 31.5661 240.916V252.312C31.5661 252.546 31.7558 252.735 31.9898 252.735ZM50.1686 251.888H32.4079V241.339H50.1686V251.888Z" fill="#D8D3DA"/>
<path d="M52.9229 252.735H23.8794C23.6453 252.735 23.4556 252.545 23.4556 252.311C23.4556 252.077 23.6453 251.888 23.8794 251.888H52.9229C53.157 251.888 53.3467 252.077 53.3467 252.311C53.3467 252.545 53.157 252.735 52.9229 252.735Z" fill="#D8D3DA"/>
<path d="M186.513 169.302C186.279 169.302 186.09 169.112 186.09 168.878V157.477C186.09 157.243 186.279 157.053 186.513 157.053C186.747 157.053 186.937 157.243 186.937 157.477V168.873C186.939 168.986 186.895 169.095 186.815 169.176C186.735 169.257 186.627 169.302 186.513 169.302Z" fill="#D8D3DA"/>
<path d="M214.014 180.698H195.819C195.585 180.698 195.395 180.508 195.395 180.274V168.878C195.395 168.644 195.585 168.455 195.819 168.455C196.053 168.455 196.243 168.644 196.243 168.878V179.851H214.014C214.248 179.851 214.438 180.04 214.438 180.274C214.438 180.508 214.248 180.698 214.014 180.698Z" fill="#D8D3DA"/>
<path fill-rule="evenodd" clip-rule="evenodd" d="M177.211 180.698H195.819C196.053 180.698 196.242 180.508 196.242 180.274V168.878C196.242 168.644 196.053 168.455 195.819 168.455H177.211C176.977 168.455 176.787 168.644 176.787 168.878V180.274C176.787 180.508 176.977 180.698 177.211 180.698ZM195.395 179.851H177.634V169.302H195.395V179.851Z" fill="#D8D3DA"/>
<path d="M202.666 169.302H161.233C160.999 169.302 160.809 169.112 160.809 168.878C160.809 168.644 160.999 168.455 161.233 168.455H202.666C202.901 168.455 203.09 168.644 203.09 168.878C203.09 169.112 202.901 169.302 202.666 169.302Z" fill="#D8D3DA"/>
<path d="M212.667 180.698H168.315C168.081 180.698 167.891 180.508 167.891 180.274C167.891 180.04 168.081 179.851 168.315 179.851H212.667C212.901 179.851 213.091 180.04 213.091 180.274C213.091 180.508 212.901 180.698 212.667 180.698Z" fill="#D8D3DA"/>
<path d="M186.513 192.094C186.279 192.094 186.09 191.904 186.09 191.67V180.274C186.09 180.04 186.279 179.851 186.513 179.851H205.121C205.355 179.851 205.545 180.04 205.545 180.274V185.972C205.545 186.206 205.355 186.396 205.121 186.396C204.887 186.396 204.698 186.206 204.698 185.972V180.698H186.94V191.659C186.943 191.774 186.899 191.885 186.819 191.967C186.738 192.049 186.628 192.095 186.513 192.094Z" fill="#D8D3DA"/>
<path fill-rule="evenodd" clip-rule="evenodd" d="M271.124 10.9605C271.379 10.7057 271.725 10.5625 272.085 10.5625H395.652L395.724 10.5644C396.058 10.5821 396.375 10.7229 396.613 10.9611C396.867 11.2158 397.008 11.5611 397.008 11.9213V192.237L397.007 192.308C396.989 192.643 396.85 192.959 396.613 193.197C396.358 193.452 396.013 193.595 395.652 193.595H272.085L272.025 193.594C271.302 193.562 270.726 192.967 270.726 192.237V11.9213L270.728 11.8495C270.746 11.5153 270.887 11.1983 271.124 10.9605ZM392.562 55.7169V15.7915C392.562 15.2751 392.143 14.8565 391.627 14.8565H355.439V55.7169H392.562ZM355.439 60.0193V99.795H392.562V60.0193H355.439ZM355.439 143.873V104.092H392.562V143.873H355.439ZM355.439 148.161V188.626H391.627C391.875 188.627 392.112 188.529 392.288 188.354C392.463 188.179 392.562 187.942 392.562 187.694V148.167L355.439 148.161ZM316.596 99.7979V60.0222H351.139V99.7979H316.596ZM351.139 55.7198V14.8565H316.598V55.7169L351.139 55.7198ZM316.598 143.873V104.092H351.139V143.873H316.598ZM316.598 148.161V188.626H351.139V148.167L316.598 148.161ZM275.176 143.873V104.092H312.296V143.873H275.176ZM312.299 99.795V60.0193H275.176V99.795H312.299ZM275.176 187.694V148.167H312.296V188.626H276.114C275.866 188.627 275.628 188.529 275.452 188.354C275.276 188.18 275.177 187.942 275.176 187.694ZM275.176 55.7169H312.296V14.8565H276.111C275.594 14.8565 275.174 15.2747 275.173 15.7916L275.176 55.7169Z" fill="white"/>
<path fill-rule="evenodd" clip-rule="evenodd" d="M392.562 56.1408H355.439C355.205 56.1408 355.015 55.9511 355.015 55.717V14.8566C355.015 14.6226 355.205 14.4329 355.439 14.4329H391.627C392.377 14.4344 392.984 15.0419 392.986 15.7917V55.717C392.986 55.9511 392.796 56.1408 392.562 56.1408ZM355.865 55.2933H392.138L392.141 15.7917C392.141 15.5093 391.912 15.2804 391.63 15.2804H355.865V55.2933Z" fill="#D8D3DA"/>
<path fill-rule="evenodd" clip-rule="evenodd" d="M312.296 189.05H276.111C275.75 189.051 275.405 188.909 275.149 188.654C274.894 188.4 274.75 188.055 274.749 187.694V148.167C274.749 147.933 274.939 147.743 275.173 147.743H312.296C312.53 147.743 312.72 147.933 312.72 148.167V188.626C312.72 188.86 312.53 189.05 312.296 189.05ZM276.111 188.203H311.872V148.591H275.597V187.694C275.6 187.976 275.829 188.203 276.111 188.203Z" fill="#D8D3DA"/>
<path fill-rule="evenodd" clip-rule="evenodd" d="M351.139 189.05H316.598C316.364 189.05 316.175 188.86 316.175 188.626V148.167C316.175 147.933 316.364 147.743 316.598 147.743H351.139C351.373 147.743 351.563 147.933 351.563 148.167V188.626C351.563 188.86 351.373 189.05 351.139 189.05ZM317.022 188.203H350.718L350.716 148.591H317.022V188.203Z" fill="#D8D3DA"/>
<path fill-rule="evenodd" clip-rule="evenodd" d="M391.627 189.05H355.439C355.205 189.05 355.015 188.86 355.015 188.626V148.167C355.015 147.933 355.205 147.743 355.439 147.743H392.562C392.796 147.743 392.986 147.933 392.986 148.167V187.694C392.984 188.444 392.376 189.05 391.627 189.05ZM392.138 187.694V148.591H355.865V188.203H391.627C391.908 188.203 392.137 187.975 392.138 187.694Z" fill="#D8D3DA"/>
<path fill-rule="evenodd" clip-rule="evenodd" d="M312.296 144.302H275.173C275.06 144.302 274.951 144.257 274.871 144.176C274.792 144.096 274.748 143.986 274.749 143.873V104.092C274.749 103.858 274.939 103.668 275.173 103.668H312.296C312.53 103.668 312.72 103.858 312.72 104.092V143.879C312.72 144.113 312.53 144.302 312.296 144.302ZM275.597 143.455H311.872V104.516H275.597V143.455Z" fill="#D8D3DA"/>
<path fill-rule="evenodd" clip-rule="evenodd" d="M351.139 144.302H316.598C316.485 144.302 316.376 144.257 316.297 144.176C316.217 144.096 316.173 143.986 316.175 143.873V104.092C316.175 103.858 316.364 103.668 316.598 103.668H351.139C351.373 103.668 351.563 103.858 351.563 104.092V143.879C351.563 144.113 351.373 144.302 351.139 144.302ZM317.022 143.455H350.718L350.716 104.516H317.022V143.455Z" fill="#D8D3DA"/>
<path fill-rule="evenodd" clip-rule="evenodd" d="M392.562 144.302H355.439C355.326 144.302 355.217 144.257 355.137 144.176C355.058 144.096 355.014 143.986 355.015 143.873V104.092C355.015 103.858 355.205 103.668 355.439 103.668H392.562C392.796 103.668 392.986 103.858 392.986 104.092V143.879C392.986 144.113 392.796 144.302 392.562 144.302ZM355.866 143.455H392.138V104.516H355.866V143.455Z" fill="#D8D3DA"/>
<path fill-rule="evenodd" clip-rule="evenodd" d="M312.296 100.233H275.173C274.939 100.233 274.749 100.043 274.749 99.809V60.0334C274.749 59.7993 274.939 59.6096 275.173 59.6096H312.296C312.53 59.6096 312.72 59.7993 312.72 60.0334V99.809C312.72 100.043 312.53 100.233 312.296 100.233ZM275.597 99.3854H311.872V60.4572H275.597V99.3854Z" fill="#D8D3DA"/>
<path fill-rule="evenodd" clip-rule="evenodd" d="M351.139 100.233H316.598C316.364 100.233 316.175 100.043 316.175 99.809V60.0334C316.175 59.7993 316.364 59.6096 316.598 59.6096H351.139C351.373 59.6096 351.563 59.7993 351.563 60.0334V99.809C351.562 100.042 351.373 100.231 351.139 100.233ZM317.022 99.3854H350.718L350.716 60.4572H317.022V99.3854Z" fill="#D8D3DA"/>
<path fill-rule="evenodd" clip-rule="evenodd" d="M392.562 100.233H355.439C355.205 100.233 355.015 100.043 355.015 99.809V60.0334C355.015 59.7993 355.205 59.6096 355.439 59.6096H392.562C392.796 59.6096 392.986 59.7993 392.986 60.0334V99.809C392.986 100.043 392.796 100.233 392.562 100.233ZM355.866 99.3854H392.138V60.4572H355.866V99.3854Z" fill="#D8D3DA"/>
<path fill-rule="evenodd" clip-rule="evenodd" d="M312.296 56.1408H275.173C274.939 56.1408 274.749 55.9511 274.749 55.717V15.7917C274.751 15.0408 275.36 14.4329 276.111 14.4329H312.296C312.53 14.4329 312.72 14.6226 312.72 14.8566V55.717C312.72 55.9511 312.53 56.1408 312.296 56.1408ZM275.597 55.2933H311.872V15.2804H276.111C275.828 15.2803 275.598 15.5088 275.597 15.7917V55.2933Z" fill="#D8D3DA"/>
<path fill-rule="evenodd" clip-rule="evenodd" d="M351.139 56.1408H316.598C316.364 56.1408 316.175 55.9511 316.175 55.717V14.8566C316.175 14.6226 316.364 14.4329 316.598 14.4329H351.139C351.373 14.4329 351.563 14.6226 351.563 14.8566V55.717C351.563 55.9511 351.373 56.1408 351.139 56.1408ZM317.022 55.2933H350.718L350.716 15.2804H317.022V55.2933Z" fill="#D8D3DA"/>
<path fill-rule="evenodd" clip-rule="evenodd" d="M355.439 55.7169V14.8564H391.627C392.143 14.8564 392.562 15.2751 392.562 15.7915V55.7169H355.439ZM275.173 187.694V148.167H312.296V188.626H276.111C275.863 188.627 275.625 188.529 275.449 188.354C275.273 188.18 275.174 187.942 275.173 187.694ZM351.137 148.167H316.593V188.626H351.137V148.167ZM355.439 188.626V148.167H392.562V187.694C392.562 187.942 392.463 188.179 392.288 188.354C392.113 188.529 391.875 188.627 391.627 188.626H355.439ZM312.296 104.092H275.173V143.873H312.296V104.092ZM316.593 104.092H351.137V143.873H316.593V104.092ZM392.562 104.092H355.439V143.873H392.562V104.092ZM275.173 60.0193H312.296V99.795H275.173V60.0193ZM351.137 60.0193H316.593V99.795H351.137V60.0193ZM355.439 60.0193H392.562V99.795H355.439V60.0193ZM275.173 15.7915V55.7169H312.296V14.8565H276.111C275.594 14.8565 275.175 15.2747 275.173 15.7915ZM316.593 14.8565H351.137V55.7197H316.593V14.8565Z" fill="white"/>
<mask id="mask0_152_4602" style="mask-type:alpha" maskUnits="userSpaceOnUse" x="275" y="14" width="118" height="175">
<path fill-rule="evenodd" clip-rule="evenodd" d="M355.439 55.7169V14.8564H391.627C392.143 14.8564 392.562 15.2751 392.562 15.7915V55.7169H355.439ZM275.173 187.694V148.167H312.296V188.626H276.111C275.863 188.627 275.625 188.529 275.449 188.354C275.273 188.18 275.174 187.942 275.173 187.694ZM351.137 148.167H316.593V188.626H351.137V148.167ZM355.439 188.626V148.167H392.562V187.694C392.562 187.942 392.463 188.179 392.288 188.354C392.113 188.529 391.875 188.627 391.627 188.626H355.439ZM312.296 104.092H275.173V143.873H312.296V104.092ZM316.593 104.092H351.137V143.873H316.593V104.092ZM392.562 104.092H355.439V143.873H392.562V104.092ZM275.173 60.0193H312.296V99.795H275.173V60.0193ZM351.137 60.0193H316.593V99.795H351.137V60.0193ZM355.439 60.0193H392.562V99.795H355.439V60.0193ZM275.173 15.7915V55.7169H312.296V14.8565H276.111C275.594 14.8565 275.175 15.2747 275.173 15.7915ZM316.593 14.8565H351.137V55.7197H316.593V14.8565Z" fill="white"/>
</mask>
<g mask="url(#mask0_152_4602)">
<rect width="38.9338" height="62.6551" transform="matrix(-1 0 0 1 386.254 130.502)" fill="white"/>
<path fill-rule="evenodd" clip-rule="evenodd" d="M386.254 193.578H347.32C347.086 193.578 346.896 193.389 346.896 193.155V130.502C346.896 130.268 347.086 130.079 347.32 130.079H386.254C386.488 130.079 386.678 130.268 386.678 130.502V193.155C386.678 193.389 386.488 193.578 386.254 193.578ZM347.744 192.731H385.83V130.926H347.744V192.731Z" fill="#D8D3DA"/>
<rect width="43.6289" height="4.49454" rx="0.576295" transform="matrix(-1 0 0 1 388.601 126.005)" fill="white"/>
<path fill-rule="evenodd" clip-rule="evenodd" d="M388.025 130.926H345.549C344.996 130.926 344.549 130.478 344.549 129.926V126.581C344.549 126.029 344.996 125.581 345.549 125.581H388.025C388.577 125.583 389.024 126.03 389.025 126.581V129.926C389.024 130.478 388.577 130.925 388.025 130.926ZM388.178 126.581C388.178 126.497 388.109 126.429 388.025 126.429H345.549C345.465 126.429 345.396 126.497 345.396 126.581V129.926C345.396 130.01 345.465 130.079 345.549 130.079H388.025C388.109 130.079 388.178 130.01 388.178 129.926V126.581Z" fill="#D8D3DA"/>
<rect width="6.62739" height="13.6729" transform="matrix(-1 0 0 1 378.513 176.804)" fill="white"/>
<path fill-rule="evenodd" clip-rule="evenodd" d="M378.513 190.915H371.886C371.652 190.915 371.462 190.725 371.462 190.491V176.818C371.462 176.584 371.652 176.394 371.886 176.394H378.513C378.747 176.394 378.937 176.584 378.937 176.818V190.491C378.937 190.725 378.747 190.915 378.513 190.915ZM372.321 190.067H378.101V177.242H372.321V190.067Z" fill="#D8D3DA"/>
<path d="M371.886 182.513H378.513C378.747 182.513 378.937 182.323 378.937 182.089C378.937 181.855 378.747 181.666 378.513 181.666H371.886C371.652 181.666 371.462 181.855 371.462 182.089C371.462 182.323 371.652 182.513 371.886 182.513Z" fill="#D8D3DA"/>
<rect width="6.62739" height="13.6729" transform="matrix(-1 0 0 1 361.688 176.804)" fill="white"/>
<path fill-rule="evenodd" clip-rule="evenodd" d="M361.688 190.915H355.06C354.826 190.915 354.637 190.725 354.637 190.491V176.818C354.637 176.584 354.826 176.394 355.06 176.394H361.688C361.922 176.394 362.112 176.584 362.112 176.818V190.491C362.112 190.725 361.922 190.915 361.688 190.915ZM355.495 190.067H361.275V177.242H355.495V190.067Z" fill="#D8D3DA"/>
<path d="M355.06 182.513H361.688C361.922 182.513 362.112 182.323 362.112 182.089C362.112 181.855 361.922 181.666 361.688 181.666H355.06C354.826 181.666 354.637 181.855 354.637 182.089C354.637 182.323 354.826 182.513 355.06 182.513Z" fill="#D8D3DA"/>
<rect width="6.62739" height="13.6729" transform="matrix(-1 0 0 1 378.559 135.392)" fill="white"/>
<path fill-rule="evenodd" clip-rule="evenodd" d="M378.559 149.489H371.931C371.697 149.489 371.507 149.299 371.507 149.065V135.392C371.507 135.158 371.697 134.969 371.931 134.969H378.559C378.793 134.969 378.982 135.158 378.982 135.392V149.065C378.982 149.299 378.793 149.489 378.559 149.489ZM372.366 148.642H378.146V135.827H372.366V148.642Z" fill="#D8D3DA"/>
<path d="M371.931 141.099H378.559C378.793 141.099 378.982 140.909 378.982 140.675C378.982 140.441 378.793 140.251 378.559 140.251H371.931C371.697 140.251 371.507 140.441 371.507 140.675C371.507 140.909 371.697 141.099 371.931 141.099Z" fill="#D8D3DA"/>
<rect width="6.62739" height="13.6729" transform="matrix(-1 0 0 1 361.733 135.392)" fill="white"/>
<path fill-rule="evenodd" clip-rule="evenodd" d="M361.733 149.489H355.106C354.872 149.489 354.682 149.299 354.682 149.065V135.392C354.682 135.158 354.872 134.969 355.106 134.969H361.733C361.967 134.969 362.157 135.158 362.157 135.392V149.065C362.157 149.299 361.967 149.489 361.733 149.489ZM355.541 148.642H361.321V135.827H355.541V148.642Z" fill="#D8D3DA"/>
<path d="M355.106 141.099H361.733C361.967 141.099 362.157 140.909 362.157 140.675C362.157 140.441 361.967 140.251 361.733 140.251H355.106C354.872 140.251 354.682 140.441 354.682 140.675C354.682 140.909 354.872 141.099 355.106 141.099Z" fill="#D8D3DA"/>
<rect width="6.62739" height="13.6729" transform="matrix(-1 0 0 1 378.559 156.178)" fill="white"/>
<path fill-rule="evenodd" clip-rule="evenodd" d="M378.559 170.275H371.931C371.817 170.275 371.707 170.229 371.628 170.147C371.548 170.065 371.504 169.954 371.507 169.84V156.167C371.507 155.933 371.697 155.743 371.931 155.743H378.559C378.793 155.743 378.982 155.933 378.982 156.167V169.851C378.982 170.085 378.793 170.275 378.559 170.275ZM372.366 169.428H378.146V156.602H372.366V169.428Z" fill="#D8D3DA"/>
<path d="M371.931 161.888H378.559C378.793 161.888 378.982 161.698 378.982 161.464C378.982 161.23 378.793 161.04 378.559 161.04H371.931C371.697 161.04 371.507 161.23 371.507 161.464C371.507 161.698 371.697 161.888 371.931 161.888Z" fill="#D8D3DA"/>
<rect width="6.62739" height="13.6729" transform="matrix(-1 0 0 1 361.733 156.178)" fill="white"/>
<path fill-rule="evenodd" clip-rule="evenodd" d="M361.733 170.275H355.106C354.991 170.275 354.882 170.229 354.802 170.147C354.722 170.065 354.679 169.954 354.682 169.84V156.167C354.682 155.933 354.872 155.743 355.106 155.743H361.733C361.967 155.743 362.157 155.933 362.157 156.167V169.851C362.157 170.085 361.967 170.275 361.733 170.275ZM355.541 169.428H361.321V156.602H355.541V169.428Z" fill="#D8D3DA"/>
<path d="M355.106 161.888H361.733C361.967 161.888 362.157 161.698 362.157 161.464C362.157 161.23 361.967 161.04 361.733 161.04H355.106C354.872 161.04 354.682 161.23 354.682 161.464C354.682 161.698 354.872 161.888 355.106 161.888Z" fill="#D8D3DA"/>
<rect width="8.68962" height="1.85318" transform="matrix(-1 0 0 1 379.488 168.693)" fill="white"/>
<path fill-rule="evenodd" clip-rule="evenodd" d="M379.491 170.97H370.798C370.564 170.97 370.375 170.78 370.375 170.546V168.693C370.375 168.459 370.564 168.27 370.798 168.27H379.491C379.725 168.27 379.915 168.459 379.915 168.693V170.546C379.915 170.78 379.725 170.97 379.491 170.97ZM371.222 170.123H379.067V169.117H371.222V170.123Z" fill="#D8D3DA"/>
<rect width="8.68962" height="1.85318" transform="matrix(-1 0 0 1 362.897 168.693)" fill="white"/>
<path fill-rule="evenodd" clip-rule="evenodd" d="M362.897 170.97H354.207C353.973 170.97 353.784 170.78 353.784 170.546V168.693C353.784 168.459 353.973 168.27 354.207 168.27H362.897C363.131 168.27 363.321 168.459 363.321 168.693V170.546C363.321 170.78 363.131 170.97 362.897 170.97ZM354.631 170.123H362.473V169.117H354.631V170.123Z" fill="#D8D3DA"/>
<rect width="8.68962" height="1.85318" transform="matrix(-1 0 0 1 379.488 147.805)" fill="white"/>
<path fill-rule="evenodd" clip-rule="evenodd" d="M379.491 150.082H370.798C370.569 150.082 370.381 149.899 370.375 149.67V147.805C370.375 147.571 370.564 147.382 370.798 147.382H379.491C379.725 147.382 379.915 147.571 379.915 147.805V149.659C379.915 149.893 379.725 150.082 379.491 150.082ZM371.222 149.235H379.067V148.229H371.222V149.235Z" fill="#D8D3DA"/>
<rect width="8.68962" height="1.85318" transform="matrix(-1 0 0 1 362.897 147.805)" fill="white"/>
<path fill-rule="evenodd" clip-rule="evenodd" d="M362.897 150.082H354.207C353.978 150.082 353.79 149.899 353.784 149.67V147.805C353.784 147.571 353.973 147.382 354.207 147.382H362.897C363.131 147.382 363.321 147.571 363.321 147.805V149.659C363.321 149.893 363.131 150.082 362.897 150.082ZM354.631 149.235H362.473V148.229H354.631V149.235Z" fill="#D8D3DA"/>
<rect width="13.4186" height="4.35046" transform="matrix(-1 0 0 1 382.42 121.655)" fill="white"/>
<path fill-rule="evenodd" clip-rule="evenodd" d="M382.42 126.429H369.005C368.771 126.429 368.581 126.239 368.581 126.005V121.654C368.581 121.42 368.771 121.231 369.005 121.231H382.42C382.654 121.231 382.844 121.42 382.844 121.654V126.005C382.844 126.239 382.654 126.429 382.42 126.429ZM369.425 125.581H381.999L381.997 122.078H369.425V125.581Z" fill="#D8D3DA"/>
<path d="M379.268 126.276C379.502 126.276 379.691 126.086 379.691 125.852V121.654C379.691 121.42 379.502 121.231 379.268 121.231C379.034 121.231 378.844 121.42 378.844 121.654V125.852C378.844 125.965 378.889 126.073 378.968 126.152C379.047 126.231 379.155 126.276 379.268 126.276Z" fill="#D8D3DA"/>
<path d="M375.714 126.429C375.948 126.429 376.138 126.239 376.138 126.005V121.654C376.138 121.42 375.948 121.231 375.714 121.231C375.48 121.231 375.29 121.42 375.29 121.654V126.005C375.29 126.239 375.48 126.429 375.714 126.429Z" fill="#D8D3DA"/>
<path d="M372.219 126.276C372.453 126.276 372.643 126.086 372.643 125.852V121.654C372.643 121.42 372.453 121.231 372.219 121.231C371.985 121.231 371.796 121.42 371.796 121.654V125.852C371.796 126.086 371.985 126.276 372.219 126.276Z" fill="#D8D3DA"/>
<path d="M275.125 91.2183V187.866C275.122 188.357 275.516 188.757 276.006 188.762H339.382V91.2183H275.125Z" fill="white"/>
<path fill-rule="evenodd" clip-rule="evenodd" d="M339.382 189.186H276.006C275.282 189.181 274.698 188.591 274.701 187.866V91.2182C274.701 90.9842 274.891 90.7944 275.125 90.7944H339.382C339.616 90.7944 339.806 90.9842 339.806 91.2182V188.762C339.806 188.996 339.616 189.186 339.382 189.186ZM276.006 188.338H338.958V91.6418H275.549V187.866C275.546 188.122 275.75 188.333 276.006 188.338Z" fill="#D8D3DA"/>
<rect width="70.5425" height="5.2601" transform="matrix(-1 0 0 1 341.693 109.869)" fill="white"/>
<path fill-rule="evenodd" clip-rule="evenodd" d="M341.693 115.553H271.15C270.916 115.553 270.727 115.363 270.727 115.129V109.869C270.727 109.635 270.916 109.445 271.15 109.445H341.693C341.927 109.445 342.116 109.635 342.116 109.869V115.129C342.116 115.363 341.927 115.553 341.693 115.553ZM271.574 114.705H341.269V110.293H271.574V114.705Z" fill="#D8D3DA"/>
<rect width="4.30526" height="7.65286" transform="matrix(-1 0 0 1 329.178 96.3174)" fill="white"/>
<path fill-rule="evenodd" clip-rule="evenodd" d="M329.178 104.394H324.876C324.642 104.394 324.452 104.204 324.452 103.97V96.3175C324.452 96.0835 324.642 95.8938 324.876 95.8938H329.178C329.412 95.8938 329.602 96.0835 329.602 96.3175V103.97C329.602 104.204 329.412 104.394 329.178 104.394ZM325.299 103.547H328.754L328.746 96.7413H325.299V103.547Z" fill="#D8D3DA"/>
<rect width="4.30526" height="7.65286" transform="matrix(-1 0 0 1 317.46 96.3174)" fill="white"/>
<path fill-rule="evenodd" clip-rule="evenodd" d="M317.463 104.394H313.158C312.924 104.394 312.734 104.204 312.734 103.97V96.3175C312.734 96.0835 312.924 95.8938 313.158 95.8938H317.463C317.697 95.8938 317.887 96.0835 317.887 96.3175V103.97C317.887 104.204 317.697 104.394 317.463 104.394ZM313.581 103.547H317.039V96.7413H313.581V103.547Z" fill="#D8D3DA"/>
<rect width="4.30526" height="7.65286" transform="matrix(-1 0 0 1 305.824 96.3174)" fill="white"/>
<path fill-rule="evenodd" clip-rule="evenodd" d="M305.824 104.394H301.521C301.287 104.394 301.098 104.204 301.098 103.97V96.3175C301.098 96.0835 301.287 95.8938 301.521 95.8938H305.824C306.058 95.8938 306.248 96.0835 306.248 96.3175V103.97C306.248 104.204 306.058 104.394 305.824 104.394ZM301.945 103.547H305.4V96.7413H301.945V103.547Z" fill="#D8D3DA"/>
<rect width="4.30526" height="7.65286" transform="matrix(-1 0 0 1 293.47 96.3174)" fill="white"/>
<path fill-rule="evenodd" clip-rule="evenodd" d="M293.47 104.394H289.165C288.931 104.394 288.741 104.204 288.741 103.97V96.3175C288.741 96.0835 288.931 95.8938 289.165 95.8938H293.47C293.704 95.8938 293.894 96.0835 293.894 96.3175V103.97C293.894 104.204 293.704 104.394 293.47 104.394ZM289.589 103.547H293.047V96.7413H289.589V103.547Z" fill="#D8D3DA"/>
<rect width="4.30526" height="7.65286" transform="matrix(-1 0 0 1 281.752 96.3174)" fill="white"/>
<path fill-rule="evenodd" clip-rule="evenodd" d="M281.752 104.394H277.45C277.216 104.394 277.026 104.204 277.026 103.97V96.3175C277.026 96.0835 277.216 95.8938 277.45 95.8938H281.752C281.986 95.8938 282.176 96.0835 282.176 96.3175V103.97C282.176 104.204 281.986 104.394 281.752 104.394ZM277.874 103.547H281.329V96.7413H277.874V103.547Z" fill="#D8D3DA"/>
<rect width="66.7259" height="5.10191" transform="matrix(-1 0 0 1 341.851 86.1165)" fill="white"/>
<path fill-rule="evenodd" clip-rule="evenodd" d="M341.854 91.642H275.125C275.011 91.642 274.902 91.5962 274.822 91.5149C274.743 91.4336 274.699 91.3236 274.701 91.2097V86.1078C274.701 85.8738 274.891 85.6841 275.125 85.6841H341.854C342.088 85.6841 342.277 85.8738 342.277 86.1078V91.2182C342.277 91.4522 342.088 91.642 341.854 91.642ZM275.549 90.7946H341.43V86.5402H275.549V90.7946Z" fill="#D8D3DA"/>
<path d="M308.124 86.1079V80.9552C308.124 80.6193 307.852 80.3465 307.516 80.345H303.053C302.684 80.345 302.386 80.0465 302.386 79.6783V72.7571C302.387 72.6195 302.333 72.4873 302.236 72.3897C302.139 72.2922 302.007 72.2373 301.869 72.2373H292.869C292.731 72.2373 292.599 72.2922 292.502 72.3897C292.405 72.4873 292.351 72.6195 292.352 72.7571V77.2601L284.724 77.3307C284.262 77.3384 283.891 77.7156 283.891 78.1782V86.1079H308.124Z" fill="white"/>
<path fill-rule="evenodd" clip-rule="evenodd" d="M308.123 86.5401H283.905C283.791 86.5409 283.681 86.4955 283.6 86.4141C283.52 86.3327 283.476 86.2223 283.478 86.1079V78.181C283.48 77.4882 284.037 76.9247 284.73 76.9155L291.928 76.8477V72.7656C291.928 72.2456 292.349 71.8236 292.869 71.822H301.869C302.389 71.8236 302.81 72.2456 302.81 72.7656V79.6868C302.809 79.7514 302.834 79.8137 302.88 79.8594C302.926 79.9051 302.988 79.9305 303.053 79.9297H307.516C308.086 79.9313 308.547 80.3937 308.547 80.9636V86.1164C308.547 86.3504 308.358 86.5401 308.123 86.5401ZM284.329 85.6927H307.711V80.9637C307.712 80.9145 307.693 80.8671 307.658 80.832C307.624 80.797 307.577 80.7772 307.527 80.7772H303.064C302.462 80.7772 301.974 80.289 301.974 79.6868V72.7656C301.974 72.7137 301.932 72.6711 301.88 72.6696H292.883C292.831 72.6711 292.79 72.7137 292.79 72.7656V77.2686C292.79 77.5016 292.602 77.6908 292.369 77.6924L284.741 77.763C284.513 77.7676 284.33 77.953 284.329 78.1811V85.6927Z" fill="#D8D3DA"/>
<rect width="3.58772" height="3.58772" transform="matrix(-1 0 0 1 278.563 82.5286)" fill="white"/>
<path fill-rule="evenodd" clip-rule="evenodd" d="M278.566 86.5402H274.978C274.864 86.5402 274.755 86.4944 274.675 86.4131C274.596 86.3318 274.552 86.2218 274.554 86.108V82.5287C274.554 82.2947 274.744 82.105 274.978 82.105H278.566C278.8 82.105 278.99 82.2947 278.99 82.5287V86.1164C278.99 86.3505 278.8 86.5402 278.566 86.5402ZM275.402 85.6927H278.142V82.9524H275.402V85.6927Z" fill="#D8D3DA"/>
<path d="M341.851 118.078H329.613C329.325 118.078 329.039 118.031 328.766 117.94L310.539 111.762C310.271 111.67 309.979 111.67 309.711 111.762L291.606 117.977C291.414 118.042 291.213 118.075 291.01 118.075H279.478C279.32 118.075 279.168 118.139 279.056 118.251C278.944 118.363 278.881 118.516 278.882 118.674V123.056C278.881 123.214 278.944 123.367 279.056 123.479C279.168 123.592 279.32 123.655 279.478 123.655H341.851C342.291 123.655 342.649 123.298 342.65 122.858V118.878C342.65 118.436 342.292 118.078 341.851 118.078Z" fill="white"/>
<path fill-rule="evenodd" clip-rule="evenodd" d="M341.851 124.081H279.481C278.917 124.08 278.461 123.622 278.461 123.058V118.677C278.461 118.113 278.917 117.656 279.481 117.654H291.013C291.168 117.654 291.323 117.628 291.47 117.578L309.578 111.363C309.936 111.243 310.323 111.243 310.68 111.363L328.904 117.541C329.133 117.618 329.372 117.657 329.613 117.657H341.851C342.525 117.657 343.073 118.203 343.074 118.877V122.861C343.073 123.535 342.525 124.081 341.851 124.081ZM342.227 118.875C342.225 118.668 342.057 118.502 341.851 118.502L329.624 118.505C329.291 118.505 328.96 118.45 328.644 118.343L310.417 112.165C310.234 112.102 310.035 112.102 309.852 112.165L291.744 118.38C291.509 118.46 291.261 118.501 291.013 118.502H279.481C279.435 118.502 279.391 118.52 279.358 118.553C279.326 118.586 279.308 118.631 279.309 118.677V123.058C279.308 123.105 279.326 123.149 279.358 123.182C279.391 123.215 279.435 123.234 279.481 123.234H341.851C342.057 123.234 342.225 123.067 342.227 122.861V118.875Z" fill="#D8D3DA"/>
<rect width="7.81106" height="3.98604" transform="matrix(-1 0 0 1 332.367 128.121)" fill="white"/>
<path fill-rule="evenodd" clip-rule="evenodd" d="M332.367 132.531H324.556C324.322 132.531 324.133 132.341 324.133 132.107V128.121C324.133 127.887 324.322 127.697 324.556 127.697H332.367C332.601 127.697 332.791 127.887 332.791 128.121V132.107C332.791 132.341 332.601 132.531 332.367 132.531ZM324.98 131.683H331.944V128.545H324.98V131.683Z" fill="#D8D3DA"/>
<rect width="4.06514" height="22.7156" transform="matrix(-1 0 0 1 330.534 132.107)" fill="white"/>
<path fill-rule="evenodd" clip-rule="evenodd" d="M330.534 155.246H326.469C326.235 155.246 326.045 155.057 326.045 154.822V132.107C326.045 131.873 326.235 131.683 326.469 131.683H330.534C330.768 131.683 330.958 131.873 330.958 132.107V154.822C330.958 155.057 330.768 155.246 330.534 155.246ZM326.893 154.399H330.11V132.531H326.893V154.399Z" fill="#D8D3DA"/>
<path d="M324.556 155.246H332.367C332.601 155.246 332.791 155.057 332.791 154.823C332.791 154.589 332.601 154.399 332.367 154.399H324.556C324.322 154.399 324.133 154.589 324.133 154.823C324.133 155.057 324.322 155.246 324.556 155.246Z" fill="#D8D3DA"/>
<rect width="7.81106" height="3.98604" transform="matrix(-1 0 0 1 296.976 128.121)" fill="white"/>
<path fill-rule="evenodd" clip-rule="evenodd" d="M296.976 132.531H289.165C288.931 132.531 288.741 132.341 288.741 132.107V128.121C288.741 127.887 288.931 127.697 289.165 127.697H296.976C297.21 127.697 297.4 127.887 297.4 128.121V132.107C297.4 132.341 297.21 132.531 296.976 132.531ZM289.589 131.683H296.552L296.541 128.545H289.589V131.683Z" fill="#D8D3DA"/>
<rect width="4.06514" height="22.7156" transform="matrix(-1 0 0 1 295.143 132.107)" fill="white"/>
<path fill-rule="evenodd" clip-rule="evenodd" d="M295.129 155.246H291.078C290.963 155.25 290.851 155.207 290.769 155.127C290.686 155.047 290.64 154.937 290.64 154.822V132.107C290.64 131.873 290.829 131.683 291.063 131.683H295.129C295.363 131.683 295.552 131.873 295.552 132.107V154.822C295.552 155.057 295.363 155.246 295.129 155.246ZM291.501 154.399H294.719V132.531H291.501V154.399Z" fill="#D8D3DA"/>
<path d="M289.165 155.246H296.976C297.21 155.246 297.4 155.057 297.4 154.823C297.4 154.589 297.21 154.399 296.976 154.399H289.165C288.931 154.399 288.741 154.589 288.741 154.823C288.741 155.057 288.931 155.246 289.165 155.246Z" fill="#D8D3DA"/>
<rect width="12.5146" height="3.98604" transform="matrix(-1 0 0 1 317.022 128.121)" fill="white"/>
<path fill-rule="evenodd" clip-rule="evenodd" d="M317.022 132.531H304.51C304.276 132.531 304.087 132.341 304.087 132.107V128.121C304.087 127.887 304.276 127.697 304.51 127.697H317.022C317.256 127.697 317.446 127.887 317.446 128.121V132.107C317.446 132.341 317.256 132.531 317.022 132.531ZM304.934 131.683H316.598V128.545H304.934V131.683Z" fill="#D8D3DA"/>
<rect width="8.13028" height="22.7156" transform="matrix(-1 0 0 1 314.83 132.107)" fill="white"/>
<path fill-rule="evenodd" clip-rule="evenodd" d="M314.841 155.246H306.711C306.477 155.246 306.287 155.057 306.287 154.822V132.107C306.287 131.873 306.477 131.683 306.711 131.683H314.841C315.075 131.683 315.265 131.873 315.265 132.107V154.822C315.265 155.057 315.075 155.246 314.841 155.246ZM307.135 154.399H314.418V132.531H307.135V154.399Z" fill="#D8D3DA"/>
<path d="M304.471 155.246H317.065C317.299 155.246 317.488 155.057 317.488 154.823C317.488 154.589 317.299 154.399 317.065 154.399H304.471C304.237 154.399 304.047 154.589 304.047 154.823C304.047 155.057 304.237 155.246 304.471 155.246Z" fill="#D8D3DA"/>
<rect width="7.81106" height="3.98604" transform="matrix(-1 0 0 1 332.447 166.86)" fill="white"/>
<path fill-rule="evenodd" clip-rule="evenodd" d="M332.447 171.267H324.635C324.407 171.267 324.219 171.086 324.212 170.857V166.86C324.212 166.626 324.401 166.436 324.635 166.436H332.447C332.681 166.436 332.87 166.626 332.87 166.86V170.843C332.87 171.077 332.681 171.267 332.447 171.267ZM325.059 170.419H332.023V167.284H325.059V170.419Z" fill="#D8D3DA"/>
<rect width="4.06514" height="17.9188" transform="matrix(-1 0 0 1 330.613 170.846)" fill="white"/>
<path fill-rule="evenodd" clip-rule="evenodd" d="M330.613 189.186H326.548C326.319 189.186 326.132 189.004 326.124 188.776V170.857C326.124 170.623 326.314 170.433 326.548 170.433H330.613C330.847 170.433 331.037 170.623 331.037 170.857V188.762C331.037 188.996 330.847 189.186 330.613 189.186ZM326.972 188.338H330.189V171.267H326.972V188.338Z" fill="#D8D3DA"/>
<rect width="7.81106" height="3.98604" transform="matrix(-1 0 0 1 297.055 166.86)" fill="white"/>
<path fill-rule="evenodd" clip-rule="evenodd" d="M297.058 171.267H289.244C289.016 171.267 288.828 171.086 288.82 170.857V166.86C288.82 166.626 289.01 166.436 289.244 166.436H297.058C297.292 166.436 297.482 166.626 297.482 166.86V170.843C297.482 171.077 297.292 171.267 297.058 171.267ZM289.668 170.419H296.634V167.284H289.668V170.419Z" fill="#D8D3DA"/>
<rect width="4.06514" height="17.9188" transform="matrix(-1 0 0 1 295.222 170.846)" fill="white"/>
<path fill-rule="evenodd" clip-rule="evenodd" d="M295.225 189.186H291.16C290.931 189.186 290.743 189.004 290.736 188.776V170.857C290.736 170.623 290.926 170.433 291.16 170.433H295.225C295.458 170.435 295.647 170.624 295.648 170.857V188.762C295.648 188.996 295.459 189.186 295.225 189.186ZM291.583 188.338H294.801V171.267H291.583V188.338Z" fill="#D8D3DA"/>
<rect width="12.5146" height="3.98604" transform="matrix(-1 0 0 1 317.101 166.86)" fill="white"/>
<path fill-rule="evenodd" clip-rule="evenodd" d="M317.104 171.267H304.589C304.361 171.267 304.173 171.086 304.166 170.857V166.86C304.166 166.626 304.355 166.436 304.589 166.436H317.104C317.338 166.436 317.528 166.626 317.528 166.86V170.843C317.528 171.077 317.338 171.267 317.104 171.267ZM305.016 170.419H316.68L316.683 167.284H305.016V170.419Z" fill="#D8D3DA"/>
<rect width="8.13028" height="17.9188" transform="matrix(-1 0 0 1 314.912 170.846)" fill="white"/>
<path fill-rule="evenodd" clip-rule="evenodd" d="M314.903 189.186H306.782C306.55 189.19 306.357 189.008 306.349 188.776V170.857C306.349 170.623 306.539 170.433 306.773 170.433H314.903C315.137 170.433 315.327 170.623 315.327 170.857V188.762C315.327 188.996 315.137 189.186 314.903 189.186ZM307.205 188.338H314.488V171.267H307.205V188.338Z" fill="#D8D3DA"/>
<rect width="59.7002" height="4.78268" transform="matrix(-1 0 0 1 341.772 158.45)" fill="white"/>
<path fill-rule="evenodd" clip-rule="evenodd" d="M341.772 163.656H282.072C281.959 163.656 281.851 163.611 281.771 163.531C281.691 163.451 281.647 163.343 281.648 163.23V158.45C281.648 158.216 281.838 158.026 282.072 158.026H341.772C342.006 158.026 342.196 158.216 342.196 158.45V163.233C342.196 163.467 342.006 163.656 341.772 163.656ZM282.495 162.809H341.348V158.874H282.495V162.809Z" fill="#D8D3DA"/>
</g>
<path d="M282.072 189.186C282.306 189.186 282.495 188.996 282.495 188.762V123.658C282.495 123.424 282.306 123.234 282.072 123.234C281.838 123.234 281.648 123.424 281.648 123.658V188.762C281.648 188.996 281.838 189.186 282.072 189.186Z" fill="#D8D3DA"/>
<path fill-rule="evenodd" clip-rule="evenodd" d="M271.124 10.9605C271.379 10.7057 271.725 10.5625 272.085 10.5625H395.652L395.724 10.5644C396.058 10.5821 396.375 10.7229 396.613 10.9611C396.867 11.2158 397.008 11.5611 397.008 11.9213V192.237L397.007 192.308C396.989 192.643 396.85 192.959 396.613 193.197C396.358 193.452 396.013 193.595 395.652 193.595H272.085L272.025 193.594C271.302 193.562 270.726 192.967 270.726 192.237V11.9213L270.728 11.8495C270.746 11.5153 270.887 11.1983 271.124 10.9605ZM395.652 11.41H272.085L272.04 11.412C271.921 11.4225 271.809 11.4745 271.724 11.5598C271.628 11.6557 271.574 11.7857 271.574 11.9213V192.237L271.576 192.279C271.597 192.541 271.817 192.748 272.085 192.748H395.652L395.697 192.746C395.816 192.736 395.928 192.684 396.013 192.599C396.108 192.503 396.161 192.373 396.161 192.237V11.9213L396.159 11.8761C396.149 11.7563 396.097 11.6442 396.013 11.5595C395.917 11.4638 395.788 11.41 395.652 11.41ZM275.125 147.879C274.905 147.879 274.724 148.047 274.703 148.262L274.701 148.303L274.701 187.854C274.702 188.214 274.846 188.559 275.102 188.813C275.341 189.05 275.658 189.19 275.991 189.207L276.063 189.208H312.248C312.468 189.208 312.649 189.04 312.67 188.825L312.672 188.785V148.303C312.672 148.082 312.504 147.901 312.289 147.881L312.248 147.879H275.125ZM316.126 148.262C316.146 148.047 316.327 147.879 316.548 147.879H351.091L351.132 147.881C351.347 147.901 351.515 148.082 351.515 148.303V188.776L351.513 188.817C351.493 189.032 351.312 189.2 351.091 189.2H316.548L316.507 189.198C316.292 189.177 316.124 188.996 316.124 188.776V148.303L316.126 148.262ZM355.391 147.879C355.171 147.879 354.99 148.047 354.969 148.262L354.967 148.303V188.762C354.967 188.982 355.135 189.163 355.35 189.184L355.391 189.186H391.579C392.307 189.186 392.902 188.612 392.936 187.89L392.938 187.83V148.303C392.938 148.082 392.77 147.901 392.555 147.881L392.514 147.879H355.391ZM311.824 148.726H275.549V187.852L275.551 187.897C275.562 188.015 275.614 188.127 275.7 188.212L275.733 188.242C275.825 188.319 275.941 188.361 276.062 188.361H311.824V148.726ZM316.971 148.726H350.668V188.352H316.971V148.726ZM392.09 148.726H355.815V188.338H391.579L391.621 188.337C391.883 188.315 392.089 188.096 392.09 187.828L392.09 148.726ZM275.125 103.804C274.905 103.804 274.724 103.972 274.703 104.187L274.701 104.227V144.028C274.701 144.249 274.869 144.43 275.084 144.45L275.125 144.452H312.248C312.468 144.452 312.649 144.284 312.67 144.069L312.672 144.028V104.227C312.672 104.007 312.504 103.826 312.289 103.806L312.248 103.804H275.125ZM316.126 104.187C316.146 103.972 316.327 103.804 316.548 103.804H351.091L351.132 103.806C351.347 103.826 351.515 104.007 351.515 104.227V144.02L351.513 144.061C351.493 144.276 351.312 144.444 351.091 144.444H316.548L316.507 144.442C316.292 144.421 316.124 144.24 316.124 144.02V104.227L316.126 104.187ZM355.391 103.804C355.171 103.804 354.99 103.972 354.969 104.187L354.967 104.227V144.006C354.967 144.226 355.135 144.407 355.35 144.428L355.391 144.43H392.514C392.734 144.43 392.915 144.262 392.936 144.047L392.938 144.006V104.227C392.938 104.007 392.77 103.826 392.555 103.806L392.514 103.804H355.391ZM311.824 104.651H275.549V143.604H311.824V104.651ZM316.971 104.651H350.668V143.596H316.971V104.651ZM392.09 104.651H355.815V143.582H392.09V104.651ZM275.125 59.7594C274.905 59.7594 274.724 59.9275 274.703 60.1424L274.701 60.1832V99.9588C274.701 100.179 274.869 100.36 275.084 100.381L275.125 100.383H312.248C312.468 100.383 312.649 100.215 312.67 99.9996L312.672 99.9588V60.1832C312.672 59.9629 312.504 59.7819 312.289 59.7614L312.248 59.7594H275.125ZM316.126 60.134C316.146 59.9191 316.327 59.751 316.548 59.751H351.091L351.132 59.753C351.347 59.7735 351.515 59.9545 351.515 60.1748V99.9504L351.513 99.9912C351.493 100.206 351.312 100.374 351.091 100.374H316.548L316.507 100.372C316.292 100.352 316.124 100.171 316.124 99.9504V60.1748L316.126 60.134ZM355.391 59.7369C355.171 59.7369 354.99 59.9049 354.969 60.1198L354.967 60.1606V99.9363C354.967 100.157 355.135 100.338 355.35 100.358L355.391 100.36H392.514C392.734 100.36 392.915 100.192 392.936 99.9771L392.938 99.9363V60.1606C392.938 59.9404 392.77 59.7594 392.555 59.7388L392.514 59.7369H355.391ZM311.824 60.6067H275.549V99.5348H311.824V60.6067ZM316.971 60.5982H350.668V99.5263H316.971V60.5982ZM392.09 60.5841H355.815V99.5123H392.09V60.5841ZM355.391 14.5655C355.171 14.5655 354.99 14.7335 354.969 14.9484L354.967 14.9892V55.8666C354.967 56.0869 355.135 56.2679 355.35 56.2884L355.391 56.2904H392.514C392.734 56.2904 392.915 56.1223 392.936 55.9074L392.938 55.8666V15.9271C392.938 15.197 392.363 14.6008 391.639 14.567L391.579 14.5655H355.391ZM274.702 15.8665C274.734 15.1426 275.331 14.5655 276.063 14.5655H312.248L312.289 14.5674C312.504 14.588 312.672 14.769 312.672 14.9892V55.8525L312.67 55.8933C312.649 56.1082 312.468 56.2762 312.248 56.2762H275.125L275.084 56.2743C274.869 56.2538 274.701 56.0728 274.701 55.8525V15.9271L274.702 15.8665ZM316.548 14.5655C316.327 14.5655 316.146 14.7335 316.126 14.9484L316.124 14.9892V55.8525C316.124 56.0728 316.292 56.2538 316.507 56.2743L316.548 56.2762H351.091C351.312 56.2762 351.493 56.1082 351.513 55.8933L351.515 55.8525V14.9892C351.515 14.769 351.347 14.588 351.132 14.5674L351.091 14.5655H316.548ZM391.578 15.413L355.815 15.4127V55.4426H392.09V15.9271L392.088 15.8851C392.067 15.6214 391.847 15.4138 391.578 15.413ZM276.063 15.413L311.824 15.4127V55.4285H275.549V15.9271C275.549 15.6574 275.756 15.4361 276.021 15.4147L276.063 15.413ZM350.668 15.4127H316.971V55.4285H350.668V15.4127Z" fill="#D8D3DA"/>
<path fill-rule="evenodd" clip-rule="evenodd" d="M150.889 10.9605C150.635 10.7057 150.289 10.5625 149.929 10.5625H26.3613L26.2895 10.5644C25.9553 10.5821 25.6385 10.7229 25.401 10.9611C25.1471 11.2158 25.0053 11.5611 25.0053 11.9213V192.237L25.0072 192.308C25.0247 192.643 25.1641 192.959 25.401 193.197C25.6554 193.452 26.001 193.595 26.3613 193.595H149.929L149.989 193.594C150.711 193.562 151.287 192.967 151.287 192.237V11.9213L151.285 11.8495C151.268 11.5153 151.127 11.1983 150.889 10.9605ZM29.4518 55.7169V15.7915C29.4518 15.2751 29.8705 14.8565 30.3869 14.8565H66.5748V55.7169H29.4518ZM66.5748 60.0193V99.795H29.4518V60.0193H66.5748ZM66.5748 143.873V104.092H29.4518V143.873H66.5748ZM66.5748 148.161V188.626H30.3869C30.1392 188.627 29.9013 188.529 29.7259 188.354C29.5504 188.179 29.4518 187.942 29.4518 187.694V148.167L66.5748 148.161ZM105.418 99.7979V60.0222H70.8744V99.7979H105.418ZM70.8744 55.7198V14.8565H105.415V55.7169L70.8744 55.7198ZM105.415 143.873V104.092H70.8744V143.873H105.415ZM105.415 148.161V188.626H70.8744V148.167L105.415 148.161ZM146.838 143.873V104.092H109.718V143.873H146.838ZM109.715 99.795V60.0193H146.838V99.795H109.715ZM146.838 187.694V148.167H109.718V188.626H145.9C146.148 188.627 146.386 188.529 146.562 188.354C146.738 188.18 146.837 187.942 146.838 187.694ZM146.838 55.7169H109.718V14.8565H145.903C146.42 14.8565 146.839 15.2747 146.841 15.7916L146.838 55.7169Z" fill="white"/>
<path fill-rule="evenodd" clip-rule="evenodd" d="M29.4519 56.1408H66.5749C66.8089 56.1408 66.9986 55.9511 66.9986 55.717V14.8566C66.9986 14.6226 66.8089 14.4329 66.5749 14.4329H30.387C29.6371 14.4344 29.0297 15.0419 29.0281 15.7917V55.717C29.0281 55.9511 29.2179 56.1408 29.4519 56.1408ZM66.1483 55.2933H29.8756L29.8728 15.7917C29.8728 15.5093 30.1017 15.2804 30.3841 15.2804H66.1483V55.2933Z" fill="#D8D3DA"/>
<path fill-rule="evenodd" clip-rule="evenodd" d="M109.718 189.05H145.903C146.263 189.051 146.609 188.909 146.865 188.654C147.12 188.4 147.264 188.055 147.265 187.694V148.167C147.265 147.933 147.075 147.743 146.841 147.743H109.718C109.484 147.743 109.294 147.933 109.294 148.167V188.626C109.294 188.86 109.484 189.05 109.718 189.05ZM145.903 188.203H110.142V148.591H146.417V187.694C146.414 187.976 146.185 188.203 145.903 188.203Z" fill="#D8D3DA"/>
<path fill-rule="evenodd" clip-rule="evenodd" d="M70.8744 189.05H105.415C105.649 189.05 105.839 188.86 105.839 188.626V148.167C105.839 147.933 105.649 147.743 105.415 147.743H70.8744C70.6404 147.743 70.4507 147.933 70.4507 148.167V188.626C70.4507 188.86 70.6404 189.05 70.8744 189.05ZM104.992 188.203H71.2953L71.2982 148.591H104.992V188.203Z" fill="#D8D3DA"/>
<path fill-rule="evenodd" clip-rule="evenodd" d="M30.387 189.05H66.5749C66.8089 189.05 66.9986 188.86 66.9986 188.626V148.167C66.9986 147.933 66.8089 147.743 66.5749 147.743H29.4519C29.2179 147.743 29.0281 147.933 29.0281 148.167V187.694C29.0297 188.444 29.6376 189.05 30.387 189.05ZM29.8756 187.694V148.591H66.1483V188.203H30.387C30.1057 188.203 29.8772 187.975 29.8756 187.694Z" fill="#D8D3DA"/>
<path fill-rule="evenodd" clip-rule="evenodd" d="M109.718 144.302H146.841C146.954 144.302 147.063 144.257 147.143 144.176C147.222 144.096 147.266 143.986 147.265 143.873V104.092C147.265 103.858 147.075 103.668 146.841 103.668H109.718C109.484 103.668 109.294 103.858 109.294 104.092V143.879C109.294 144.113 109.484 144.302 109.718 144.302ZM146.417 143.455H110.142V104.516H146.417V143.455Z" fill="#D8D3DA"/>
<path fill-rule="evenodd" clip-rule="evenodd" d="M70.8744 144.302H105.415C105.529 144.302 105.637 144.257 105.717 144.176C105.797 144.096 105.841 143.986 105.839 143.873V104.092C105.839 103.858 105.649 103.668 105.415 103.668H70.8744C70.6404 103.668 70.4507 103.858 70.4507 104.092V143.879C70.4507 144.113 70.6404 144.302 70.8744 144.302ZM104.992 143.455H71.2954L71.2982 104.516H104.992V143.455Z" fill="#D8D3DA"/>
<path fill-rule="evenodd" clip-rule="evenodd" d="M29.4518 144.302H66.5748C66.6882 144.302 66.7968 144.257 66.8765 144.176C66.9561 144.096 67.0001 143.986 66.9986 143.873V104.092C66.9986 103.858 66.8089 103.668 66.5748 103.668H29.4518C29.2178 103.668 29.0281 103.858 29.0281 104.092V143.879C29.0281 144.113 29.2178 144.302 29.4518 144.302ZM66.1483 143.455H29.8756V104.516H66.1483V143.455Z" fill="#D8D3DA"/>
<path fill-rule="evenodd" clip-rule="evenodd" d="M109.718 100.233H146.841C147.075 100.233 147.265 100.043 147.265 99.809V60.0334C147.265 59.7993 147.075 59.6096 146.841 59.6096H109.718C109.484 59.6096 109.294 59.7993 109.294 60.0334V99.809C109.294 100.043 109.484 100.233 109.718 100.233ZM146.417 99.3854H110.142V60.4572H146.417V99.3854Z" fill="#D8D3DA"/>
<path fill-rule="evenodd" clip-rule="evenodd" d="M70.8744 100.233H105.415C105.649 100.233 105.839 100.043 105.839 99.809V60.0334C105.839 59.7993 105.649 59.6096 105.415 59.6096H70.8744C70.6404 59.6096 70.4507 59.7993 70.4507 60.0334V99.809C70.4522 100.042 70.641 100.231 70.8744 100.233ZM104.992 99.3854H71.2954L71.2982 60.4572H104.992V99.3854Z" fill="#D8D3DA"/>
<path fill-rule="evenodd" clip-rule="evenodd" d="M29.4518 100.233H66.5748C66.8089 100.233 66.9986 100.043 66.9986 99.809V60.0334C66.9986 59.7993 66.8089 59.6096 66.5748 59.6096H29.4518C29.2178 59.6096 29.0281 59.7993 29.0281 60.0334V99.809C29.0281 100.043 29.2178 100.233 29.4518 100.233ZM66.1483 99.3854H29.8756V60.4572H66.1483V99.3854Z" fill="#D8D3DA"/>
<path fill-rule="evenodd" clip-rule="evenodd" d="M109.718 56.1408H146.841C147.075 56.1408 147.265 55.9511 147.265 55.717V15.7917C147.263 15.0408 146.654 14.4329 145.903 14.4329H109.718C109.484 14.4329 109.294 14.6226 109.294 14.8566V55.717C109.294 55.9511 109.484 56.1408 109.718 56.1408ZM146.417 55.2933H110.142V15.2804H145.903C146.186 15.2803 146.416 15.5088 146.417 15.7917V55.2933Z" fill="#D8D3DA"/>
<path fill-rule="evenodd" clip-rule="evenodd" d="M70.8744 56.1408H105.415C105.649 56.1408 105.839 55.9511 105.839 55.717V14.8566C105.839 14.6226 105.649 14.4329 105.415 14.4329H70.8744C70.6404 14.4329 70.4507 14.6226 70.4507 14.8566V55.717C70.4507 55.9511 70.6404 56.1408 70.8744 56.1408ZM104.992 55.2933H71.2953L71.2982 15.2804H104.992V55.2933Z" fill="#D8D3DA"/>
<path fill-rule="evenodd" clip-rule="evenodd" d="M66.5748 55.7169V14.8564H30.3869C29.8704 14.8564 29.4518 15.2751 29.4518 15.7915V55.7169H66.5748ZM146.841 187.694V148.167H109.718V188.626H145.903C146.151 188.627 146.389 188.529 146.565 188.354C146.741 188.18 146.84 187.942 146.841 187.694ZM70.8772 148.167H105.421V188.626H70.8772V148.167ZM66.5748 188.626V148.167H29.4518V187.694C29.4518 187.942 29.5504 188.179 29.7258 188.354C29.9013 188.529 30.1391 188.627 30.3868 188.626H66.5748ZM109.718 104.092H146.841V143.873H109.718V104.092ZM105.421 104.092H70.8772V143.873H105.421V104.092ZM29.4518 104.092H66.5748V143.873H29.4518V104.092ZM146.841 60.0193H109.718V99.795H146.841V60.0193ZM70.8772 60.0193H105.421V99.795H70.8772V60.0193ZM66.5748 60.0193H29.4518V99.795H66.5748V60.0193ZM146.841 15.7915V55.7169H109.718V14.8565H145.903C146.42 14.8565 146.839 15.2747 146.841 15.7915ZM105.421 14.8565H70.8772V55.7197H105.421V14.8565Z" fill="white"/>
<mask id="mask1_152_4602" style="mask-type:alpha" maskUnits="userSpaceOnUse" x="29" y="14" width="118" height="175">
<path fill-rule="evenodd" clip-rule="evenodd" d="M66.5748 55.7169V14.8564H30.3869C29.8704 14.8564 29.4518 15.2751 29.4518 15.7915V55.7169H66.5748ZM146.841 187.694V148.167H109.718V188.626H145.903C146.151 188.627 146.389 188.529 146.565 188.354C146.741 188.18 146.84 187.942 146.841 187.694ZM70.8772 148.167H105.421V188.626H70.8772V148.167ZM66.5748 188.626V148.167H29.4518V187.694C29.4518 187.942 29.5504 188.179 29.7258 188.354C29.9013 188.529 30.1391 188.627 30.3868 188.626H66.5748ZM109.718 104.092H146.841V143.873H109.718V104.092ZM105.421 104.092H70.8772V143.873H105.421V104.092ZM29.4518 104.092H66.5748V143.873H29.4518V104.092ZM146.841 60.0193H109.718V99.795H146.841V60.0193ZM70.8772 60.0193H105.421V99.795H70.8772V60.0193ZM66.5748 60.0193H29.4518V99.795H66.5748V60.0193ZM146.841 15.7915V55.7169H109.718V14.8565H145.903C146.42 14.8565 146.839 15.2747 146.841 15.7915ZM105.421 14.8565H70.8772V55.7197H105.421V14.8565Z" fill="white"/>
</mask>
<g mask="url(#mask1_152_4602)">
<rect x="35.7599" y="130.502" width="38.9338" height="62.6551" fill="white"/>
<path fill-rule="evenodd" clip-rule="evenodd" d="M35.7599 193.578H74.6937C74.9278 193.578 75.1175 193.389 75.1175 193.155V130.502C75.1175 130.268 74.9278 130.079 74.6937 130.079H35.7599C35.5259 130.079 35.3362 130.268 35.3362 130.502V193.155C35.3362 193.389 35.5259 193.578 35.7599 193.578ZM74.27 192.731H36.1837V130.926H74.27V192.731Z" fill="#D8D3DA"/>
<rect x="33.4124" y="126.005" width="43.6289" height="4.49454" rx="0.576295" fill="white"/>
<path fill-rule="evenodd" clip-rule="evenodd" d="M33.9887 130.926H76.465C77.0173 130.926 77.4651 130.478 77.4651 129.926V126.581C77.4651 126.029 77.0173 125.581 76.465 125.581H33.9887C33.437 125.583 32.9902 126.03 32.9886 126.581V129.926C32.9902 130.478 33.437 130.925 33.9887 130.926ZM33.8361 126.581C33.8361 126.497 33.9044 126.429 33.9887 126.429H76.465C76.5493 126.429 76.6176 126.497 76.6176 126.581V129.926C76.6176 130.01 76.5493 130.079 76.465 130.079H33.9887C33.9044 130.079 33.8361 130.01 33.8361 129.926V126.581Z" fill="#D8D3DA"/>
<rect x="43.5004" y="176.804" width="6.62739" height="13.6729" fill="white"/>
<path fill-rule="evenodd" clip-rule="evenodd" d="M43.5003 190.915H50.1277C50.3618 190.915 50.5515 190.725 50.5515 190.491V176.818C50.5515 176.584 50.3618 176.394 50.1277 176.394H43.5003C43.2663 176.394 43.0766 176.584 43.0766 176.818V190.491C43.0766 190.725 43.2663 190.915 43.5003 190.915ZM49.6927 190.067H43.9128V177.242H49.6927V190.067Z" fill="#D8D3DA"/>
<path d="M50.1278 182.513H43.5004C43.2664 182.513 43.0767 182.323 43.0767 182.089C43.0767 181.855 43.2664 181.666 43.5004 181.666H50.1278C50.3618 181.666 50.5515 181.855 50.5515 182.089C50.5515 182.323 50.3618 182.513 50.1278 182.513Z" fill="#D8D3DA"/>
<rect x="60.3259" y="176.804" width="6.62739" height="13.6729" fill="white"/>
<path fill-rule="evenodd" clip-rule="evenodd" d="M60.326 190.915H66.9534C67.1874 190.915 67.3771 190.725 67.3771 190.491V176.818C67.3771 176.584 67.1874 176.394 66.9534 176.394H60.326C60.0919 176.394 59.9022 176.584 59.9022 176.818V190.491C59.9022 190.725 60.0919 190.915 60.326 190.915ZM66.5183 190.067H60.7384V177.242H66.5183V190.067Z" fill="#D8D3DA"/>
<path d="M66.9534 182.513H60.326C60.0919 182.513 59.9022 182.323 59.9022 182.089C59.9022 181.855 60.0919 181.666 60.326 181.666H66.9534C67.1874 181.666 67.3771 181.855 67.3771 182.089C67.3771 182.323 67.1874 182.513 66.9534 182.513Z" fill="#D8D3DA"/>
<rect x="43.4552" y="135.392" width="6.62739" height="13.6729" fill="white"/>
<path fill-rule="evenodd" clip-rule="evenodd" d="M43.4552 149.489H50.0826C50.3166 149.489 50.5063 149.299 50.5063 149.065V135.392C50.5063 135.158 50.3166 134.969 50.0826 134.969H43.4552C43.2212 134.969 43.0314 135.158 43.0314 135.392V149.065C43.0314 149.299 43.2212 149.489 43.4552 149.489ZM49.6475 148.642H43.8676V135.827H49.6475V148.642Z" fill="#D8D3DA"/>
<path d="M50.0826 141.099H43.4552C43.2212 141.099 43.0314 140.909 43.0314 140.675C43.0314 140.441 43.2212 140.251 43.4552 140.251H50.0826C50.3166 140.251 50.5063 140.441 50.5063 140.675C50.5063 140.909 50.3166 141.099 50.0826 141.099Z" fill="#D8D3DA"/>
<rect x="60.2808" y="135.392" width="6.62739" height="13.6729" fill="white"/>
<path fill-rule="evenodd" clip-rule="evenodd" d="M60.2807 149.489H66.9081C67.1422 149.489 67.3319 149.299 67.3319 149.065V135.392C67.3319 135.158 67.1422 134.969 66.9081 134.969H60.2807C60.0467 134.969 59.857 135.158 59.857 135.392V149.065C59.857 149.299 60.0467 149.489 60.2807 149.489ZM66.4731 148.642H60.6932V135.827H66.4731V148.642Z" fill="#D8D3DA"/>
<path d="M66.9081 141.099H60.2807C60.0467 141.099 59.857 140.909 59.857 140.675C59.857 140.441 60.0467 140.251 60.2807 140.251H66.9081C67.1422 140.251 67.3319 140.441 67.3319 140.675C67.3319 140.909 67.1422 141.099 66.9081 141.099Z" fill="#D8D3DA"/>
<rect x="43.4552" y="156.178" width="6.62739" height="13.6729" fill="white"/>
<path fill-rule="evenodd" clip-rule="evenodd" d="M43.4552 170.275H50.0826C50.1969 170.275 50.3065 170.229 50.3863 170.147C50.4661 170.065 50.5094 169.954 50.5063 169.84V156.167C50.5063 155.933 50.3166 155.743 50.0826 155.743H43.4552C43.2212 155.743 43.0314 155.933 43.0314 156.167V169.851C43.0314 170.085 43.2212 170.275 43.4552 170.275ZM49.6475 169.428H43.8676V156.602H49.6475V169.428Z" fill="#D8D3DA"/>
<path d="M50.0826 161.888H43.4552C43.2212 161.888 43.0314 161.698 43.0314 161.464C43.0314 161.23 43.2212 161.04 43.4552 161.04H50.0826C50.3166 161.04 50.5063 161.23 50.5063 161.464C50.5063 161.698 50.3166 161.888 50.0826 161.888Z" fill="#D8D3DA"/>
<rect x="60.2808" y="156.178" width="6.62739" height="13.6729" fill="white"/>
<path fill-rule="evenodd" clip-rule="evenodd" d="M60.2807 170.275H66.9081C67.0225 170.275 67.132 170.229 67.2118 170.147C67.2916 170.065 67.3349 169.954 67.3319 169.84V156.167C67.3319 155.933 67.1422 155.743 66.9081 155.743H60.2807C60.0467 155.743 59.857 155.933 59.857 156.167V169.851C59.857 170.085 60.0467 170.275 60.2807 170.275ZM66.4731 169.428H60.6932V156.602H66.4731V169.428Z" fill="#D8D3DA"/>
<path d="M66.9081 161.888H60.2807C60.0467 161.888 59.857 161.698 59.857 161.464C59.857 161.23 60.0467 161.04 60.2807 161.04H66.9081C67.1422 161.04 67.3319 161.23 67.3319 161.464C67.3319 161.698 67.1422 161.888 66.9081 161.888Z" fill="#D8D3DA"/>
<rect x="42.5258" y="168.693" width="8.68962" height="1.85318" fill="white"/>
<path fill-rule="evenodd" clip-rule="evenodd" d="M42.5229 170.97H51.2154C51.4494 170.97 51.6391 170.78 51.6391 170.546V168.693C51.6391 168.459 51.4494 168.27 51.2154 168.27H42.5229C42.2889 168.27 42.0992 168.459 42.0992 168.693V170.546C42.0992 170.78 42.2889 170.97 42.5229 170.97ZM50.7916 170.123H42.9467V169.117H50.7916V170.123Z" fill="#D8D3DA"/>
<rect x="59.1168" y="168.693" width="8.68962" height="1.85318" fill="white"/>
<path fill-rule="evenodd" clip-rule="evenodd" d="M59.1169 170.97H67.8065C68.0405 170.97 68.2302 170.78 68.2302 170.546V168.693C68.2302 168.459 68.0405 168.27 67.8065 168.27H59.1169C58.8828 168.27 58.6931 168.459 58.6931 168.693V170.546C58.6931 170.78 58.8828 170.97 59.1169 170.97ZM67.3827 170.123H59.5406V169.117H67.3827V170.123Z" fill="#D8D3DA"/>
<rect x="42.5258" y="147.805" width="8.68962" height="1.85318" fill="white"/>
<path fill-rule="evenodd" clip-rule="evenodd" d="M42.5229 150.082H51.2154C51.4451 150.082 51.633 149.899 51.6391 149.67V147.805C51.6391 147.571 51.4494 147.382 51.2154 147.382H42.5229C42.2889 147.382 42.0992 147.571 42.0992 147.805V149.659C42.0992 149.893 42.2889 150.082 42.5229 150.082ZM50.7916 149.235H42.9467V148.229H50.7916V149.235Z" fill="#D8D3DA"/>
<rect x="59.1168" y="147.805" width="8.68962" height="1.85318" fill="white"/>
<path fill-rule="evenodd" clip-rule="evenodd" d="M59.1169 150.082H67.8065C68.0362 150.082 68.2241 149.899 68.2302 149.67V147.805C68.2302 147.571 68.0405 147.382 67.8065 147.382H59.1169C58.8828 147.382 58.6931 147.571 58.6931 147.805V149.659C58.6931 149.893 58.8828 150.082 59.1169 150.082ZM67.3827 149.235H59.5406V148.229H67.3827V149.235Z" fill="#D8D3DA"/>
<rect x="39.5934" y="121.655" width="13.4186" height="4.35046" fill="white"/>
<path fill-rule="evenodd" clip-rule="evenodd" d="M39.5934 126.429H53.0092C53.2433 126.429 53.433 126.239 53.433 126.005V121.654C53.433 121.42 53.2433 121.231 53.0092 121.231H39.5934C39.3594 121.231 39.1697 121.42 39.1697 121.654V126.005C39.1697 126.239 39.3594 126.429 39.5934 126.429ZM52.5883 125.581H40.0144L40.0172 122.078H52.5883V125.581Z" fill="#D8D3DA"/>
<path d="M42.7461 126.276C42.5121 126.276 42.3224 126.086 42.3224 125.852V121.654C42.3224 121.42 42.5121 121.231 42.7461 121.231C42.9802 121.231 43.1699 121.42 43.1699 121.654V125.852C43.1699 125.965 43.1252 126.073 43.0458 126.152C42.9663 126.231 42.8585 126.276 42.7461 126.276Z" fill="#D8D3DA"/>
<path d="M46.2999 126.429C46.0659 126.429 45.8762 126.239 45.8762 126.005V121.654C45.8762 121.42 46.0659 121.231 46.2999 121.231C46.5339 121.231 46.7237 121.42 46.7237 121.654V126.005C46.7237 126.239 46.5339 126.429 46.2999 126.429Z" fill="#D8D3DA"/>
<path d="M49.7944 126.276C49.5604 126.276 49.3707 126.086 49.3707 125.852V121.654C49.3707 121.42 49.5604 121.231 49.7944 121.231C50.0284 121.231 50.2182 121.42 50.2182 121.654V125.852C50.2182 126.086 50.0284 126.276 49.7944 126.276Z" fill="#D8D3DA"/>
<path d="M146.889 91.2183V187.866C146.892 188.357 146.498 188.757 146.007 188.762H82.632V91.2183H146.889Z" fill="white"/>
<path fill-rule="evenodd" clip-rule="evenodd" d="M82.6319 189.186H146.007C146.732 189.181 147.316 188.591 147.313 187.866V91.2182C147.313 90.9842 147.123 90.7944 146.889 90.7944H82.6319C82.3979 90.7944 82.2082 90.9842 82.2082 91.2182V188.762C82.2082 188.996 82.3979 189.186 82.6319 189.186ZM146.007 188.338H83.0557V91.6418H146.465V187.866C146.468 188.122 146.264 188.333 146.007 188.338Z" fill="#D8D3DA"/>
<rect x="80.3211" y="109.869" width="70.5425" height="5.2601" fill="white"/>
<path fill-rule="evenodd" clip-rule="evenodd" d="M80.3211 115.553H150.864C151.098 115.553 151.287 115.363 151.287 115.129V109.869C151.287 109.635 151.098 109.445 150.864 109.445H80.3211C80.0871 109.445 79.8973 109.635 79.8973 109.869V115.129C79.8973 115.363 80.0871 115.553 80.3211 115.553ZM150.44 114.705H80.7448V110.293H150.44V114.705Z" fill="#D8D3DA"/>
<rect x="92.8358" y="96.3174" width="4.30526" height="7.65286" fill="white"/>
<path fill-rule="evenodd" clip-rule="evenodd" d="M92.8358 104.394H97.1382C97.3723 104.394 97.562 104.204 97.562 103.97V96.3175C97.562 96.0835 97.3723 95.8938 97.1382 95.8938H92.8358C92.6018 95.8938 92.412 96.0835 92.412 96.3175V103.97C92.412 104.204 92.6018 104.394 92.8358 104.394ZM96.7145 103.547H93.2595L93.268 96.7413H96.7145V103.547Z" fill="#D8D3DA"/>
<rect x="104.554" y="96.3174" width="4.30526" height="7.65286" fill="white"/>
<path fill-rule="evenodd" clip-rule="evenodd" d="M104.551 104.394H108.856C109.09 104.394 109.28 104.204 109.28 103.97V96.3175C109.28 96.0835 109.09 95.8938 108.856 95.8938H104.551C104.317 95.8938 104.127 96.0835 104.127 96.3175V103.97C104.127 104.204 104.317 104.394 104.551 104.394ZM108.432 103.547H104.975V96.7413H108.432V103.547Z" fill="#D8D3DA"/>
<rect x="116.19" y="96.3174" width="4.30526" height="7.65286" fill="white"/>
<path fill-rule="evenodd" clip-rule="evenodd" d="M116.19 104.394H120.492C120.726 104.394 120.916 104.204 120.916 103.97V96.3175C120.916 96.0835 120.726 95.8938 120.492 95.8938H116.19C115.956 95.8938 115.766 96.0835 115.766 96.3175V103.97C115.766 104.204 115.956 104.394 116.19 104.394ZM120.069 103.547H116.614V96.7413H120.069V103.547Z" fill="#D8D3DA"/>
<rect x="128.543" y="96.3174" width="4.30526" height="7.65286" fill="white"/>
<path fill-rule="evenodd" clip-rule="evenodd" d="M128.543 104.394H132.849C133.083 104.394 133.272 104.204 133.272 103.97V96.3175C133.272 96.0835 133.083 95.8938 132.849 95.8938H128.543C128.309 95.8938 128.12 96.0835 128.12 96.3175V103.97C128.12 104.204 128.309 104.394 128.543 104.394ZM132.425 103.547H128.967V96.7413H132.425V103.547Z" fill="#D8D3DA"/>
<rect x="140.261" y="96.3174" width="4.30526" height="7.65286" fill="white"/>
<path fill-rule="evenodd" clip-rule="evenodd" d="M140.261 104.394H144.564C144.798 104.394 144.988 104.204 144.988 103.97V96.3175C144.988 96.0835 144.798 95.8938 144.564 95.8938H140.261C140.027 95.8938 139.838 96.0835 139.838 96.3175V103.97C139.838 104.204 140.027 104.394 140.261 104.394ZM144.14 103.547H140.685V96.7413H144.14V103.547Z" fill="#D8D3DA"/>
<rect x="80.1629" y="86.1165" width="66.7259" height="5.10191" fill="white"/>
<path fill-rule="evenodd" clip-rule="evenodd" d="M80.1601 91.642H146.889C147.003 91.642 147.112 91.5962 147.191 91.5149C147.271 91.4336 147.315 91.3236 147.313 91.2097V86.1078C147.313 85.8738 147.123 85.6841 146.889 85.6841H80.1601C79.926 85.6841 79.7363 85.8738 79.7363 86.1078V91.2182C79.7363 91.4522 79.926 91.642 80.1601 91.642ZM146.465 90.7946H80.5838V86.5402H146.465V90.7946Z" fill="#D8D3DA"/>
<path d="M113.89 86.1079V80.9552C113.89 80.6193 114.162 80.3465 114.498 80.345H118.961C119.329 80.345 119.628 80.0465 119.628 79.6783V72.7571C119.627 72.6195 119.681 72.4873 119.778 72.3897C119.875 72.2922 120.007 72.2373 120.145 72.2373H129.145C129.283 72.2373 129.415 72.2922 129.512 72.3897C129.609 72.4873 129.663 72.6195 129.662 72.7571V77.2601L137.29 77.3307C137.752 77.3384 138.123 77.7156 138.123 78.1782V86.1079H113.89Z" fill="white"/>
<path fill-rule="evenodd" clip-rule="evenodd" d="M113.89 86.5401H138.109C138.223 86.5409 138.333 86.4955 138.413 86.4141C138.494 86.3327 138.538 86.2223 138.535 86.1079V78.181C138.534 77.4882 137.977 76.9247 137.284 76.9155L130.086 76.8477V72.7656C130.086 72.2456 129.665 71.8236 129.145 71.822H120.145C119.625 71.8236 119.204 72.2456 119.204 72.7656V79.6868C119.205 79.7514 119.179 79.8137 119.134 79.8594C119.088 79.9051 119.026 79.9305 118.961 79.9297H114.498C113.928 79.9313 113.467 80.3937 113.467 80.9636V86.1164C113.467 86.3504 113.656 86.5401 113.89 86.5401ZM137.685 85.6927H114.303V80.9637C114.302 80.9145 114.321 80.8671 114.355 80.832C114.39 80.797 114.437 80.7772 114.486 80.7772H118.95C119.552 80.7772 120.04 80.289 120.04 79.6868V72.7656C120.04 72.7137 120.082 72.6711 120.133 72.6696H129.131C129.183 72.6711 129.224 72.7137 129.224 72.7656V77.2686C129.224 77.5016 129.412 77.6908 129.645 77.6924L137.273 77.763C137.501 77.7676 137.684 77.953 137.685 78.1811V85.6927Z" fill="#D8D3DA"/>
<rect x="143.451" y="82.5286" width="3.58772" height="3.58772" fill="white"/>
<path fill-rule="evenodd" clip-rule="evenodd" d="M143.448 86.5402H147.036C147.15 86.5402 147.259 86.4944 147.338 86.4131C147.418 86.3318 147.462 86.2218 147.46 86.108V82.5287C147.46 82.2947 147.27 82.105 147.036 82.105H143.448C143.214 82.105 143.024 82.2947 143.024 82.5287V86.1164C143.024 86.3505 143.214 86.5402 143.448 86.5402ZM146.612 85.6927H143.872V82.9524H146.612V85.6927Z" fill="#D8D3DA"/>
<path d="M80.1629 118.078H92.4007C92.6888 118.078 92.975 118.031 93.2482 117.94L111.475 111.762C111.743 111.67 112.034 111.67 112.303 111.762L130.408 117.977C130.6 118.042 130.801 118.075 131.004 118.075H142.536C142.694 118.075 142.846 118.139 142.958 118.251C143.07 118.363 143.132 118.516 143.132 118.674V123.056C143.132 123.214 143.07 123.367 142.958 123.479C142.846 123.592 142.694 123.655 142.536 123.655H80.1629C79.7225 123.655 79.365 123.298 79.3635 122.858V118.878C79.3635 118.436 79.7214 118.078 80.1629 118.078Z" fill="white"/>
<path fill-rule="evenodd" clip-rule="evenodd" d="M80.1629 124.081H142.533C143.096 124.08 143.553 123.622 143.553 123.058V118.677C143.553 118.113 143.096 117.656 142.533 117.654H131.001C130.845 117.654 130.691 117.628 130.544 117.578L112.435 111.363C112.078 111.243 111.691 111.243 111.334 111.363L93.1098 117.541C92.8812 117.618 92.6418 117.657 92.4007 117.657H80.1629C79.4885 117.657 78.9413 118.203 78.9397 118.877V122.861C78.9413 123.535 79.4885 124.081 80.1629 124.081ZM79.7872 118.875C79.7887 118.668 79.9565 118.502 80.1629 118.502L92.3894 118.505C92.7228 118.505 93.0539 118.45 93.3697 118.343L111.596 112.165C111.779 112.102 111.978 112.102 112.161 112.165L130.269 118.38C130.505 118.46 130.752 118.501 131.001 118.502H142.533C142.579 118.502 142.623 118.52 142.656 118.553C142.688 118.586 142.706 118.631 142.705 118.677V123.058C142.706 123.105 142.688 123.149 142.656 123.182C142.623 123.215 142.579 123.234 142.533 123.234H80.1629C79.9565 123.234 79.7887 123.067 79.7872 122.861V118.875Z" fill="#D8D3DA"/>
<rect x="89.6464" y="128.121" width="7.81106" height="3.98604" fill="white"/>
<path fill-rule="evenodd" clip-rule="evenodd" d="M89.6463 132.531H97.4574C97.6914 132.531 97.8811 132.341 97.8811 132.107V128.121C97.8811 127.887 97.6914 127.697 97.4574 127.697H89.6463C89.4123 127.697 89.2226 127.887 89.2226 128.121V132.107C89.2226 132.341 89.4123 132.531 89.6463 132.531ZM97.0337 131.683H90.0701V128.545H97.0337V131.683Z" fill="#D8D3DA"/>
<rect x="91.4797" y="132.107" width="4.06514" height="22.7156" fill="white"/>
<path fill-rule="evenodd" clip-rule="evenodd" d="M91.4798 155.246H95.5449C95.7789 155.246 95.9687 155.057 95.9687 154.822V132.107C95.9687 131.873 95.7789 131.683 95.5449 131.683H91.4798C91.2457 131.683 91.056 131.873 91.056 132.107V154.822C91.056 155.057 91.2457 155.246 91.4798 155.246ZM95.1211 154.399H91.9035V132.531H95.1211V154.399Z" fill="#D8D3DA"/>
<path d="M97.4574 155.246H89.6463C89.4123 155.246 89.2226 155.057 89.2226 154.823C89.2226 154.589 89.4123 154.399 89.6463 154.399H97.4574C97.6914 154.399 97.8811 154.589 97.8811 154.823C97.8811 155.057 97.6914 155.246 97.4574 155.246Z" fill="#D8D3DA"/>
<rect x="125.038" y="128.121" width="7.81106" height="3.98604" fill="white"/>
<path fill-rule="evenodd" clip-rule="evenodd" d="M125.038 132.531H132.849C133.083 132.531 133.272 132.341 133.272 132.107V128.121C133.272 127.887 133.083 127.697 132.849 127.697H125.038C124.804 127.697 124.614 127.887 124.614 128.121V132.107C124.614 132.341 124.804 132.531 125.038 132.531ZM132.425 131.683H125.461L125.473 128.545H132.425V131.683Z" fill="#D8D3DA"/>
<rect x="126.871" y="132.107" width="4.06514" height="22.7156" fill="white"/>
<path fill-rule="evenodd" clip-rule="evenodd" d="M126.885 155.246H130.936C131.051 155.25 131.162 155.207 131.245 155.127C131.328 155.047 131.374 154.937 131.374 154.822V132.107C131.374 131.873 131.184 131.683 130.95 131.683H126.885C126.651 131.683 126.461 131.873 126.461 132.107V154.822C126.461 155.057 126.651 155.246 126.885 155.246ZM130.512 154.399H127.295V132.531H130.512V154.399Z" fill="#D8D3DA"/>
<path d="M132.849 155.246H125.038C124.804 155.246 124.614 155.057 124.614 154.823C124.614 154.589 124.804 154.399 125.038 154.399H132.849C133.083 154.399 133.272 154.589 133.272 154.823C133.272 155.057 133.083 155.246 132.849 155.246Z" fill="#D8D3DA"/>
<rect x="104.992" y="128.121" width="12.5146" height="3.98604" fill="white"/>
<path fill-rule="evenodd" clip-rule="evenodd" d="M104.992 132.531H117.503C117.737 132.531 117.927 132.341 117.927 132.107V128.121C117.927 127.887 117.737 127.697 117.503 127.697H104.992C104.758 127.697 104.568 127.887 104.568 128.121V132.107C104.568 132.341 104.758 132.531 104.992 132.531ZM117.08 131.683H105.415V128.545H117.08V131.683Z" fill="#D8D3DA"/>
<rect x="107.184" y="132.107" width="8.13028" height="22.7156" fill="white"/>
<path fill-rule="evenodd" clip-rule="evenodd" d="M107.173 155.246H115.303C115.537 155.246 115.727 155.057 115.727 154.822V132.107C115.727 131.873 115.537 131.683 115.303 131.683H107.173C106.938 131.683 106.749 131.873 106.749 132.107V154.822C106.749 155.057 106.938 155.246 107.173 155.246ZM114.879 154.399H107.596V132.531H114.879V154.399Z" fill="#D8D3DA"/>
<path d="M117.543 155.246H104.949C104.715 155.246 104.526 155.057 104.526 154.823C104.526 154.589 104.715 154.399 104.949 154.399H117.543C117.777 154.399 117.967 154.589 117.967 154.823C117.967 155.057 117.777 155.246 117.543 155.246Z" fill="#D8D3DA"/>
<rect x="89.5673" y="166.86" width="7.81106" height="3.98604" fill="white"/>
<path fill-rule="evenodd" clip-rule="evenodd" d="M89.5672 171.267H97.3783C97.6069 171.267 97.7944 171.086 97.802 170.857V166.86C97.802 166.626 97.6123 166.436 97.3783 166.436H89.5672C89.3332 166.436 89.1435 166.626 89.1435 166.86V170.843C89.1435 171.077 89.3332 171.267 89.5672 171.267ZM96.9546 170.419H89.991V167.284H96.9546V170.419Z" fill="#D8D3DA"/>
<rect x="91.4006" y="170.846" width="4.06514" height="17.9188" fill="white"/>
<path fill-rule="evenodd" clip-rule="evenodd" d="M91.4007 189.186H95.4658C95.6944 189.186 95.8819 189.004 95.8896 188.776V170.857C95.8896 170.623 95.6998 170.433 95.4658 170.433H91.4007C91.1666 170.433 90.9769 170.623 90.9769 170.857V188.762C90.9769 188.996 91.1666 189.186 91.4007 189.186ZM95.0421 188.338H91.8244V171.267H95.0421V188.338Z" fill="#D8D3DA"/>
<rect x="124.959" y="166.86" width="7.81106" height="3.98604" fill="white"/>
<path fill-rule="evenodd" clip-rule="evenodd" d="M124.956 171.267H132.77C132.998 171.267 133.186 171.086 133.193 170.857V166.86C133.193 166.626 133.004 166.436 132.77 166.436H124.956C124.722 166.436 124.532 166.626 124.532 166.86V170.843C124.532 171.077 124.722 171.267 124.956 171.267ZM132.346 170.419H125.379V167.284H132.346V170.419Z" fill="#D8D3DA"/>
<rect x="126.792" y="170.846" width="4.06514" height="17.9188" fill="white"/>
<path fill-rule="evenodd" clip-rule="evenodd" d="M126.789 189.186H130.854C131.083 189.186 131.27 189.004 131.278 188.776V170.857C131.278 170.623 131.088 170.433 130.854 170.433H126.789C126.556 170.435 126.367 170.624 126.365 170.857V188.762C126.365 188.996 126.555 189.186 126.789 189.186ZM130.431 188.338H127.213V171.267H130.431V188.338Z" fill="#D8D3DA"/>
<rect x="104.913" y="166.86" width="12.5146" height="3.98604" fill="white"/>
<path fill-rule="evenodd" clip-rule="evenodd" d="M104.91 171.267H117.424C117.653 171.267 117.84 171.086 117.848 170.857V166.86C117.848 166.626 117.658 166.436 117.424 166.436H104.91C104.676 166.436 104.486 166.626 104.486 166.86V170.843C104.486 171.077 104.676 171.267 104.91 171.267ZM116.998 170.419H105.333L105.331 167.284H116.998V170.419Z" fill="#D8D3DA"/>
<rect x="107.102" y="170.846" width="8.13028" height="17.9188" fill="white"/>
<path fill-rule="evenodd" clip-rule="evenodd" d="M107.11 189.186H115.232C115.464 189.19 115.657 189.008 115.664 188.776V170.857C115.664 170.623 115.475 170.433 115.241 170.433H107.11C106.876 170.433 106.687 170.623 106.687 170.857V188.762C106.687 188.996 106.876 189.186 107.11 189.186ZM114.808 188.338H107.526V171.267H114.808V188.338Z" fill="#D8D3DA"/>
<rect x="80.242" y="158.45" width="59.7002" height="4.78268" fill="white"/>
<path fill-rule="evenodd" clip-rule="evenodd" d="M80.242 163.656H139.942C140.055 163.656 140.163 163.611 140.243 163.531C140.322 163.451 140.367 163.343 140.366 163.23V158.45C140.366 158.216 140.176 158.026 139.942 158.026H80.242C80.008 158.026 79.8182 158.216 79.8182 158.45V163.233C79.8182 163.467 80.008 163.656 80.242 163.656ZM139.518 162.809H80.6658V158.874H139.518V162.809Z" fill="#D8D3DA"/>
</g>
<path d="M139.942 189.186C139.708 189.186 139.518 188.996 139.518 188.762V123.658C139.518 123.424 139.708 123.234 139.942 123.234C140.176 123.234 140.366 123.424 140.366 123.658V188.762C140.366 188.996 140.176 189.186 139.942 189.186Z" fill="#D8D3DA"/>
<path fill-rule="evenodd" clip-rule="evenodd" d="M150.889 10.9605C150.635 10.7057 150.289 10.5625 149.929 10.5625H26.3613L26.2895 10.5644C25.9553 10.5821 25.6385 10.7229 25.401 10.9611C25.1471 11.2158 25.0053 11.5611 25.0053 11.9213V192.237L25.0072 192.308C25.0247 192.643 25.1641 192.959 25.401 193.197C25.6554 193.452 26.001 193.595 26.3613 193.595H149.929L149.989 193.594C150.711 193.562 151.287 192.967 151.287 192.237V11.9213L151.285 11.8495C151.268 11.5153 151.127 11.1983 150.889 10.9605ZM26.3613 11.41H149.929L149.974 11.412C150.093 11.4225 150.205 11.4745 150.29 11.5598C150.386 11.6557 150.44 11.7857 150.44 11.9213V192.237L150.438 192.279C150.417 192.541 150.197 192.748 149.929 192.748H26.3613L26.3165 192.746C26.1978 192.736 26.086 192.684 26.0012 192.599C25.9062 192.503 25.8528 192.373 25.8528 192.237V11.9213L25.8548 11.8761C25.8652 11.7563 25.9167 11.6442 26.0012 11.5595C26.0966 11.4638 26.2262 11.41 26.3613 11.41ZM146.889 147.879C147.109 147.879 147.29 148.047 147.311 148.262L147.313 148.303L147.313 187.854C147.312 188.214 147.167 188.559 146.912 188.813C146.673 189.05 146.356 189.19 146.023 189.207L145.951 189.208H109.766C109.546 189.208 109.365 189.04 109.344 188.825L109.342 188.785V148.303C109.342 148.082 109.51 147.901 109.725 147.881L109.766 147.879H146.889ZM105.888 148.262C105.868 148.047 105.687 147.879 105.466 147.879H70.9225L70.8817 147.881C70.6668 147.901 70.4987 148.082 70.4987 148.303V188.776L70.5007 188.817C70.5212 189.032 70.7022 189.2 70.9225 189.2H105.466L105.507 189.198C105.722 189.177 105.89 188.996 105.89 188.776V148.303L105.888 148.262ZM66.6229 147.879C66.8431 147.879 67.0241 148.047 67.0447 148.262L67.0466 148.303V188.762C67.0466 188.982 66.8786 189.163 66.6637 189.184L66.6229 189.186H30.4349C29.7063 189.186 29.1113 188.612 29.0776 187.89L29.0761 187.83V148.303C29.0761 148.082 29.2442 147.901 29.4591 147.881L29.4999 147.879H66.6229ZM110.19 148.726H146.465V187.852L146.463 187.897C146.452 188.015 146.4 188.127 146.314 188.212L146.281 188.242C146.189 188.319 146.073 188.361 145.952 188.361H110.19V148.726ZM105.043 148.726H71.3462V188.352H105.043V148.726ZM29.9236 148.726H66.1991V188.338H30.4349L30.3931 188.337C30.1308 188.315 29.9244 188.096 29.9236 187.828L29.9236 148.726ZM146.889 103.804C147.109 103.804 147.29 103.972 147.311 104.187L147.313 104.227V144.028C147.313 144.249 147.145 144.43 146.93 144.45L146.889 144.452H109.766C109.546 144.452 109.365 144.284 109.344 144.069L109.342 144.028V104.227C109.342 104.007 109.51 103.826 109.725 103.806L109.766 103.804H146.889ZM105.888 104.187C105.868 103.972 105.687 103.804 105.466 103.804H70.9225L70.8817 103.806C70.6668 103.826 70.4987 104.007 70.4987 104.227V144.02L70.5007 144.061C70.5212 144.276 70.7022 144.444 70.9225 144.444H105.466L105.507 144.442C105.722 144.421 105.89 144.24 105.89 144.02V104.227L105.888 104.187ZM66.6229 103.804C66.8431 103.804 67.0241 103.972 67.0447 104.187L67.0466 104.227V144.006C67.0466 144.226 66.8786 144.407 66.6637 144.428L66.6229 144.43H29.4999C29.2796 144.43 29.0986 144.262 29.0781 144.047L29.0761 144.006V104.227C29.0761 104.007 29.2442 103.826 29.4591 103.806L29.4999 103.804H66.6229ZM110.19 104.651H146.465V143.604H110.19V104.651ZM105.043 104.651H71.3462V143.596H105.043V104.651ZM29.9236 104.651H66.1991V143.582H29.9236V104.651ZM146.889 59.7594C147.109 59.7594 147.29 59.9275 147.311 60.1424L147.313 60.1832V99.9588C147.313 100.179 147.145 100.36 146.93 100.381L146.889 100.383H109.766C109.546 100.383 109.365 100.215 109.344 99.9996L109.342 99.9588V60.1832C109.342 59.9629 109.51 59.7819 109.725 59.7614L109.766 59.7594H146.889ZM105.888 60.134C105.868 59.9191 105.687 59.751 105.466 59.751H70.9225L70.8817 59.753C70.6668 59.7735 70.4987 59.9545 70.4987 60.1748V99.9504L70.5007 99.9912C70.5212 100.206 70.7022 100.374 70.9225 100.374H105.466L105.507 100.372C105.722 100.352 105.89 100.171 105.89 99.9504V60.1748L105.888 60.134ZM66.6229 59.7369C66.8431 59.7369 67.0241 59.9049 67.0447 60.1198L67.0466 60.1606V99.9363C67.0466 100.157 66.8786 100.338 66.6637 100.358L66.6229 100.36H29.4999C29.2796 100.36 29.0986 100.192 29.0781 99.9771L29.0761 99.9363V60.1606C29.0761 59.9404 29.2442 59.7594 29.4591 59.7388L29.4999 59.7369H66.6229ZM110.19 60.6067H146.465V99.5348H110.19V60.6067ZM105.043 60.5982H71.3462V99.5263H105.043V60.5982ZM29.9236 60.5841H66.1991V99.5123H29.9236V60.5841ZM66.6229 14.5655C66.8431 14.5655 67.0241 14.7335 67.0447 14.9484L67.0466 14.9892V55.8666C67.0466 56.0869 66.8786 56.2679 66.6637 56.2884L66.6229 56.2904H29.4999C29.2796 56.2904 29.0986 56.1223 29.0781 55.9074L29.0761 55.8666V15.9271C29.0761 15.197 29.6509 14.6008 30.3743 14.567L30.4349 14.5655H66.6229ZM147.311 15.8665C147.28 15.1426 146.683 14.5655 145.951 14.5655H109.766L109.725 14.5674C109.51 14.588 109.342 14.769 109.342 14.9892V55.8525L109.344 55.8933C109.365 56.1082 109.546 56.2762 109.766 56.2762H146.889L146.93 56.2743C147.145 56.2538 147.313 56.0728 147.313 55.8525V15.9271L147.311 15.8665ZM105.466 14.5655C105.687 14.5655 105.868 14.7335 105.888 14.9484L105.89 14.9892V55.8525C105.89 56.0728 105.722 56.2538 105.507 56.2743L105.466 56.2762H70.9225C70.7022 56.2762 70.5212 56.1082 70.5007 55.8933L70.4987 55.8525V14.9892C70.4987 14.769 70.6668 14.588 70.8817 14.5674L70.9225 14.5655H105.466ZM30.4362 15.413L66.1991 15.4127V55.4426H29.9236V15.9271L29.9253 15.8851C29.9467 15.6214 30.167 15.4138 30.4362 15.413ZM145.951 15.413L110.19 15.4127V55.4285H146.465V15.9271C146.465 15.6574 146.257 15.4361 145.993 15.4147L145.951 15.413ZM71.3462 15.4127H105.043V55.4285H71.3462V15.4127Z" fill="#D8D3DA"/>
<path d="M210.805 46.7804C221.155 46.7804 229.546 38.3898 229.546 28.0395C229.546 17.6892 221.155 9.29858 210.805 9.29858C200.455 9.29858 192.064 17.6892 192.064 28.0395C192.064 38.3898 200.455 46.7804 210.805 46.7804Z" fill="white"/>
<path fill-rule="evenodd" clip-rule="evenodd" d="M191.646 28.0394C191.646 38.6237 200.226 47.204 210.811 47.204C221.39 47.1916 229.963 38.6186 229.975 28.0394C229.975 17.4551 221.395 8.87476 210.811 8.87476C200.226 8.87476 191.646 17.4551 191.646 28.0394ZM192.494 28.0393C192.494 17.9231 200.694 9.7222 210.811 9.7222C220.923 9.73309 229.117 17.9276 229.128 28.0393C229.128 38.1556 220.927 46.3565 210.811 46.3565C200.694 46.3565 192.494 38.1556 192.494 28.0393Z" fill="#D8D3DA"/>
<path d="M217.836 34.1667C217.74 34.1663 217.646 34.1335 217.571 34.0735L210.537 28.3557C210.438 28.2758 210.381 28.1552 210.381 28.028V19.5192C210.381 19.2852 210.571 19.0955 210.805 19.0955C211.039 19.0955 211.229 19.2852 211.229 19.5192V27.8246L218.105 33.4153C218.245 33.5303 218.297 33.7222 218.233 33.8923C218.169 34.0624 218.004 34.1728 217.822 34.1667H217.836Z" fill="#D8D3DA"/>
<path fill-rule="evenodd" clip-rule="evenodd" d="M345.65 266.491C345.65 263.307 286.683 260.727 213.944 260.727C141.205 260.727 82.2386 263.307 82.2386 266.491C82.2386 269.675 141.205 272.255 213.944 272.255C286.683 272.255 345.65 269.675 345.65 266.491Z" fill="#BCE4F0"/>
<path fill-rule="evenodd" clip-rule="evenodd" d="M334.462 213.976C341.852 202.669 339.329 191.423 331.261 202.109C336.986 187.485 327.913 173.526 322.012 201.32C317.539 188.773 309.995 200.417 315.091 217.255C309.209 208.762 305.968 224.736 313.211 236.235L324.67 237.035C329.51 231.692 334.418 226.251 337.543 219.754C338.273 218.237 338.904 216.462 338.249 214.912C337.639 213.469 335.381 212.843 334.462 213.976Z" fill="#386795"/>
<path fill-rule="evenodd" clip-rule="evenodd" d="M344.434 218.297C354.159 207.957 348.006 200.694 338.31 211.739C338.025 201.986 329.502 209.958 329.072 219.635C328.776 218.373 327.616 217.208 326.416 217.281C324.619 217.389 323.232 219.158 322.266 220.944C320.034 225.073 318.9 231.227 319.117 236.113H336.885C345.411 233.072 342.773 228.243 338.785 229.837C345.333 228.778 354.649 214.572 344.434 218.297Z" fill="#4C7BB1"/>
<path fill-rule="evenodd" clip-rule="evenodd" d="M345.279 210.056C345.514 209.852 345.87 209.876 346.075 210.111C346.28 210.346 346.255 210.703 346.02 210.908C338.605 217.363 330.043 227.91 323.125 238.449C322.954 238.71 322.604 238.782 322.343 238.611C322.083 238.44 322.01 238.09 322.181 237.829C329.151 227.212 337.774 216.59 345.279 210.056Z" fill="#386795"/>
<path fill-rule="evenodd" clip-rule="evenodd" d="M333.554 265H311.752L308.249 236.19H337.058L333.554 265Z" fill="#ED8E93"/>
<path fill-rule="evenodd" clip-rule="evenodd" d="M336.369 241.293V242.422H309.049V241.293H336.369Z" fill="#D76D75"/>
<path fill-rule="evenodd" clip-rule="evenodd" d="M297.057 241.945H307.838L302.659 266.491H297.057V241.945Z" fill="#A55C72"/>
<path fill-rule="evenodd" clip-rule="evenodd" d="M115.837 241.945H105.418L110.424 266.491H115.837V241.945Z" fill="#A55C72"/>
<path fill-rule="evenodd" clip-rule="evenodd" d="M306.596 151.545C295.027 130.227 103.326 133.658 103.173 159.626C103.03 183.875 102.849 208.145 104.553 232.307L309.124 234.245C309.124 234.245 310.982 159.627 306.596 151.545Z" fill="#F0A95C"/>
<path fill-rule="evenodd" clip-rule="evenodd" d="M114.499 186.475H100.072C96.3463 186.475 93.2982 189.523 93.2982 193.248V248.62C93.2982 252.345 96.3463 255.394 100.072 255.394H121.273V193.248C121.273 189.523 118.224 186.475 114.499 186.475Z" fill="#F6C561"/>
<path fill-rule="evenodd" clip-rule="evenodd" d="M310.82 186.475H296.392C292.667 186.475 289.619 189.523 289.619 193.248V255.394H310.82C314.546 255.394 317.593 252.345 317.593 248.62V193.248C317.593 189.523 314.546 186.475 310.82 186.475Z" fill="#F6C561"/>
<path fill-rule="evenodd" clip-rule="evenodd" d="M290.017 210.482H122.611C118.886 210.482 115.838 213.53 115.838 217.256V248.62C115.838 252.345 118.886 255.393 122.611 255.393H290.017C293.743 255.393 296.791 252.345 296.791 248.62V217.256C296.791 213.53 293.743 210.482 290.017 210.482Z" fill="#F6C561"/>
<path fill-rule="evenodd" clip-rule="evenodd" d="M253.835 216.988H138.143C137.831 216.988 137.578 216.736 137.578 216.424C137.578 216.111 137.831 215.859 138.143 215.859H253.835C254.147 215.859 254.4 216.111 254.4 216.424C254.4 216.736 254.147 216.988 253.835 216.988Z" fill="#F0A95C"/>
<path fill-rule="evenodd" clip-rule="evenodd" d="M122.611 255.958C118.565 255.958 115.273 252.666 115.273 248.62V217.256C115.273 213.209 118.565 209.917 122.611 209.917C122.923 209.917 123.175 210.17 123.175 210.482C123.175 210.794 122.923 211.046 122.611 211.046C119.188 211.046 116.402 213.831 116.402 217.256V248.62C116.402 252.043 119.188 254.829 122.611 254.829C122.923 254.829 123.175 255.081 123.175 255.393C123.175 255.705 122.923 255.958 122.611 255.958Z" fill="#F0A95C"/>
<path fill-rule="evenodd" clip-rule="evenodd" d="M147.622 170.1C131.835 172.731 117.893 177.596 104.507 186.079C97.9058 186.955 101.015 191.662 104.997 192.557C111.385 203.754 120.028 214.632 130.087 222.958C131.418 229.616 135.392 230.135 138.254 224.254C154.75 221.213 170.484 217.479 184.431 208.463C189.33 207.467 190.215 203.998 183.981 201.653C171.455 183.58 156.885 173.923 147.622 170.1Z" fill="white"/>
<path fill-rule="evenodd" clip-rule="evenodd" d="M152.656 206.98C152.644 206.98 152.633 206.979 152.621 206.979C141.861 206.342 131.356 202.214 123.041 195.355C122.8 195.157 122.767 194.801 122.965 194.56C123.163 194.32 123.518 194.286 123.76 194.484C131.891 201.192 142.165 205.229 152.689 205.852C152.999 205.87 153.237 206.138 153.218 206.449C153.201 206.749 152.952 206.98 152.656 206.98Z" fill="#BCE4F0"/>
<path fill-rule="evenodd" clip-rule="evenodd" d="M140.681 198.833C140.616 198.833 140.55 198.822 140.485 198.798C136.635 197.375 133.021 195.401 129.743 192.931C129.495 192.743 129.445 192.389 129.632 192.141C129.82 191.892 130.174 191.841 130.423 192.029C133.612 194.433 137.129 196.354 140.876 197.739C141.168 197.848 141.318 198.172 141.21 198.465C141.126 198.692 140.91 198.833 140.681 198.833Z" fill="#BCE4F0"/>
<path fill-rule="evenodd" clip-rule="evenodd" d="M290.017 255.958C289.705 255.958 289.453 255.705 289.453 255.393C289.453 255.081 289.705 254.829 290.017 254.829C293.44 254.829 296.226 252.043 296.226 248.62V217.256C296.226 213.831 293.44 211.046 290.017 211.046C289.705 211.046 289.453 210.794 289.453 210.482C289.453 210.17 289.705 209.917 290.017 209.917C294.063 209.917 297.355 213.209 297.355 217.256V248.62C297.355 252.666 294.063 255.958 290.017 255.958Z" fill="#F0A95C"/>
<path fill-rule="evenodd" clip-rule="evenodd" d="M160.7 110.999L153.26 117.203C152.594 117.759 152.504 118.749 153.06 119.414L165.431 134.252C165.987 134.918 166.976 135.007 167.643 134.452L175.082 128.248C175.748 127.693 175.838 126.703 175.283 126.037L162.911 111.2C162.356 110.534 161.366 110.445 160.7 110.999Z" fill="#353D59"/>
<path fill-rule="evenodd" clip-rule="evenodd" d="M207.896 141.141C202.66 140.581 197.774 140.316 193.351 140.266L195.13 159.485C195.13 159.485 229.314 157.567 231.598 150.123L207.896 141.141Z" fill="#F7C7B5"/>
<path fill-rule="evenodd" clip-rule="evenodd" d="M231.598 150.124C234.674 133.136 197.767 123.695 183.638 120.311C178.326 119.039 173.181 116.927 168.043 118.875C165.925 119.678 162.842 122.858 163.267 123.204C163.692 123.551 168.44 120.559 168.44 120.559C168.44 120.559 164.005 124.263 164.379 124.651C164.752 125.04 169.729 121.914 169.729 121.914C169.729 121.914 165.297 125.462 165.707 125.819C166.117 126.178 170.736 123.441 170.736 123.441C170.736 123.441 167.001 126.477 167.441 126.921C167.882 127.364 170.738 125.552 172.307 124.602C188.792 131.128 215.441 147.964 231.598 150.124Z" fill="#F7C7B5"/>
<path fill-rule="evenodd" clip-rule="evenodd" d="M205.11 140.46C205.24 140.176 205.575 140.051 205.858 140.181L216.49 145.049C216.773 145.178 216.898 145.513 216.768 145.797C216.638 146.08 216.303 146.205 216.02 146.075L205.388 141.208C205.105 141.078 204.98 140.743 205.11 140.46Z" fill="#E0A797"/>
<path fill-rule="evenodd" clip-rule="evenodd" d="M126.215 162.264C119.636 163.934 113.081 165.708 106.557 167.605C115.196 159.984 135.4 148.372 135.4 148.372L131.958 141.506C131.958 141.506 102.535 153.965 90.4425 163.969C87.0478 166.776 83.5108 170.427 83.6192 175.003C83.6965 178.239 85.7004 181.161 88.2439 182.929C90.7879 184.698 93.818 185.48 96.8131 186.022C106.136 187.709 116.979 187.584 127.081 186.844C126.106 178.79 126.196 170.535 126.215 162.264Z" fill="#F7C7B5"/>
<path fill-rule="evenodd" clip-rule="evenodd" d="M160.399 158.912C162.613 155.371 163.182 150.19 162.2 146.497C159.568 148.275 155.706 150.369 152.766 152.165L147.227 147.199C150.857 140.682 138.083 133.27 135.535 131.508L127.478 139.919L131.613 147.552C126.841 149.302 131.454 153.755 135.112 150.4L142.235 157.731L135.269 160.392C141.41 168.883 155.529 166.49 160.399 158.912Z" fill="#F7C7B5"/>
<path fill-rule="evenodd" clip-rule="evenodd" d="M132.74 142.679C132.008 141.22 130.65 140.194 129.327 139.239C128.655 138.754 127.926 138.255 127.098 138.231C125.896 138.196 124.856 139.243 124.59 140.415C124.324 141.586 124.686 142.819 125.248 143.881C125.937 145.184 126.964 146.349 128.297 146.981C129.409 147.51 131.476 147.848 132.465 146.863C133.482 145.852 133.322 143.839 132.74 142.679Z" fill="#ED8E93"/>
<path fill-rule="evenodd" clip-rule="evenodd" d="M125.91 134.964C126.301 133.347 127.201 131.898 127.714 130.315C128.057 129.256 128.239 128.111 128.884 127.203C129.808 125.901 131.613 125.36 133.151 125.785C134.69 126.21 135.918 127.503 136.427 129.017C136.937 130.529 136.773 132.225 136.145 133.692C135.516 135.16 134.45 136.411 133.211 137.419C131.639 138.697 129.453 139.744 127.364 139.314C125.62 138.955 125.58 136.33 125.91 134.964Z" fill="#ED8E93"/>
<path fill-rule="evenodd" clip-rule="evenodd" d="M142.022 137.679C141.819 137.315 141.359 137.185 140.996 137.387C140.632 137.591 140.502 138.05 140.705 138.414C140.907 138.777 141.367 138.907 141.73 138.704C142.095 138.502 142.224 138.042 142.022 137.679Z" fill="#353D59"/>
<path fill-rule="evenodd" clip-rule="evenodd" d="M137.496 141.069C137.292 140.705 136.833 140.576 136.469 140.778C136.106 140.981 135.976 141.44 136.179 141.804C136.381 142.168 136.841 142.298 137.204 142.095C137.568 141.892 137.698 141.433 137.496 141.069Z" fill="#353D59"/>
<path fill-rule="evenodd" clip-rule="evenodd" d="M134.272 140.624C134.216 140.656 134.149 140.668 134.081 140.655C133.928 140.625 133.828 140.477 133.857 140.324C134.123 138.939 135.581 137.907 136.977 138.113C137.131 138.136 137.239 138.28 137.216 138.434C137.192 138.588 137.049 138.694 136.894 138.673C135.784 138.507 134.624 139.329 134.412 140.43C134.396 140.516 134.343 140.585 134.272 140.624Z" fill="#D76D75"/>
<path fill-rule="evenodd" clip-rule="evenodd" d="M138.994 137.341C138.946 137.368 138.888 137.377 138.827 137.365C138.69 137.335 138.596 137.198 138.617 137.057C138.808 135.791 139.982 134.833 141.235 134.924C141.374 134.934 141.484 135.058 141.481 135.201C141.479 135.345 141.363 135.45 141.226 135.442C140.233 135.371 139.265 136.158 139.114 137.164C139.102 137.243 139.056 137.306 138.994 137.341Z" fill="#D76D75"/>
<path fill-rule="evenodd" clip-rule="evenodd" d="M139.314 139.231C139.393 139.096 139.566 139.051 139.7 139.13L140.272 139.466C140.45 139.571 140.617 139.67 140.776 139.767L141.24 140.05C141.996 140.518 142.344 140.759 142.427 140.929C142.553 141.188 142.542 141.51 142.438 141.886C142.387 142.071 142.314 142.265 142.224 142.463C142.162 142.6 142.096 142.731 142.03 142.851L141.939 143.009C141.857 143.142 141.683 143.184 141.55 143.102C141.418 143.021 141.376 142.847 141.458 142.714L141.535 142.579C141.595 142.471 141.654 142.353 141.71 142.23C141.788 142.057 141.852 141.89 141.894 141.735C141.965 141.48 141.971 141.283 141.919 141.176C141.882 141.099 140.717 140.378 139.415 139.617C139.281 139.538 139.235 139.366 139.314 139.231Z" fill="#E0A797"/>
<path fill-rule="evenodd" clip-rule="evenodd" d="M144.532 143.409C144.686 143.383 144.832 143.486 144.858 143.639C144.884 143.793 144.781 143.939 144.628 143.965C143.284 144.196 142.035 144.957 141.215 146.047C141.121 146.171 140.944 146.196 140.82 146.103C140.695 146.009 140.67 145.832 140.764 145.707C141.671 144.503 143.046 143.664 144.532 143.409Z" fill="#E0A797"/>
<path fill-rule="evenodd" clip-rule="evenodd" d="M146.782 146.987C146.889 146.874 147.067 146.868 147.181 146.975C147.294 147.082 147.3 147.26 147.193 147.374C146.205 148.424 145.031 149.299 143.743 149.944C143.603 150.014 143.434 149.958 143.364 149.818C143.294 149.679 143.351 149.509 143.49 149.439C144.719 148.824 145.839 147.989 146.782 146.987Z" fill="#E0A797"/>
<path fill-rule="evenodd" clip-rule="evenodd" d="M130.819 149.324C131.399 148.902 132.119 148.683 132.835 148.708L132.989 148.717L133.435 148.754L132.422 150.483C132.343 150.618 132.17 150.663 132.035 150.584C131.901 150.505 131.856 150.332 131.935 150.198L132.47 149.283L132.359 149.296C131.973 149.349 131.599 149.487 131.271 149.698L131.151 149.78C131.025 149.872 130.848 149.844 130.757 149.718C130.665 149.592 130.693 149.415 130.819 149.324Z" fill="#E0A797"/>
<path fill-rule="evenodd" clip-rule="evenodd" d="M129.454 148.371C129.931 147.414 131.089 146.865 132.132 147.103C132.284 147.138 132.379 147.289 132.344 147.441C132.31 147.593 132.158 147.688 132.006 147.654C131.218 147.474 130.32 147.899 129.96 148.623C129.599 149.347 129.801 150.319 130.421 150.84C130.54 150.941 130.555 151.119 130.455 151.238C130.355 151.357 130.177 151.373 130.057 151.272C129.239 150.583 128.978 149.329 129.454 148.371Z" fill="#E0A797"/>
<path fill-rule="evenodd" clip-rule="evenodd" d="M129.788 128.372C129.716 128.372 129.646 128.347 129.589 128.294C129.473 128.185 129.466 128.002 129.575 127.885C130.279 127.129 131.265 126.76 132.222 126.898C132.38 126.921 132.49 127.068 132.467 127.227C132.444 127.384 132.293 127.49 132.139 127.471C131.376 127.361 130.574 127.662 130 128.28C129.942 128.341 129.865 128.372 129.788 128.372Z" fill="#D76D75"/>
<path fill-rule="evenodd" clip-rule="evenodd" d="M134.088 128.722C134.07 128.722 134.053 128.72 134.035 128.717L133.084 128.546C132.926 128.518 132.822 128.367 132.85 128.209C132.878 128.052 133.031 127.951 133.186 127.976L134.139 128.147C134.296 128.175 134.401 128.327 134.372 128.484C134.347 128.624 134.225 128.722 134.088 128.722Z" fill="#D76D75"/>
<path fill-rule="evenodd" clip-rule="evenodd" d="M129.855 130.268C129.839 130.268 129.822 130.267 129.806 130.264C129.648 130.237 129.542 130.088 129.569 129.93C129.639 129.52 129.897 129.158 130.259 128.965C130.567 128.8 130.91 128.781 131.206 128.913C131.351 128.978 131.417 129.15 131.351 129.295C131.286 129.441 131.115 129.507 130.969 129.441C130.792 129.363 130.62 129.429 130.532 129.476C130.33 129.584 130.179 129.795 130.14 130.027C130.116 130.169 129.994 130.268 129.855 130.268Z" fill="#D76D75"/>
<path fill-rule="evenodd" clip-rule="evenodd" d="M197.987 159.485L196.048 140.266C188.013 140.182 181.373 140.691 176.688 141.41C171.505 142.205 166.424 143.841 161.699 146.182C164.32 160.985 147.092 171.393 135.554 159.967C135.554 159.967 128.639 161.544 125.615 162.265C125.594 170.535 125.498 178.79 126.538 186.844C129.937 186.61 137.901 185.998 137.901 185.998C137.901 185.998 170.725 207.015 184.618 211.154L220.177 168.92L197.987 159.485Z" fill="#5B9274"/>
<path fill-rule="evenodd" clip-rule="evenodd" d="M108.372 166.974C108.42 167.282 108.209 167.571 107.901 167.618L107.31 167.715L106.821 167.799C106.483 167.858 106.123 167.922 105.745 167.993C104.125 168.294 102.506 168.635 100.997 169.009C99.7424 169.32 98.6204 169.641 97.6652 169.968C97.3702 170.069 97.0493 169.911 96.9483 169.616C96.8473 169.322 97.0046 169.001 97.2995 168.9C98.2891 168.561 99.4414 168.232 100.725 167.914C102.039 167.588 103.432 167.287 104.836 167.016L105.538 166.883C105.825 166.829 106.102 166.779 106.366 166.732L107.36 166.562L107.728 166.503C108.036 166.455 108.324 166.666 108.372 166.974Z" fill="#E0A797"/>
<path fill-rule="evenodd" clip-rule="evenodd" d="M125.615 162.265C124.369 162.561 123.125 162.865 121.881 163.169C121.846 171.226 121.624 179.265 123.052 187.058C124.221 186.994 125.385 186.923 126.538 186.844C125.498 178.791 125.594 170.535 125.615 162.265Z" fill="#437858"/>
<path fill-rule="evenodd" clip-rule="evenodd" d="M197.987 159.485L193.589 157.662L192.621 140.266H196.048L197.987 159.485Z" fill="#437858"/>
<path fill-rule="evenodd" clip-rule="evenodd" d="M194.862 158.131C194.787 158.131 194.71 158.116 194.637 158.083L184.393 153.612C184.107 153.487 183.977 153.155 184.102 152.869C184.227 152.584 184.557 152.451 184.845 152.578L195.088 157.049C195.374 157.174 195.505 157.506 195.379 157.792C195.287 158.004 195.08 158.131 194.862 158.131Z" fill="#437858"/>
<path fill-rule="evenodd" clip-rule="evenodd" d="M146.559 164.942C142.471 164.942 138.374 163.457 135.377 160.63C135.151 160.416 135.14 160.059 135.354 159.832C135.569 159.605 135.926 159.594 136.152 159.809C140.726 164.124 148.058 165.079 153.584 162.078C159.197 159.03 162.34 152.639 161.228 146.536C161.173 146.229 161.376 145.935 161.682 145.879C161.988 145.823 162.283 146.027 162.339 146.333C163.537 152.911 160.159 159.793 154.123 163.07C151.8 164.331 149.182 164.942 146.559 164.942Z" fill="#437858"/>
<path fill-rule="evenodd" clip-rule="evenodd" d="M280.477 279.959L274.733 266.731L281.803 260.623L285.022 277.841L280.477 279.959Z" fill="#F7C7B5"/>
<path fill-rule="evenodd" clip-rule="evenodd" d="M280.477 279.959L285.022 277.841C286.808 277.664 296.411 274.009 297.179 275.702C297.947 277.395 290.522 283.028 282.785 282.672C281.283 282.603 280.766 281.292 280.477 279.959Z" fill="#353D59"/>
<path fill-rule="evenodd" clip-rule="evenodd" d="M300.53 189.761L288.535 177.253L294.531 171.456L304.285 186.003L300.53 189.761Z" fill="#F7C7B5"/>
<path fill-rule="evenodd" clip-rule="evenodd" d="M300.53 189.761L304.285 186.002C305.999 185.175 314.23 178.047 315.615 179.444C316.999 180.84 311.659 189.134 303.821 191.606C302.298 192.086 301.305 190.975 300.53 189.761Z" fill="#353D59"/>
<path fill-rule="evenodd" clip-rule="evenodd" d="M272.304 272.544L285.107 266.314C284.432 262.814 283.77 258.696 283.075 254.288C277.716 254.587 272.634 256.667 267.979 261.478L272.304 272.544Z" fill="#323863"/>
<path fill-rule="evenodd" clip-rule="evenodd" d="M230.326 191.292L261.131 154.124L283.115 177.242C288.876 174.497 292.77 170.178 295.488 164.869L273.094 135.297C259.445 116.215 231.502 147.539 215.213 165.81L184.618 211.154C215.987 221.862 254.113 226.009 254.113 226.009L267.978 261.478L283.075 254.289C280.343 236.963 277.084 215.16 270.392 208.812C261.996 200.849 243.968 194.576 230.326 191.292Z" fill="#3B4772"/>
<path fill-rule="evenodd" clip-rule="evenodd" d="M302.903 174.661L295.488 164.869L283.115 177.242L290.29 184.786L302.903 174.661Z" fill="#323863"/>
<path fill-rule="evenodd" clip-rule="evenodd" d="M195.224 214.73C195.191 214.73 195.158 214.727 195.123 214.721C194.817 214.666 194.613 214.372 194.668 214.065C195.462 209.668 194.348 204.898 191.689 201.307C191.503 201.057 191.557 200.703 191.807 200.518C192.058 200.331 192.411 200.384 192.597 200.636C195.437 204.472 196.627 209.568 195.779 214.266C195.73 214.539 195.493 214.73 195.224 214.73Z" fill="#323863"/>
<path fill-rule="evenodd" clip-rule="evenodd" d="M229.914 191.227C229.865 191.227 229.816 191.22 229.766 191.207L219.763 188.49C219.462 188.409 219.284 188.098 219.366 187.798C219.447 187.497 219.759 187.318 220.058 187.401L230.062 190.117C230.363 190.199 230.54 190.509 230.459 190.81C230.39 191.061 230.162 191.227 229.914 191.227Z" fill="#323863"/>
<path fill-rule="evenodd" clip-rule="evenodd" d="M150.118 287.087H135.689V302.101C135.689 303.149 136.54 304 137.589 304H148.219C149.267 304 150.118 303.149 150.118 302.101V287.087Z" fill="#4C7BB1"/>
<path fill-rule="evenodd" clip-rule="evenodd" d="M147.784 291.835C146.419 291.835 145.308 292.946 145.308 294.31V297.633C145.308 298.998 146.419 300.109 147.784 300.109H151.107C152.472 300.109 153.582 298.998 153.582 297.633V294.31C153.582 292.946 152.472 291.835 151.107 291.835H147.784ZM151.107 302.276H147.784C145.223 302.276 143.141 300.194 143.141 297.633V294.31C143.141 291.75 145.223 289.667 147.784 289.667H151.107C153.667 289.667 155.75 291.75 155.75 294.31V297.633C155.75 300.194 153.667 302.276 151.107 302.276Z" fill="#4C7BB1"/>
<path fill-rule="evenodd" clip-rule="evenodd" d="M135.69 287.087H150.118C150.118 287.087 143.643 291.407 135.69 287.087Z" fill="#386795"/>
</svg>
