<svg width="237" height="240" viewBox="0 0 237 240" fill="none" xmlns="http://www.w3.org/2000/svg">
<path fill-rule="evenodd" clip-rule="evenodd" d="M236.162 234.548C236.162 231.537 183.483 229.096 118.5 229.096C53.517 229.096 0.838074 231.537 0.838074 234.548C0.838074 237.559 53.517 240 118.5 240C183.483 240 236.162 237.559 236.162 234.548Z" fill="#BCE4F0"/>
<path fill-rule="evenodd" clip-rule="evenodd" d="M207.454 232.377L205.046 217.803L197.684 217.646L202.768 232.195L207.454 232.377Z" fill="#F7C7B5"/>
<path fill-rule="evenodd" clip-rule="evenodd" d="M207.454 232.377L202.768 232.195C201.161 232.688 191.495 234.745 191.436 236.48C191.378 238.215 199.87 238.648 206.43 235.546C207.704 234.944 207.682 233.629 207.454 232.377Z" fill="#353D59"/>
<path fill-rule="evenodd" clip-rule="evenodd" d="M171.277 228.647L169.01 214.928L162.08 214.78L166.865 228.476L171.277 228.647Z" fill="#F7C7B5"/>
<path fill-rule="evenodd" clip-rule="evenodd" d="M171.277 228.647L166.865 228.476C165.352 228.938 156.253 230.876 156.198 232.509C156.143 234.142 164.137 234.55 170.313 231.63C171.512 231.063 171.49 229.825 171.277 228.647Z" fill="#353D59"/>
<path fill-rule="evenodd" clip-rule="evenodd" d="M210.329 135.929L176.518 125.798C169.806 134.235 162.184 142.529 155.998 151.36C151.841 157.293 147.672 163.68 147.14 170.905C146.772 175.888 148.182 180.815 149.649 185.591C153.764 198.992 158.442 212.222 163.666 225.231C166.533 225.313 169.951 224.174 172.601 223.077C172.601 223.077 165.409 190.29 163.89 174.484C174.179 163.495 197.927 144.461 210.329 135.929Z" fill="#3B4772"/>
<path fill-rule="evenodd" clip-rule="evenodd" d="M193.525 141.124C193.525 141.124 183.924 161.676 183.76 172.496C183.472 191.486 193.578 208.908 198.171 227.336C201.608 227.963 205.718 227.835 209.136 227.116L202.691 175.342C211.741 161.739 219.498 148.697 222.047 137.915C222.047 137.915 200.942 126.074 193.525 141.124Z" fill="#3B4772"/>
<path fill-rule="evenodd" clip-rule="evenodd" d="M161.838 80.4064C159.737 80.1813 157.806 80.519 155.738 80.9877C153.998 85.5365 154.732 92.4758 154.732 92.4758L160.667 92.7385C160.278 90.8788 160.711 87.2393 160.711 87.2393L162.027 85.8118C162.027 85.8118 162.191 81.6396 161.838 80.4064Z" fill="#F7C7B5"/>
<path fill-rule="evenodd" clip-rule="evenodd" d="M185.139 57.9961L190.47 65.2452L181.731 69.0194L178.462 60.2513L185.139 57.9961Z" fill="#F7C7B5"/>
<path fill-rule="evenodd" clip-rule="evenodd" d="M210.549 134.885C210.632 134.633 210.904 134.495 211.156 134.578C211.409 134.66 211.546 134.932 211.464 135.185C210.699 137.52 211.119 140.22 212.558 142.212C213.998 144.205 216.427 145.452 218.886 145.46C219.151 145.461 219.366 145.677 219.365 145.943C219.364 146.209 219.148 146.423 218.882 146.423C216.116 146.413 213.398 145.018 211.778 142.776C210.159 140.534 209.689 137.514 210.549 134.885Z" fill="#323863"/>
<path fill-rule="evenodd" clip-rule="evenodd" d="M215.647 72.6224C214.155 68.4118 211.838 59.7423 197.179 61.7814C196.548 65.3372 195.356 68.841 192.381 71.0711C186.985 74.9964 178.931 75.8172 175.021 70.3369C171.63 72.1941 168.905 74.2092 167.999 76.1877C166.618 79.207 166.261 82.5736 165.978 85.8811C165.128 95.8083 166.611 113.541 166.611 113.541C166.611 113.541 161.302 98.6024 161.033 89.9353L153.844 91.1594C153.844 91.1594 150.79 129.604 171.682 131.713L176.518 125.799C190.423 134.098 205.857 138.295 222.047 137.915C225.122 115.95 223.052 93.5296 215.647 72.6224Z" fill="#5B9274"/>
<path fill-rule="evenodd" clip-rule="evenodd" d="M195.389 83.7269C196.606 81.9298 195.389 79.0496 195.389 79.0496L194.171 79.3137C194.171 79.3137 193.494 76.8026 193.224 76.2742C192.953 75.7455 187.812 78.3884 187.372 79.446C186.931 80.5031 191.102 89.4897 191.102 89.4897L196.877 87.9038L195.389 83.7269Z" fill="#F7C7B5"/>
<path fill-rule="evenodd" clip-rule="evenodd" d="M180.571 67.3358L183.11 66.552C185.383 65.85 186.669 63.4163 185.967 61.1429L182.742 50.6989C182.04 48.4259 179.606 47.1402 177.333 47.8423L174.794 48.6261C172.521 49.3281 171.746 51.5101 171.938 54.0352C171.938 54.0352 172.062 69.0199 180.571 67.3358Z" fill="#F7C7B5"/>
<path fill-rule="evenodd" clip-rule="evenodd" d="M174.703 58.9759C175.017 58.8272 175.152 58.4519 175.003 58.1382C174.855 57.8235 174.479 57.6893 174.165 57.8379C173.851 57.9866 173.717 58.3619 173.865 58.6761C174.014 58.9898 174.389 59.1246 174.703 58.9759Z" fill="#353D59"/>
<path fill-rule="evenodd" clip-rule="evenodd" d="M178.684 57.5081C178.999 57.3594 179.133 56.9846 178.985 56.6699C178.836 56.3558 178.461 56.2215 178.147 56.3702C177.832 56.5184 177.698 56.8942 177.847 57.2079C177.995 57.5226 178.37 57.6568 178.684 57.5081Z" fill="#353D59"/>
<path fill-rule="evenodd" clip-rule="evenodd" d="M179.624 54.84C179.673 54.8169 179.714 54.7775 179.737 54.725C179.792 54.6066 179.74 54.4666 179.621 54.4118C178.551 53.9215 177.143 54.4118 176.606 55.4597C176.547 55.5757 176.593 55.7181 176.709 55.7778C176.825 55.836 176.966 55.7903 177.027 55.6748C177.453 54.8405 178.574 54.4512 179.424 54.8414C179.491 54.8708 179.563 54.8689 179.624 54.84Z" fill="#ED8E93"/>
<path fill-rule="evenodd" clip-rule="evenodd" d="M174.926 56.4516C174.985 56.4815 175.05 56.4815 175.104 56.456C175.146 56.4362 175.18 56.4016 175.201 56.3544C175.248 56.2467 175.2 56.1168 175.094 56.0624C174.141 55.5779 172.921 55.9108 172.376 56.8058C172.315 56.9054 172.346 57.0406 172.445 57.1079C172.543 57.1767 172.671 57.1493 172.732 57.0516C173.165 56.3419 174.169 56.0667 174.926 56.4516Z" fill="#ED8E93"/>
<path fill-rule="evenodd" clip-rule="evenodd" d="M176.264 57.8721C176.395 57.8551 176.516 57.9481 176.533 58.0798C176.652 58.997 176.727 59.9183 176.757 60.8395L176.763 61.096L176.943 61.1157C177.258 61.1434 177.582 61.1393 177.922 61.1051L178.128 61.0811C178.26 61.0636 178.381 61.1561 178.399 61.2879C178.416 61.4196 178.323 61.5405 178.192 61.558C177.658 61.629 177.156 61.635 176.669 61.5692L176.487 61.5412L176.291 61.5072L176.288 61.3083C176.27 60.2517 176.192 59.1939 176.056 58.1416C176.039 58.0098 176.132 57.8892 176.264 57.8721Z" fill="#E0A797"/>
<path fill-rule="evenodd" clip-rule="evenodd" d="M175.203 51.589C173.363 52.048 171.248 51.7343 169.878 50.4232C168.506 49.113 168.165 46.7216 169.409 45.2897C170.27 44.299 171.672 43.9295 172.984 43.9766C174.297 44.0233 176.84 44.7431 176.84 44.7431C176.84 44.7431 181.767 46.3069 180.51 48.6636C179.801 49.9911 176.526 51.2589 175.203 51.589Z" fill="#ED8E93"/>
<path fill-rule="evenodd" clip-rule="evenodd" d="M180.044 48.9492C180.323 47.6914 181.267 46.4096 182.556 46.4063C183.733 46.4034 184.632 47.4407 185.23 48.4555C185.988 49.7421 186.558 51.2318 186.324 52.707C185.391 58.5838 179.127 53.0703 180.044 48.9492Z" fill="#ED8E93"/>
<path fill-rule="evenodd" clip-rule="evenodd" d="M187.131 56.6955C187.615 55.7125 187.388 54.295 186.387 53.8509C185.704 53.5478 184.868 53.7946 184.318 54.3008C183.769 54.8075 183.463 55.5273 183.272 56.2495L184.755 58.9002C185.683 58.3189 186.647 57.678 187.131 56.6955Z" fill="#F7C7B5"/>
<path fill-rule="evenodd" clip-rule="evenodd" d="M185.624 55.0651C185.736 54.9945 185.885 55.0286 185.955 55.1412C186.026 55.2537 185.992 55.4022 185.879 55.4728C185.543 55.6835 185.242 55.9507 184.991 56.2583L184.962 56.2941L185.653 56.0454C185.71 56.0241 185.765 56.0033 185.823 55.9811C185.947 55.9335 186.086 55.9955 186.133 56.1195C186.181 56.2436 186.119 56.3827 185.995 56.4303L185.594 56.5795L184.7 56.9004L184.455 56.9924L183.863 57.2186L184.155 56.6568C184.492 56.0087 185.005 55.4531 185.624 55.0651Z" fill="#E0A797"/>
<path fill-rule="evenodd" clip-rule="evenodd" d="M180.773 62.6302C180.787 62.3631 180.778 62.0995 180.744 61.8584L176.051 63.311C176.172 63.5068 176.306 63.7084 176.452 63.9048L180.773 62.6302Z" fill="white"/>
<path fill-rule="evenodd" clip-rule="evenodd" d="M178.011 65.1088C178.804 65.2912 179.672 64.9519 180.2 64.3322C180.57 63.8972 180.741 63.2539 180.773 62.6299L176.452 63.9045C176.863 64.4592 177.376 64.963 178.011 65.1088Z" fill="#353D59"/>
<path fill-rule="evenodd" clip-rule="evenodd" d="M192.381 71.0714C195.356 68.8408 196.548 65.3375 197.179 61.7812C196.46 61.9641 195.747 62.1599 195.048 62.3577C195.048 62.3577 183.129 65.8971 175.021 70.3372C178.932 75.8171 186.985 74.9962 192.381 71.0714Z" fill="#F7C7B5"/>
<path fill-rule="evenodd" clip-rule="evenodd" d="M172.919 82.3542C173.181 82.3107 173.429 82.488 173.473 82.7502L173.694 84.0963C176.381 100.602 177.531 113.526 176.999 125.819C176.987 126.085 176.763 126.291 176.497 126.279C176.232 126.268 176.026 126.043 176.037 125.778C176.581 113.232 175.358 99.9999 172.523 82.9076C172.48 82.6455 172.657 82.3977 172.919 82.3542Z" fill="#437858"/>
<path fill-rule="evenodd" clip-rule="evenodd" d="M211.838 65.6123L211.908 115.844C207.548 106.043 203.181 96.3365 198.821 86.5359L189.248 89.1841C192.591 99.7725 195.875 110.998 200.171 121.237C202.2 126.071 204.983 131.349 210.027 132.781C214.786 134.131 219.983 131.292 222.703 127.159C225.422 123.027 226.128 117.9 226.288 112.955C226.801 97.1011 217.797 71.1239 211.838 65.6123Z" fill="#5B9274"/>
<path fill-rule="evenodd" clip-rule="evenodd" d="M189.007 90.021L188.639 88.8537L199.092 85.9619L214.276 119.968C214.384 120.211 214.274 120.495 214.032 120.603C213.789 120.711 213.504 120.602 213.396 120.359L198.55 87.1105L189.856 89.5153L192.657 98.4685C192.934 99.3503 193.187 100.153 193.434 100.929L194.007 102.721C196.392 110.135 198.406 115.785 200.615 121.051L200.855 121.616C203.498 127.75 206.172 131.187 210.158 132.319C214.447 133.535 219.507 131.14 222.301 126.895C222.447 126.673 222.745 126.612 222.967 126.758C223.189 126.904 223.251 127.202 223.105 127.424C220.096 131.995 214.624 134.586 209.895 133.244C205.48 131.991 202.636 128.271 199.847 121.706L199.728 121.423C197.607 116.368 195.669 110.969 193.416 104.021L192.763 101.992C192.573 101.396 192.382 100.795 192.182 100.164L189.007 90.021Z" fill="#437858"/>
<path fill-rule="evenodd" clip-rule="evenodd" d="M197.096 61.3071C197.358 61.2612 197.607 61.4362 197.653 61.6979L197.668 61.804C197.672 61.8342 197.675 61.8687 197.679 61.9075C197.759 62.7653 197.66 63.8705 197.245 65.1314C196.634 66.9912 195.439 68.8186 193.534 70.5168C192.448 71.4841 191.151 72.3896 189.628 73.223C184.782 75.8748 180.49 75.3203 176.958 72.7905C176.303 72.3215 175.731 71.8191 175.244 71.3157L175.078 71.1407C174.871 70.9183 174.724 70.7413 174.637 70.626C174.477 70.4138 174.519 70.1121 174.732 69.9522C174.944 69.7923 175.246 69.8347 175.406 70.0469L175.465 70.1219C175.484 70.1449 175.506 70.1721 175.533 70.2031C175.645 70.3361 175.78 70.4852 175.936 70.6465C176.384 71.1101 176.913 71.5747 177.519 72.0082C180.768 74.3356 184.669 74.8396 189.166 72.3789C190.626 71.5797 191.863 70.716 192.893 69.7983C194.672 68.2132 195.773 66.5301 196.331 64.8309C196.68 63.7697 196.778 62.8447 196.731 62.1286L196.717 61.9575L196.705 61.8642C196.659 61.6024 196.834 61.353 197.096 61.3071Z" fill="#437858"/>
<path fill-rule="evenodd" clip-rule="evenodd" d="M184.305 63.7362C184.358 63.6142 184.499 63.5579 184.621 63.6105C184.743 63.6631 184.799 63.8047 184.747 63.9267C184.022 65.6072 182.527 66.9337 180.772 67.4529C180.644 67.4906 180.511 67.4178 180.473 67.2904C180.435 67.163 180.508 67.0292 180.635 66.9915C182.254 66.5128 183.637 65.2856 184.305 63.7362Z" fill="#E0A797"/>
<path fill-rule="evenodd" clip-rule="evenodd" d="M193.629 77.9499C193.741 77.914 193.861 77.9653 193.914 78.066L193.931 78.106L194.856 81.0055C194.896 81.132 194.826 81.2674 194.7 81.3078C194.587 81.3437 194.468 81.2924 194.414 81.1917L194.397 81.1517L193.473 78.2522C193.432 78.1256 193.502 77.9903 193.629 77.9499Z" fill="#E0A797"/>
<path fill-rule="evenodd" clip-rule="evenodd" d="M207.614 92.0571C207.879 92.0307 208.115 92.2235 208.141 92.488L208.19 92.9567C208.435 95.1939 208.898 98.1223 209.533 101.577L209.77 102.842C209.891 103.482 210.017 104.136 210.147 104.799C210.552 106.865 210.982 108.952 211.415 110.982L211.763 112.594L212.307 115.052C212.366 115.311 212.204 115.569 211.945 115.628C211.686 115.687 211.428 115.524 211.369 115.265L211.183 114.434C211.053 113.852 210.91 113.204 210.758 112.5L210.692 112.195C210.184 109.846 209.677 107.401 209.203 104.985L208.947 103.667C208.823 103.016 208.702 102.377 208.587 101.751L208.453 101.014C207.838 97.6135 207.4 94.7509 207.183 92.5838C207.157 92.3194 207.35 92.0836 207.614 92.0571Z" fill="#437858"/>
<path fill-rule="evenodd" clip-rule="evenodd" d="M193.971 139.746C194.222 139.832 194.357 140.105 194.272 140.357L189.39 154.718C189.304 154.97 189.031 155.105 188.779 155.019C188.528 154.934 188.393 154.66 188.479 154.409L193.36 140.047C193.446 139.796 193.719 139.661 193.971 139.746Z" fill="#323863"/>
<path fill-rule="evenodd" clip-rule="evenodd" d="M206.213 224.368C206.473 224.315 206.727 224.484 206.78 224.744L207.115 226.395C207.168 226.656 207 226.91 206.739 226.963C206.479 227.015 206.225 226.847 206.172 226.587L205.837 224.935C205.784 224.675 205.952 224.421 206.213 224.368Z" fill="#323863"/>
<path fill-rule="evenodd" clip-rule="evenodd" d="M206.118 221.491L205.457 218.238C205.404 217.978 205.15 217.81 204.889 217.863C204.629 217.916 204.461 218.17 204.514 218.43L205.175 221.682C205.228 221.943 205.482 222.111 205.742 222.058C206.003 222.005 206.171 221.751 206.118 221.491ZM204.795 214.984L204.133 211.732C204.08 211.471 203.826 211.303 203.566 211.356C203.306 211.409 203.137 211.663 203.19 211.924L203.852 215.176C203.905 215.436 204.159 215.605 204.419 215.552C204.68 215.499 204.848 215.245 204.795 214.984ZM203.472 208.479L202.81 205.226C202.758 204.966 202.504 204.798 202.243 204.851C201.983 204.904 201.815 205.158 201.867 205.418L202.529 208.671C202.582 208.931 202.836 209.099 203.096 209.046C203.357 208.993 203.525 208.739 203.472 208.479ZM202.149 201.973L201.488 198.721C201.435 198.46 201.181 198.292 200.92 198.345C200.66 198.398 200.492 198.652 200.545 198.912L201.206 202.165C201.259 202.426 201.513 202.594 201.773 202.541C202.034 202.488 202.202 202.234 202.149 201.973ZM200.865 195.481C200.718 194.546 200.575 193.451 200.438 192.212C200.409 191.947 200.171 191.757 199.907 191.786C199.643 191.816 199.452 192.053 199.482 192.318L199.558 192.987C199.673 193.969 199.792 194.853 199.914 195.631C199.956 195.893 200.202 196.072 200.464 196.031C200.727 195.99 200.906 195.743 200.865 195.481ZM200.114 188.918L200.023 187.851C199.963 187.128 199.905 186.382 199.849 185.615C199.829 185.35 199.599 185.151 199.334 185.171C199.069 185.19 198.87 185.421 198.889 185.686L198.975 186.825C199.034 187.573 199.094 188.3 199.155 189.002C199.179 189.267 199.412 189.462 199.677 189.439C199.942 189.416 200.137 189.182 200.114 188.918ZM199.624 182.309C199.554 181.195 199.49 180.087 199.431 179C199.417 178.734 199.19 178.531 198.925 178.545C198.66 178.56 198.456 178.786 198.471 179.052C198.529 180.141 198.594 181.253 198.664 182.369C198.681 182.635 198.909 182.836 199.174 182.82C199.44 182.803 199.641 182.574 199.624 182.309ZM199.268 175.69L199.252 175.323L199.227 175.441C199.208 175.554 199.242 175.502 199.285 175.436L199.601 174.944L200.006 174.308C200.241 173.936 200.493 173.534 200.76 173.104C200.9 172.878 200.831 172.581 200.605 172.441C200.379 172.301 200.082 172.37 199.942 172.596L199.151 173.856C198.724 174.546 198.287 175.272 198.291 175.362L198.306 175.732C198.318 175.998 198.543 176.203 198.808 176.192C199.074 176.18 199.28 175.955 199.268 175.69ZM202.489 170.261C203.049 169.322 203.611 168.364 204.17 167.389C204.302 167.159 204.222 166.865 203.992 166.733C203.761 166.6 203.467 166.68 203.335 166.91C202.779 167.88 202.22 168.834 201.663 169.768C201.527 169.996 201.601 170.292 201.829 170.428C202.058 170.564 202.353 170.489 202.489 170.261ZM205.801 164.487C206.341 163.504 206.867 162.525 207.376 161.553C207.499 161.317 207.408 161.027 207.172 160.904C206.937 160.78 206.646 160.871 206.523 161.107C206.017 162.073 205.495 163.046 204.957 164.023C204.829 164.256 204.914 164.548 205.147 164.677C205.38 164.805 205.673 164.72 205.801 164.487ZM208.886 158.584C209.39 157.562 209.868 156.558 210.318 155.574C210.429 155.333 210.323 155.047 210.081 154.936C209.839 154.826 209.554 154.932 209.443 155.174C208.997 156.148 208.523 157.144 208.023 158.158C207.905 158.397 208.003 158.685 208.241 158.803C208.48 158.92 208.768 158.822 208.886 158.584ZM211.654 152.514C212.1 151.438 212.503 150.398 212.861 149.396C212.951 149.146 212.82 148.871 212.57 148.781C212.32 148.692 212.044 148.822 211.955 149.072C211.602 150.058 211.205 151.084 210.765 152.146C210.664 152.391 210.78 152.673 211.026 152.774C211.271 152.876 211.553 152.759 211.654 152.514Z" fill="#323863"/>
<path fill-rule="evenodd" clip-rule="evenodd" d="M213.367 144.34C213.425 144.081 213.683 143.918 213.942 143.977C214.201 144.035 214.364 144.293 214.305 144.552C214.185 145.085 214.044 145.637 213.885 146.208C213.813 146.464 213.547 146.614 213.291 146.542C213.036 146.47 212.886 146.205 212.958 145.949C213.113 145.393 213.25 144.857 213.367 144.34Z" fill="#323863"/>
<path fill-rule="evenodd" clip-rule="evenodd" d="M182.976 137.309C183.102 137.075 183.394 136.988 183.628 137.115C186.8 138.831 189.873 140.73 192.826 142.799C193.043 142.952 193.096 143.252 192.944 143.469C192.791 143.687 192.491 143.74 192.274 143.587C189.351 141.54 186.309 139.66 183.17 137.961C182.936 137.835 182.849 137.543 182.976 137.309Z" fill="#323863"/>
<path fill-rule="evenodd" clip-rule="evenodd" d="M191.637 144.081L190.633 144.939C190.124 145.372 189.606 145.81 189.074 146.258C188.871 146.429 188.844 146.732 189.015 146.936C189.187 147.139 189.49 147.165 189.693 146.994C190.582 146.246 191.434 145.523 192.263 144.811C192.465 144.638 192.488 144.334 192.315 144.133C192.142 143.931 191.838 143.908 191.637 144.081ZM186.491 148.414L184.18 150.321C184.086 150.398 183.991 150.477 183.894 150.556C183.689 150.725 183.659 151.028 183.828 151.234C183.997 151.439 184.3 151.468 184.505 151.3L186.864 149.354C186.945 149.287 187.025 149.221 187.105 149.155C187.309 148.985 187.338 148.682 187.168 148.477C186.998 148.273 186.695 148.244 186.491 148.414ZM181.291 152.693L178.687 154.833C178.482 155.002 178.453 155.305 178.622 155.51C178.791 155.715 179.095 155.745 179.3 155.576L181.901 153.437C182.106 153.269 182.136 152.965 181.968 152.76C181.799 152.554 181.496 152.525 181.291 152.693ZM176.092 156.985L175.328 157.625C174.701 158.15 174.099 158.659 173.512 159.158C173.31 159.33 173.285 159.634 173.458 159.836C173.63 160.039 173.933 160.063 174.136 159.891L174.846 159.289C175.445 158.782 176.063 158.263 176.709 157.724C176.913 157.554 176.94 157.25 176.77 157.046C176.6 156.842 176.296 156.815 176.092 156.985ZM170.957 161.36C170.089 162.118 169.249 162.862 168.431 163.599C168.234 163.777 168.218 164.082 168.396 164.279C168.574 164.476 168.878 164.492 169.075 164.314C169.89 163.58 170.725 162.839 171.589 162.085C171.79 161.91 171.81 161.606 171.635 161.406C171.461 161.206 171.157 161.185 170.957 161.36ZM165.941 165.886C165.109 166.665 164.296 167.441 163.499 168.22C163.309 168.405 163.305 168.71 163.491 168.9C163.676 169.09 163.981 169.094 164.171 168.908C164.963 168.135 165.771 167.363 166.599 166.588C166.793 166.407 166.803 166.102 166.621 165.908C166.44 165.714 166.135 165.704 165.941 165.886ZM161.109 170.607L160.577 171.153L160.61 171.386C160.74 172.306 160.876 173.242 161.017 174.203C161.056 174.466 161.301 174.647 161.564 174.609C161.827 174.57 162.008 174.325 161.969 174.062L161.762 172.641C161.694 172.173 161.628 171.71 161.563 171.252L161.087 171.319L161.432 171.654L161.797 171.279C161.983 171.089 161.98 170.785 161.79 170.599C161.6 170.413 161.295 170.417 161.109 170.607ZM161.521 177.536C161.692 178.645 161.867 179.754 162.045 180.865C162.088 181.127 162.335 181.306 162.597 181.263C162.859 181.221 163.038 180.974 162.995 180.712C162.817 179.603 162.642 178.496 162.472 177.389C162.431 177.127 162.185 176.947 161.923 176.987C161.66 177.028 161.48 177.273 161.521 177.536ZM162.592 184.194C162.778 185.301 162.967 186.409 163.16 187.518C163.206 187.779 163.455 187.955 163.717 187.909C163.979 187.863 164.154 187.614 164.108 187.352C163.916 186.246 163.727 185.14 163.541 184.035C163.497 183.773 163.249 183.596 162.987 183.64C162.725 183.684 162.548 183.932 162.592 184.194ZM163.75 190.838C163.949 191.943 164.152 193.048 164.359 194.153C164.408 194.415 164.66 194.587 164.921 194.538C165.182 194.489 165.354 194.238 165.305 193.976C165.099 192.873 164.896 191.77 164.697 190.667C164.649 190.406 164.399 190.232 164.137 190.279C163.876 190.327 163.702 190.577 163.75 190.838ZM164.99 197.467C165.204 198.569 165.421 199.672 165.642 200.774C165.694 201.035 165.947 201.203 166.208 201.151C166.469 201.099 166.638 200.846 166.585 200.585C166.365 199.485 166.148 198.384 165.935 197.284C165.885 197.023 165.632 196.852 165.371 196.903C165.11 196.953 164.94 197.206 164.99 197.467ZM166.313 204.075C166.54 205.175 166.771 206.275 167.006 207.375C167.061 207.635 167.316 207.801 167.576 207.745C167.836 207.69 168.002 207.434 167.947 207.174C167.713 206.077 167.483 204.979 167.256 203.881C167.202 203.62 166.947 203.453 166.687 203.507C166.427 203.561 166.259 203.815 166.313 204.075ZM167.718 210.671C167.959 211.769 168.203 212.865 168.451 213.961C168.51 214.221 168.767 214.383 169.026 214.325C169.286 214.266 169.448 214.009 169.39 213.749C169.143 212.655 168.899 211.56 168.658 210.465C168.601 210.205 168.345 210.041 168.085 210.098C167.826 210.155 167.661 210.412 167.718 210.671ZM169.204 217.247C169.458 218.342 169.716 219.436 169.977 220.529C170.039 220.787 170.298 220.947 170.557 220.885C170.815 220.823 170.975 220.564 170.913 220.305C170.653 219.214 170.395 218.122 170.141 217.03C170.081 216.771 169.823 216.61 169.564 216.67C169.305 216.73 169.144 216.989 169.204 217.247Z" fill="#323863"/>
<path fill-rule="evenodd" clip-rule="evenodd" d="M165.795 111.506C166.041 111.408 166.321 111.528 166.42 111.774L169.807 120.247C169.906 120.493 169.786 120.773 169.539 120.872C169.292 120.971 169.012 120.851 168.913 120.604L165.527 112.132C165.428 111.885 165.548 111.605 165.795 111.506Z" fill="#437858"/>
<path fill-rule="evenodd" clip-rule="evenodd" d="M144.92 6.03737C144.92 6.03737 149.761 3.49109 149.761 2.74289C149.761 1.99518 144.221 4.69206 144.221 4.69206C144.221 4.69206 148.779 1.72092 148.73 1.23784C148.68 0.754758 144.144 2.27281 142.221 4.02999C143.61 2.6789 146.185 0.840885 146.242 0.180258C146.324 -0.773875 141.497 2.25356 139.271 4.70746C138.947 3.30729 136.89 1.38748 136.445 1.75652C136.001 2.12413 137.509 5.63561 138.074 7.40145C138.006 7.50682 123.699 31.5569 123.699 31.5569C123.699 31.5569 114.669 42.8396 106.201 54.3498L112.909 67.5691C117.933 61.3443 126.428 42.9536 126.428 42.9536C126.428 42.9536 135.334 25.299 141.387 11.8213C143.281 9.58349 144.663 8.41332 144.663 8.41332C144.663 8.41332 149.761 4.81956 149.705 4.25709C149.65 3.6951 144.92 6.03737 144.92 6.03737Z" fill="#8F4F48"/>
<path fill-rule="evenodd" clip-rule="evenodd" d="M120.339 125.486L99.6762 115.875C99.8331 133.272 102.916 147.144 109.719 163.156C101.565 168.653 93.1316 194.28 88.9296 208.232L93.5685 210.133C102.87 187.903 136.885 169.273 120.339 125.486Z" fill="#8F4F48"/>
<path fill-rule="evenodd" clip-rule="evenodd" d="M93.6119 210.039C92.0746 209.721 90.7346 208.672 89.5471 207.057C83.6572 207.784 94.2128 221.878 95.5755 220.979C96.9386 220.08 93.6119 210.039 93.6119 210.039Z" fill="#353D59"/>
<path fill-rule="evenodd" clip-rule="evenodd" d="M41.0554 115.479C37.7085 119.066 34.7576 122.993 34.6551 127.898C34.6498 128.184 34.7061 128.548 34.9828 128.619C35.2209 128.679 35.4336 128.468 35.589 128.278C37.5372 125.891 39.4854 123.504 41.4336 121.117L43.5531 117.685C42.7294 116.951 41.897 116.216 41.0554 115.479Z" fill="#353D59"/>
<path fill-rule="evenodd" clip-rule="evenodd" d="M41.4337 121.117C48.192 134.7 55.228 149.317 66.386 159.597C67.9348 161.024 69.6087 162.404 71.607 163.069C78.5236 165.372 84.271 155.937 87.2128 151.095C94.4119 139.243 100.923 126.973 106.701 114.368L88.7001 92.6807C82.4301 105.361 72.5635 133.443 68.9674 147.124C62.2235 135.337 53.5506 126.591 43.5532 117.685" fill="#8F4F48"/>
<path fill-rule="evenodd" clip-rule="evenodd" d="M93.7956 31.272C96.9905 31.5082 101.661 33.7836 100.292 39.991C106.591 42.6441 108.303 50.0149 104.165 56.2522C97.7305 65.9499 88.4365 70.0767 79.8666 60.1587C77.7894 57.7543 77.2669 54.4055 77.9766 51.3684C78.3216 49.8913 78.9505 48.4719 79.8319 47.2367C80.6923 46.0324 82.2223 45.2005 82.9056 43.9124C83.6976 42.4189 83.3126 42.3429 83.4676 40.5732C84.4082 29.8357 93.7956 31.272 93.7956 31.272Z" fill="#FFB3C4"/>
<path fill-rule="evenodd" clip-rule="evenodd" d="M93.9563 57.9896L90.9876 47.7443C90.0536 47.6856 88.6804 47.1246 88.1718 46.3393C87.6628 45.5536 87.6878 44.4104 88.3508 43.7498C89.0139 43.0891 90.2913 43.1401 90.7912 43.9311C94.5491 40.755 94.6905 38.2944 94.807 35.292C96.8254 35.9901 99.5642 38.2824 99.5642 38.2824C99.5642 38.2824 100.185 39.6142 100.712 41.0601C101.985 44.5576 101.507 47.2646 99.1614 48.7774L101.661 55.6752" fill="#8F4F48"/>
<path fill-rule="evenodd" clip-rule="evenodd" d="M98.3783 39.6092C98.2821 39.3398 97.9862 39.1998 97.7172 39.296C97.4478 39.3922 97.3077 39.6881 97.404 39.9571C97.5002 40.2261 97.7961 40.3661 98.0651 40.2703C98.334 40.1741 98.4741 39.8782 98.3783 39.6092Z" fill="#353D59"/>
<path fill-rule="evenodd" clip-rule="evenodd" d="M95.2104 41.0682C95.1141 40.7988 94.8182 40.6587 94.5493 40.755C94.2798 40.8512 94.1393 41.1471 94.236 41.4166C94.3323 41.6851 94.6282 41.8256 94.8971 41.7293C95.1661 41.6331 95.3061 41.3372 95.2104 41.0682Z" fill="#353D59"/>
<path fill-rule="evenodd" clip-rule="evenodd" d="M92.8009 40.7223C92.759 40.7372 92.7118 40.7381 92.6676 40.7213C92.5675 40.6843 92.516 40.5722 92.5535 40.4716C92.8908 39.5651 93.9946 39.0325 94.916 39.3298C95.0175 39.363 95.0738 39.4727 95.0406 39.5742C95.0074 39.6758 94.8982 39.7311 94.7957 39.6993C94.0634 39.4616 93.1858 39.8865 92.9173 40.6078C92.8961 40.6631 92.8523 40.704 92.8009 40.7223Z" fill="#FF90A9"/>
<path fill-rule="evenodd" clip-rule="evenodd" d="M96.3682 39.0362C96.3321 39.0487 96.2917 39.0492 96.2527 39.0338C96.1627 38.9982 96.1151 38.8947 96.1454 38.8019C96.4177 37.9661 97.3204 37.4513 98.1581 37.6548C98.251 37.6779 98.3116 37.7741 98.2943 37.8708C98.2765 37.9676 98.1855 38.0263 98.0936 38.0046C97.4296 37.8439 96.6858 38.2668 96.4692 38.9303C96.4524 38.9823 96.4144 39.0198 96.3682 39.0362Z" fill="#FF90A9"/>
<path fill-rule="evenodd" clip-rule="evenodd" d="M96.5944 40.4572C96.6913 40.3897 96.8206 40.4035 96.9014 40.484L96.9293 40.5173L98.4019 42.6336L97.3614 43.3575C97.2524 43.4334 97.1024 43.4065 97.0266 43.2974C96.9591 43.2005 96.9729 43.0713 97.0533 42.9904L97.0866 42.9626L97.7319 42.5127L96.5343 40.7921C96.4669 40.6951 96.4806 40.5659 96.5611 40.4851L96.5944 40.4572Z" fill="#753730"/>
<path fill-rule="evenodd" clip-rule="evenodd" d="M95.7817 45.4494C96.1821 46.0951 96.8783 46.5758 97.6178 46.5311C98.5835 46.4729 99.453 45.6737 99.592 44.7166C99.6204 44.5227 99.5954 44.3014 99.5569 44.0791L95.7817 45.4494Z" fill="#353D59"/>
<path fill-rule="evenodd" clip-rule="evenodd" d="M95.8114 45.4991L99.5644 44.1375C99.523 43.8805 99.4605 43.6197 99.4287 43.3955L95.5025 44.8207C95.5665 45.0574 95.6733 45.2879 95.8114 45.4991Z" fill="white"/>
<path fill-rule="evenodd" clip-rule="evenodd" d="M88.7834 44.4873C88.8639 44.3816 89.0149 44.3613 89.1205 44.4419L91.0126 45.8842L90.5582 46.0191C90.0651 46.1654 89.5487 46.234 89.0351 46.2214C88.9023 46.2181 88.7973 46.1078 88.8005 45.975C88.8038 45.8421 88.9141 45.7371 89.0469 45.7404C89.3365 45.7475 89.6272 45.726 89.9131 45.6766L89.9391 45.6711L88.8287 44.8244C88.7231 44.7439 88.7028 44.5929 88.7834 44.4873Z" fill="#753730"/>
<path fill-rule="evenodd" clip-rule="evenodd" d="M91.6783 47.8424C91.5672 47.4036 91.1206 47.1385 90.6818 47.2501C90.243 47.3617 89.9779 47.8078 90.089 48.2466C90.2011 48.6854 90.6472 48.951 91.0865 48.8389C91.5248 48.7277 91.7899 48.2812 91.6783 47.8424Z" fill="white"/>
<path fill-rule="evenodd" clip-rule="evenodd" d="M115.26 92.5912L115.398 92.6046C115.398 92.6046 118.876 67.4219 116.6 63.4913C114.324 59.5617 107.325 51.4629 107.325 51.4629C105.885 51.8334 104.31 52.2385 102.683 52.6571C101.965 55.29 101.087 57.9229 99.9897 60.5563C96.457 59.8494 92.9258 58.0196 89.8392 55.9598C86.7348 56.758 84.6139 57.3036 84.6139 57.3036C84.1115 69.0573 90.2261 90.1642 90.2261 90.1642C75.968 103.385 74.9927 121.693 67.0286 138.219C83.5534 150.576 106.211 161.328 128.106 151.431C128.106 151.431 126.296 109.414 115.26 92.5912Z" fill="#F69D62"/>
<path fill-rule="evenodd" clip-rule="evenodd" d="M102.683 52.6572C98.2317 53.8019 93.3908 55.0466 89.8394 55.9599C92.8707 59.2495 96.5924 61.1876 101.37 61.1876C102.468 58.5543 102.683 56.1355 102.683 52.6572Z" fill="#8F4F48"/>
<path fill-rule="evenodd" clip-rule="evenodd" d="M111.405 67.5644C111.668 67.5235 111.914 67.7031 111.955 67.9657C111.996 68.2283 111.816 68.4743 111.553 68.5152C106.756 69.263 102.048 70.577 97.5589 72.4212C97.3131 72.5222 97.032 72.4048 96.931 72.159C96.83 71.9132 96.9474 71.6321 97.1932 71.5311C101.753 69.6582 106.534 68.3238 111.405 67.5644Z" fill="#FD7820"/>
<path fill-rule="evenodd" clip-rule="evenodd" d="M68.6737 147.047C68.7591 146.796 69.0324 146.661 69.284 146.746C69.5356 146.832 69.6703 147.105 69.5849 147.357C69.1297 148.697 68.8402 150.095 68.725 151.508C68.7034 151.772 68.4711 151.97 68.2063 151.948C67.9414 151.926 67.7442 151.694 67.7658 151.429C67.8875 149.938 68.1931 148.462 68.6737 147.047Z" fill="#753730"/>
<path fill-rule="evenodd" clip-rule="evenodd" d="M143.189 6.87753C143.118 6.87753 143.047 6.84674 142.999 6.78708C142.141 5.71313 140.811 5.00824 139.441 4.90142C139.307 4.89036 139.207 4.77392 139.217 4.64016C139.228 4.50543 139.344 4.39958 139.479 4.4169C140.98 4.53382 142.438 5.30608 143.379 6.48298C143.462 6.5874 143.446 6.74088 143.341 6.82461C143.296 6.86021 143.242 6.87753 143.189 6.87753Z" fill="#753730"/>
<path fill-rule="evenodd" clip-rule="evenodd" d="M84.6137 57.3034L65.3679 43.1598L44.6965 15.0512C44.4737 14.8115 44.2707 14.5536 44.0921 14.2799C44.6575 12.514 46.1664 9.00254 45.7213 8.63445C45.2767 8.26589 43.2203 10.1852 42.896 11.5854C40.6697 9.13149 35.8432 6.10405 35.9255 7.05819C35.9823 7.71881 38.5564 9.55683 39.946 10.9084C38.0228 9.15074 33.4865 7.63317 33.4369 8.11577C33.3874 8.59885 37.9459 11.5705 37.9459 11.5705C37.9459 11.5705 32.4058 8.87359 32.4058 9.62082C32.4058 10.369 37.2472 12.9153 37.2472 12.9153C37.2472 12.9153 32.5175 10.5735 32.4616 11.1355C32.4058 11.6975 37.9016 15.1998 40.1005 17.9184C43.2453 24.2946 53.1797 42.9077 58.8227 49.8238C68.4401 61.3355 86.6764 75.4921 86.6764 75.4921C90.1782 71.7876 88.7627 62.3517 84.6137 57.3034Z" fill="#8F4F48"/>
<path fill-rule="evenodd" clip-rule="evenodd" d="M42.0601 11.0317C42.1264 11.1468 42.0869 11.2939 41.9717 11.3602L38.6728 13.2599C38.5577 13.3261 38.4106 13.2865 38.3443 13.1714C38.2781 13.0562 38.3177 12.9091 38.4328 12.8428L41.7316 10.9433C41.8467 10.877 41.9938 10.9165 42.0601 11.0317Z" fill="#753730"/>
<path fill-rule="evenodd" clip-rule="evenodd" d="M46.6527 198.999C43.4414 199.203 40.617 196.904 38.5755 194.417C36.5344 191.93 34.8254 189.052 32.129 187.297C24.9535 182.624 13.7209 194.034 13.7209 194.034L8.7669 192.673C8.7669 192.673 0.535761 195.045 1.09535 197.571C1.41291 199.005 3.59014 198.933 4.96144 198.409C6.33225 197.886 6.50113 197.345 7.44853 198.465C14.6741 207.01 20.957 203.623 21.9756 201.524C27.3621 207.074 30.5998 215.816 35.9854 215.816C37.5059 221.676 42.0076 229.06 46.3365 233.291C46.7816 233.726 47.3152 234.177 47.9354 234.134C48.7115 234.08 49.2312 233.233 49.2264 232.455C49.2215 231.677 46.1171 219.259 46.312 214.909C47.6583 219.971 50.4971 223.781 53.8041 227.843C54.7269 228.977 56.1329 230.164 57.4811 229.599C58.6291 229.119 51.6629 208.871 51.0807 205.861C50.4985 202.85 49.7123 198.805 46.6527 198.999Z" fill="#E1DCD4"/>
<path fill-rule="evenodd" clip-rule="evenodd" d="M24.2094 187.564C21.7146 180.371 23.6729 171.831 29.0517 166.443C27.1175 163.288 21.3263 165.25 21.4927 170.707C20.9284 170.012 21.064 168.99 20.937 168.12C20.8023 167.197 19.8953 165.701 18.7704 166.414C18.3061 166.708 18.0655 167.248 17.8937 167.77C17.0363 170.372 17.2788 173.326 18.3936 175.814C17.6589 174.175 15.4894 175.091 15.1612 176.514C14.9615 177.38 15.2632 178.3 15.7704 179.028C16.278 179.757 16.9747 180.328 17.6627 180.889C16.2698 179.753 15.7559 182.252 16.1428 183.111C17.3433 185.77 19.5267 188.06 21.8435 189.791" fill="#E1DCD4"/>
<path fill-rule="evenodd" clip-rule="evenodd" d="M46.6136 198.123C43.4577 198.123 40.8903 201.077 40.8903 204.708C40.8903 208.34 43.4577 211.294 46.6136 211.294C49.77 211.294 52.337 208.34 52.337 204.708C52.337 201.077 49.77 198.123 46.6136 198.123ZM46.6136 213.629C42.3386 213.629 38.8608 209.627 38.8608 204.708C38.8608 199.789 42.3386 195.787 46.6136 195.787C50.8887 195.787 54.3665 199.789 54.3665 204.708C54.3665 209.627 50.8887 213.629 46.6136 213.629Z" fill="#5B9274"/>
<path fill-rule="evenodd" clip-rule="evenodd" d="M65.5732 197.887C65.5602 197.828 65.5521 197.793 65.5521 197.793C65.5521 197.793 65.2292 195.441 64.6744 194.16C64.1721 194.202 62.5958 194.291 60.8199 194.393C61.4824 196.45 63.4768 197.423 65.5732 197.887Z" fill="#353D59"/>
<path fill-rule="evenodd" clip-rule="evenodd" d="M60.8199 194.393C58.6697 194.517 56.2278 194.658 55.0413 194.758C54.7752 192.385 51.5596 192.859 51.5596 192.859C51.5596 192.859 50.1922 187.888 49.6922 187.866C48.6631 187.819 47.0204 193.403 47.0204 193.403C47.0204 193.403 46.0393 188.853 44.9933 189.136C43.9477 189.419 41.9731 193.706 42.867 198.684C43.0018 199.434 42.2093 200.91 42.1699 201.78C42.1241 202.792 42.3306 203.801 42.6322 204.777C43.827 208.642 48.0428 208.949 48.6111 206.657C47.17 208.569 50.3091 209.455 52.7105 208.784C53.1368 211.222 56.5766 212.064 56.0575 208.373C56.9091 212.28 60.4037 209.586 60.2642 207.763C60.1944 211.065 64.037 208.66 63.7001 205.561C63.4446 206.44 65.4732 208.785 65.8668 207.392C66.8897 203.777 65.7402 198.627 65.5733 197.888C63.4764 197.424 61.4825 196.451 60.8199 194.393Z" fill="#E1DCD4"/>
<path fill-rule="evenodd" clip-rule="evenodd" d="M48.6938 198.173C48.4864 197.723 48.6832 197.192 49.1317 196.985C49.5811 196.778 50.1128 196.974 50.3196 197.423C50.527 197.872 50.3307 198.403 49.8818 198.611C49.4329 198.818 48.9012 198.622 48.6938 198.173Z" fill="#353D59"/>
<path fill-rule="evenodd" clip-rule="evenodd" d="M53.276 196.18C53.0691 195.731 53.2654 195.199 53.7144 194.992C54.1633 194.785 54.695 194.981 54.9023 195.429C55.1092 195.879 54.9129 196.41 54.4645 196.617C54.0151 196.825 53.4834 196.629 53.276 196.18Z" fill="#353D59"/>
<path fill-rule="evenodd" clip-rule="evenodd" d="M45.1998 190.573C45.7223 191.816 46.0654 193.651 46.1727 194.995L44.261 197.042C43.8891 195.046 44.276 192.454 45.1998 190.573Z" fill="#ED8E93"/>
<path fill-rule="evenodd" clip-rule="evenodd" d="M50.7443 192.969L48.4988 193.503C48.7345 192.242 48.9597 190.491 49.605 189.382C50.0404 190.325 50.5942 191.94 50.7443 192.969Z" fill="#ED8E93"/>
<path fill-rule="evenodd" clip-rule="evenodd" d="M23.5402 198.546C22.3296 199.978 19.8103 200.021 19.2064 201.834C18.7234 203.286 20.0076 204.878 21.4453 205.223C22.0886 205.377 22.7386 205.352 23.3843 205.237C23.3025 205.286 23.2217 205.336 23.1437 205.394C22.3965 205.94 21.899 206.985 22.2392 207.886C22.5611 208.739 23.4757 209.158 24.3231 209.37C25.2348 209.598 26.1755 209.684 27.1075 209.639C26.6105 209.965 26.2405 210.531 26.3126 211.139C26.4122 211.98 27.2475 212.493 28.013 212.763C30.5463 213.657 33.4241 213.349 35.7005 211.937L23.5402 198.546Z" fill="#E1DCD4"/>
<path fill-rule="evenodd" clip-rule="evenodd" d="M49.8939 215.674C49.8939 214.224 48.7193 213.05 47.2701 213.05C45.8209 213.05 44.6464 214.224 44.6464 215.674C44.6464 217.123 45.8209 218.297 47.2701 218.297C48.7193 218.297 49.8939 217.123 49.8939 215.674Z" fill="#F0A95C"/>
<path d="M21.9355 189.366C23.0601 188.422 24.5803 187.969 26.039 188.142C26.1709 188.157 26.2652 188.277 26.2496 188.409C26.2339 188.541 26.1143 188.635 25.9823 188.619C24.6555 188.462 23.2677 188.876 22.2448 189.735C22.1431 189.82 21.9913 189.807 21.9059 189.705C21.8205 189.603 21.8338 189.451 21.9355 189.366Z" fill="#C5BCB0"/>
<path d="M28.5354 187.558C29.7395 187.527 30.9491 187.895 31.9324 188.592C32.0408 188.669 32.0664 188.819 31.9896 188.927C31.9128 189.036 31.7626 189.061 31.6542 188.985C30.7558 188.348 29.6481 188.011 28.5479 188.039C28.415 188.043 28.3046 187.938 28.3011 187.805C28.2977 187.672 28.4026 187.562 28.5354 187.558Z" fill="#C5BCB0"/>
<path d="M26.8731 189.474C27.5899 189.33 28.3492 189.414 29.0154 189.713C29.1366 189.768 29.1907 189.91 29.1363 190.031C29.0819 190.153 28.9395 190.207 28.8183 190.152C28.2438 189.895 27.5866 189.821 26.968 189.946C26.8377 189.972 26.7109 189.887 26.6847 189.757C26.6585 189.627 26.7428 189.5 26.8731 189.474Z" fill="#C5BCB0"/>
<path d="M33.1562 191.286C33.9764 191.338 34.7638 191.753 35.2698 192.4C35.3517 192.505 35.3333 192.656 35.2286 192.738C35.124 192.82 34.9728 192.801 34.8909 192.696C34.4694 192.158 33.8087 191.81 33.1255 191.766C32.9929 191.757 32.8922 191.643 32.9007 191.51C32.9092 191.378 33.0236 191.277 33.1562 191.286Z" fill="#C5BCB0"/>
</svg>
