<svg width="700" height="700" viewBox="0 0 700 700" fill="none" xmlns="http://www.w3.org/2000/svg">
<rect width="700" height="700" fill="white"/>
<rect width="700" height="700" fill="white"/>
<path fill-rule="evenodd" clip-rule="evenodd" d="M595.54 587.726C595.54 581.468 486.056 576.395 351 576.395C215.944 576.395 106.46 581.468 106.46 587.726C106.46 593.985 215.944 599.058 351 599.058C486.056 599.058 595.54 593.985 595.54 587.726Z" fill="#BCE4F0"/>
<path fill-rule="evenodd" clip-rule="evenodd" d="M535.876 583.215L530.871 552.927L515.571 552.601L526.136 582.837L535.876 583.215Z" fill="#F7C7B5"/>
<path fill-rule="evenodd" clip-rule="evenodd" d="M535.876 583.215L526.136 582.837C522.797 583.861 502.707 588.136 502.586 591.741C502.464 595.348 520.114 596.247 533.747 589.801C536.395 588.549 536.349 585.817 535.876 583.215Z" fill="#353D59"/>
<path fill-rule="evenodd" clip-rule="evenodd" d="M460.687 575.463L455.975 546.949L441.573 546.643L451.518 575.107L460.687 575.463Z" fill="#F7C7B5"/>
<path fill-rule="evenodd" clip-rule="evenodd" d="M460.687 575.463L451.518 575.107C448.374 576.069 429.462 580.095 429.348 583.489C429.234 586.884 445.849 587.731 458.683 581.662C461.175 580.484 461.131 577.911 460.687 575.463Z" fill="#353D59"/>
<path fill-rule="evenodd" clip-rule="evenodd" d="M541.85 382.766L471.58 361.71C457.63 379.246 441.79 396.483 428.933 414.836C420.293 427.168 411.629 440.442 410.522 455.458C409.758 465.814 412.689 476.053 415.737 485.98C424.289 513.832 434.012 541.327 444.87 568.364C450.828 568.535 457.931 566.167 463.439 563.887C463.439 563.887 448.492 495.746 445.334 462.895C466.718 440.058 516.075 400.498 541.85 382.766Z" fill="#3B4772"/>
<path fill-rule="evenodd" clip-rule="evenodd" d="M506.926 393.561C506.926 393.561 486.971 436.275 486.63 458.763C486.032 498.23 507.037 534.438 516.582 572.738C523.724 574.042 532.267 573.775 539.371 572.28L525.976 464.678C544.785 436.406 560.906 409.3 566.203 386.892C566.203 386.892 522.34 362.283 506.926 393.561Z" fill="#3B4772"/>
<path fill-rule="evenodd" clip-rule="evenodd" d="M441.071 267.37C436.704 266.902 432.69 267.604 428.393 268.578C424.777 278.032 426.301 292.454 426.301 292.454L438.637 293C437.828 289.135 438.729 281.571 438.729 281.571L441.463 278.604C441.463 278.604 441.804 269.933 441.071 267.37Z" fill="#F7C7B5"/>
<path fill-rule="evenodd" clip-rule="evenodd" d="M489.497 220.795L500.577 235.861L482.415 243.705L475.62 225.482L489.497 220.795Z" fill="#F7C7B5"/>
<path fill-rule="evenodd" clip-rule="evenodd" d="M542.308 380.595C542.48 380.07 543.045 379.784 543.57 379.956C544.095 380.128 544.381 380.693 544.209 381.218C542.619 386.072 543.493 391.683 546.483 395.823C549.475 399.964 554.525 402.557 559.634 402.574C560.186 402.575 560.632 403.025 560.63 403.577C560.629 404.129 560.179 404.575 559.627 404.574C553.879 404.554 548.229 401.654 544.862 396.994C541.497 392.335 540.519 386.058 542.308 380.595Z" fill="#323863"/>
<path fill-rule="evenodd" clip-rule="evenodd" d="M552.903 251.193C549.803 242.442 544.987 224.424 514.52 228.662C513.209 236.052 510.731 243.334 504.549 247.969C493.334 256.127 476.596 257.833 468.469 246.443C461.421 250.303 455.757 254.491 453.875 258.603C451.005 264.878 450.263 271.875 449.674 278.749C447.909 299.381 450.991 336.235 450.991 336.235C450.991 336.235 439.956 305.188 439.398 287.175L424.456 289.719C424.456 289.719 418.109 369.62 461.529 374.003L471.581 361.711C500.48 378.96 532.557 387.683 566.204 386.892C572.595 341.242 568.292 294.645 552.903 251.193Z" fill="#5B9274"/>
<path fill-rule="evenodd" clip-rule="evenodd" d="M510.8 274.273C513.33 270.538 510.8 264.552 510.8 264.552L508.269 265.101C508.269 265.101 506.862 259.882 506.301 258.784C505.738 257.685 495.052 263.178 494.137 265.376C493.222 267.573 501.89 286.25 501.89 286.25L513.893 282.954L510.8 274.273Z" fill="#F7C7B5"/>
<path fill-rule="evenodd" clip-rule="evenodd" d="M480.005 240.205L485.281 238.576C490.005 237.117 492.677 232.059 491.219 227.334L484.516 205.628C483.058 200.904 477.998 198.232 473.275 199.691L467.998 201.32C463.274 202.779 461.662 207.314 462.061 212.562C462.061 212.562 462.319 243.705 480.005 240.205Z" fill="#F7C7B5"/>
<path fill-rule="evenodd" clip-rule="evenodd" d="M467.808 222.831C468.461 222.522 468.741 221.742 468.432 221.09C468.123 220.436 467.343 220.157 466.69 220.466C466.037 220.775 465.758 221.555 466.067 222.208C466.375 222.86 467.156 223.14 467.808 222.831Z" fill="#353D59"/>
<path fill-rule="evenodd" clip-rule="evenodd" d="M476.083 219.782C476.736 219.473 477.016 218.694 476.707 218.04C476.397 217.387 475.618 217.108 474.965 217.417C474.312 217.725 474.033 218.506 474.342 219.158C474.65 219.812 475.43 220.091 476.083 219.782Z" fill="#353D59"/>
<path fill-rule="evenodd" clip-rule="evenodd" d="M478.035 214.236C478.137 214.188 478.222 214.106 478.271 213.997C478.385 213.751 478.276 213.46 478.03 213.346C475.806 212.327 472.88 213.346 471.764 215.524C471.64 215.765 471.736 216.061 471.977 216.185C472.218 216.306 472.512 216.211 472.638 215.971C473.524 214.237 475.853 213.428 477.621 214.239C477.759 214.3 477.909 214.296 478.035 214.236Z" fill="#ED8E93"/>
<path fill-rule="evenodd" clip-rule="evenodd" d="M468.271 217.585C468.394 217.647 468.53 217.647 468.641 217.594C468.728 217.553 468.8 217.481 468.843 217.383C468.94 217.159 468.84 216.889 468.621 216.776C466.64 215.769 464.105 216.461 462.971 218.321C462.845 218.528 462.91 218.809 463.114 218.949C463.319 219.092 463.584 219.035 463.711 218.832C464.611 217.357 466.699 216.785 468.271 217.585Z" fill="#ED8E93"/>
<path fill-rule="evenodd" clip-rule="evenodd" d="M471.052 220.537C471.326 220.501 471.576 220.694 471.612 220.968C471.859 222.874 472.014 224.789 472.078 226.704L472.09 227.237L472.464 227.278C473.118 227.335 473.792 227.327 474.499 227.256L474.927 227.206C475.201 227.169 475.452 227.362 475.489 227.636C475.525 227.909 475.333 228.161 475.059 228.197C473.949 228.345 472.906 228.357 471.894 228.22L471.516 228.162L471.109 228.091L471.102 227.678C471.064 225.482 470.903 223.284 470.62 221.097C470.585 220.823 470.778 220.572 471.052 220.537Z" fill="#E0A797"/>
<path fill-rule="evenodd" clip-rule="evenodd" d="M468.847 207.479C465.023 208.433 460.628 207.781 457.779 205.056C454.929 202.333 454.219 197.363 456.804 194.387C458.594 192.328 461.508 191.56 464.236 191.658C466.963 191.755 472.249 193.251 472.249 193.251C472.249 193.251 482.49 196.501 479.876 201.399C478.404 204.158 471.596 206.793 468.847 207.479Z" fill="#ED8E93"/>
<path fill-rule="evenodd" clip-rule="evenodd" d="M478.908 201.992C479.489 199.378 481.451 196.714 484.129 196.707C486.575 196.701 488.444 198.857 489.686 200.966C491.261 203.64 492.446 206.736 491.96 209.802C490.022 222.016 477.002 210.557 478.908 201.992Z" fill="#ED8E93"/>
<path fill-rule="evenodd" clip-rule="evenodd" d="M493.637 218.092C494.643 216.049 494.172 213.103 492.091 212.18C490.671 211.55 488.933 212.063 487.79 213.115C486.649 214.168 486.014 215.664 485.617 217.165L488.699 222.674C490.627 221.466 492.632 220.134 493.637 218.092Z" fill="#F7C7B5"/>
<path fill-rule="evenodd" clip-rule="evenodd" d="M490.505 214.703C490.739 214.556 491.047 214.627 491.194 214.861C491.341 215.095 491.27 215.403 491.036 215.55C490.337 215.988 489.711 216.543 489.189 217.183L489.13 217.257L490.565 216.74C490.684 216.696 490.798 216.653 490.918 216.606C491.176 216.508 491.465 216.636 491.564 216.894C491.663 217.152 491.534 217.441 491.276 217.54L490.443 217.85L488.585 218.517L488.075 218.708L486.846 219.178L487.453 218.011C488.153 216.664 489.218 215.509 490.505 214.703Z" fill="#E0A797"/>
<path fill-rule="evenodd" clip-rule="evenodd" d="M480.424 230.425C480.453 229.87 480.435 229.322 480.364 228.821L470.611 231.84C470.862 232.247 471.14 232.666 471.443 233.074L480.424 230.425Z" fill="white"/>
<path fill-rule="evenodd" clip-rule="evenodd" d="M474.682 235.578C476.331 235.957 478.135 235.252 479.233 233.964C480.001 233.06 480.356 231.723 480.423 230.426L471.442 233.075C472.297 234.228 473.364 235.275 474.682 235.578Z" fill="#353D59"/>
<path fill-rule="evenodd" clip-rule="evenodd" d="M504.55 247.969C510.732 243.333 513.209 236.052 514.521 228.661C513.027 229.041 511.545 229.448 510.092 229.859C510.092 229.859 485.321 237.215 468.47 246.443C476.597 257.832 493.334 256.126 504.55 247.969Z" fill="#F7C7B5"/>
<path fill-rule="evenodd" clip-rule="evenodd" d="M464.101 271.419C464.646 271.329 465.161 271.697 465.251 272.242L465.711 275.04C471.296 309.343 473.686 336.205 472.579 361.754C472.556 362.306 472.089 362.734 471.537 362.71C470.985 362.686 470.557 362.219 470.581 361.667C471.711 335.593 469.17 308.093 463.278 272.569C463.187 272.024 463.556 271.51 464.101 271.419Z" fill="#437858"/>
<path fill-rule="evenodd" clip-rule="evenodd" d="M544.987 236.625L545.132 341.022C536.07 320.654 526.994 300.48 517.933 280.111L498.037 285.615C504.986 307.621 511.811 330.951 520.739 352.231C524.955 362.279 530.74 373.248 541.222 376.224C551.113 379.03 561.915 373.129 567.567 364.54C573.218 355.952 574.686 345.295 575.018 335.019C576.084 302.069 557.372 248.08 544.987 236.625Z" fill="#5B9274"/>
<path fill-rule="evenodd" clip-rule="evenodd" d="M497.536 287.353L496.771 284.927L518.497 278.917L550.053 349.593C550.278 350.098 550.05 350.689 549.546 350.913C549.041 351.138 548.45 350.911 548.226 350.406L517.37 281.304L499.301 286.302L505.122 304.91C505.698 306.742 506.225 308.41 506.738 310.024L507.929 313.748C512.886 329.156 517.07 340.899 521.662 351.844L522.161 353.018C527.653 365.767 533.211 372.909 541.495 375.261C550.409 377.79 560.926 372.811 566.732 363.99C567.036 363.528 567.656 363.401 568.117 363.704C568.579 364.008 568.706 364.628 568.403 365.089C562.15 374.59 550.777 379.974 540.949 377.185C531.773 374.58 525.862 366.849 520.066 353.206L519.817 352.617C515.41 342.112 511.381 330.891 506.699 316.449L505.343 312.233C504.947 310.994 504.55 309.746 504.136 308.434L497.536 287.353Z" fill="#437858"/>
<path fill-rule="evenodd" clip-rule="evenodd" d="M514.348 227.677C514.892 227.581 515.41 227.945 515.505 228.489L515.537 228.709C515.544 228.772 515.552 228.844 515.559 228.925C515.726 230.707 515.52 233.004 514.658 235.625C513.388 239.49 510.905 243.288 506.944 246.817C504.688 248.828 501.992 250.71 498.827 252.442C488.756 257.953 479.835 256.801 472.495 251.543C471.134 250.568 469.945 249.524 468.933 248.478L468.587 248.114C468.158 247.652 467.851 247.284 467.671 247.045C467.338 246.603 467.427 245.976 467.868 245.644C468.309 245.312 468.936 245.4 469.268 245.841L469.392 245.997C469.431 246.045 469.478 246.101 469.532 246.166C469.766 246.442 470.045 246.752 470.37 247.087C471.302 248.051 472.402 249.016 473.66 249.917C480.413 254.754 488.521 255.802 497.866 250.688C500.902 249.027 503.473 247.232 505.614 245.324C509.311 242.03 511.598 238.532 512.758 235C513.483 232.795 513.687 230.872 513.59 229.384L513.56 229.029L513.536 228.835C513.44 228.291 513.804 227.772 514.348 227.677Z" fill="#437858"/>
<path fill-rule="evenodd" clip-rule="evenodd" d="M487.764 232.725C487.874 232.472 488.168 232.355 488.421 232.464C488.675 232.573 488.792 232.868 488.683 233.121C487.177 236.614 484.069 239.371 480.421 240.45C480.156 240.528 479.878 240.377 479.8 240.112C479.722 239.847 479.873 239.569 480.138 239.491C483.501 238.496 486.376 235.945 487.764 232.725Z" fill="#E0A797"/>
<path fill-rule="evenodd" clip-rule="evenodd" d="M507.142 262.265C507.376 262.191 507.624 262.297 507.735 262.507L507.77 262.59L509.692 268.616C509.776 268.879 509.631 269.16 509.368 269.244C509.134 269.319 508.885 269.212 508.774 269.003L508.739 268.92L506.817 262.894C506.733 262.631 506.879 262.349 507.142 262.265Z" fill="#E0A797"/>
<path fill-rule="evenodd" clip-rule="evenodd" d="M536.209 291.586C536.758 291.531 537.248 291.932 537.303 292.481L537.405 293.456C537.915 298.105 538.876 304.191 540.197 311.37L540.688 314C540.94 315.332 541.202 316.689 541.472 318.068C542.314 322.361 543.208 326.699 544.109 330.918L544.831 334.267L545.962 339.376C546.085 339.914 545.748 340.45 545.209 340.573C544.671 340.696 544.135 340.358 544.012 339.82L543.625 338.093C543.355 336.883 543.059 335.536 542.742 334.073L542.605 333.439C541.55 328.557 540.494 323.475 539.51 318.453L538.979 315.716C538.72 314.363 538.47 313.034 538.23 311.732L537.951 310.201C536.673 303.134 535.764 297.185 535.313 292.68C535.258 292.131 535.659 291.641 536.209 291.586Z" fill="#437858"/>
<path fill-rule="evenodd" clip-rule="evenodd" d="M507.853 390.699C508.376 390.877 508.656 391.445 508.478 391.968L498.332 421.816C498.154 422.338 497.586 422.618 497.063 422.441C496.54 422.263 496.26 421.695 496.438 421.172L506.584 391.324C506.762 390.801 507.33 390.521 507.853 390.699Z" fill="#323863"/>
<path fill-rule="evenodd" clip-rule="evenodd" d="M533.295 566.57C533.837 566.46 534.364 566.81 534.474 567.351L535.171 570.783C535.281 571.324 534.931 571.852 534.39 571.962C533.849 572.072 533.321 571.722 533.211 571.18L532.514 567.749C532.404 567.207 532.754 566.68 533.295 566.57Z" fill="#323863"/>
<path fill-rule="evenodd" clip-rule="evenodd" d="M533.099 560.59L531.724 553.831C531.614 553.289 531.086 552.94 530.545 553.05C530.004 553.16 529.654 553.688 529.764 554.229L531.139 560.989C531.249 561.53 531.777 561.879 532.318 561.769C532.859 561.659 533.209 561.131 533.099 560.59ZM530.349 547.068L528.974 540.308C528.864 539.767 528.336 539.417 527.795 539.528C527.254 539.638 526.904 540.166 527.014 540.707L528.389 547.466C528.499 548.008 529.027 548.357 529.568 548.247C530.109 548.137 530.459 547.609 530.349 547.068ZM527.599 533.548L526.225 526.787C526.115 526.246 525.587 525.897 525.045 526.007C524.504 526.117 524.155 526.645 524.265 527.186L525.639 533.946C525.75 534.488 526.277 534.837 526.819 534.727C527.36 534.617 527.709 534.089 527.599 533.548ZM524.85 520.027L523.475 513.266C523.365 512.725 522.837 512.376 522.296 512.486C521.755 512.596 521.405 513.124 521.515 513.665L522.89 520.425C523 520.967 523.528 521.316 524.069 521.206C524.61 521.096 524.96 520.568 524.85 520.027ZM522.181 506.533C521.875 504.591 521.579 502.315 521.294 499.739C521.233 499.19 520.739 498.794 520.19 498.855C519.641 498.916 519.245 499.41 519.306 499.959L519.464 501.35C519.704 503.391 519.951 505.228 520.205 506.845C520.291 507.39 520.803 507.763 521.349 507.677C521.894 507.591 522.267 507.079 522.181 506.533ZM520.621 492.893L520.432 490.676C520.307 489.174 520.187 487.623 520.07 486.03C520.029 485.479 519.55 485.065 518.999 485.106C518.448 485.146 518.034 485.625 518.075 486.176L518.254 488.543C518.375 490.098 518.5 491.609 518.628 493.068C518.677 493.619 519.162 494.025 519.712 493.977C520.262 493.928 520.669 493.443 520.621 492.893ZM519.603 479.158C519.457 476.843 519.324 474.54 519.202 472.28C519.172 471.729 518.701 471.306 518.149 471.336C517.598 471.365 517.175 471.837 517.205 472.388C517.327 474.653 517.461 476.962 517.607 479.284C517.641 479.835 518.116 480.254 518.667 480.219C519.219 480.184 519.637 479.709 519.603 479.158ZM518.862 465.401L518.829 464.638L518.777 464.885C518.737 465.12 518.808 465.01 518.897 464.873L519.555 463.851L520.396 462.529C520.885 461.756 521.408 460.92 521.963 460.026C522.254 459.557 522.11 458.94 521.641 458.649C521.171 458.358 520.555 458.502 520.264 458.972L518.62 461.59C517.731 463.024 516.823 464.533 516.831 464.721L516.864 465.489C516.888 466.041 517.355 466.468 517.907 466.444C518.459 466.42 518.886 465.953 518.862 465.401ZM525.557 454.118C526.721 452.167 527.888 450.175 529.049 448.15C529.324 447.671 529.159 447.06 528.68 446.785C528.201 446.51 527.589 446.676 527.315 447.155C526.159 449.169 524.997 451.152 523.839 453.094C523.556 453.568 523.711 454.182 524.186 454.465C524.66 454.748 525.274 454.593 525.557 454.118ZM532.439 442.117C533.562 440.075 534.655 438.04 535.712 436.02C535.968 435.531 535.779 434.926 535.29 434.67C534.801 434.414 534.196 434.603 533.94 435.093C532.889 437.101 531.803 439.123 530.687 441.154C530.421 441.638 530.597 442.246 531.081 442.512C531.565 442.778 532.173 442.601 532.439 442.117ZM538.851 429.849C539.899 427.725 540.893 425.638 541.828 423.594C542.058 423.092 541.837 422.499 541.335 422.269C540.833 422.039 540.24 422.26 540.01 422.762C539.083 424.788 538.097 426.857 537.057 428.965C536.813 429.46 537.016 430.06 537.512 430.304C538.007 430.548 538.607 430.345 538.851 429.849ZM544.605 417.234C545.531 414.998 546.369 412.836 547.113 410.755C547.299 410.234 547.028 409.662 546.508 409.476C545.988 409.29 545.416 409.561 545.23 410.081C544.497 412.13 543.671 414.262 542.757 416.469C542.546 416.979 542.789 417.564 543.299 417.775C543.809 417.987 544.394 417.744 544.605 417.234Z" fill="#323863"/>
<path fill-rule="evenodd" clip-rule="evenodd" d="M548.164 400.245C548.285 399.707 548.821 399.369 549.36 399.49C549.898 399.612 550.236 400.148 550.115 400.686C549.864 401.794 549.572 402.942 549.24 404.128C549.091 404.66 548.539 404.971 548.008 404.822C547.476 404.673 547.165 404.121 547.314 403.589C547.637 402.434 547.921 401.319 548.164 400.245Z" fill="#323863"/>
<path fill-rule="evenodd" clip-rule="evenodd" d="M485.002 385.633C485.265 385.147 485.871 384.966 486.357 385.229C492.949 388.797 499.336 392.744 505.473 397.044C505.925 397.361 506.035 397.984 505.718 398.436C505.401 398.889 504.778 398.998 504.325 398.682C498.251 394.426 491.93 390.519 485.405 386.988C484.92 386.725 484.739 386.118 485.002 385.633Z" fill="#323863"/>
<path fill-rule="evenodd" clip-rule="evenodd" d="M503.002 399.706L500.915 401.489C499.859 402.389 498.781 403.3 497.676 404.23C497.253 404.586 497.198 405.217 497.554 405.639C497.91 406.062 498.54 406.116 498.963 405.761C500.81 404.207 502.581 402.703 504.304 401.224C504.724 400.864 504.772 400.233 504.412 399.814C504.052 399.395 503.421 399.347 503.002 399.706ZM492.306 408.712L487.505 412.675C487.309 412.836 487.111 412.999 486.91 413.164C486.483 413.515 486.422 414.145 486.772 414.572C487.123 414.999 487.753 415.06 488.18 414.709L493.083 410.666C493.25 410.527 493.417 410.389 493.583 410.252C494.008 409.899 494.067 409.269 493.714 408.844C493.362 408.418 492.732 408.359 492.306 408.712ZM481.499 417.605L476.089 422.053C475.663 422.404 475.602 423.035 475.954 423.461C476.305 423.887 476.935 423.947 477.362 423.596L482.768 419.152C483.195 418.801 483.257 418.171 482.907 417.744C482.556 417.317 481.926 417.255 481.499 417.605ZM470.695 426.526L469.107 427.854C467.805 428.947 466.552 430.004 465.333 431.042C464.913 431.4 464.862 432.031 465.22 432.451C465.578 432.872 466.209 432.923 466.629 432.565L468.105 431.313C469.35 430.26 470.635 429.181 471.977 428.061C472.401 427.707 472.457 427.076 472.104 426.652C471.75 426.228 471.119 426.172 470.695 426.526ZM460.022 435.617C458.218 437.193 456.473 438.739 454.773 440.272C454.362 440.642 454.33 441.274 454.699 441.685C455.069 442.095 455.701 442.128 456.112 441.758C457.804 440.232 459.541 438.692 461.337 437.124C461.753 436.761 461.796 436.129 461.433 435.713C461.069 435.297 460.438 435.254 460.022 435.617ZM449.598 445.024C447.869 446.642 446.179 448.257 444.522 449.874C444.127 450.26 444.119 450.893 444.505 451.289C444.891 451.684 445.524 451.691 445.919 451.305C447.566 449.698 449.245 448.093 450.965 446.484C451.368 446.106 451.389 445.474 451.011 445.07C450.634 444.667 450.001 444.646 449.598 445.024ZM439.556 454.835L438.45 455.971L438.519 456.456C438.789 458.366 439.07 460.313 439.365 462.31C439.446 462.856 439.954 463.234 440.5 463.153C441.047 463.072 441.424 462.564 441.344 462.018L440.912 459.065C440.771 458.092 440.634 457.129 440.499 456.176L439.509 456.316L440.227 457.013L440.986 456.234C441.372 455.839 441.365 455.206 440.97 454.82C440.575 454.433 439.942 454.44 439.556 454.835ZM440.411 469.237C440.766 471.541 441.13 473.847 441.501 476.155C441.589 476.701 442.102 477.071 442.648 476.984C443.193 476.896 443.564 476.383 443.476 475.837C443.105 473.534 442.742 471.232 442.387 468.932C442.303 468.386 441.792 468.012 441.247 468.096C440.701 468.18 440.326 468.691 440.411 469.237ZM442.638 483.074C443.024 485.375 443.417 487.678 443.819 489.982C443.913 490.526 444.431 490.89 444.975 490.796C445.519 490.701 445.884 490.183 445.789 489.639C445.388 487.339 444.996 485.04 444.611 482.743C444.519 482.199 444.004 481.831 443.459 481.922C442.914 482.014 442.547 482.529 442.638 483.074ZM445.043 496.884C445.458 499.179 445.881 501.476 446.311 503.773C446.412 504.316 446.935 504.674 447.478 504.572C448.02 504.471 448.378 503.948 448.277 503.405C447.847 501.112 447.425 498.82 447.011 496.528C446.913 495.984 446.393 495.623 445.849 495.722C445.306 495.82 444.945 496.34 445.043 496.884ZM447.622 510.659C448.066 512.95 448.517 515.242 448.976 517.533C449.084 518.075 449.611 518.426 450.153 518.317C450.694 518.209 451.045 517.682 450.937 517.141C450.479 514.853 450.029 512.566 449.586 510.279C449.481 509.737 448.956 509.382 448.414 509.487C447.872 509.592 447.517 510.117 447.622 510.659ZM450.371 524.394C450.844 526.681 451.323 528.967 451.81 531.252C451.925 531.792 452.456 532.137 452.997 532.022C453.537 531.907 453.881 531.375 453.766 530.835C453.28 528.554 452.801 526.272 452.33 523.99C452.218 523.449 451.689 523.101 451.148 523.213C450.607 523.325 450.26 523.854 450.371 524.394ZM453.292 538.103C453.792 540.383 454.3 542.663 454.815 544.941C454.936 545.48 455.472 545.818 456.01 545.696C456.549 545.574 456.887 545.039 456.765 544.5C456.252 542.226 455.745 539.951 455.245 537.674C455.127 537.134 454.593 536.793 454.054 536.911C453.515 537.03 453.173 537.563 453.292 538.103ZM456.379 551.77C456.908 554.045 457.444 556.319 457.986 558.59C458.114 559.127 458.654 559.458 459.191 559.33C459.728 559.202 460.06 558.662 459.931 558.125C459.39 555.858 458.855 553.589 458.328 551.317C458.203 550.78 457.665 550.445 457.127 550.57C456.589 550.695 456.254 551.232 456.379 551.77Z" fill="#323863"/>
<path fill-rule="evenodd" clip-rule="evenodd" d="M449.294 332.007C449.806 331.802 450.388 332.052 450.593 332.565L457.632 350.173C457.837 350.685 457.588 351.267 457.075 351.472C456.562 351.677 455.98 351.428 455.775 350.915L448.736 333.307C448.531 332.794 448.781 332.212 449.294 332.007Z" fill="#437858"/>
<path fill-rule="evenodd" clip-rule="evenodd" d="M405.909 112.807C405.909 112.807 415.971 107.515 415.971 105.96C415.971 104.406 404.457 110.011 404.457 110.011C404.457 110.011 413.93 103.836 413.827 102.832C413.724 101.828 404.297 104.983 400.3 108.635C403.187 105.827 408.538 102.007 408.656 100.634C408.827 98.6509 398.796 104.943 394.169 110.043C393.495 107.133 389.221 103.143 388.296 103.91C387.372 104.674 390.507 111.972 391.682 115.642C391.54 115.861 361.806 165.845 361.806 165.845C361.806 165.845 343.037 189.294 325.439 213.216L339.38 240.69C349.821 227.753 367.476 189.531 367.476 189.531C367.476 189.531 385.987 152.839 398.567 124.828C402.502 120.177 405.375 117.745 405.375 117.745C405.375 117.745 415.971 110.276 415.854 109.107C415.739 107.939 405.909 112.807 405.909 112.807Z" fill="#F7C7B5"/>
<path fill-rule="evenodd" clip-rule="evenodd" d="M354.823 361.06L311.878 341.086C312.204 377.243 318.612 406.073 332.75 439.352C315.803 450.776 298.276 504.037 289.543 533.034L299.184 536.985C318.515 490.783 389.21 452.065 354.823 361.06Z" fill="#F7C7B5"/>
<path fill-rule="evenodd" clip-rule="evenodd" d="M299.274 536.79C296.079 536.128 293.294 533.948 290.826 530.591C278.585 532.102 300.523 561.395 303.355 559.527C306.188 557.658 299.274 536.79 299.274 536.79Z" fill="#353D59"/>
<path fill-rule="evenodd" clip-rule="evenodd" d="M190.045 340.262C183.089 347.718 176.956 355.879 176.743 366.074C176.732 366.669 176.849 367.425 177.424 367.572C177.919 367.697 178.361 367.259 178.684 366.864C182.733 361.903 186.782 356.941 190.831 351.98L195.236 344.848C193.524 343.323 191.794 341.795 190.045 340.262Z" fill="#353D59"/>
<path fill-rule="evenodd" clip-rule="evenodd" d="M190.831 351.98C204.877 380.21 219.5 410.589 242.69 431.955C245.909 434.92 249.388 437.787 253.541 439.169C267.916 443.956 279.861 424.348 285.975 414.284C300.937 389.652 314.469 364.151 326.478 337.953L289.066 292.88C276.035 319.233 255.529 377.598 248.055 406.031C234.039 381.533 216.014 363.356 195.236 344.848" fill="#F7C7B5"/>
<path fill-rule="evenodd" clip-rule="evenodd" d="M299.656 165.252C306.296 165.743 316.002 170.472 313.158 183.373C326.25 188.887 329.808 204.206 321.208 217.169C307.834 237.324 288.518 245.901 270.707 225.288C266.39 220.291 265.304 213.331 266.779 207.019C267.496 203.949 268.803 200.999 270.635 198.432C272.423 195.929 275.603 194.2 277.023 191.523C278.669 188.419 277.869 188.261 278.191 184.583C280.146 162.267 299.656 165.252 299.656 165.252Z" fill="#4C7BB1"/>
<path fill-rule="evenodd" clip-rule="evenodd" d="M299.99 220.78L293.82 199.487C291.879 199.365 289.025 198.199 287.968 196.567C286.91 194.934 286.962 192.558 288.34 191.185C289.718 189.812 292.373 189.918 293.412 191.562C301.222 184.961 301.516 179.847 301.758 173.607C305.953 175.058 311.645 179.822 311.645 179.822C311.645 179.822 312.936 182.59 314.03 185.595C316.676 192.864 315.683 198.49 310.808 201.634L316.002 215.97" fill="#F7C7B5"/>
<path fill-rule="evenodd" clip-rule="evenodd" d="M309.18 182.579C308.98 182.019 308.365 181.728 307.806 181.928C307.246 182.128 306.955 182.743 307.155 183.302C307.355 183.861 307.97 184.152 308.529 183.953C309.088 183.753 309.379 183.138 309.18 182.579Z" fill="#353D59"/>
<path fill-rule="evenodd" clip-rule="evenodd" d="M302.596 185.612C302.396 185.052 301.781 184.761 301.222 184.961C300.662 185.161 300.37 185.776 300.571 186.336C300.771 186.894 301.386 187.186 301.945 186.986C302.504 186.786 302.795 186.171 302.596 185.612Z" fill="#353D59"/>
<path fill-rule="evenodd" clip-rule="evenodd" d="M297.589 184.894C297.502 184.925 297.404 184.927 297.312 184.892C297.104 184.815 296.997 184.582 297.075 184.373C297.776 182.489 300.07 181.382 301.985 182C302.196 182.069 302.313 182.297 302.244 182.508C302.175 182.719 301.948 182.834 301.735 182.768C300.213 182.274 298.389 183.157 297.831 184.656C297.787 184.771 297.696 184.856 297.589 184.894Z" fill="#353D59"/>
<path fill-rule="evenodd" clip-rule="evenodd" d="M305.003 181.39C304.928 181.416 304.844 181.417 304.763 181.385C304.576 181.311 304.477 181.096 304.54 180.903C305.106 179.166 306.982 178.096 308.723 178.519C308.916 178.567 309.042 178.767 309.006 178.968C308.969 179.169 308.78 179.291 308.589 179.246C307.209 178.912 305.663 179.791 305.213 181.17C305.178 181.278 305.099 181.356 305.003 181.39Z" fill="#353D59"/>
<path fill-rule="evenodd" clip-rule="evenodd" d="M305.473 184.343C305.674 184.203 305.943 184.231 306.111 184.398L306.169 184.468L309.229 188.866L307.067 190.371C306.84 190.528 306.529 190.472 306.371 190.246C306.231 190.044 306.259 189.776 306.427 189.608L306.496 189.55L307.837 188.615L305.348 185.039C305.208 184.837 305.236 184.569 305.404 184.401L305.473 184.343Z" fill="#E0A797"/>
<path fill-rule="evenodd" clip-rule="evenodd" d="M303.784 194.717C304.616 196.059 306.063 197.058 307.6 196.965C309.607 196.844 311.414 195.183 311.703 193.194C311.762 192.791 311.71 192.331 311.63 191.869L303.784 194.717Z" fill="#353D59"/>
<path fill-rule="evenodd" clip-rule="evenodd" d="M303.845 194.821L311.645 191.991C311.559 191.457 311.429 190.915 311.363 190.449L303.203 193.411C303.336 193.903 303.558 194.382 303.845 194.821Z" fill="white"/>
<path fill-rule="evenodd" clip-rule="evenodd" d="M289.239 192.718C289.406 192.499 289.72 192.457 289.94 192.624L293.872 195.622L292.928 195.902C291.903 196.206 290.83 196.349 289.762 196.323C289.486 196.316 289.268 196.087 289.275 195.81C289.281 195.534 289.511 195.316 289.787 195.323C290.389 195.338 290.993 195.293 291.587 195.19L291.641 195.179L289.333 193.419C289.114 193.252 289.071 192.938 289.239 192.718Z" fill="#E0A797"/>
<path fill-rule="evenodd" clip-rule="evenodd" d="M295.256 199.692C295.025 198.78 294.097 198.229 293.185 198.461C292.273 198.693 291.722 199.62 291.953 200.532C292.186 201.444 293.113 201.996 294.026 201.763C294.937 201.532 295.488 200.604 295.256 199.692Z" fill="white"/>
<path fill-rule="evenodd" clip-rule="evenodd" d="M344.265 292.694L344.552 292.722C344.552 292.722 351.781 240.384 347.051 232.215C342.321 224.048 327.775 207.216 327.775 207.216C324.782 207.986 321.507 208.828 318.126 209.698C316.635 215.17 314.809 220.642 312.529 226.115C305.187 224.646 297.848 220.843 291.433 216.562C284.981 218.221 280.573 219.355 280.573 219.355C279.529 243.783 292.237 287.65 292.237 287.65C262.604 315.128 260.577 353.178 244.025 387.524C278.369 413.205 325.458 435.551 370.963 414.982C370.963 414.982 367.203 327.657 344.265 292.694Z" fill="#ED8E93"/>
<path fill-rule="evenodd" clip-rule="evenodd" d="M318.127 209.698C308.876 212.077 298.815 214.664 291.434 216.562C297.734 223.399 305.469 227.427 315.399 227.427C317.68 221.954 318.127 216.927 318.127 209.698Z" fill="#F7C7B5"/>
<path fill-rule="evenodd" clip-rule="evenodd" d="M336.254 240.68C336.8 240.595 337.311 240.968 337.396 241.514C337.482 242.06 337.108 242.571 336.562 242.656C326.593 244.21 316.808 246.941 307.477 250.774C306.967 250.984 306.382 250.74 306.172 250.229C305.963 249.718 306.207 249.134 306.717 248.924C316.193 245.031 326.13 242.258 336.254 240.68Z" fill="#D76D75"/>
<path fill-rule="evenodd" clip-rule="evenodd" d="M247.444 405.872C247.622 405.349 248.19 405.069 248.713 405.247C249.236 405.425 249.516 405.993 249.338 406.515C248.392 409.301 247.791 412.206 247.551 415.142C247.506 415.693 247.024 416.102 246.473 416.058C245.923 416.013 245.513 415.53 245.558 414.98C245.811 411.88 246.446 408.813 247.444 405.872Z" fill="#E0A797"/>
<path fill-rule="evenodd" clip-rule="evenodd" d="M402.311 114.554C402.164 114.554 402.016 114.49 401.916 114.366C400.133 112.134 397.369 110.669 394.521 110.447C394.243 110.424 394.036 110.182 394.057 109.904C394.079 109.624 394.32 109.404 394.6 109.44C397.721 109.683 400.751 111.288 402.706 113.734C402.879 113.951 402.845 114.27 402.627 114.444C402.534 114.518 402.422 114.554 402.311 114.554Z" fill="#E0A797"/>
<path fill-rule="evenodd" clip-rule="evenodd" d="M280.573 219.355L240.574 189.96L197.612 131.541C197.149 131.043 196.727 130.507 196.356 129.938C197.531 126.268 200.667 118.97 199.742 118.205C198.818 117.439 194.544 121.428 193.87 124.338C189.243 119.238 179.212 112.946 179.383 114.929C179.501 116.302 184.851 120.122 187.739 122.931C183.742 119.278 174.314 116.124 174.211 117.127C174.108 118.131 183.582 124.307 183.582 124.307C183.582 124.307 172.068 118.702 172.068 120.255C172.068 121.81 182.13 127.102 182.13 127.102C182.13 127.102 172.3 122.235 172.184 123.403C172.068 124.571 183.49 131.85 188.06 137.5C194.596 150.752 215.243 189.436 226.971 203.81C246.959 227.735 284.86 257.157 284.86 257.157C292.138 249.458 289.196 229.847 280.573 219.355Z" fill="#F7C7B5"/>
<path fill-rule="evenodd" clip-rule="evenodd" d="M192.133 123.187C192.271 123.426 192.188 123.732 191.949 123.869L185.093 127.817C184.854 127.955 184.548 127.873 184.41 127.634C184.272 127.394 184.355 127.088 184.594 126.951L191.45 123.003C191.689 122.865 191.995 122.947 192.133 123.187Z" fill="#E0A797"/>
<path fill-rule="evenodd" clip-rule="evenodd" d="M201.677 513.844C195.003 514.268 189.133 509.49 184.89 504.32C180.648 499.151 177.096 493.171 171.492 489.522C156.579 479.811 133.234 503.525 133.234 503.525L122.938 500.697C122.938 500.697 105.831 505.626 106.994 510.876C107.654 513.855 112.179 513.706 115.029 512.617C117.878 511.53 118.229 510.405 120.198 512.734C135.215 530.493 148.273 523.453 150.39 519.092C161.585 530.626 168.314 548.794 179.507 548.794C182.667 560.973 192.023 576.32 201.02 585.114C201.945 586.017 203.054 586.955 204.343 586.865C205.956 586.754 207.036 584.993 207.026 583.376C207.016 581.759 200.564 555.951 200.969 546.909C203.767 557.431 209.667 565.348 216.54 573.791C218.458 576.147 221.38 578.614 224.182 577.441C226.568 576.442 212.09 534.36 210.88 528.104C209.67 521.847 208.036 513.44 201.677 513.844Z" fill="#E1DCD4"/>
<path fill-rule="evenodd" clip-rule="evenodd" d="M155.033 490.079C149.848 475.129 153.918 457.381 165.097 446.183C161.077 439.624 149.041 443.703 149.387 455.045C148.214 453.6 148.496 451.476 148.232 449.668C147.952 447.75 146.067 444.64 143.729 446.121C142.764 446.732 142.264 447.856 141.907 448.941C140.125 454.348 140.629 460.488 142.946 465.659C141.419 462.251 136.91 464.156 136.228 467.113C135.813 468.912 136.44 470.824 137.494 472.338C138.549 473.852 139.997 475.039 141.427 476.205C138.532 473.844 137.464 479.039 138.268 480.823C140.763 486.35 145.301 491.109 150.116 494.707" fill="#E1DCD4"/>
<path fill-rule="evenodd" clip-rule="evenodd" d="M201.596 512.023C195.037 512.023 189.701 518.163 189.701 525.71C189.701 533.257 195.037 539.397 201.596 539.397C208.156 539.397 213.491 533.257 213.491 525.71C213.491 518.163 208.156 512.023 201.596 512.023ZM201.596 544.251C192.711 544.251 185.483 535.933 185.483 525.71C185.483 515.486 192.711 507.169 201.596 507.169C210.481 507.169 217.709 515.486 217.709 525.71C217.709 535.933 210.481 544.251 201.596 544.251Z" fill="#5B9274"/>
<path fill-rule="evenodd" clip-rule="evenodd" d="M241.001 511.534C240.974 511.411 240.957 511.34 240.957 511.34C240.957 511.34 240.286 506.45 239.133 503.789C238.089 503.876 234.813 504.061 231.122 504.272C232.499 508.549 236.644 510.571 241.001 511.534Z" fill="#353D59"/>
<path fill-rule="evenodd" clip-rule="evenodd" d="M231.122 504.272C226.653 504.528 221.578 504.823 219.112 505.03C218.559 500.098 211.876 501.084 211.876 501.084C211.876 501.084 209.034 490.751 207.995 490.705C205.856 490.609 202.442 502.213 202.442 502.213C202.442 502.213 200.403 492.758 198.229 493.345C196.056 493.933 191.952 502.843 193.81 513.19C194.09 514.749 192.443 517.816 192.361 519.624C192.266 521.727 192.695 523.825 193.322 525.853C195.805 533.886 204.567 534.524 205.748 529.759C202.753 533.733 209.277 535.576 214.268 534.181C215.154 539.247 222.303 540.998 221.224 533.326C222.994 541.447 230.257 535.847 229.967 532.059C229.822 538.922 237.808 533.923 237.108 527.481C236.577 529.309 240.793 534.182 241.611 531.288C243.737 523.775 241.348 513.07 241.001 511.534C236.643 510.571 232.499 508.548 231.122 504.272Z" fill="#E1DCD4"/>
<path fill-rule="evenodd" clip-rule="evenodd" d="M205.92 512.126C205.489 511.192 205.898 510.087 206.83 509.657C207.764 509.227 208.869 509.634 209.299 510.567C209.73 511.5 209.322 512.605 208.389 513.036C207.456 513.466 206.351 513.059 205.92 512.126Z" fill="#353D59"/>
<path fill-rule="evenodd" clip-rule="evenodd" d="M215.443 507.985C215.013 507.052 215.421 505.947 216.354 505.516C217.287 505.086 218.392 505.494 218.823 506.426C219.253 507.36 218.845 508.465 217.913 508.895C216.979 509.326 215.874 508.919 215.443 507.985Z" fill="#353D59"/>
<path fill-rule="evenodd" clip-rule="evenodd" d="M198.658 496.332C199.744 498.915 200.457 502.728 200.68 505.522L196.707 509.776C195.934 505.627 196.738 500.24 198.658 496.332Z" fill="#ED8E93"/>
<path fill-rule="evenodd" clip-rule="evenodd" d="M210.181 501.312L205.514 502.422C206.004 499.801 206.472 496.163 207.813 493.857C208.718 495.818 209.869 499.174 210.181 501.312Z" fill="#ED8E93"/>
<path fill-rule="evenodd" clip-rule="evenodd" d="M153.642 512.903C151.126 515.879 145.89 515.968 144.635 519.737C143.631 522.754 146.3 526.063 149.288 526.78C150.625 527.101 151.976 527.049 153.318 526.81C153.148 526.912 152.98 527.016 152.818 527.135C151.265 528.271 150.231 530.443 150.938 532.315C151.607 534.088 153.508 534.958 155.269 535.398C157.164 535.873 159.119 536.051 161.056 535.958C160.023 536.636 159.254 537.813 159.404 539.076C159.611 540.824 161.347 541.889 162.938 542.451C168.203 544.309 174.184 543.668 178.915 540.735L153.642 512.903Z" fill="#E1DCD4"/>
<path fill-rule="evenodd" clip-rule="evenodd" d="M208.414 548.5C208.414 545.488 205.973 543.047 202.961 543.047C199.949 543.047 197.508 545.488 197.508 548.5C197.508 551.512 199.949 553.953 202.961 553.953C205.973 553.953 208.414 551.512 208.414 548.5Z" fill="#F0A95C"/>
<path d="M150.307 493.823C152.645 491.862 155.804 490.919 158.836 491.279C159.11 491.311 159.306 491.56 159.273 491.834C159.241 492.108 158.992 492.304 158.718 492.272C155.96 491.945 153.076 492.805 150.95 494.589C150.739 494.767 150.423 494.739 150.246 494.528C150.068 494.316 150.096 494.001 150.307 493.823Z" fill="#C5BCB0"/>
<path d="M164.024 490.067C166.526 490.002 169.04 490.767 171.084 492.215C171.309 492.374 171.363 492.686 171.203 492.912C171.043 493.137 170.731 493.19 170.506 493.031C168.639 491.708 166.336 491.007 164.05 491.066C163.774 491.074 163.544 490.856 163.537 490.58C163.53 490.304 163.748 490.074 164.024 490.067Z" fill="#C5BCB0"/>
<path d="M160.569 494.048C162.059 493.749 163.637 493.925 165.021 494.546C165.273 494.659 165.386 494.955 165.273 495.207C165.16 495.459 164.864 495.572 164.612 495.459C163.418 494.923 162.052 494.77 160.766 495.029C160.496 495.083 160.232 494.908 160.178 494.637C160.123 494.366 160.298 494.103 160.569 494.048Z" fill="#C5BCB0"/>
<path d="M173.627 497.814C175.332 497.923 176.969 498.786 178.02 500.13C178.19 500.347 178.152 500.661 177.935 500.832C177.717 501.002 177.403 500.963 177.233 500.746C176.357 499.626 174.984 498.903 173.564 498.812C173.288 498.794 173.079 498.556 173.096 498.281C173.114 498.005 173.352 497.796 173.627 497.814Z" fill="#C5BCB0"/>
</svg>
