<svg width="297" height="310" viewBox="0 0 297 310" fill="none" xmlns="http://www.w3.org/2000/svg">
<path fill-rule="evenodd" clip-rule="evenodd" d="M296.167 302.558C296.167 298.614 230.63 295.418 149.784 295.418C68.9391 295.418 3.401 298.614 3.401 302.558C3.401 306.501 68.9391 309.698 149.784 309.698C230.63 309.698 296.167 306.501 296.167 302.558" fill="#BCE4F0"/>
<path fill-rule="evenodd" clip-rule="evenodd" d="M188.154 298.197L186.83 278.04L176.832 276.839L181.8 297.322L188.154 298.197Z" fill="#8F4F48"/>
<path fill-rule="evenodd" clip-rule="evenodd" d="M188.154 298.197L181.8 297.322C179.547 297.776 166.116 299.28 165.804 301.634C165.491 303.987 176.992 305.714 186.335 302.372C188.15 301.724 188.296 299.932 188.154 298.197" fill="#353D59"/>
<path fill-rule="evenodd" clip-rule="evenodd" d="M164.513 297.853L163.207 277.97L153.346 276.786L158.245 296.99L164.513 297.853Z" fill="#8F4F48"/>
<path fill-rule="evenodd" clip-rule="evenodd" d="M164.513 297.853L158.245 296.99C156.024 297.437 142.776 298.921 142.467 301.242C142.16 303.564 153.503 305.268 162.719 301.971C164.509 301.331 164.653 299.564 164.513 297.853" fill="#353D59"/>
<path fill-rule="evenodd" clip-rule="evenodd" d="M173.008 149.286L140.254 143.023C136.851 173.999 141.503 214.836 141.503 214.836L151.447 289.891L168.408 289.688C169.321 261.23 165.315 227.127 168.271 199.827C170.018 183.695 173.704 165.497 173.008 149.286" fill="#3B4772"/>
<path fill-rule="evenodd" clip-rule="evenodd" d="M199.565 145.876L159.946 146.443C159.582 187.835 172.158 233.641 174.192 289.789H191.495C195.155 245.058 191.45 212.701 191.45 212.701C191.45 212.701 196.838 171.769 199.565 145.876" fill="#3B4772"/>
<path fill-rule="evenodd" clip-rule="evenodd" d="M184.226 145.2C184.6 145.164 184.931 145.438 184.967 145.812C185.601 152.439 191.164 158.301 197.748 159.28C198.119 159.335 198.375 159.681 198.32 160.052C198.264 160.423 197.919 160.679 197.548 160.624C190.346 159.553 184.308 153.189 183.615 145.941C183.579 145.568 183.853 145.236 184.226 145.2Z" fill="#323863"/>
<path fill-rule="evenodd" clip-rule="evenodd" d="M161.214 157.649C161.589 157.652 161.89 157.959 161.887 158.334C161.737 175.377 164.375 199.535 168.207 220.959C168.274 221.328 168.028 221.681 167.658 221.747C167.289 221.813 166.936 221.568 166.87 221.198C163.024 199.698 160.378 175.463 160.529 158.322C160.532 157.947 160.839 157.646 161.214 157.649Z" fill="#323863"/>
<path fill-rule="evenodd" clip-rule="evenodd" d="M149.349 156.893C153.349 156.024 157.588 156.303 161.438 157.689C161.791 157.816 161.974 158.206 161.847 158.559C161.72 158.912 161.331 159.095 160.978 158.968C157.368 157.668 153.388 157.406 149.638 158.221C149.271 158.3 148.909 158.068 148.83 157.701C148.75 157.334 148.983 156.973 149.349 156.893Z" fill="#323863"/>
<path fill-rule="evenodd" clip-rule="evenodd" d="M212.006 77.2648C211.783 72.5071 211.55 67.6917 210.159 63.1371C208.769 58.5818 205.743 53.5021 201.625 51.1097C202.917 48.9006 202.289 45.9682 200.759 43.9167C199.228 41.866 192.535 37.164 188.047 35.4664C176.532 34.9868 150.149 45.2787 148.954 47.4728C147.412 50.3047 147.83 54.7194 150.367 56.709C144.943 58.1328 140.798 62.722 138.508 67.8411C136.219 72.9602 135.507 78.6221 134.821 84.1874C133.001 98.9531 131.182 113.719 129.362 128.484L110.659 133.864C110.659 133.864 119.542 141.558 125.65 143.725L136.636 141.474L159.946 146.443L160.337 149.679L176.644 146.066C176.644 146.066 194.259 147.559 199.565 145.877C203.902 144.501 202.802 138.068 202.802 138.068C208.438 135.7 212.444 133.182 212.954 130.71C215.736 113.461 212.82 94.6634 212.006 77.2648" fill="#4C7BB1"/>
<path fill-rule="evenodd" clip-rule="evenodd" d="M156.422 138.624C156.422 138.624 153.277 132.146 151.981 132.382C150.686 132.617 143.339 135.391 143.871 135.947C144.404 136.503 147.886 137.939 151.018 136.596L152.534 140.509L144.993 145.104L136.485 144.17C136.485 144.17 136.981 146.754 139.691 147.461C142.401 148.168 148.843 151.361 159.938 148.057L156.422 138.624Z" fill="#8F4F48"/>
<path fill-rule="evenodd" clip-rule="evenodd" d="M193.967 84.1448C194.342 84.1596 194.634 84.4755 194.619 84.8503C194.421 89.8605 194.439 95.0459 194.639 101.064L194.753 104.163C194.848 106.521 194.969 108.986 195.183 113.135L195.481 118.916L158.379 138.339L160.849 148.889L162.171 148.632C175.612 145.989 191.962 141.796 202.048 137.645L202.539 137.441C202.885 137.296 203.283 137.458 203.428 137.804C203.574 138.15 203.411 138.548 203.065 138.694C192.59 143.093 175.094 147.54 161.116 150.221L159.824 150.467L156.816 137.623L194.079 118.116L193.531 107.301C193.437 105.302 193.372 103.711 193.308 101.902L193.256 100.324C193.079 94.6066 193.071 89.6236 193.261 84.7968C193.276 84.422 193.592 84.1301 193.967 84.1448Z" fill="#386795"/>
<path fill-rule="evenodd" clip-rule="evenodd" d="M143.652 70.4069C143.751 70.0451 144.125 69.8325 144.487 69.9319C144.848 70.0314 145.061 70.4053 144.962 70.767L144.72 71.6608C142.41 80.3633 141.599 88.0719 140.952 103.545L140.641 111.447C140.047 125.742 139.308 133.153 137.296 141.631C137.21 141.996 136.844 142.222 136.479 142.135C136.114 142.049 135.888 141.683 135.975 141.318L136.19 140.391C138.108 131.981 138.785 124.319 139.371 109.221L139.573 104.005C140.25 87.5485 141.093 79.7135 143.652 70.4069Z" fill="#386795"/>
<path fill-rule="evenodd" clip-rule="evenodd" d="M187.766 53.2118C193.022 49.9472 197.285 48.5642 201.445 49.5501C201.81 49.6366 202.036 50.0026 201.949 50.3677C201.863 50.7327 201.497 50.9585 201.132 50.872C197.416 49.9915 193.458 51.2755 188.483 54.3659L186.13 55.8471C181.492 58.7439 178.928 59.905 175.591 60.214C175.217 60.2486 174.886 59.9738 174.852 59.6002C174.817 59.2267 175.092 58.8958 175.465 58.8612C178.601 58.571 181.066 57.4273 185.734 54.4915L187.275 53.5188C187.449 53.4096 187.609 53.3092 187.766 53.2118Z" fill="#386795"/>
<path fill-rule="evenodd" clip-rule="evenodd" d="M149.962 56.4233C150.083 56.0682 150.469 55.8786 150.825 55.9997L156.053 57.7828C156.408 57.9039 156.598 58.29 156.477 58.645C156.355 59.0001 155.969 59.1898 155.614 59.0686L150.386 57.2855C150.031 57.1644 149.841 56.7784 149.962 56.4233Z" fill="#386795"/>
<path fill-rule="evenodd" clip-rule="evenodd" d="M122.91 134.238C122.91 134.238 117.857 127.5 117.109 127.5C116.359 127.5 110.301 132.375 110.301 132.375C110.301 132.375 105.314 136.343 105.127 138.013C104.94 139.684 112.359 144.918 113.553 145.104C114.745 145.291 124.033 145.104 124.033 145.104L125.905 142.473L114.898 135.405L117.296 132.375C117.296 132.375 119.542 135.548 122.91 134.238" fill="#8F4F48"/>
<path fill-rule="evenodd" clip-rule="evenodd" d="M161.985 47.5054C164.999 51.5418 170.407 52.4962 175.886 52.1096C179.659 48.3872 183.328 44.4745 187.944 41.9815C182.953 41.2744 169.757 44.988 161.985 47.5054" fill="#8F4F48"/>
<path fill-rule="evenodd" clip-rule="evenodd" d="M161.985 47.5054C158.452 48.65 156.039 49.5473 156.027 49.6703C155.993 50.0119 161.999 57.1818 164.518 60.5938C168.925 58.7394 172.448 55.5026 175.886 52.1096C170.407 52.4961 164.999 51.5417 161.985 47.5054" fill="#ED8E93"/>
<path fill-rule="evenodd" clip-rule="evenodd" d="M177.793 25.9561L178.795 46.7714L167.08 48.6422L167.736 39.6879C164.401 41.1843 160.373 38.6465 158.926 35.2888C157.479 31.9318 157.896 28.102 158.338 24.4726C158.791 20.7643 159.372 16.7756 161.967 14.0877C165.152 10.7891 170.498 11.2598 174.499 13.5001C181.554 17.4494 177.793 25.9561 177.793 25.9561" fill="#8F4F48"/>
<path fill-rule="evenodd" clip-rule="evenodd" d="M179.338 15.3894C180.874 14.3922 181.456 12.2579 180.867 10.5251C180.276 8.79221 178.677 7.50972 176.908 7.04509C175.137 6.57978 173.644 6.39433 171.952 7.09264C171.815 3.47205 168.634 0.22507 165.018 0.0110949C161.402 -0.200842 157.862 2.6508 157.301 6.22995C156.739 9.8091 159.236 13.6077 162.745 14.5111C166.259 15.4166 169.94 13.588 173.481 14.3793C172.206 15.8955 171.51 17.8865 171.562 19.8666C171.613 21.8474 172.412 23.799 173.764 25.2472C174.744 26.2967 177.152 27.3061 177.152 27.3061L179.884 26.8428C183.176 21.0676 180.871 16.2263 179.338 15.3894" fill="#A97B73"/>
<path fill-rule="evenodd" clip-rule="evenodd" d="M181.49 25.5508C180.238 24.6548 177.562 25.9183 177.152 27.3061L177.692 31.822C179.425 32.1596 181.329 31.267 182.177 29.7189C182.917 28.3678 182.742 26.4468 181.49 25.5508" fill="#8F4F48"/>
<path fill-rule="evenodd" clip-rule="evenodd" d="M159.148 21.7832L158.989 21.7795C157.066 21.7795 155.494 23.3518 155.494 25.2745C155.494 27.197 157.066 28.7687 158.989 28.7687C160.911 28.7687 162.483 27.1969 162.483 25.2745C162.483 23.4113 161.004 21.8675 159.148 21.7832ZM158.849 22.4623L158.985 22.4585L159.125 22.462C160.61 22.5297 161.804 23.7749 161.804 25.2745C161.804 26.8218 160.536 28.0894 158.989 28.0894C157.441 28.0894 156.173 26.8219 156.173 25.2745C156.173 23.7738 157.365 22.536 158.849 22.4623Z" fill="#353D59"/>
<path fill-rule="evenodd" clip-rule="evenodd" d="M168.117 21.7832L167.958 21.7795C166.035 21.7795 164.463 23.3518 164.463 25.2745C164.463 27.197 166.035 28.7687 167.958 28.7687C169.881 28.7687 171.452 27.197 171.452 25.2745C171.452 23.4112 169.973 21.8675 168.117 21.7832ZM167.818 22.4623L167.953 22.4585L168.094 22.462C169.58 22.5297 170.773 23.7749 170.773 25.2745C170.773 26.8219 169.505 28.0894 167.958 28.0894C166.41 28.0894 165.142 26.8219 165.142 25.2745C165.142 23.7738 166.334 22.536 167.818 22.4623Z" fill="#353D59"/>
<path fill-rule="evenodd" clip-rule="evenodd" d="M165.047 23.9722V24.6515H161.84V23.9722H165.047Z" fill="#353D59"/>
<path fill-rule="evenodd" clip-rule="evenodd" d="M170.84 23.7231L170.901 23.7316L178.871 25.5874C179.054 25.6299 179.167 25.8125 179.125 25.9952C179.087 26.1576 178.939 26.2654 178.778 26.2575L178.717 26.249L170.747 24.3932C170.564 24.3506 170.451 24.168 170.493 23.9854C170.531 23.823 170.679 23.7151 170.84 23.7231Z" fill="#353D59"/>
<path fill-rule="evenodd" clip-rule="evenodd" d="M171.298 38.4328C171.367 38.6072 171.282 38.8046 171.108 38.8737L167.473 40.3152C167.298 40.3843 167.101 40.299 167.032 40.1246C166.963 39.9502 167.048 39.7528 167.223 39.6837L170.857 38.2423C171.032 38.1731 171.229 38.2584 171.298 38.4328Z" fill="#753730"/>
<path fill-rule="evenodd" clip-rule="evenodd" d="M180.408 26.8633C180.535 27.0006 180.527 27.2155 180.39 27.3433L178.866 28.7583L180.138 28.9663C180.323 28.9966 180.449 29.1713 180.419 29.3564C180.388 29.5415 180.214 29.667 180.029 29.6367L177.389 29.2041L179.928 26.8458C180.065 26.7181 180.28 26.7259 180.408 26.8633Z" fill="#753730"/>
<path fill-rule="evenodd" clip-rule="evenodd" d="M162.72 25.1166C162.903 25.1581 163.018 25.34 162.977 25.523L162.038 29.6547L163.73 30.2795L163.786 30.3058C163.924 30.3876 163.989 30.5593 163.931 30.7157C163.874 30.8722 163.713 30.9607 163.554 30.9329L163.495 30.9169L161.243 30.0854L162.314 25.3728C162.351 25.2102 162.499 25.1015 162.66 25.1085L162.72 25.1166Z" fill="#753730"/>
<path fill-rule="evenodd" clip-rule="evenodd" d="M161.989 34.2061C162.047 34.0277 162.239 33.9302 162.417 33.9882C163.409 34.3108 164.499 34.3281 165.5 34.0373C165.68 33.985 165.868 34.0886 165.921 34.2687C165.973 34.4489 165.87 34.6373 165.689 34.6896C164.557 35.0184 163.328 34.9989 162.207 34.6341C162.029 34.5761 161.931 34.3844 161.989 34.2061Z" fill="#753730"/>
<path fill-rule="evenodd" clip-rule="evenodd" d="M157.693 19.746C159.067 19.268 160.676 19.5632 161.791 20.498C161.935 20.6185 161.954 20.8327 161.833 20.9765C161.713 21.1203 161.498 21.1391 161.355 21.0186C160.422 20.2374 159.064 19.9881 157.916 20.3876C157.739 20.4492 157.545 20.3556 157.483 20.1784C157.422 20.0012 157.515 19.8077 157.693 19.746Z" fill="#A97B73"/>
<path fill-rule="evenodd" clip-rule="evenodd" d="M165.555 20.3782C166.624 19.5653 168.119 19.3638 169.366 19.8647C169.54 19.9347 169.624 20.1325 169.554 20.3065C169.484 20.4806 169.287 20.565 169.112 20.495C168.088 20.0832 166.845 20.2507 165.966 20.919C165.817 21.0325 165.604 21.0035 165.49 20.8541C165.377 20.7048 165.406 20.4917 165.555 20.3782Z" fill="#A97B73"/>
<path fill-rule="evenodd" clip-rule="evenodd" d="M166.164 25.9169C166.226 25.4231 166.675 25.0732 167.168 25.1344C167.661 25.1948 168.011 25.6438 167.951 26.137C167.89 26.6302 167.441 26.9807 166.947 26.9202C166.455 26.8591 166.104 26.4101 166.164 25.9169" fill="#353D59"/>
<path fill-rule="evenodd" clip-rule="evenodd" d="M158.269 25.6994C158.33 25.2055 158.779 24.8557 159.272 24.9168C159.765 24.9773 160.115 25.4263 160.055 25.9195C159.994 26.4126 159.545 26.7631 159.051 26.7027C158.559 26.6416 158.208 26.1925 158.269 25.6994" fill="#353D59"/>
<path fill-rule="evenodd" clip-rule="evenodd" d="M230.182 249.631C229.743 246.06 225.654 243.803 222.09 244.294C218.527 244.785 215.563 247.299 213.29 250.088C209.11 255.216 206.554 261.646 206.071 268.244C210.403 266.376 214.853 264.836 219.185 262.967C222.05 261.731 224.983 260.452 227.231 258.287C229.48 256.123 230.562 252.729 230.182 249.631" fill="#5B9274"/>
<path fill-rule="evenodd" clip-rule="evenodd" d="M207.985 212.701C207.105 219.436 209.038 226.495 213.229 231.841C219.211 239.473 228.867 243.049 238.014 246.271C240.485 241.125 239.909 234.224 236.628 229.553C233.247 224.743 227.588 222.17 222.202 219.815C217.389 217.709 212.798 214.806 207.985 212.701" fill="#5B9274"/>
<path fill-rule="evenodd" clip-rule="evenodd" d="M244.799 233.675C241.053 226.301 237.209 218.489 237.643 210.228C237.974 203.934 240.833 197.953 244.834 193.081C248.834 188.209 253.931 184.352 259.234 180.944C262.634 190.044 263.009 200.453 260.531 209.845C258.052 219.238 252.245 227.437 244.799 233.675" fill="#5B9274"/>
<path fill-rule="evenodd" clip-rule="evenodd" d="M256.756 232.36C260.943 226.914 273.502 218.267 273.502 218.267C273.502 218.267 274.75 228.953 269.805 238.404C266.392 246.057 255.558 252.518 255.558 252.518C255.558 252.518 249.51 241.783 256.756 232.36" fill="#5B9274"/>
<path fill-rule="evenodd" clip-rule="evenodd" d="M221.767 249.183C225.105 247.615 228.905 247.752 231.448 249.846C237.397 254.747 240.787 268.056 240.295 278.732C240.278 279.107 239.96 279.397 239.586 279.38C239.211 279.362 238.921 279.045 238.938 278.67C239.412 268.38 236.12 255.455 230.584 250.895C228.488 249.168 225.243 249.051 222.345 250.413L222.005 250.578C219.88 251.641 218.24 253.095 215.139 256.333C214.88 256.604 214.45 256.613 214.179 256.353C213.908 256.094 213.898 255.664 214.158 255.393L214.891 254.632C217.801 251.641 219.455 250.271 221.767 249.183Z" fill="#437858"/>
<path fill-rule="evenodd" clip-rule="evenodd" d="M215.329 223.182C215.621 222.948 216.049 222.995 216.283 223.288L216.383 223.409C217.165 224.333 219.34 226.441 222.748 229.615L231.718 237.901C231.955 238.123 232.133 238.29 232.233 238.386L232.271 238.422C242.993 248.877 248.285 265.147 245.905 280.327C245.846 280.697 245.499 280.951 245.128 280.893C244.758 280.834 244.504 280.487 244.562 280.116C246.852 265.515 241.829 249.857 231.633 239.701L231.322 239.395C231.172 239.249 230.699 238.807 230.053 238.208L223.064 231.762C218.688 227.709 216.045 225.164 215.223 224.137C214.989 223.844 215.036 223.417 215.329 223.182Z" fill="#437858"/>
<path fill-rule="evenodd" clip-rule="evenodd" d="M247.289 201.836C247.443 201.494 247.845 201.341 248.187 201.495C248.529 201.649 248.682 202.051 248.528 202.393C244.079 212.285 244.186 223.28 247.422 240.167L248.878 247.616C249.694 251.872 250.156 254.586 250.558 257.594L250.591 257.846C251.713 266.353 251.637 273.401 250.04 280.013C249.952 280.378 249.585 280.602 249.22 280.514C248.855 280.426 248.631 280.059 248.719 279.695C250.235 273.42 250.341 266.706 249.321 258.617L249.144 257.28C248.694 253.998 248.148 250.941 247.104 245.608L246.195 240.978L245.981 239.86C242.801 223.034 242.743 211.942 247.289 201.836Z" fill="#437858"/>
<path fill-rule="evenodd" clip-rule="evenodd" d="M266.518 228.155C266.839 227.962 267.257 228.066 267.45 228.388C267.643 228.709 267.539 229.127 267.217 229.32C260.618 233.285 256.943 241.912 256.236 252.562L256.203 253.092C256.081 255.121 256.038 257.161 256.036 260.076L256.043 264.275C256.038 271.997 255.789 275.74 254.775 280.272C254.693 280.638 254.33 280.869 253.964 280.787C253.598 280.705 253.367 280.342 253.449 279.976L253.556 279.489C254.488 275.127 254.696 271.325 254.684 263.394L254.677 260.07C254.68 257.004 254.727 254.892 254.863 252.741L254.88 252.472C255.614 241.423 259.46 232.396 266.518 228.155Z" fill="#437858"/>
<path fill-rule="evenodd" clip-rule="evenodd" d="M229.627 271.71L233.741 302.558H260.738L264.851 271.71H229.627Z" fill="#ED8E93"/>
<path fill-rule="evenodd" clip-rule="evenodd" d="M232.776 295.322L233.741 302.557H260.738L261.703 295.322H232.776Z" fill="#D76D75"/>
<path fill-rule="evenodd" clip-rule="evenodd" d="M34.2957 180.06H21.3444C10.0629 180.06 0.832764 189.29 0.832764 200.571C0.832764 211.852 10.0629 221.082 21.3444 221.082H34.2957C45.5766 221.082 54.8067 211.852 54.8067 200.571C54.8067 189.29 45.5766 180.06 34.2957 180.06" fill="#BCE4F0"/>
<path fill-rule="evenodd" clip-rule="evenodd" d="M33.4088 217.822L47.0631 227.752L46.6854 213.577L33.4088 217.822Z" fill="#BCE4F0"/>
<path fill-rule="evenodd" clip-rule="evenodd" d="M37.8838 197.377C37.8838 194.809 35.7828 192.708 33.2151 192.708H32.1731C30.1936 192.708 28.4961 193.959 27.8202 195.708C27.1436 193.959 25.4461 192.708 23.4667 192.708H22.4246C19.8569 192.708 17.7559 194.809 17.7559 197.377V198.419C17.7559 199.556 18.1689 200.6 18.8502 201.411L18.8496 201.412L27.5043 210.907L36.3242 201.887C36.4892 201.739 36.6461 201.581 36.7895 201.412C37.4708 200.6 37.8838 199.556 37.8838 198.419V197.377Z" fill="#ED8E93"/>
<path fill-rule="evenodd" clip-rule="evenodd" d="M60.7648 259.841C54.8802 262.147 50.9138 262.621 44.7683 261.608C42.668 264.429 42.7679 268.289 42.2781 270.495C41.7 273.1 38.2791 273.923 36.2372 275.641C33.4093 278.02 26.9059 284.134 31.4347 296.364C43.765 301.484 49.7563 301.484 49.7563 301.484C49.7563 301.484 53.6221 298.99 45.4619 295.913C49.5709 294.032 50.1931 289.622 50.1931 289.622C50.5769 291.797 52.3322 295.186 53.6221 298.99C53.9129 299.845 54.4855 300.625 55.2443 301.115C56.0024 301.605 57.1191 301.648 57.7339 300.987C58.4097 300.26 58.2066 299.113 58.0056 298.141C57.0451 293.508 55.9392 288.316 58.2698 284.197C59.7778 281.533 61.4808 281.769 62.6132 279.136C63.1179 277.964 63.5852 274.172 63.7414 272.817C64.168 269.111 61.9726 263.407 60.7648 259.841Z" fill="#E1DCD4"/>
<path fill-rule="evenodd" clip-rule="evenodd" d="M61.4229 261.592C61.8135 260.235 61.4229 257.336 60.4801 256.186H43.7955C43.2643 257.358 43.123 260.762 43.108 262.068C49.2535 263.081 54.8746 263.077 61.4229 261.592Z" fill="#5B9274"/>
<path fill-rule="evenodd" clip-rule="evenodd" d="M36.948 245.31C35.4957 245.547 34.0516 245.786 32.6488 246.042C32.3907 247.811 32.261 249.596 32.2318 251.383C34.9305 250.756 36.7714 248.191 36.948 245.31Z" fill="#353D59"/>
<path fill-rule="evenodd" clip-rule="evenodd" d="M60.5724 244.901C60.0134 238.448 56.1394 233.807 54.7523 233.807C53.3645 233.807 53.6722 239.76 53.6722 239.76C53.6722 239.76 49.7752 233.407 48.5178 233.807C47.9078 234.002 47.8793 240.606 47.8793 240.606C47.8793 240.606 46.247 240.689 45.7375 241.293C45.2281 241.898 45.0773 243.183 45.3992 243.905C42.6604 244.404 39.7836 244.849 36.9483 245.31C36.7716 248.191 34.9308 250.756 32.2313 251.383C32.1668 255.324 32.3753 257.383 33.4078 261.187C33.5566 261.735 35.6019 261.909 35.4742 258.198C35.6318 262.225 40.003 263.951 40.4588 259.772C40.539 263.548 44.2499 263.644 44.2363 259.841C44.2689 263.446 48.2509 261.784 48.1639 257.527C52.0861 257.679 56.9213 257.54 60.7117 256.523C63.7956 253.844 63.6577 249.061 60.5724 244.901Z" fill="#E1DCD4"/>
<path fill-rule="evenodd" clip-rule="evenodd" d="M53.2463 245.681C53.2748 245.049 52.7844 244.513 52.1526 244.485C51.5195 244.457 50.9843 244.947 50.9557 245.58C50.9279 246.212 51.4176 246.747 52.05 246.775C52.6825 246.804 53.2184 246.314 53.2463 245.681Z" fill="#353D59"/>
<path fill-rule="evenodd" clip-rule="evenodd" d="M54.977 235.654C54.7467 237.365 54.9355 239.746 55.2521 241.445L58.3 243.336C58.0922 240.743 56.7472 237.67 54.977 235.654Z" fill="#ED8E93"/>
<path fill-rule="evenodd" clip-rule="evenodd" d="M48.9237 240.468L51.8786 240.379C51.1654 238.898 50.3013 236.809 49.1336 235.653C48.9101 236.965 48.7661 239.147 48.9237 240.468Z" fill="#ED8E93"/>
<path d="M47.5419 279.633C47.6923 279.521 47.9051 279.552 48.0171 279.703C49.7549 282.037 50.7485 284.763 50.7533 287.444C50.7583 290.341 49.5563 293.15 47.4693 294.921C45.2585 296.799 42.0735 297.385 39.5039 296.313C39.3308 296.241 39.249 296.042 39.3213 295.869C39.3935 295.696 39.5924 295.614 39.7655 295.686C42.0923 296.657 45.0082 296.12 47.0297 294.403C48.9587 292.767 50.0787 290.149 50.074 287.445C50.0695 284.918 49.1267 282.331 47.4723 280.108C47.3602 279.958 47.3914 279.745 47.5419 279.633Z" fill="#C5BCB0"/>
<path fill-rule="evenodd" clip-rule="evenodd" d="M24.1723 285.816C21.6923 282.957 19.7359 279.69 17.5758 276.581C16.6622 275.266 15.415 273.833 13.82 273.971C12.0709 274.122 11.054 276.235 11.3943 277.959C11.6531 279.265 12.4391 280.371 13.3282 281.388C12.8066 281.161 12.1612 281.159 11.6681 281.458C10.7802 281.993 10.4325 283.166 10.6186 284.186C10.8047 285.206 11.4256 286.092 12.1144 286.867C13.5551 288.489 15.3994 289.789 17.4787 290.398C16.5161 290.188 15.5509 291.348 15.7207 292.375C15.9021 293.475 16.8863 294.261 17.8856 294.755C19.5084 295.559 21.3635 295.868 23.1636 295.67C23.076 295.792 23.0128 295.931 22.9999 296.082C22.9435 296.76 23.5454 297.351 24.2036 297.525C24.8611 297.698 25.556 297.559 26.2224 297.419C28.3948 296.962 30.5671 296.506 32.7395 296.049L33.4079 292.132C29.7513 291.152 26.6524 288.676 24.1723 285.816Z" fill="#E1DCD4"/>
<path fill-rule="evenodd" clip-rule="evenodd" d="M56.8961 283.173C57.4945 288.004 58.7627 292.752 60.6518 297.238C61.0003 298.064 61.3984 298.919 62.1164 299.457C62.8344 299.995 63.9681 300.084 64.5645 299.414C65.1731 298.731 64.9612 297.677 64.7255 296.794C62.7345 289.333 61.4228 280.662 62.1211 273.937" fill="#E1DCD4"/>
<path d="M61.2363 261.308C61.393 261.205 61.6036 261.248 61.7067 261.405C64.3458 265.417 64.9676 275.965 62.6125 279.861L62.5 280.039L62.1492 280.567L61.578 279.205L61.5669 279.391C61.4523 280.938 61.0098 282.46 60.2678 283.823L60.1251 284.077L59.9053 284.455L59.5932 284.148C59.1954 283.757 58.9127 283.257 58.7683 282.719L58.7576 282.677L58.6513 282.881C57.4463 285.206 57.1506 286.405 57.2743 288.473L57.288 288.683C57.3013 288.87 57.1604 289.032 56.9733 289.046C56.7862 289.059 56.6237 288.918 56.6104 288.731C56.423 286.091 56.8295 284.772 58.5836 281.567L59.6969 279.55L59.3696 281.507C59.2727 282.087 59.4009 282.701 59.7066 283.204L59.7725 283.306L59.7985 283.257C60.665 281.556 61.0457 279.609 60.8794 277.708L60.8519 277.437L60.5775 275.057L62.2627 279.082L62.3424 278.914C64.1477 274.92 63.5381 265.711 61.2586 261.967L61.1392 261.778C61.0361 261.622 61.0796 261.411 61.2363 261.308Z" fill="#C5BCB0"/>
<path fill-rule="evenodd" clip-rule="evenodd" d="M56.6188 264.848C56.6188 263.369 55.4198 262.17 53.9417 262.17C52.4622 262.17 51.2633 263.369 51.2633 264.848C51.2633 266.327 52.4622 267.525 53.9417 267.525C55.4198 267.525 56.6188 266.327 56.6188 264.848Z" fill="#F0A95C"/>
<path fill-rule="evenodd" clip-rule="evenodd" d="M126.303 92.498C119.216 92.498 113.593 100.737 113.593 110.803C113.593 120.87 119.216 129.109 126.303 129.109C133.389 129.109 139.013 120.87 139.013 110.803C139.013 100.737 133.389 92.498 126.303 92.498ZM126.303 93.8566C132.504 93.8566 137.654 101.401 137.654 110.803C137.654 120.206 132.504 127.75 126.303 127.75C120.101 127.75 114.951 120.206 114.951 110.803C114.951 101.401 120.101 93.8566 126.303 93.8566Z" fill="#3B4772"/>
<path fill-rule="evenodd" clip-rule="evenodd" d="M135.561 92.498C128.474 92.498 122.851 100.736 122.851 110.803C122.851 120.871 128.474 129.109 135.561 129.109C142.648 129.109 148.271 120.87 148.271 110.803C148.271 100.737 142.648 92.498 135.561 92.498ZM135.561 93.8566C141.763 93.8566 146.913 101.401 146.913 110.803C146.913 120.206 141.763 127.75 135.561 127.75C129.359 127.75 124.21 120.206 124.21 110.803C124.21 101.401 129.359 93.8566 135.561 93.8566Z" fill="#3B4772"/>
<path fill-rule="evenodd" clip-rule="evenodd" d="M107.41 110.344H153.875L158.7 145.429H103.632L107.41 110.344Z" fill="#F6C561"/>
<path fill-rule="evenodd" clip-rule="evenodd" d="M153.875 110.344H140.898L138.764 145.429H158.7L153.875 110.344Z" fill="#F0A95C"/>
<path fill-rule="evenodd" clip-rule="evenodd" d="M138.57 145.151L148.732 138.094L158.893 145.151L158.506 145.709L148.731 138.921L138.958 145.709L138.57 145.151Z" fill="#F6C561"/>
<path fill-rule="evenodd" clip-rule="evenodd" d="M147.931 110.79L149.071 138.493L148.392 138.521L147.253 110.817L147.931 110.79Z" fill="#F6C561"/>
</svg>
